<svg width="32" height="32" viewBox="0 0 32 32" fill="none" xmlns="http://www.w3.org/2000/svg">
<path d="M9.40034 9.26631C9.66069 9.00596 10.0828 9.00596 10.3431 9.26631L22.5997 21.5228C22.86 21.7832 22.86 22.2053 22.5997 22.4656C22.3393 22.726 21.9172 22.726 21.6569 22.4656L9.40034 10.2091C9.13999 9.94877 9.13999 9.52666 9.40034 9.26631Z" fill="#1B1B1B"/>
<path d="M22.5997 9.26631C22.86 9.52666 22.86 9.94877 22.5997 10.2091L10.3431 22.4656C10.0828 22.726 9.66069 22.726 9.40034 22.4656C9.13999 22.2053 9.13999 21.7832 9.40034 21.5228L21.6569 9.26631C21.9172 9.00596 22.3393 9.00596 22.5997 9.26631Z" fill="#1B1B1B"/>
</svg>
