<svg width="24" height="24" viewBox="0 0 24 24" fill="none" xmlns="http://www.w3.org/2000/svg">
<rect x="0.5" y="0.5" width="23" height="23" rx="5.5" stroke="#EEEEEE"/>
<path d="M16.7653 9.64052L10.7653 15.6405C10.7304 15.6754 10.6891 15.703 10.6436 15.7219C10.598 15.7408 10.5492 15.7505 10.5 15.7505C10.4507 15.7505 10.4019 15.7408 10.3564 15.7219C10.3108 15.703 10.2695 15.6754 10.2347 15.6405L7.60965 13.0155C7.53929 12.9452 7.49976 12.8497 7.49976 12.7502C7.49976 12.6507 7.53929 12.5553 7.60965 12.4849C7.68002 12.4145 7.77545 12.375 7.87496 12.375C7.97448 12.375 8.06991 12.4145 8.14028 12.4849L10.5 14.8451L16.2347 9.1099C16.305 9.03953 16.4005 9 16.5 9C16.5995 9 16.6949 9.03953 16.7653 9.1099C16.8356 9.18026 16.8752 9.2757 16.8752 9.37521C16.8752 9.47472 16.8356 9.57016 16.7653 9.64052Z" fill="#1B1B1B"/>
</svg>
