<svg width="22" height="20" viewBox="0 0 22 20" fill="none" xmlns="http://www.w3.org/2000/svg">
<rect width="5.85349" height="2.92675" fill="url(#paint0_linear_11551_14406)"/>
<rect x="6.8291" width="12.1948" height="2.92675" fill="url(#paint1_linear_11551_14406)"/>
<rect y="17.0728" width="12.1948" height="2.92675" fill="url(#paint2_linear_11551_14406)"/>
<rect x="13.1703" y="17.0728" width="5.85349" height="2.92675" fill="url(#paint3_linear_11551_14406)"/>
<path d="M21.4995 6.3418H21.9995V13.6582H21.4995V19.999H20.9995V13.6582H20.4995V6.3418H20.9995V0H21.4995V6.3418Z" fill="#072A54"/>
<rect width="19.4995" height="12.1948" transform="translate(0 3.90283)" fill="#042B55"/>
<path d="M4.51089 13.1893C4.10732 13.1893 3.70375 13.1396 3.30019 13.0401C2.90215 12.9406 2.55387 12.7996 2.25534 12.6172L2.8524 11.3816C3.08459 11.5364 3.34165 11.6552 3.62359 11.7382C3.91107 11.8211 4.19024 11.8625 4.46113 11.8625C4.74307 11.8625 4.96697 11.81 5.13282 11.705C5.29867 11.6 5.38159 11.4507 5.38159 11.2572C5.38159 11.0858 5.31249 10.9504 5.17428 10.8509C5.03607 10.7458 4.80941 10.6933 4.4943 10.6933H3.80603V9.65675L5.36501 7.97339L5.52256 8.53727H2.55387V7.26853H6.74985V8.29679L5.19087 9.98016L4.3865 9.52408H4.83429C5.5585 9.52408 6.1058 9.68716 6.4762 10.0133C6.85212 10.334 7.04008 10.7486 7.04008 11.2572C7.04008 11.5889 6.94886 11.9012 6.76643 12.1942C6.58953 12.4872 6.31587 12.7277 5.94548 12.9157C5.57508 13.0981 5.09689 13.1893 4.51089 13.1893ZM10.2537 13.1893C9.71195 13.1893 9.23929 13.0815 8.83572 12.8659C8.43768 12.6503 8.12533 12.3297 7.89867 11.904C7.67754 11.4783 7.56698 10.9531 7.56698 10.3284C7.56698 9.65399 7.69689 9.08181 7.95672 8.61191C8.22208 8.13647 8.58418 7.77437 9.04303 7.5256C9.50741 7.27682 10.0437 7.15244 10.6518 7.15244C10.9779 7.15244 11.2903 7.19113 11.5888 7.26853C11.8929 7.3404 12.1499 7.44267 12.36 7.57535L11.763 8.75288C11.5971 8.63678 11.423 8.55939 11.2405 8.52069C11.0636 8.47646 10.8812 8.45435 10.6932 8.45435C10.2454 8.45435 9.8861 8.58979 9.61521 8.86068C9.34985 9.13157 9.21717 9.52684 9.21717 10.0465C9.21717 10.1405 9.21717 10.24 9.21717 10.345C9.2227 10.4445 9.23376 10.5468 9.25034 10.6518L8.83572 10.3119C8.94629 10.1073 9.07896 9.93593 9.23376 9.79773C9.39408 9.65952 9.58204 9.55448 9.79764 9.48261C10.0188 9.41075 10.2648 9.37481 10.5357 9.37481C10.9005 9.37481 11.2322 9.45221 11.5308 9.607C11.8348 9.75626 12.0781 9.9691 12.2605 10.2455C12.4429 10.5164 12.5342 10.837 12.5342 11.2074C12.5342 11.611 12.4319 11.9621 12.2273 12.2606C12.0228 12.5536 11.7491 12.783 11.4064 12.9489C11.0636 13.1092 10.6794 13.1893 10.2537 13.1893ZM10.1542 12.0201C10.309 12.0201 10.4445 11.9897 10.5605 11.9289C10.6822 11.8681 10.7762 11.7824 10.8425 11.6718C10.9088 11.5613 10.942 11.4313 10.942 11.2821C10.942 11.0609 10.8674 10.884 10.7181 10.7514C10.5744 10.6187 10.3836 10.5523 10.1459 10.5523C9.98561 10.5523 9.84463 10.5827 9.72301 10.6436C9.60692 10.7044 9.51294 10.7901 9.44107 10.9006C9.37473 11.0112 9.34156 11.1411 9.34156 11.2904C9.34156 11.4341 9.37473 11.5613 9.44107 11.6718C9.50741 11.7769 9.60139 11.8625 9.72301 11.9289C9.84463 11.9897 9.98837 12.0201 10.1542 12.0201ZM14.9839 13.1893C14.5858 13.1893 14.185 13.1396 13.7815 13.0401C13.3779 12.9406 13.0296 12.7996 12.7366 12.6172L13.3254 11.3816C13.5631 11.5364 13.8201 11.6552 14.0966 11.7382C14.3785 11.8211 14.6577 11.8625 14.9341 11.8625C15.2105 11.8625 15.4344 11.81 15.6058 11.705C15.7772 11.5944 15.8629 11.4424 15.8629 11.2489C15.8629 11.1328 15.8297 11.0305 15.7633 10.9421C15.697 10.8481 15.5837 10.779 15.4234 10.7348C15.263 10.685 15.0336 10.6601 14.7351 10.6601H13.1595L13.4498 7.26853H17.1482V8.53727H14.0302L14.8678 7.81583L14.677 10.1045L13.8395 9.3831H15.1248C15.6998 9.3831 16.1614 9.46603 16.5097 9.63188C16.8579 9.7922 17.1122 10.0106 17.2726 10.287C17.4329 10.5579 17.5131 10.8647 17.5131 11.2074C17.5131 11.5502 17.4218 11.8736 17.2394 12.1777C17.0625 12.4762 16.7888 12.7194 16.4184 12.9074C16.0481 13.0954 15.5699 13.1893 14.9839 13.1893Z" fill="white"/>
<defs>
<linearGradient id="paint0_linear_11551_14406" x1="0" y1="1.46337" x2="5.85349" y2="1.46337" gradientUnits="userSpaceOnUse">
<stop stop-color="#4F2D7E"/>
<stop offset="1" stop-color="#853E96"/>
</linearGradient>
<linearGradient id="paint1_linear_11551_14406" x1="6.8291" y1="1.46337" x2="19.0239" y2="1.46337" gradientUnits="userSpaceOnUse">
<stop stop-color="#0749B7"/>
<stop offset="1" stop-color="#071693"/>
</linearGradient>
<linearGradient id="paint2_linear_11551_14406" x1="0" y1="18.5361" x2="12.1948" y2="18.5361" gradientUnits="userSpaceOnUse">
<stop stop-color="#0749B7"/>
<stop offset="1" stop-color="#071693"/>
</linearGradient>
<linearGradient id="paint3_linear_11551_14406" x1="13.1703" y1="18.5361" x2="19.0238" y2="18.5361" gradientUnits="userSpaceOnUse">
<stop stop-color="#E18D44"/>
<stop offset="1" stop-color="#E78927"/>
</linearGradient>
</defs>
</svg>
