<svg width="21" height="20" viewBox="0 0 21 20" fill="none" xmlns="http://www.w3.org/2000/svg">
<path d="M17.6336 8.49064L11.3836 2.24064C11.1492 2.0064 10.8314 1.87482 10.5 1.87482C10.1686 1.87482 9.85081 2.0064 9.61641 2.24064L3.36641 8.49064C3.24978 8.60642 3.15732 8.74422 3.09442 8.89604C3.03151 9.04787 2.99942 9.21068 3.00001 9.37502V16.875C3.00001 17.0408 3.06586 17.1998 3.18307 17.317C3.30028 17.4342 3.45925 17.5 3.62501 17.5H8.62501C8.79077 17.5 8.94974 17.4342 9.06695 17.317C9.18416 17.1998 9.25001 17.0408 9.25001 16.875V12.5H11.75V16.875C11.75 17.0408 11.8159 17.1998 11.9331 17.317C12.0503 17.4342 12.2092 17.5 12.375 17.5H17.375C17.5408 17.5 17.6997 17.4342 17.817 17.317C17.9342 17.1998 18 17.0408 18 16.875V9.37502C18.0006 9.21068 17.9685 9.04787 17.9056 8.89604C17.8427 8.74422 17.7502 8.60642 17.6336 8.49064ZM16.75 16.25H13V11.875C13 11.7093 12.9342 11.5503 12.8169 11.4331C12.6997 11.3159 12.5408 11.25 12.375 11.25H8.62501C8.45925 11.25 8.30028 11.3159 8.18307 11.4331C8.06586 11.5503 8.00001 11.7093 8.00001 11.875V16.25H4.25001V9.37502L10.5 3.12502L16.75 9.37502V16.25Z" fill="white"/>
</svg>
