<svg width="124" height="50" viewBox="0 0 124 50" fill="none" xmlns="http://www.w3.org/2000/svg">
<g clip-path="url(#clip0_11551_14454)">
<path fill-rule="evenodd" clip-rule="evenodd" d="M0.839111 18.946V38.3237H6.89467C7.53083 38.3237 8.16077 38.4491 8.74859 38.6925C9.33625 38.936 9.8704 39.2928 10.3201 39.7427C10.77 40.1925 11.1269 40.7266 11.3704 41.3143C11.6137 41.9021 11.7391 42.532 11.7391 43.1682V49.2237H26.2724L44.4391 31.0571V11.6793H38.3836C37.7474 11.6793 37.1175 11.554 36.5296 11.3105C35.942 11.0671 35.4079 10.7102 34.958 10.2604C34.5082 9.81055 34.1513 9.27648 33.9078 8.68874C33.6645 8.101 33.5391 7.47105 33.5391 6.83485V0.779297H19.0058L0.839111 18.946ZM21.428 37.1126H12.9502V23.7904L23.8502 12.8904H32.328V26.2126L21.428 37.1126Z" fill="#0004E8"/>
<path d="M56.9669 7.88642V21.4121H54.2541V7.88642H56.9669ZM65.5963 10.5218C66.8752 10.5218 67.9087 10.9287 68.6967 11.7426C69.4847 12.5435 69.8788 13.6675 69.8788 15.1143V21.4121H67.1659V15.4825C67.1659 14.6299 66.9527 13.9775 66.5264 13.5254C66.1001 13.0603 65.5188 12.8278 64.7824 12.8278C64.0331 12.8278 63.4389 13.0603 62.9996 13.5254C62.5733 13.9775 62.3602 14.6299 62.3602 15.4825V21.4121H59.6473V10.6768H62.3602V12.0139C62.7219 11.5488 63.1805 11.1871 63.736 10.9287C64.3044 10.6574 64.9245 10.5218 65.5963 10.5218ZM76.5667 21.5865C75.6882 21.5865 74.9002 21.4315 74.2026 21.1214C73.505 20.7985 72.9495 20.3657 72.5361 19.8231C72.1356 19.2806 71.916 18.6798 71.8772 18.021H74.6095C74.6612 18.4344 74.8614 18.7767 75.2102 19.048C75.5719 19.3193 76.0176 19.455 76.5473 19.455C77.064 19.455 77.4645 19.3516 77.7487 19.1449C78.0458 18.9382 78.1944 18.6734 78.1944 18.3504C78.1944 18.0016 78.0135 17.7433 77.6518 17.5753C77.303 17.3945 76.7411 17.2007 75.966 16.994C75.165 16.8002 74.5062 16.6 73.9894 16.3933C73.4856 16.1866 73.0464 15.8701 72.6717 15.4438C72.31 15.0174 72.1292 14.4426 72.1292 13.7191C72.1292 13.1249 72.2971 12.5823 72.633 12.0914C72.9818 11.6005 73.4727 11.2129 74.1057 10.9287C74.7516 10.6445 75.5073 10.5024 76.3729 10.5024C77.6518 10.5024 78.6724 10.8254 79.4346 11.4713C80.1968 12.1043 80.6166 12.9634 80.6941 14.0486H78.0975C78.0588 13.6222 77.8779 13.2864 77.5549 13.0409C77.2449 12.7825 76.825 12.6534 76.2954 12.6534C75.8045 12.6534 75.4234 12.7438 75.1521 12.9246C74.8937 13.1055 74.7645 13.3574 74.7645 13.6804C74.7645 14.0421 74.9454 14.3198 75.3071 14.5136C75.6688 14.6945 76.2308 14.8818 76.993 15.0756C77.7681 15.2694 78.4076 15.4696 78.9114 15.6763C79.4152 15.883 79.848 16.2059 80.2097 16.6452C80.5843 17.0715 80.7781 17.6399 80.791 18.3504C80.791 18.9705 80.6166 19.526 80.2678 20.0169C79.9319 20.5078 79.441 20.8954 78.7951 21.1796C78.1621 21.4509 77.4193 21.5865 76.5667 21.5865ZM84.3938 9.39789C83.9158 9.39789 83.5153 9.24932 83.1923 8.9522C82.8823 8.64215 82.7273 8.26106 82.7273 7.80891C82.7273 7.35676 82.8823 6.98212 83.1923 6.685C83.5153 6.37495 83.9158 6.21993 84.3938 6.21993C84.8718 6.21993 85.2658 6.37495 85.5758 6.685C85.8988 6.98212 86.0603 7.35676 86.0603 7.80891C86.0603 8.26106 85.8988 8.64215 85.5758 8.9522C85.2658 9.24932 84.8718 9.39789 84.3938 9.39789ZM85.7308 10.6768V21.4121H83.0179V10.6768H85.7308ZM92.6162 10.5024C93.4171 10.5024 94.1212 10.6639 94.7283 10.9869C95.3355 11.2969 95.8135 11.7038 96.1623 12.2077V10.6768H98.8946V21.4896C98.8946 22.4843 98.6943 23.3693 98.2938 24.1444C97.8934 24.9324 97.2927 25.5525 96.4917 26.0046C95.6908 26.4697 94.7219 26.7022 93.585 26.7022C92.0607 26.7022 90.8076 26.347 89.8258 25.6365C88.8569 24.9259 88.3078 23.9571 88.1786 22.7298H90.8722C91.0143 23.2207 91.3178 23.6083 91.7829 23.8925C92.2609 24.1896 92.8358 24.3382 93.5075 24.3382C94.2956 24.3382 94.935 24.0992 95.4259 23.6212C95.9168 23.1561 96.1623 22.4456 96.1623 21.4896V19.8231C95.8135 20.327 95.329 20.7468 94.709 21.0827C94.1018 21.4186 93.4042 21.5865 92.6162 21.5865C91.7119 21.5865 90.8851 21.354 90.1358 20.8889C89.3865 20.4238 88.7923 19.7715 88.353 18.9318C87.9267 18.0791 87.7136 17.1038 87.7136 16.0057C87.7136 14.9206 87.9267 13.9581 88.353 13.1184C88.7923 12.2787 89.3801 11.6328 90.1164 11.1806C90.8657 10.7285 91.6989 10.5024 92.6162 10.5024ZM96.1623 16.0445C96.1623 15.3856 96.0331 14.8237 95.7747 14.3586C95.5164 13.8806 95.1676 13.5189 94.7283 13.2734C94.2891 13.0151 93.8176 12.8859 93.3138 12.8859C92.8099 12.8859 92.3449 13.0086 91.9186 13.2541C91.4922 13.4995 91.1434 13.8612 90.8722 14.3392C90.6138 14.8043 90.4846 15.3598 90.4846 16.0057C90.4846 16.6516 90.6138 17.22 90.8722 17.711C91.1434 18.1889 91.4922 18.5571 91.9186 18.8155C92.3578 19.0739 92.8228 19.203 93.3138 19.203C93.8176 19.203 94.2891 19.0803 94.7283 18.8349C95.1676 18.5765 95.5164 18.2148 95.7747 17.7497C96.0331 17.2717 96.1623 16.7033 96.1623 16.0445ZM107.59 10.5218C108.404 10.5218 109.127 10.7027 109.76 11.0644C110.393 11.4132 110.884 11.9364 111.233 12.634C111.595 13.3187 111.776 14.1454 111.776 15.1143V21.4121H109.063V15.4825C109.063 14.6299 108.85 13.9775 108.423 13.5254C107.997 13.0603 107.416 12.8278 106.679 12.8278C105.93 12.8278 105.336 13.0603 104.897 13.5254C104.47 13.9775 104.257 14.6299 104.257 15.4825V21.4121H101.544V7.07255H104.257V12.0139C104.606 11.5488 105.071 11.1871 105.652 10.9287C106.234 10.6574 106.88 10.5218 107.59 10.5218ZM117.514 12.9053V18.0985C117.514 18.4602 117.598 18.7251 117.766 18.893C117.947 19.048 118.244 19.1255 118.657 19.1255H119.917V21.4121H118.212C115.925 21.4121 114.782 20.3011 114.782 18.0791V12.9053H113.503V10.6768H114.782V8.02206H117.514V10.6768H119.917V12.9053H117.514ZM56.9669 40.2612H61.4238V42.4121H54.2541V28.8864H56.9669V40.2612ZM73.1277 36.8119C73.1277 37.1995 73.1019 37.5483 73.0502 37.8583H65.2022C65.2668 38.6334 65.5381 39.2406 66.0161 39.6798C66.4941 40.1191 67.0818 40.3387 67.7794 40.3387C68.7871 40.3387 69.5041 39.9059 69.9304 39.0404H72.8564C72.5464 40.0739 71.9521 40.9265 71.0737 41.5982C70.1952 42.2571 69.1165 42.5865 67.8376 42.5865C66.8041 42.5865 65.874 42.3604 65.0472 41.9083C64.2333 41.4432 63.5938 40.7908 63.1288 39.9511C62.6766 39.1114 62.4506 38.1425 62.4506 37.0445C62.4506 35.9335 62.6766 34.9581 63.1288 34.1184C63.5809 33.2787 64.2139 32.6328 65.0278 32.1806C65.8417 31.7285 66.7783 31.5024 67.8376 31.5024C68.8581 31.5024 69.7689 31.722 70.5698 32.1613C71.3837 32.6005 72.0103 33.227 72.4495 34.0409C72.9016 34.8419 73.1277 35.7655 73.1277 36.8119ZM70.3179 36.0368C70.305 35.3392 70.0531 34.7837 69.5622 34.3703C69.0713 33.944 68.4706 33.7309 67.7601 33.7309C67.0883 33.7309 66.5199 33.9376 66.0548 34.351C65.6027 34.7514 65.3249 35.3134 65.2216 36.0368H70.3179ZM74.4103 37.0057C74.4103 35.9206 74.6234 34.9581 75.0497 34.1184C75.489 33.2787 76.0832 32.6328 76.8325 32.1806C77.5818 31.7285 78.415 31.5024 79.3322 31.5024C80.0298 31.5024 80.6951 31.6574 81.3281 31.9675C81.9612 32.2646 82.465 32.6651 82.8396 33.1689V28.0726H85.5913V42.4121H82.8396V40.8231C82.5037 41.3528 82.0322 41.7791 81.425 42.1021C80.8179 42.425 80.1138 42.5865 79.3129 42.5865C78.4086 42.5865 77.5818 42.354 76.8325 41.8889C76.0832 41.4238 75.489 40.7715 75.0497 39.9318C74.6234 39.0791 74.4103 38.1038 74.4103 37.0057ZM82.859 37.0445C82.859 36.3856 82.7298 35.8237 82.4714 35.3586C82.2131 34.8806 81.8643 34.5189 81.425 34.2734C80.9858 34.0151 80.5143 33.8859 80.0105 33.8859C79.5066 33.8859 79.0416 34.0086 78.6153 34.2541C78.1889 34.4995 77.8401 34.8612 77.5689 35.3392C77.3105 35.8043 77.1813 36.3598 77.1813 37.0057C77.1813 37.6516 77.3105 38.22 77.5689 38.711C77.8401 39.1889 78.1889 39.5571 78.6153 39.8155C79.0545 40.0739 79.5196 40.203 80.0105 40.203C80.5143 40.203 80.9858 40.0803 81.425 39.8349C81.8643 39.5765 82.2131 39.2148 82.4714 38.7497C82.7298 38.2717 82.859 37.7033 82.859 37.0445ZM92.4458 31.5024C93.2468 31.5024 93.9508 31.6639 94.558 31.9869C95.1652 32.2969 95.6432 32.7038 95.992 33.2077V31.6768H98.7242V42.4896C98.7242 43.4843 98.524 44.3693 98.1235 45.1444C97.7231 45.9324 97.1223 46.5525 96.3214 47.0046C95.5204 47.4697 94.5516 47.7022 93.4147 47.7022C91.8903 47.7022 90.6372 47.347 89.6554 46.6365C88.6866 45.9259 88.1375 44.9571 88.0083 43.7298H90.7018C90.8439 44.2207 91.1475 44.6083 91.6126 44.8925C92.0906 45.1896 92.6655 45.3382 93.3372 45.3382C94.1252 45.3382 94.7647 45.0992 95.2556 44.6212C95.7465 44.1561 95.992 43.4456 95.992 42.4896V40.8231C95.6432 41.327 95.1587 41.7468 94.5386 42.0827C93.9315 42.4186 93.2339 42.5865 92.4458 42.5865C91.5415 42.5865 90.7148 42.354 89.9655 41.8889C89.2162 41.4238 88.622 40.7715 88.1827 39.9318C87.7564 39.0791 87.5433 38.1038 87.5433 37.0057C87.5433 35.9206 87.7564 34.9581 88.1827 34.1184C88.622 33.2787 89.2098 32.6328 89.9461 32.1806C90.6954 31.7285 91.5286 31.5024 92.4458 31.5024ZM95.992 37.0445C95.992 36.3856 95.8628 35.8237 95.6044 35.3586C95.346 34.8806 94.9972 34.5189 94.558 34.2734C94.1188 34.0151 93.6473 33.8859 93.1434 33.8859C92.6396 33.8859 92.1746 34.0086 91.7482 34.2541C91.3219 34.4995 90.9731 34.8612 90.7018 35.3392C90.4435 35.8043 90.3143 36.3598 90.3143 37.0057C90.3143 37.6516 90.4435 38.22 90.7018 38.711C90.9731 39.1889 91.3219 39.5571 91.7482 39.8155C92.1875 40.0739 92.6525 40.203 93.1434 40.203C93.6473 40.203 94.1188 40.0803 94.558 39.8349C94.9972 39.5765 95.346 39.2148 95.6044 38.7497C95.8628 38.2717 95.992 37.7033 95.992 37.0445ZM111.353 36.8119C111.353 37.1995 111.328 37.5483 111.276 37.8583H103.428C103.492 38.6334 103.764 39.2406 104.242 39.6798C104.72 40.1191 105.308 40.3387 106.005 40.3387C107.013 40.3387 107.73 39.9059 108.156 39.0404H111.082C110.772 40.0739 110.178 40.9265 109.299 41.5982C108.421 42.2571 107.342 42.5865 106.063 42.5865C105.03 42.5865 104.1 42.3604 103.273 41.9083C102.459 41.4432 101.82 40.7908 101.354 39.9511C100.902 39.1114 100.676 38.1425 100.676 37.0445C100.676 35.9335 100.902 34.9581 101.354 34.1184C101.807 33.2787 102.44 32.6328 103.253 32.1806C104.067 31.7285 105.004 31.5024 106.063 31.5024C107.084 31.5024 107.995 31.722 108.796 32.1613C109.609 32.6005 110.236 33.227 110.675 34.0409C111.127 34.8419 111.353 35.7655 111.353 36.8119ZM108.544 36.0368C108.531 35.3392 108.279 34.7837 107.788 34.3703C107.297 33.944 106.696 33.7309 105.986 33.7309C105.314 33.7309 104.746 33.9376 104.281 34.351C103.828 34.7514 103.551 35.3134 103.447 36.0368H108.544ZM116.046 33.3433C116.395 32.7749 116.847 32.3292 117.403 32.0062C117.971 31.6833 118.617 31.5218 119.341 31.5218V34.3703H118.624C117.771 34.3703 117.125 34.5706 116.686 34.971C116.26 35.3715 116.046 36.0691 116.046 37.0638V42.4121H113.334V31.6768H116.046V33.3433Z" fill="black"/>
</g>
<defs>
<clipPath id="clip0_11551_14454">
<rect width="122.322" height="48.4444" fill="white" transform="translate(0.839111 0.777588)"/>
</clipPath>
</defs>
</svg>
