<svg width="120" height="43" viewBox="0 0 120 43" fill="none" xmlns="http://www.w3.org/2000/svg">
<path d="M28.7408 12.5023L24.7707 0.0521278H29.0775L32.2855 10.5636H30.1232L33.5262 0.0521278H37.3722L40.5448 10.5636H38.4711L41.8209 0.0521278H45.791L41.8209 12.5023H37.3368L34.7491 3.89388H35.9543L33.2249 12.5023H28.7408ZM50.1937 4.67646H55.7235V7.70006H50.1937V4.67646ZM50.4773 9.33636H56.6806V12.5023H46.3654V0.0521278H56.4502V3.21802H50.4773V9.33636ZM57.9363 12.5023V0.0521278H64.565C66.2783 0.0521278 67.5426 0.360417 68.3579 0.976995C69.1732 1.58171 69.5808 2.35836 69.5808 3.30695C69.5808 3.93538 69.4036 4.4986 69.0491 4.99661C68.7064 5.48276 68.2042 5.86811 67.5426 6.15269C66.8809 6.43726 66.0656 6.57955 65.0967 6.57955L65.4512 5.61911C66.4201 5.61911 67.2531 5.75547 67.9502 6.02819C68.6592 6.30091 69.2027 6.69812 69.5808 7.21984C69.9707 7.7297 70.1657 8.34628 70.1657 9.06957C70.1657 10.1486 69.7167 10.9904 68.8187 11.5952C67.9325 12.1999 66.6327 12.5023 64.9195 12.5023H57.9363ZM62.0482 9.56758H64.565C65.0258 9.56758 65.3684 9.48458 65.593 9.31858C65.8292 9.15257 65.9475 8.9095 65.9475 8.58935C65.9475 8.26921 65.8292 8.02614 65.593 7.86013C65.3684 7.69413 65.0258 7.61113 64.565 7.61113H61.7647V4.83653H63.9979C64.4705 4.83653 64.8131 4.75946 65.0258 4.60532C65.2503 4.43931 65.3626 4.20809 65.3626 3.91167C65.3626 3.60337 65.2503 3.37216 65.0258 3.21802C64.8131 3.06388 64.4705 2.9868 63.9979 2.9868H62.0482V9.56758ZM1.13733 27.1495V14.6993H7.25201C8.63446 14.6993 9.85149 14.9543 10.9031 15.4641C11.9547 15.9621 12.7759 16.6736 13.3667 17.5984C13.9574 18.5233 14.2529 19.626 14.2529 20.9066C14.2529 22.199 13.9574 23.3137 13.3667 24.2504C12.7759 25.1752 11.9547 25.8926 10.9031 26.4024C9.85149 26.9004 8.63446 27.1495 7.25201 27.1495H1.13733ZM5.32013 23.8769H7.07478C7.66556 23.8769 8.17955 23.7642 8.61674 23.5389C9.06573 23.3137 9.41431 22.9816 9.66244 22.5429C9.91057 22.0923 10.0346 21.5469 10.0346 20.9066C10.0346 20.2781 9.91057 19.7446 9.66244 19.3059C9.41431 18.8672 9.06573 18.5351 8.61674 18.3099C8.17955 18.0846 7.66556 17.9719 7.07478 17.9719H5.32013V23.8769ZM19.254 19.3237H24.7838V22.3473H19.254V19.3237ZM19.5376 23.9836H25.7409V27.1495H15.4257V14.6993H25.5105V17.8652H19.5376V23.9836ZM31.6226 27.434C30.5827 27.434 29.5784 27.3155 28.6095 27.0783C27.6406 26.8411 26.843 26.5329 26.2168 26.1534L27.5638 23.0943C28.1546 23.4382 28.8103 23.7168 29.5312 23.9302C30.2637 24.1318 30.9726 24.2326 31.658 24.2326C32.0597 24.2326 32.3728 24.2088 32.5974 24.1614C32.8336 24.1021 33.005 24.0251 33.1114 23.9302C33.2177 23.8235 33.2709 23.699 33.2709 23.5567C33.2709 23.3315 33.1468 23.1536 32.8987 23.0231C32.6505 22.8927 32.3196 22.7859 31.9061 22.703C31.5043 22.6081 31.0612 22.5133 30.5769 22.4184C30.0924 22.3117 29.6021 22.1754 29.1058 22.0093C28.6213 21.8433 28.1723 21.624 27.7588 21.3513C27.357 21.0785 27.0321 20.7228 26.784 20.2841C26.5359 19.8335 26.4118 19.2763 26.4118 18.6122C26.4118 17.8415 26.6245 17.142 27.0498 16.5135C27.487 15.8732 28.131 15.3634 28.9817 14.9839C29.8442 14.6044 30.9136 14.4148 32.1897 14.4148C33.0286 14.4148 33.8558 14.5037 34.671 14.6815C35.4863 14.8594 36.2188 15.1322 36.8688 15.4997L35.6104 18.5411C34.9959 18.2328 34.3992 18.0015 33.8203 17.8474C33.2531 17.6933 32.6978 17.6162 32.1543 17.6162C31.7525 17.6162 31.4334 17.6518 31.1972 17.7229C30.9608 17.7941 30.7895 17.889 30.6832 18.0075C30.5886 18.126 30.5414 18.2565 30.5414 18.3988C30.5414 18.6122 30.6655 18.7841 30.9136 18.9146C31.1617 19.0331 31.4866 19.134 31.8884 19.2169C32.3019 19.2999 32.7509 19.3888 33.2354 19.4837C33.7317 19.5786 34.222 19.709 34.7065 19.875C35.1909 20.0411 35.634 20.2603 36.0358 20.5331C36.4493 20.8059 36.7802 21.1616 37.0283 21.6003C37.2764 22.0389 37.4005 22.5844 37.4005 23.2366C37.4005 23.9954 37.1819 24.695 36.7447 25.3353C36.3193 25.9638 35.6813 26.4736 34.8306 26.8649C33.9798 27.2443 32.9104 27.434 31.6226 27.434ZM38.2906 27.1495V14.6993H42.4734V27.1495H38.2906ZM50.5663 27.434C49.562 27.434 48.6344 27.2799 47.7837 26.9716C46.9447 26.6514 46.2122 26.2008 45.5859 25.6199C44.9715 25.0389 44.493 24.3511 44.1503 23.5567C43.8076 22.7623 43.6363 21.8848 43.6363 20.9244C43.6363 19.964 43.8076 19.0865 44.1503 18.2921C44.493 17.4977 44.9774 16.8099 45.6037 16.2289C46.2299 15.6479 46.9684 15.2033 47.8191 14.895C48.6816 14.5748 49.6269 14.4148 50.6549 14.4148C51.8838 14.4148 52.9767 14.6222 53.9338 15.0373C54.9027 15.4523 55.7002 16.0451 56.3265 16.8159L53.6502 19.1814C53.2603 18.7308 52.8349 18.3928 52.3741 18.1676C51.9251 17.9304 51.423 17.8119 50.8676 17.8119C50.4068 17.8119 49.9874 17.883 49.6092 18.0253C49.243 18.1676 48.9298 18.375 48.6699 18.6478C48.41 18.9206 48.209 19.2466 48.0673 19.626C47.9255 20.0055 47.8546 20.4382 47.8546 20.9244C47.8546 21.3868 47.9255 21.8137 48.0673 22.205C48.209 22.5844 48.41 22.9104 48.6699 23.1832C48.9298 23.456 49.237 23.6694 49.5915 23.8235C49.9578 23.9658 50.3654 24.0369 50.8144 24.0369C51.287 24.0369 51.7478 23.9598 52.1969 23.8057C52.6459 23.6397 53.1245 23.3611 53.6325 22.9698L55.972 25.8511C55.2159 26.3609 54.3532 26.7522 53.3844 27.025C52.4155 27.2977 51.4762 27.434 50.5663 27.434ZM52.3387 25.3175V20.5865H55.972V25.8511L52.3387 25.3175ZM57.3997 27.1495V14.6993H60.8381L67.1478 22.2761H65.5526V14.6993H69.6291V27.1495H66.1907L59.8811 19.5727H61.4762V27.1495H57.3997ZM19.831 41.7967V29.3465H25.8039C26.9619 29.3465 27.9603 29.5362 28.7992 29.9157C29.6499 30.2951 30.3057 30.8405 30.7665 31.552C31.2273 32.2516 31.4577 33.0816 31.4577 34.042C31.4577 35.0024 31.2273 35.8324 30.7665 36.532C30.3057 37.2316 29.6499 37.777 28.7992 38.1683C27.9603 38.5478 26.9619 38.7375 25.8039 38.7375H22.1528L24.0138 36.9411V41.7967H19.831ZM24.0138 37.4035L22.1528 35.5005H25.538C26.1171 35.5005 26.5424 35.37 26.8141 35.1092C27.0977 34.8483 27.2395 34.4926 27.2395 34.042C27.2395 33.5914 27.0977 33.2357 26.8141 32.9749C26.5424 32.714 26.1171 32.5836 25.538 32.5836H22.1528L24.0138 30.6805V37.4035ZM32.4751 41.7967V29.3465H38.448C39.606 29.3465 40.6043 29.5362 41.4433 29.9157C42.294 30.2951 42.9498 30.8405 43.4106 31.552C43.8714 32.2516 44.1018 33.0816 44.1018 34.042C44.1018 35.0024 43.8714 35.8324 43.4106 36.532C42.9498 37.2197 42.294 37.7474 41.4433 38.115C40.6043 38.4825 39.606 38.6663 38.448 38.6663H34.7969L36.6579 36.9411V41.7967H32.4751ZM39.9013 41.7967L36.8528 37.2612H41.2838L44.3677 41.7967H39.9013ZM36.6579 37.4035L34.7969 35.5005H38.1821C38.7611 35.5005 39.1864 35.37 39.4582 35.1092C39.7418 34.8483 39.8836 34.4926 39.8836 34.042C39.8836 33.5914 39.7418 33.2357 39.4582 32.9749C39.1864 32.714 38.7611 32.5836 38.1821 32.5836H34.7969L36.6579 30.6805V37.4035ZM51.8315 42.0812C50.8272 42.0812 49.8936 41.9212 49.0311 41.601C48.1804 41.2809 47.4419 40.8302 46.8157 40.2493C46.1894 39.6564 45.6991 38.9627 45.3446 38.1683C45.0019 37.3739 44.8306 36.5083 44.8306 35.5716C44.8306 34.623 45.0019 33.7574 45.3446 32.9749C45.6991 32.1805 46.1894 31.4927 46.8157 30.9117C47.4419 30.3188 48.1804 29.8623 49.0311 29.5422C49.8936 29.222 50.8272 29.062 51.8315 29.062C52.8477 29.062 53.7811 29.222 54.6318 29.5422C55.4825 29.8623 56.221 30.3188 56.8473 30.9117C57.4735 31.4927 57.9579 32.1805 58.3006 32.9749C58.6551 33.7574 58.8323 34.623 58.8323 35.5716C58.8323 36.5083 58.6551 37.3739 58.3006 38.1683C57.9579 38.9627 57.4735 39.6564 56.8473 40.2493C56.221 40.8302 55.4825 41.2809 54.6318 41.601C53.7811 41.9212 52.8477 42.0812 51.8315 42.0812ZM51.8315 38.6841C52.2214 38.6841 52.5818 38.613 52.9126 38.4707C53.2553 38.3284 53.5507 38.1268 53.7988 37.866C54.0587 37.5932 54.2596 37.2672 54.4014 36.8877C54.5432 36.4965 54.6141 36.0578 54.6141 35.5716C54.6141 35.0854 54.5432 34.6527 54.4014 34.2732C54.2596 33.8819 54.0587 33.5558 53.7988 33.295C53.5507 33.0222 53.2553 32.8148 52.9126 32.6725C52.5818 32.5302 52.2214 32.4591 51.8315 32.4591C51.4415 32.4591 51.0753 32.5302 50.7326 32.6725C50.4018 32.8148 50.1063 33.0222 49.8464 33.295C49.5983 33.5558 49.4033 33.8819 49.2615 34.2732C49.1197 34.6527 49.0488 35.0854 49.0488 35.5716C49.0488 36.0578 49.1197 36.4965 49.2615 36.8877C49.4033 37.2672 49.5983 37.5932 49.8464 37.866C50.1063 38.1268 50.4018 38.3284 50.7326 38.4707C51.0753 38.613 51.4415 38.6841 51.8315 38.6841ZM64.6218 42.0812C63.5821 42.0812 62.5778 41.9627 61.6088 41.7255C60.6399 41.4883 59.8424 41.1801 59.2161 40.8006L60.5631 37.7415C61.1539 38.0854 61.8097 38.364 62.5304 38.5774C63.2631 38.779 63.972 38.8798 64.6573 38.8798C65.0591 38.8798 65.3722 38.856 65.5966 38.8086C65.833 38.7493 66.0043 38.6723 66.1106 38.5774C66.217 38.4707 66.2701 38.3462 66.2701 38.2039C66.2701 37.9787 66.1461 37.8008 65.8979 37.6703C65.6498 37.5399 65.319 37.4331 64.9054 37.3502C64.5037 37.2553 64.0606 37.1605 63.5761 37.0656C63.0918 36.9589 62.6013 36.8226 62.1051 36.6565C61.6207 36.4905 61.1717 36.2712 60.7581 35.9985C60.3564 35.7257 60.0314 35.37 59.7833 34.9313C59.5351 34.4807 59.4111 33.9235 59.4111 33.2594C59.4111 32.4887 59.6237 31.7892 60.0491 31.1607C60.4864 30.5204 61.1303 30.0106 61.981 29.6311C62.8436 29.2516 63.9129 29.062 65.189 29.062C66.028 29.062 66.855 29.1509 67.6703 29.3287C68.4856 29.5066 69.2182 29.7794 69.8681 30.1469L68.6097 33.1883C67.9953 32.88 67.3986 32.6487 66.8196 32.4946C66.2524 32.3405 65.6971 32.2634 65.1535 32.2634C64.7518 32.2634 64.4328 32.299 64.1965 32.3701C63.9602 32.4413 63.7888 32.5362 63.6825 32.6547C63.588 32.7732 63.5407 32.9037 63.5407 33.046C63.5407 33.2594 63.6648 33.4313 63.9129 33.5618C64.161 33.6803 64.486 33.7812 64.8877 33.8641C65.3013 33.9471 65.7503 34.036 66.2347 34.1309C66.731 34.2258 67.2214 34.3562 67.7058 34.5222C68.1902 34.6883 68.6333 34.9076 69.035 35.1803C69.4486 35.4531 69.7794 35.8088 70.0276 36.2475C70.2757 36.6861 70.3998 37.2316 70.3998 37.8838C70.3998 38.6426 70.1812 39.3422 69.744 39.9825C69.3186 40.611 68.6806 41.1208 67.8298 41.5121C66.9791 41.8915 65.9098 42.0812 64.6218 42.0812Z" fill="#062B55"/>
<path d="M86.5856 0.0521278H74.0747V6.3295H86.5856V0.0521278Z" fill="url(#paint0_linear_9556_1805)"/>
<path d="M114.735 0.0521278H88.6707V6.3295H114.735V0.0521278Z" fill="url(#paint1_linear_9556_1805)"/>
<path d="M100.139 36.6703H74.0747V42.9477H100.139V36.6703Z" fill="url(#paint2_linear_9556_1805)"/>
<path d="M114.735 36.6703H102.224V42.9477H114.735V36.6703Z" fill="url(#paint3_linear_9556_1805)"/>
<path d="M118.905 13.6531H119.948V29.3465H118.905V42.9475H117.863V29.3465H116.82V13.6531H117.863V0.0521278H118.905V13.6531Z" fill="#072A54"/>
<path d="M114.735 8.42214H74.0747V34.5779H114.735V8.42214Z" fill="#042B55"/>
<path d="M82.5682 27.9218C81.7056 27.9218 80.8431 27.815 79.9805 27.6016C79.1298 27.3882 78.3854 27.0858 77.7473 26.6945L79.0234 24.0444C79.5197 24.3764 80.0691 24.6314 80.6717 24.8092C81.2862 24.9871 81.8829 25.076 82.4618 25.076C83.0644 25.076 83.543 24.9633 83.8974 24.7381C84.2519 24.5128 84.4292 24.1927 84.4292 23.7776C84.4292 23.4101 84.2815 23.1196 83.9861 22.9061C83.6907 22.6809 83.2062 22.5682 82.5327 22.5682H81.0616V20.345L84.3937 16.7344L84.7305 17.9439H78.3854V15.2226H87.3536V17.4281L84.0215 21.0386L82.3023 20.0604H83.2594C84.8073 20.0604 85.9771 20.4101 86.7687 21.1098C87.5722 21.7974 87.9739 22.6867 87.9739 23.7776C87.9739 24.4891 87.7789 25.159 87.389 25.7874C87.011 26.4159 86.4261 26.9317 85.6344 27.3348C84.8427 27.7261 83.8207 27.9218 82.5682 27.9218ZM94.8426 27.9218C93.6846 27.9218 92.6743 27.6905 91.8118 27.2281C90.9611 26.7657 90.2935 26.078 89.809 25.1649C89.3364 24.2519 89.1001 23.1255 89.1001 21.7856C89.1001 20.339 89.3777 19.1118 89.9331 18.1039C90.5003 17.0842 91.2742 16.3076 92.2549 15.774C93.2474 15.2404 94.3935 14.9736 95.6933 14.9736C96.3905 14.9736 97.058 15.0566 97.6961 15.2226C98.3459 15.3767 98.8954 15.5961 99.3444 15.8807L98.0683 18.4063C97.7138 18.1573 97.3416 17.9913 96.9517 17.9083C96.5735 17.8134 96.1836 17.766 95.7819 17.766C94.8248 17.766 94.0568 18.0565 93.4778 18.6375C92.9107 19.2185 92.6271 20.0664 92.6271 21.1809C92.6271 21.3825 92.6271 21.5959 92.6271 21.8212C92.6389 22.0346 92.6625 22.254 92.698 22.4793L91.8118 21.75C92.0482 21.3114 92.3317 20.9437 92.6626 20.6473C93.0052 20.3509 93.4069 20.1256 93.8678 19.9715C94.3404 19.8174 94.8662 19.7402 95.4452 19.7402C96.225 19.7402 96.934 19.9063 97.572 20.2382C98.2219 20.5584 98.7418 21.0149 99.1317 21.6078C99.5216 22.1887 99.7166 22.8765 99.7166 23.6709C99.7166 24.5365 99.498 25.2894 99.0608 25.9297C98.6237 26.5582 98.0388 27.0502 97.3062 27.406C96.5735 27.7499 95.7524 27.9218 94.8426 27.9218ZM94.6299 25.4139C94.9607 25.4139 95.2502 25.3488 95.4983 25.2183C95.7583 25.0878 95.9592 24.9041 96.101 24.6669C96.2427 24.4298 96.3136 24.1511 96.3136 23.831C96.3136 23.3567 96.1541 22.9773 95.8351 22.6927C95.5279 22.4081 95.1202 22.2658 94.6122 22.2658C94.2695 22.2658 93.9682 22.331 93.7082 22.4615C93.4601 22.5919 93.2592 22.7757 93.1056 23.0128C92.9639 23.25 92.893 23.5286 92.893 23.8488C92.893 24.1571 92.9639 24.4298 93.1056 24.6669C93.2474 24.8922 93.4483 25.076 93.7082 25.2183C93.9682 25.3488 94.2754 25.4139 94.6299 25.4139ZM104.953 27.9218C104.102 27.9218 103.245 27.815 102.382 27.6016C101.52 27.3882 100.776 27.0858 100.149 26.6945L101.408 24.0444C101.916 24.3764 102.465 24.6314 103.056 24.8092C103.659 24.9871 104.255 25.076 104.846 25.076C105.436 25.076 105.915 24.9633 106.282 24.7381C106.648 24.5009 106.831 24.1749 106.831 23.7599C106.831 23.5109 106.76 23.2915 106.619 23.1018C106.477 22.9002 106.234 22.752 105.892 22.6571C105.549 22.5504 105.059 22.4971 104.421 22.4971H101.053L101.673 15.2226H109.578V17.9439H102.914L104.704 16.3965L104.297 21.3054L102.507 19.758H105.254C106.482 19.758 107.469 19.9359 108.214 20.2916C108.958 20.6355 109.501 21.1038 109.844 21.6967C110.186 22.2777 110.358 22.9357 110.358 23.6709C110.358 24.4061 110.163 25.0998 109.773 25.7519C109.395 26.3922 108.81 26.9139 108.019 27.317C107.226 27.7201 106.205 27.9218 104.953 27.9218Z" fill="white"/>
<defs>
<linearGradient id="paint0_linear_9556_1805" x1="74.0747" y1="3.19081" x2="86.5856" y2="3.19081" gradientUnits="userSpaceOnUse">
<stop stop-color="#4F2D7E"/>
<stop offset="1" stop-color="#853E96"/>
</linearGradient>
<linearGradient id="paint1_linear_9556_1805" x1="88.6707" y1="3.19081" x2="114.735" y2="3.19081" gradientUnits="userSpaceOnUse">
<stop stop-color="#0749B7"/>
<stop offset="1" stop-color="#071693"/>
</linearGradient>
<linearGradient id="paint2_linear_9556_1805" x1="74.0747" y1="39.809" x2="100.139" y2="39.809" gradientUnits="userSpaceOnUse">
<stop stop-color="#0749B7"/>
<stop offset="1" stop-color="#071693"/>
</linearGradient>
<linearGradient id="paint3_linear_9556_1805" x1="102.224" y1="39.809" x2="114.735" y2="39.809" gradientUnits="userSpaceOnUse">
<stop stop-color="#E18D44"/>
<stop offset="1" stop-color="#E78927"/>
</linearGradient>
</defs>
</svg>
