<svg width="21" height="21" viewBox="0 0 21 21" fill="none" xmlns="http://www.w3.org/2000/svg">
<path d="M17.8727 12.8797L14.1922 11.2305L14.182 11.2258C13.991 11.1441 13.7825 11.1113 13.5756 11.1304C13.3687 11.1495 13.1698 11.2198 12.9969 11.3352C12.9765 11.3486 12.957 11.3632 12.9383 11.3789L11.0367 13C9.83204 12.4148 8.58829 11.1805 8.00313 9.9914L9.62657 8.06093C9.64219 8.0414 9.65704 8.02187 9.6711 8.00078C9.78394 7.82836 9.85239 7.63071 9.87039 7.42544C9.88838 7.22017 9.85534 7.01363 9.77423 6.82421V6.81484L8.12032 3.12812C8.01309 2.88067 7.8287 2.67454 7.59468 2.54049C7.36067 2.40645 7.08958 2.35168 6.82188 2.38437C5.76326 2.52367 4.79155 3.04356 4.08824 3.84694C3.38492 4.65032 2.99809 5.68225 3.00001 6.74999C3.00001 12.9531 8.04688 18 14.25 18C15.3177 18.0019 16.3497 17.6151 17.1531 16.9118C17.9564 16.2084 18.4763 15.2367 18.6156 14.1781C18.6484 13.9105 18.5937 13.6395 18.4598 13.4055C18.3259 13.1715 18.12 12.987 17.8727 12.8797ZM14.25 16.75C11.5987 16.7471 9.05687 15.6926 7.18214 13.8179C5.3074 11.9431 4.2529 9.40127 4.25001 6.74999C4.24707 5.9871 4.52192 5.24921 5.02324 4.67414C5.52456 4.09907 6.21806 3.72614 6.97423 3.62499C6.97392 3.62811 6.97392 3.63125 6.97423 3.63437L8.61485 7.30624L7.00001 9.23906C6.98362 9.25792 6.96873 9.27803 6.95548 9.29921C6.83791 9.47962 6.76894 9.68733 6.75525 9.90223C6.74157 10.1171 6.78362 10.3319 6.87735 10.5258C7.58516 11.9734 9.04376 13.4211 10.507 14.1281C10.7023 14.221 10.9184 14.2616 11.134 14.246C11.3497 14.2304 11.5576 14.1591 11.7375 14.0391C11.7576 14.0255 11.7769 14.0109 11.7953 13.9953L13.6945 12.375L17.3664 14.0195C17.3664 14.0195 17.3727 14.0195 17.375 14.0195C17.2751 14.7768 16.9027 15.4717 16.3275 15.9742C15.7524 16.4768 15.0138 16.7526 14.25 16.75Z" fill="#FBFBFB"/>
</svg>
