<?xml version="1.0" encoding="UTF-8"?>
<svg id="OBJECT" xmlns="http://www.w3.org/2000/svg" viewBox="0 0 32 32">
  <path d="m22,13c-4.96,0-9,4.04-9,9s4.04,9,9,9,9-4.04,9-9-4.04-9-9-9Zm-3.32,10.34c.38.4.37,1.03-.02,1.41-.19.19-.44.28-.7.28s-.52-.1-.72-.3l-1.96-2.03c-.38-.39-.38-1,0-1.39l1.96-2.03c.38-.4,1.02-.41,1.41-.02.4.38.41,1.02.02,1.41l-1.29,1.34,1.29,1.34Zm5.07-4.35l-1.57,6.5c-.11.46-.52.77-.97.77-.08,0-.16,0-.24-.03-.54-.13-.87-.67-.74-1.21l1.57-6.5c.13-.54.67-.86,1.21-.74.54.13.87.67.74,1.21Zm3,5.74c-.2.2-.46.3-.72.3s-.5-.09-.7-.28c-.4-.38-.41-1.02-.02-1.41l1.29-1.34-1.29-1.34c-.38-.4-.37-1.03.02-1.41s1.03-.37,1.41.02l1.96,2.03c.38.39.38,1,0,1.39l-1.96,2.03Z"/>
  <path d="m18.43,11.61L13.77,2.68c-.54-1.03-1.6-1.68-2.77-1.68s-2.23.64-2.77,1.68L1.35,15.86c-.23.44-.35.94-.35,1.44v.57c0,1.72,1.4,3.12,3.12,3.12h6.93c.4-4.37,3.36-8.01,7.38-9.39Zm-6.43,4.02c0,.55-.45,1-1,1s-1-.45-1-1v-.56c0-.55.45-1,1-1s1,.45,1,1v.56Zm0-3.5c0,.55-.45,1-1,1s-1-.45-1-1v-5.5c0-.55.45-1,1-1s1,.45,1,1v5.5Z"/>
</svg>