<?xml version="1.0" encoding="UTF-8"?>
<svg id="OBJECT" xmlns="http://www.w3.org/2000/svg" viewBox="0 0 32 32">
  <path d="m8,30.1c.05.51.48.9,1,.9h14c.51,0,.94-.39,1-.9l.31-3.1H7.69l.31,3.1Z"/>
  <path d="m27,5h-7v-3c0-.55-.45-1-1-1h-6c-.55,0-1,.45-1,1v3h-7c-.55,0-1,.45-1,1v3h24v-3c0-.55-.45-1-1-1Zm-13-2h4v2h-4v-2Z"/>
  <path d="m7.49,25h17.01l1.4-14H6.09l1.4,14Zm11.51-10c0-.55.45-1,1-1s1,.45,1,1v6c0,.55-.45,1-1,1s-1-.45-1-1v-6Zm-4-1c0-.55.45-1,1-1s1,.45,1,1v8c0,.55-.45,1-1,1s-1-.45-1-1v-8Zm-4,1c0-.55.45-1,1-1s1,.45,1,1v6c0,.55-.45,1-1,1s-1-.45-1-1v-6Z"/>
</svg>