<?xml version="1.0" encoding="UTF-8"?>
<svg id="OBJECT" xmlns="http://www.w3.org/2000/svg" viewBox="0 0 32 32">
  <path d="m30,1H2c-.55,0-1,.45-1,1v5h30V2c0-.55-.45-1-1-1Zm-7,4h-1c-.55,0-1-.45-1-1s.45-1,1-1h1c.55,0,1,.45,1,1s-.45,1-1,1Zm5,0h-1c-.55,0-1-.45-1-1s.45-1,1-1h1c.55,0,1,.45,1,1s-.45,1-1,1Z"/>
  <rect x="23" y="15" width="2" height="6" rx=".5" ry=".5"/>
  <rect x="11" y="15" width="2" height="6" rx=".5" ry=".5"/>
  <path d="m1,30c0,.55.45,1,1,1h28c.55,0,1-.45,1-1V9H1v21Zm20.5-3h-11.36c-.55,0-1-.45-1-1s.45-1,1-1h11.36c.55,0,1,.45,1,1s-.45,1-1,1Zm6-1c0,.55-.45,1-1,1h-1c-.55,0-1-.45-1-1s.45-1,1-1h1c.55,0,1,.45,1,1Zm-6.5-10.5c0-1.38,1.12-2.5,2.5-2.5h1c1.38,0,2.5,1.12,2.5,2.5v5c0,1.38-1.12,2.5-2.5,2.5h-1c-1.38,0-2.5-1.12-2.5-2.5v-5Zm-4-1.5c0-.55.45-1,1-1s1,.45,1,1v8c0,.55-.45,1-1,1s-1-.45-1-1v-8Zm-8,1.5c0-1.38,1.12-2.5,2.5-2.5h1c1.38,0,2.5,1.12,2.5,2.5v5c0,1.38-1.12,2.5-2.5,2.5h-1c-1.38,0-2.5-1.12-2.5-2.5v-5Zm-4-1.5c0-.55.45-1,1-1s1,.45,1,1v8c0,.55-.45,1-1,1s-1-.45-1-1v-8Zm.5,11h1c.55,0,1,.45,1,1s-.45,1-1,1h-1c-.55,0-1-.45-1-1s.45-1,1-1Z"/>
</svg>