<?xml version="1.0" encoding="UTF-8"?>
<svg id="OBJECT" xmlns="http://www.w3.org/2000/svg" viewBox="0 0 32 32">
  <path d="m16,2c0-.55-.45-1-1-1H2c-.55,0-1,.45-1,1v9c0,.55.45,1,1,1h3.5v1h-1c-.55,0-1,.45-1,1s.45,1,1,1h8c.55,0,1-.45,1-1s-.45-1-1-1h-1v-1h3.5c.55,0,1-.45,1-1V2Zm-9.25,3h-.5c-.55,0-1-.45-1-1s.45-1,1-1h.5c.55,0,1,.45,1,1s-.45,1-1,1Zm2.75,8h-2v-1h2v1Zm1.25-8h-.5c-.55,0-1-.45-1-1s.45-1,1-1h.5c.55,0,1,.45,1,1s-.45,1-1,1Z"/>
  <path d="m19.5,6h4c.55,0,1,.45,1,1v4.84l-.79-.79c-.39-.39-1.02-.39-1.41,0s-.39,1.02,0,1.41l2.5,2.5c.2.2.45.29.71.29s.51-.1.71-.29l2.5-2.5c.39-.39.39-1.02,0-1.41s-1.02-.39-1.41,0l-.79.79v-4.84c0-1.65-1.35-3-3-3h-4c-.55,0-1,.45-1,1s.45,1,1,1Z"/>
  <path d="m12.5,26h-4c-.55,0-1-.45-1-1v-4.84l.79.79c.2.2.45.29.71.29s.51-.1.71-.29c.39-.39.39-1.02,0-1.41l-2.5-2.5c-.39-.39-1.02-.39-1.41,0l-2.5,2.5c-.39.39-.39,1.02,0,1.41s1.02.39,1.41,0l.79-.79v4.84c0,1.65,1.35,3,3,3h4c.55,0,1-.45,1-1s-.45-1-1-1Z"/>
  <path d="m30,17h-13c-.55,0-1,.45-1,1v9c0,.55.45,1,1,1h3.5v1h-1c-.55,0-1,.45-1,1s.45,1,1,1h8c.55,0,1-.45,1-1s-.45-1-1-1h-1v-1h3.5c.55,0,1-.45,1-1v-9c0-.55-.45-1-1-1Zm-8.25,4h-.5c-.55,0-1-.45-1-1s.45-1,1-1h.5c.55,0,1,.45,1,1s-.45,1-1,1Zm2.75,8h-2v-1h2v1Zm1.25-8h-.5c-.55,0-1-.45-1-1s.45-1,1-1h.5c.55,0,1,.45,1,1s-.45,1-1,1Z"/>
</svg>