<?xml version="1.0" encoding="UTF-8"?>
<svg id="OBJECT" xmlns="http://www.w3.org/2000/svg" viewBox="0 0 32 32">
  <path d="m25.72,12.94c-.08-.48-.3-.91-.61-1.25-.01.12-.02.24-.04.37l-1.91,10.82,4.18-.74-1.62-9.2Z"/>
  <path d="m27.96,25.67l-.27-1.55-4.89.86-.68,3.87c-.03.15-.08.3-.12.45l3.92-.69c1.38-.24,2.3-1.56,2.05-2.94Z"/>
  <path d="m23.1,11.71c.2-1.13-.25-2.27-1.18-2.95l-4.94-3.66-.73,4.14c-.08.49-.51.83-.98.83-.06,0-.12,0-.17-.02-.54-.1-.91-.61-.81-1.16l.73-4.14-5.9,1.75c-1.11.33-1.92,1.24-2.12,2.37l-2.96,16.79c-.29,1.64.81,3.21,2.45,3.5l10.14,1.79c.18.03.35.05.53.05,1.44,0,2.72-1.03,2.97-2.5l2.96-16.79h0Zm-11.76,2.1l2.71-1.83c.45-.3,1.05-.19,1.37.24l1.92,2.64c.32.45.22,1.07-.22,1.4-.18.13-.38.19-.59.19-.31,0-.62-.14-.81-.41l-1.35-1.86-1.9,1.29c-.46.31-1.08.19-1.39-.27s-.19-1.08.27-1.39Zm4.32,10.52l-2.71,1.83c-.17.12-.37.17-.56.17-.31,0-.62-.14-.81-.41l-1.92-2.64c-.32-.45-.22-1.07.22-1.4.45-.33,1.07-.22,1.4.22l1.35,1.86,1.9-1.29c.46-.31,1.08-.19,1.39.27.31.46.19,1.08-.27,1.39Zm2.29-3.31c-.16.38-.53.6-.92.6-.13,0-.27-.03-.4-.08l-7.08-3.09c-.51-.22-.74-.81-.52-1.32.22-.5.81-.74,1.32-.52l7.08,3.09c.51.22.74.81.52,1.32Z"/>
  <path d="m16.49,4.73l.5.37.52-2.92c.1-.54-.27-1.06-.81-1.16-.54-.1-1.06.27-1.16.81l-.52,2.92.59-.18c.3-.09.63-.03.88.16Z"/>
</svg>