<?xml version="1.0" encoding="UTF-8"?>
<svg id="OBJECT" xmlns="http://www.w3.org/2000/svg" viewBox="0 0 32 32">
  <path d="m17,2c0-.55-.45-1-1-1s-1,.45-1,1v2h2v-2Z"/>
  <path d="m12.5,3c0-.55-.45-1-1-1s-1,.45-1,1v1h2v-1Z"/>
  <path d="m21.5,3c0-.55-.45-1-1-1s-1,.45-1,1v1h2v-1Z"/>
  <path d="m15,30c0,.55.45,1,1,1s1-.45,1-1v-2h-2v2Z"/>
  <path d="m10.5,29c0,.55.45,1,1,1s1-.45,1-1v-1h-2v1Z"/>
  <path d="m19.5,29c0,.55.45,1,1,1s1-.45,1-1v-1h-2v1Z"/>
  <path d="m30,15h-2v2h2c.55,0,1-.45,1-1s-.45-1-1-1Z"/>
  <path d="m30,11.5c0-.55-.45-1-1-1h-1v2h1c.55,0,1-.45,1-1Z"/>
  <path d="m29,19.5h-1v2h1c.55,0,1-.45,1-1s-.45-1-1-1Z"/>
  <path d="m1,16c0,.55.45,1,1,1h2v-2h-2c-.55,0-1,.45-1,1Z"/>
  <path d="m2,11.5c0,.55.45,1,1,1h1v-2h-1c-.55,0-1,.45-1,1Z"/>
  <path d="m2,20.5c0,.55.45,1,1,1h1v-2h-1c-.55,0-1,.45-1,1Z"/>
  <path d="m23.05,6.27c-.17-.17-.4-.27-.64-.27h-12.82c-.24,0-.47.1-.64.27l-2.68,2.68c-.17.17-.27.4-.27.64v12.82c0,.24.1.47.27.64l2.68,2.68c.17.17.4.27.64.27h12.82c.24,0,.47-.1.64-.27l2.68-2.68c.17-.17.27-.4.27-.64v-12.82c0-.24-.1-.47-.27-.64l-2.68-2.68Zm.95,15.12c0,1.44-1.17,2.62-2.62,2.62h-10.77c-1.44,0-2.62-1.17-2.62-2.62v-10.77c0-1.44,1.17-2.62,2.62-2.62h10.77c1.44,0,2.62,1.17,2.62,2.62v10.77Z"/>
  <path d="m16,16.08c.64,0,1.15-.52,1.15-1.15s-.52-1.15-1.15-1.15-1.15.52-1.15,1.15.52,1.15,1.15,1.15Z"/>
  <path d="m21.38,10h-4.38v1.95c1.25.42,2.15,1.59,2.15,2.98,0,1.74-1.41,3.15-3.15,3.15s-3.15-1.42-3.15-3.15c0-1.39.91-2.56,2.15-2.98v-1.95h-4.38c-.34,0-.62.28-.62.62v10.77c0,.34.28.62.62.62h10.77c.34,0,.62-.28.62-.62v-10.77c0-.34-.28-.62-.62-.62Zm-8.62,10.77h-.54c-.55,0-1-.45-1-1s.45-1,1-1h.54c.55,0,1,.45,1,1s-.45,1-1,1Zm7,0h-.54c-.55,0-1-.45-1-1s.45-1,1-1h.54c.55,0,1,.45,1,1s-.45,1-1,1Z"/>
</svg>