<?xml version="1.0" encoding="UTF-8"?>
<svg id="OBJECT" xmlns="http://www.w3.org/2000/svg" viewBox="0 0 32 32">
  <path d="m26.15,7.75c.55-.55.85-1.28.85-2.06s-.3-1.51-.85-2.06l-1.8-1.8c-1.1-1.1-3.02-1.1-4.12,0l-1.55,1.55,5.92,5.92,1.55-1.55Z"/>
  <path d="m3.98,18.07l-.47.47c-.77.77-1.14,1.82-1.02,2.9l.26,2.36-1.46,1.46c-.39.39-.39,1.02,0,1.41.2.2.45.29.71.29s.51-.1.71-.29l1.46-1.46,2.36.26h0c.13.01.26.02.4.02.94,0,1.83-.37,2.51-1.04l.47-.47c-1.31-2.54-3.38-4.61-5.92-5.92Z"/>
  <path d="m17.27,4.79l-11.81,11.81c2.47,1.41,4.52,3.45,5.92,5.92l11.81-11.81-5.92-5.92Z"/>
  <path d="m29,17.5h-9.78l-6.22,6.22v5.28c0,1.1.9,2,2,2h14c1.1,0,2-.9,2-2v-9.5c0-1.1-.9-2-2-2Zm-10.32,8.09c.38.4.37,1.03-.02,1.41-.19.19-.44.28-.7.28s-.52-.1-.72-.3l-1.96-2.03c-.38-.39-.38-1,0-1.39l1.96-2.03c.38-.4,1.02-.41,1.41-.02.4.38.41,1.02.02,1.41l-1.29,1.34,1.29,1.34Zm5.07-4.35l-1.57,6.5c-.11.46-.52.77-.97.77-.08,0-.16,0-.24-.03-.54-.13-.87-.67-.74-1.21l1.57-6.5c.13-.54.67-.87,1.21-.74.54.13.87.67.74,1.21Zm4.96,3.71l-1.96,2.03c-.2.2-.46.3-.72.3s-.5-.09-.7-.28c-.4-.38-.41-1.02-.02-1.41l1.29-1.34-1.29-1.34c-.38-.4-.37-1.03.02-1.41.4-.38,1.03-.37,1.41.02l1.96,2.03c.38.39.38,1,0,1.39Z"/>
</svg>