<?xml version="1.0" encoding="UTF-8"?>
<svg id="OBJECT" xmlns="http://www.w3.org/2000/svg" viewBox="0 0 32 32">
  <path d="m4.26,21.33c-.54.61-3.26,3.73-3.26,5.67,0,2.21,1.79,4,4,4s4-1.79,4-4c0-1.94-2.71-5.06-3.26-5.67-.38-.42-1.11-.42-1.49,0Z"/>
  <path d="m30.5,4.07c-.73-1.56-2.12-2.64-3.81-2.97-1.69-.33-3.39.17-4.64,1.36l-1.51,1.43-.67-1.45c-.23-.5-.83-.72-1.33-.48-.5.23-.72.83-.48,1.33l5.04,10.82c.17.36.53.58.91.58.14,0,.29-.03.42-.09.5-.23.72-.83.48-1.33l-.68-1.45,2.07-.24c1.71-.2,3.18-1.17,4.02-2.68.84-1.5.91-3.26.18-4.83Z"/>
  <path d="m9.46,8.38c-.18.08-.33.22-.43.39l-.23.37,11.11,5.35.95-.44-4.21-9.02-7.2,3.36Z"/>
  <path d="m7.32,11.58l-2.87,1.34c-1.25.58-1.79,2.07-1.21,3.32l.41.89c.28.61.78,1.06,1.41,1.29.28.1.57.15.86.15.36,0,.72-.08,1.06-.24l2.87-1.34,3.25.5c.19.03.39,0,.57-.08l3.9-1.82-9.82-4.73-.44.72Z"/>
</svg>