<?xml version="1.0" encoding="UTF-8"?>
<svg id="OBJECT" xmlns="http://www.w3.org/2000/svg" viewBox="0 0 32 32">
  <path d="m6,26V5h-1c-.55,0-1,.45-1,1v24c0,.55.45,1,1,1h18c.55,0,1-.45,1-1v-1h-15c-1.65,0-3-1.35-3-3Z"/>
  <polygon points="23 1.59 23 6 27.41 6 23 1.59"/>
  <path d="m22,8c-.55,0-1-.45-1-1V1h-12c-.55,0-1,.45-1,1v24c0,.55.45,1,1,1h18c.55,0,1-.45,1-1V8h-6Zm-10.5,7.75c0-.27.11-.54.31-.73l2.14-2.03c.4-.38,1.03-.36,1.41.04.38.4.36,1.03-.04,1.41l-1.38,1.31,1.38,1.31c.4.38.42,1.01.04,1.41-.2.21-.46.31-.73.31-.25,0-.49-.09-.69-.27l-2.14-2.03c-.2-.19-.31-.45-.31-.73Zm4.5,8.25h-2c-.55,0-1-.45-1-1s.45-1,1-1h2c.55,0,1,.45,1,1s-.45,1-1,1Zm1.14-4c-.08,0-.17-.01-.26-.03-.53-.14-.85-.69-.71-1.22l1.71-6.5c.14-.54.7-.85,1.22-.71.53.14.85.69.71,1.22l-1.71,6.5c-.12.45-.52.75-.97.75Zm4.86,4h-2c-.55,0-1-.45-1-1s.45-1,1-1h2c.55,0,1,.45,1,1s-.45,1-1,1Zm2.19-7.52l-2.14,2.03c-.19.18-.44.27-.69.27-.26,0-.53-.1-.73-.31-.38-.4-.36-1.03.04-1.41l1.38-1.31-1.38-1.31c-.4-.38-.42-1.01-.04-1.41.38-.4,1.01-.42,1.41-.04l2.14,2.03c.2.19.31.45.31.73s-.11.54-.31.73Z"/>
</svg>