<?xml version="1.0" encoding="UTF-8"?>
<svg id="OBJECT" xmlns="http://www.w3.org/2000/svg" viewBox="0 0 32 32">
  <path d="m19,1h-6C6.38,1,1,6.38,1,13v1h2v-1c0-1.23.23-2.4.64-3.49l2.05.59c.22.06.45.1.68.1.75,0,1.47-.34,1.96-.95,1.15-1.42,2.85-2.24,4.67-2.24h6c1.82,0,3.52.82,4.67,2.24.64.79,1.68,1.13,2.64.85l2.05-.59c.41,1.09.64,2.26.64,3.49v1h2v-1c0-6.62-5.38-12-12-12Z"/>
  <path d="m27,31h3c.55,0,1-.45,1-1v-14h-4v15Z"/>
  <path d="m21,20v9c0,1.1.9,2,2,2h2v-13h-2c-1.1,0-2,.9-2,2Z"/>
  <path d="m1,30c0,.55.45,1,1,1h3v-15H1v14Z"/>
  <path d="m9,18h-2v13h2c1.1,0,2-.9,2-2v-9c0-1.1-.9-2-2-2Z"/>
</svg>