<?xml version="1.0" encoding="UTF-8"?>
<svg id="OBJECT" xmlns="http://www.w3.org/2000/svg" viewBox="0 0 32 32">
  <path d="m22.21,26h-.5v-2h-12v2h-.5c-.55,0-1,.45-1,1s.45,1,1,1h2.79v2c0,.55.45,1,1,1h6c.55,0,1-.45,1-1v-2h2.21c.55,0,1-.45,1-1s-.45-1-1-1Z"/>
  <path d="m30,11h-.89c-.55,0-1,.45-1,1s.45,1,1,1h.89c.55,0,1-.45,1-1s-.45-1-1-1Z"/>
  <path d="m28.68,9.15c.11,0,.23-.02.34-.06l.84-.31c.52-.19.79-.76.6-1.28-.19-.52-.76-.79-1.28-.6l-.84.31c-.52.19-.79.76-.6,1.28.15.41.53.66.94.66Z"/>
  <path d="m29.87,15.21l-.84-.31c-.52-.19-1.09.08-1.28.6-.19.52.08,1.09.6,1.28l.84.31c.11.04.23.06.34.06.41,0,.79-.25.94-.66.19-.52-.08-1.09-.6-1.28Z"/>
  <path d="m2.89,13c.55,0,1-.45,1-1s-.45-1-1-1h-.89c-.55,0-1,.45-1,1s.45,1,1,1h.89Z"/>
  <path d="m3.66,7.21l-.84-.31c-.52-.19-1.09.08-1.28.6-.19.52.08,1.09.6,1.28l.84.31c.11.04.23.06.34.06.41,0,.79-.25.94-.66.19-.52-.08-1.09-.6-1.28Z"/>
  <path d="m2.97,14.91l-.84.31c-.52.19-.79.76-.6,1.28.15.41.53.66.94.66.11,0,.23-.02.34-.06l.84-.31c.52-.19.79-.76.6-1.28-.19-.52-.76-.79-1.28-.6Z"/>
  <path d="m23.33,3.8c-2.33-2.08-5.46-3.08-8.59-2.73-5.06.56-9.14,4.64-9.68,9.71-.42,3.89,1.19,7.62,4.3,9.98.22.16.35.45.35.75v.49h12v-.07c0-.33.16-.63.42-.81,3.05-2.05,4.86-5.46,4.86-9.13,0-3.12-1.34-6.11-3.67-8.2Zm-10.65,9.54c.38.4.37,1.03-.02,1.41-.19.19-.45.28-.7.28s-.52-.1-.72-.3l-1.96-2.03c-.38-.39-.38-1,0-1.39l1.96-2.03c.38-.4,1.02-.41,1.41-.02.4.38.41,1.02.02,1.41l-1.29,1.34,1.29,1.34Zm5.08-4.35l-1.57,6.5c-.11.46-.52.76-.97.76-.08,0-.16,0-.24-.03-.54-.13-.87-.67-.74-1.21l1.57-6.5c.13-.54.67-.87,1.21-.74.54.13.87.67.74,1.21Zm4.96,3.71l-1.96,2.03c-.2.2-.46.3-.72.3s-.5-.09-.7-.28c-.4-.38-.41-1.02-.02-1.41l1.29-1.34-1.29-1.34c-.38-.4-.37-1.03.02-1.41.4-.38,1.03-.37,1.41.02l1.96,2.03c.38.39.38,1,0,1.39Z"/>
</svg>