<?xml version="1.0" encoding="UTF-8"?>
<svg id="OBJECT" xmlns="http://www.w3.org/2000/svg" viewBox="0 0 32 32">
  <path d="m25.5,16.5c1.38,0,2.5-1.12,2.5-2.5v-2.5c0-.55-.45-1-1-1s-1,.45-1,1v2.5c0,.28-.22.5-.5.5h-2.5v-1c0-.83-.67-1.5-1.5-1.5h-4.5v13.03c2.05.07,4.04.37,5.92.89.05-.3.08-.6.08-.91v-.5h2.5c.28,0,.5.22.5.5v2.5c0,.55.45,1,1,1s1-.45,1-1v-2.5c0-1.38-1.12-2.5-2.5-2.5h-2.5v-2h4c.55,0,1-.45,1-1s-.45-1-1-1h-4v-2h2.5Z"/>
  <path d="m10,3h1.52c.19,0,.37.11.45.28l1.39,2.83c-.22.42-.36.88-.36,1.39v2.5h6v-2.5c0-.5-.14-.97-.36-1.39l1.39-2.83c.08-.17.26-.28.45-.28h1.52c.55,0,1-.45,1-1s-.45-1-1-1h-1.52c-.95,0-1.83.55-2.25,1.4l-1.13,2.31c-.34-.14-.71-.22-1.1-.22s-.76.08-1.1.22l-1.13-2.32c-.42-.85-1.3-1.4-2.25-1.4h-1.52c-.55,0-1,.45-1,1s.45,1,1,1Z"/>
  <path d="m15,12h-4.5c-.83,0-1.5.67-1.5,1.5v1h-2.5c-.28,0-.5-.22-.5-.5v-2.5c0-.55-.45-1-1-1s-1,.45-1,1v2.5c0,1.38,1.12,2.5,2.5,2.5h2.5v2h-4c-.55,0-1,.45-1,1s.45,1,1,1h4v2h-2.5c-1.38,0-2.5,1.12-2.5,2.5v2.5c0,.55.45,1,1,1s1-.45,1-1v-2.5c0-.28.22-.5.5-.5h2.5v.5c0,.31.03.62.08.91,1.89-.51,3.88-.81,5.92-.89v-13.03Z"/>
  <path d="m9.71,27.82c1.01,1.89,3,3.18,5.29,3.18h2c2.29,0,4.28-1.29,5.29-3.18-1.99-.53-4.11-.82-6.29-.82s-4.3.28-6.29.82Z"/>
</svg>