<?xml version="1.0" encoding="UTF-8"?>
<svg id="OBJECT" xmlns="http://www.w3.org/2000/svg" viewBox="0 0 32 32">
  <path d="m12.8,23.57l.43,1.59c.3,1.08,1.29,1.84,2.41,1.84h.71c1.12,0,2.11-.76,2.41-1.84l.43-1.59c-1.02.27-2.09.43-3.2.43s-2.18-.16-3.2-.43Z"/>
  <path d="m16,22c5.79,0,10.5-4.71,10.5-10.5S21.79,1,16,1,5.5,5.71,5.5,11.5s4.71,10.5,10.5,10.5Zm3.32-11.84c-.38-.4-.37-1.03.02-1.41.4-.38,1.03-.37,1.41.02l1.96,2.03c.38.39.38,1,0,1.39l-1.96,2.03c-.2.2-.46.3-.72.3s-.5-.09-.7-.28c-.4-.38-.41-1.02-.02-1.41l1.29-1.34-1.29-1.34Zm-5.08,4.35l1.57-6.5c.13-.54.67-.87,1.21-.74.54.13.87.67.74,1.21l-1.57,6.5c-.11.46-.52.76-.97.76-.08,0-.16,0-.24-.03-.54-.13-.87-.67-.74-1.21Zm-4.96-3.71l1.96-2.03c.38-.4,1.02-.41,1.41-.02.4.38.41,1.02.02,1.41l-1.29,1.34,1.29,1.34c.38.4.37,1.03-.02,1.41-.19.19-.45.28-.7.28s-.52-.1-.72-.3l-1.96-2.03c-.38-.39-.38-1,0-1.39Z"/>
  <path d="m25,23h-3.57l-.73,2.68c-.53,1.96-2.31,3.32-4.34,3.32h-.71c-2.02,0-3.8-1.36-4.34-3.31l-.73-2.69h-3.57c-1.66,0-3,1.34-3,3v5h24v-5c0-1.66-1.34-3-3-3Zm-17,5h-1c-.55,0-1-.45-1-1s.45-1,1-1h1c.55,0,1,.45,1,1s-.45,1-1,1Zm17,0h-1c-.55,0-1-.45-1-1s.45-1,1-1h1c.55,0,1,.45,1,1s-.45,1-1,1Z"/>
</svg>