<?xml version="1.0" encoding="UTF-8"?>
<svg id="OBJECT" xmlns="http://www.w3.org/2000/svg" viewBox="0 0 32 32">
  <path d="m30.54,20.16l-.73-.47-12.19,7.83c-.48.31-1.04.48-1.62.48s-1.14-.17-1.62-.48l-12.19-7.83-.73.47c-.29.18-.46.5-.46.84s.17.66.46.84l14,9c.16.11.35.16.54.16s.38-.05.54-.16l14-9c.29-.18.46-.5.46-.84s-.17-.66-.46-.84Z"/>
  <path d="m30.54,15.16l-.73-.47-12.19,7.83c-.48.31-1.04.48-1.62.48s-1.14-.17-1.62-.48L2.19,14.69l-.73.47c-.29.18-.46.5-.46.84s.17.66.46.84l14,9c.16.11.35.16.54.16s.38-.05.54-.16l14-9c.29-.18.46-.5.46-.84s-.17-.66-.46-.84Z"/>
  <path d="m1.46,11.84l14,9c.16.11.35.16.54.16s.38-.05.54-.16l14-9c.29-.18.46-.5.46-.84s-.17-.66-.46-.84L16.54,1.16c-.33-.21-.75-.21-1.08,0L1.46,10.16c-.29.18-.46.5-.46.84s.17.66.46.84Zm18.36-2.18c-.38-.4-.37-1.03.02-1.41s1.03-.37,1.41.02l1.96,2.03c.38.39.38,1,0,1.39l-1.96,2.03c-.2.2-.46.3-.72.3s-.5-.09-.7-.28c-.4-.38-.41-1.02-.02-1.41l1.29-1.34-1.29-1.34Zm-5.57,4.35l1.57-6.5c.13-.54.67-.87,1.21-.74.54.13.87.67.74,1.21l-1.57,6.5c-.11.46-.52.77-.97.77-.08,0-.16,0-.24-.03-.54-.13-.87-.67-.74-1.21Zm-5.46-3.71l1.96-2.03c.38-.4,1.02-.41,1.41-.02.4.38.41,1.02.02,1.41l-1.29,1.34,1.29,1.34c.38.4.37,1.03-.02,1.41-.19.19-.44.28-.7.28s-.52-.1-.72-.3l-1.96-2.03c-.38-.39-.38-1,0-1.39Z"/>
</svg>