<?xml version="1.0" encoding="UTF-8"?>
<svg id="OBJECT" xmlns="http://www.w3.org/2000/svg" viewBox="0 0 32 32">
  <path d="m10.5,10c0-3.03,2.47-5.5,5.5-5.5s5.5,2.47,5.5,5.5v6h3.5v-6c0-4.96-4.04-9-9-9S7,5.04,7,10v6h3.5v-6Z"/>
  <path d="m26.5,18H5.5c-.83,0-1.5.67-1.5,1.5v10c0,.83.67,1.5,1.5,1.5h21c.83,0,1.5-.67,1.5-1.5v-10c0-.83-.67-1.5-1.5-1.5Zm-14.32,7.84c.38.4.37,1.03-.02,1.41-.19.19-.44.28-.7.28s-.52-.1-.72-.3l-1.96-2.03c-.38-.39-.38-1,0-1.39l1.96-2.03c.38-.4,1.02-.41,1.41-.02.4.38.41,1.02.02,1.41l-1.29,1.34,1.29,1.34Zm5.57-4.35l-1.57,6.5c-.11.46-.52.76-.97.76-.08,0-.16,0-.24-.03-.54-.13-.87-.67-.74-1.21l1.57-6.5c.13-.54.67-.87,1.21-.74.54.13.87.67.74,1.21Zm5.46,3.71l-1.96,2.03c-.2.2-.46.3-.72.3s-.5-.09-.7-.28c-.4-.38-.41-1.02-.02-1.41l1.29-1.34-1.29-1.34c-.38-.4-.37-1.03.02-1.41s1.03-.38,1.41.02l1.96,2.03c.38.39.38,1,0,1.39Z"/>
</svg>