<?xml version="1.0" encoding="UTF-8"?>
<svg id="OBJECT" xmlns="http://www.w3.org/2000/svg" viewBox="0 0 32 32">
  <path d="m27,4c-.55,0-1,.45-1,1v1c0,.55.45,1,1,1s1-.45,1-1v-1c0-.55-.45-1-1-1Z"/>
  <path d="m27,8c-.55,0-1,.45-1,1v13c0,.55-.45,1-1,1h-2c-.55,0-1-.45-1-1V4c0-1.65-1.35-3-3-3h-6c-1.65,0-3,1.35-3,3v2h2v-2c0-.55.45-1,1-1h6c.55,0,1,.45,1,1v18c0,1.65,1.35,3,3,3h2c1.65,0,3-1.35,3-3v-13c0-.55-.45-1-1-1Z"/>
  <rect x="8" y="8" width="6" height="3"/>
  <rect x="10" y="18" width="2" height="4" rx=".5" ry=".5"/>
  <path d="m16,13h-4v3.05c1.14.23,2,1.24,2,2.45v3c0,1.38-1.12,2.5-2.5,2.5h-1c-1.38,0-2.5-1.12-2.5-2.5v-3c0-1.21.86-2.22,2-2.45v-3.05h-4c-1.1,0-2,.9-2,2v10c0,3.31,2.69,6,6,6h2c3.31,0,6-2.69,6-6v-10c0-1.1-.9-2-2-2Z"/>
</svg>