<?xml version="1.0" encoding="UTF-8"?>
<svg id="OBJECT" xmlns="http://www.w3.org/2000/svg" viewBox="0 0 32 32">
  <rect x="9" y="27" width="3" height="4"/>
  <rect x="20" y="27" width="3" height="4"/>
  <rect x="14" y="27" width="4" height="4"/>
  <path d="m3,30c0,.55.45,1,1,1h3v-4H3v3Z"/>
  <path d="m25,31h3c.55,0,1-.45,1-1v-3h-4v4Z"/>
  <path d="m16,18c4.96,0,9-4.04,9-9S20.96,0,16,0,7,4.04,7,9s4.04,9,9,9Zm3.32-10.34c-.38-.4-.37-1.03.02-1.41s1.03-.37,1.41.02l1.96,2.03c.38.39.38,1,0,1.39l-1.96,2.03c-.2.2-.46.3-.72.3s-.5-.09-.7-.28c-.4-.38-.41-1.02-.02-1.41l1.29-1.34-1.29-1.34Zm-5.07,4.35l1.57-6.5c.13-.54.67-.86,1.21-.74.54.13.87.67.74,1.21l-1.57,6.5c-.11.46-.52.77-.97.77-.08,0-.16,0-.24-.03-.54-.13-.87-.67-.74-1.21Zm-4.96-3.71l1.96-2.03c.38-.4,1.02-.41,1.41-.02.4.38.41,1.02.02,1.41l-1.29,1.34,1.29,1.34c.38.4.37,1.03-.02,1.41-.19.19-.44.28-.7.28s-.52-.1-.72-.3l-1.96-2.03c-.38-.39-.38-1,0-1.39Z"/>
  <path d="m28,15.5h3v-1.5c0-.55-.45-1-1-1h-3.76c-1.6,4.09-5.58,7-10.24,7s-8.63-2.91-10.24-7h-3.76c-.55,0-1,.45-1,1v1.5h3c1.65,0,3,1.35,3,3s-1.35,3-3,3H1v3.5h30v-3.5h-3c-1.65,0-3-1.35-3-3s1.35-3,3-3Zm-17.5,7.5h-1c-.55,0-1-.45-1-1s.45-1,1-1h1c.55,0,1,.45,1,1s-.45,1-1,1Zm7,0h-3c-.55,0-1-.45-1-1s.45-1,1-1h3c.55,0,1,.45,1,1s-.45,1-1,1Zm5,0h-1c-.55,0-1-.45-1-1s.45-1,1-1h1c.55,0,1,.45,1,1s-.45,1-1,1Z"/>
</svg>