<?xml version="1.0" encoding="UTF-8"?>
<svg id="OBJECT" xmlns="http://www.w3.org/2000/svg" viewBox="0 0 32 32">
  <path d="m7.62,22.26c-.24-.24-.6-.33-.92-.22-1.19.4-2.32,1.12-3.28,2.07-1.73,1.73-2.64,4.06-2.38,6.06.05.4.37.72.78.78.23.03.46.04.7.04,1.83,0,3.83-.89,5.36-2.42.95-.95,1.67-2.09,2.07-3.28.11-.32.02-.68-.22-.92l-2.11-2.11Z"/>
  <path d="m25.16,22.93l-.85.85-.57-1.7c-1.85,1.56-3.86,2.85-5.97,3.82l1.66,2.76-.64.64c-.39.39-.39,1.02,0,1.41.2.2.45.29.71.29s.51-.1.71-.29l6.37-6.36c.39-.39.39-1.02,0-1.41s-1.02-.39-1.41,0Z"/>
  <path d="m2,13.5c.26,0,.51-.1.71-.29l.68-.68,2.74,1.65c.98-2.11,2.27-4.12,3.84-5.97l-1.7-.57.8-.8c.39-.39.39-1.02,0-1.41s-1.02-.39-1.41,0L1.29,11.79c-.39.39-.39,1.02,0,1.41.2.2.45.29.71.29Z"/>
  <path d="m20.15,22.28c1.4-.93,2.73-2.01,3.95-3.23,4.92-4.92,7.51-11.45,6.77-17.06-.06-.45-.41-.8-.86-.86-5.61-.73-12.15,1.86-17.06,6.77-1.23,1.23-2.3,2.56-3.23,3.95l10.43,10.43Zm-.15-14.78c2.48,0,4.5,2.02,4.5,4.5s-2.02,4.5-4.5,4.5-4.5-2.02-4.5-4.5,2.02-4.5,4.5-4.5Z"/>
  <path d="m8.65,13.61c-.64,1.18-1.18,2.39-1.6,3.62-.12.36-.03.76.24,1.03l6.45,6.45c.19.19.45.29.71.29.11,0,.21-.02.32-.05,1.23-.41,2.44-.95,3.62-1.6l-9.74-9.74Z"/>
  <circle cx="20" cy="12" r="2.5"/>
</svg>