<?xml version="1.0" encoding="UTF-8"?>
<svg id="OBJECT" xmlns="http://www.w3.org/2000/svg" viewBox="0 0 32 32">
  <path d="m30.24,26.55l-4.82-4.82c-1,1.44-2.25,2.69-3.69,3.69l4.82,4.82c.49.49,1.15.76,1.84.76s1.35-.27,1.84-.76c1.02-1.02,1.02-2.67,0-3.69Z"/>
  <path d="m13.5,5c-4.69,0-8.5,3.81-8.5,8.5s3.81,8.5,8.5,8.5,8.5-3.81,8.5-8.5-3.81-8.5-8.5-8.5Zm-2.77,9.72c.39.39.39,1.02,0,1.41-.2.2-.45.29-.71.29s-.51-.1-.71-.29l-1.93-1.93c-.39-.39-.39-1.02,0-1.41l1.93-1.93c.39-.39,1.02-.39,1.41,0s.39,1.02,0,1.41l-1.22,1.22,1.22,1.22Zm4.51-4.07l-1.54,6.18c-.11.45-.52.76-.97.76-.08,0-.16,0-.24-.03-.54-.13-.86-.68-.73-1.21l1.54-6.18c.13-.54.67-.86,1.21-.73.54.13.86.68.73,1.21Zm2.44,5.49c-.2.2-.45.29-.71.29s-.51-.1-.71-.29c-.39-.39-.39-1.02,0-1.41l1.22-1.22-1.22-1.22c-.39-.39-.39-1.02,0-1.41s1.02-.39,1.41,0l1.93,1.93c.39.39.39,1.02,0,1.41l-1.93,1.93Z"/>
  <path d="m26,13.5c0-6.89-5.61-12.5-12.5-12.5S1,6.61,1,13.5s5.61,12.5,12.5,12.5,12.5-5.61,12.5-12.5Zm-12.5,10.5c-5.79,0-10.5-4.71-10.5-10.5S7.71,3,13.5,3s10.5,4.71,10.5,10.5-4.71,10.5-10.5,10.5Z"/>
</svg>