<?xml version="1.0" encoding="UTF-8"?>
<svg id="OBJECT" xmlns="http://www.w3.org/2000/svg" viewBox="0 0 32 32">
  <path d="m30,13h-1.87c-.3-1.22-.78-2.38-1.43-3.46l1.32-1.32c.39-.39.39-1.02,0-1.41l-2.83-2.83c-.39-.39-1.02-.39-1.41,0l-1.32,1.32c-1.07-.65-2.23-1.13-3.46-1.43v-1.87c0-.55-.45-1-1-1h-4c-.55,0-1,.45-1,1v1.87c-1.22.3-2.38.78-3.46,1.43l-1.32-1.32c-.39-.39-1.02-.39-1.41,0l-2.83,2.83c-.39.39-.39,1.02,0,1.41l1.32,1.32c-.65,1.07-1.13,2.23-1.43,3.46h-1.87c-.55,0-1,.45-1,1v4c0,.55.45,1,1,1h1.87c.3,1.22.78,2.38,1.43,3.46l-1.32,1.32c-.39.39-.39,1.02,0,1.41l2.83,2.83c.39.39,1.02.39,1.41,0l1.32-1.32c1.07.65,2.23,1.13,3.46,1.43v1.87c0,.55.45,1,1,1h4c.55,0,1-.45,1-1v-1.87c1.22-.3,2.38-.78,3.46-1.43l1.32,1.32c.39.39,1.02.39,1.41,0l2.83-2.83c.39-.39.39-1.02,0-1.41l-1.32-1.32c.65-1.07,1.13-2.23,1.43-3.46h1.87c.55,0,1-.45,1-1v-4c0-.55-.45-1-1-1Zm-14,13.5c-5.79,0-10.5-4.71-10.5-10.5s4.71-10.5,10.5-10.5,10.5,4.71,10.5,10.5-4.71,10.5-10.5,10.5Z"/>
  <path d="m16,7.5c-4.69,0-8.5,3.81-8.5,8.5s3.81,8.5,8.5,8.5,8.5-3.81,8.5-8.5-3.81-8.5-8.5-8.5Zm-3.27,9.73c.39.39.39,1.02,0,1.41-.2.2-.45.29-.71.29s-.51-.1-.71-.29l-1.93-1.93c-.39-.39-.39-1.02,0-1.41l1.93-1.93c.39-.39,1.02-.39,1.41,0s.39,1.02,0,1.41l-1.22,1.22,1.22,1.22Zm5.01-4.07l-1.54,6.18c-.11.45-.52.76-.97.76-.08,0-.16,0-.24-.03-.54-.13-.86-.68-.73-1.21l1.54-6.18c.13-.54.67-.86,1.21-.73.54.13.86.68.73,1.21Zm4.87,3.56l-1.93,1.93c-.2.2-.45.29-.71.29s-.51-.1-.71-.29c-.39-.39-.39-1.02,0-1.41l1.22-1.22-1.22-1.22c-.39-.39-.39-1.02,0-1.41s1.02-.39,1.41,0l1.93,1.93c.39.39.39,1.02,0,1.41Z"/>
</svg>