<?xml version="1.0" encoding="UTF-8"?>
<svg id="OBJECT" xmlns="http://www.w3.org/2000/svg" viewBox="0 0 32 32">
  <path d="m27.71,8.61c.39-.39.39-1.02,0-1.41l-5.9-5.9c-.39-.39-1.02-.39-1.41,0l-3.91,3.91,7.32,7.32,3.91-3.91Zm-6.07-2.78l-.33.33c-.2.2-.45.29-.71.29s-.51-.1-.71-.29c-.39-.39-.39-1.02,0-1.41l.33-.33c.39-.39,1.02-.39,1.41,0s.39,1.02,0,1.41Zm1.2,3.27c-.39-.39-.39-1.02,0-1.41l.33-.33c.39-.39,1.02-.39,1.41,0s.39,1.02,0,1.41l-.33.33c-.2.2-.45.29-.71.29s-.51-.1-.71-.29Z"/>
  <path d="m29,17.5h-14c-1.1,0-2,.9-2,2v9.5c0,1.1.9,2,2,2h14c1.1,0,2-.9,2-2v-9.5c0-1.1-.9-2-2-2Zm-10.32,8.09c.38.4.37,1.03-.02,1.41-.19.19-.44.28-.7.28s-.52-.1-.72-.3l-1.96-2.03c-.38-.39-.38-1,0-1.39l1.96-2.03c.38-.4,1.02-.41,1.41-.02.4.38.41,1.02.02,1.41l-1.29,1.34,1.29,1.34Zm5.07-4.35l-1.57,6.5c-.11.46-.52.77-.97.77-.08,0-.16,0-.24-.03-.54-.13-.87-.67-.74-1.21l1.57-6.5c.13-.54.67-.87,1.21-.74.54.13.87.67.74,1.21Zm4.96,3.71l-1.96,2.03c-.2.2-.46.3-.72.3s-.5-.09-.7-.28c-.4-.38-.41-1.02-.02-1.41l1.29-1.34-1.29-1.34c-.38-.4-.37-1.03.02-1.41.4-.38,1.03-.37,1.41.02l1.96,2.03c.38.39.38,1,0,1.39Z"/>
  <polygon points="23.28 15.5 23.61 15.17 13.83 5.39 11.25 7.98 18.77 15.5 23.28 15.5"/>
  <path d="m15.94,15.5l-6.11-6.11L1.73,17.5c-.47.47-.73,1.09-.73,1.75s.26,1.28.73,1.75l6.27,6.27c.48.48,1.12.72,1.75.72.43,0,.86-.12,1.25-.35v-9.15c0-1.66,1.34-3,3-3h1.94Zm-9.25,4.81c-.2.2-.45.29-.71.29s-.51-.1-.71-.29l-.35-.35c-.39-.39-.39-1.02,0-1.41s1.02-.39,1.41,0l.35.35c.39.39.39,1.02,0,1.41Zm2.83,2.83c-.2.19-.45.29-.71.29s-.51-.1-.71-.29l-.35-.35c-.39-.39-.39-1.02,0-1.41.39-.39,1.02-.39,1.41,0l.35.35c.39.39.39,1.02,0,1.41Z"/>
</svg>