<?xml version="1.0" encoding="UTF-8"?>
<svg id="OBJECT" xmlns="http://www.w3.org/2000/svg" viewBox="0 0 32 32">
  <path d="m30,1H2c-.55,0-1,.45-1,1v5h30V2c0-.55-.45-1-1-1Zm-7,4h-1c-.55,0-1-.45-1-1s.45-1,1-1h1c.55,0,1,.45,1,1s-.45,1-1,1Zm5,0h-1c-.55,0-1-.45-1-1s.45-1,1-1h1c.55,0,1,.45,1,1s-.45,1-1,1Z"/>
  <path d="m1,30c0,.55.45,1,1,1h28c.55,0,1-.45,1-1V9H1v21Zm20.5-2h-11.36c-.55,0-1-.45-1-1s.45-1,1-1h11.36c.55,0,1,.45,1,1s-.45,1-1,1Zm5-2c.55,0,1,.45,1,1s-.45,1-1,1h-1c-.55,0-1-.45-1-1s.45-1,1-1h1Zm-6.07-10.55c-.39-.39-.38-1.03.01-1.41.39-.39,1.03-.38,1.41.01l2.86,2.92c.38.39.38,1.01,0,1.4l-2.86,2.92c-.2.2-.46.3-.71.3s-.5-.1-.7-.29c-.39-.39-.4-1.02-.01-1.41l2.17-2.22-2.17-2.22Zm-6.54,6.65l2.29-9.33c.13-.54.67-.87,1.21-.73.54.13.86.67.73,1.21l-2.29,9.33c-.11.46-.52.76-.97.76-.08,0-.16,0-.24-.03-.54-.13-.86-.67-.73-1.21Zm-6.6-5.13l2.86-2.92c.39-.4,1.02-.4,1.41-.01.39.39.4,1.02.01,1.41l-2.17,2.22,2.17,2.22c.39.39.38,1.03-.01,1.41-.19.19-.45.29-.7.29s-.52-.1-.71-.3l-2.86-2.92c-.38-.39-.38-1.01,0-1.4Zm-1.79,9.03h1c.55,0,1,.45,1,1s-.45,1-1,1h-1c-.55,0-1-.45-1-1s.45-1,1-1Z"/>
</svg>