<?xml version="1.0" encoding="UTF-8"?>
<svg id="OBJECT" xmlns="http://www.w3.org/2000/svg" xmlns:xlink="http://www.w3.org/1999/xlink" viewBox="0 0 32 32">
  <defs>
    <style>
      .cls-1 {
        fill: url(#New_Gradient_Swatch);
      }

      .cls-2 {
        fill: url(#New_Gradient_Swatch-2);
      }
    </style>
    <linearGradient id="New_Gradient_Swatch" data-name="New Gradient Swatch" x1="-3.65" y1="18" x2="34.33" y2="18" gradientUnits="userSpaceOnUse">
      <stop offset="0" stop-color="#7738c8"/>
      <stop offset="1" stop-color="#461d93"/>
    </linearGradient>
    <linearGradient id="New_Gradient_Swatch-2" data-name="New Gradient Swatch" y1="16" x2="34.33" y2="16" xlink:href="#New_Gradient_Swatch"/>
  </defs>
  <path class="cls-1" d="m16,23c.55,0,1-.45,1-1v-8c0-.55-.45-1-1-1s-1,.45-1,1v8c0,.55.45,1,1,1Z"/>
  <path class="cls-1" d="m20,22c.55,0,1-.45,1-1v-6c0-.55-.45-1-1-1s-1,.45-1,1v6c0,.55.45,1,1,1Z"/>
  <path class="cls-1" d="m12,22c.55,0,1-.45,1-1v-6c0-.55-.45-1-1-1s-1,.45-1,1v6c0,.55.45,1,1,1Z"/>
  <path class="cls-2" d="m27,5h-7v-3c0-.55-.45-1-1-1h-6c-.55,0-1,.45-1,1v3h-7c-.55,0-1,.45-1,1v4c0,.55.45,1,1,1h1.09l1.91,19.1c.05.51.48.9,1,.9h14c.51,0,.94-.39,1-.9l1.91-19.1h1.09c.55,0,1-.45,1-1v-4c0-.55-.45-1-1-1Zm-13-2h4v2h-4v-2Zm-4.1,26l-.2-2h12.59l-.2,2h-12.19Zm12.59-4h-12.99l-1.4-14h15.79l-1.4,14Zm3.5-16H6v-2h20v2Z"/>
</svg>