<?xml version="1.0" encoding="UTF-8"?>
<svg id="OBJECT" xmlns="http://www.w3.org/2000/svg" xmlns:xlink="http://www.w3.org/1999/xlink" viewBox="0 0 32 32">
  <defs>
    <style>
      .cls-1 {
        fill: url(#New_Gradient_Swatch-7);
      }

      .cls-2 {
        fill: url(#New_Gradient_Swatch-6);
      }

      .cls-3 {
        fill: url(#New_Gradient_Swatch);
      }

      .cls-4 {
        fill: url(#New_Gradient_Swatch-5);
      }

      .cls-5 {
        fill: url(#New_Gradient_Swatch-8);
      }

      .cls-6 {
        fill: url(#New_Gradient_Swatch-4);
      }

      .cls-7 {
        fill: url(#New_Gradient_Swatch-3);
      }

      .cls-8 {
        fill: url(#New_Gradient_Swatch-10);
      }

      .cls-9 {
        fill: url(#New_Gradient_Swatch-9);
      }

      .cls-10 {
        fill: url(#New_Gradient_Swatch-2);
      }
    </style>
    <linearGradient id="New_Gradient_Swatch" data-name="New Gradient Swatch" x1="-3.3" y1="16" x2="33.23" y2="16" gradientUnits="userSpaceOnUse">
      <stop offset="0" stop-color="#7738c8"/>
      <stop offset="1" stop-color="#461d93"/>
    </linearGradient>
    <linearGradient id="New_Gradient_Swatch-2" data-name="New Gradient Swatch" y1="5" y2="5" xlink:href="#New_Gradient_Swatch"/>
    <linearGradient id="New_Gradient_Swatch-3" data-name="New Gradient Swatch" y1="5" y2="5" xlink:href="#New_Gradient_Swatch"/>
    <linearGradient id="New_Gradient_Swatch-4" data-name="New Gradient Swatch" y1="25" x2="33.23" y2="25" xlink:href="#New_Gradient_Swatch"/>
    <linearGradient id="New_Gradient_Swatch-5" data-name="New Gradient Swatch" y1="25" y2="25" xlink:href="#New_Gradient_Swatch"/>
    <linearGradient id="New_Gradient_Swatch-6" data-name="New Gradient Swatch" y1="25" y2="25" xlink:href="#New_Gradient_Swatch"/>
    <linearGradient id="New_Gradient_Swatch-7" data-name="New Gradient Swatch" y1="17" x2="33.23" y2="17" xlink:href="#New_Gradient_Swatch"/>
    <linearGradient id="New_Gradient_Swatch-8" data-name="New Gradient Swatch" y1="17" y2="17" xlink:href="#New_Gradient_Swatch"/>
    <linearGradient id="New_Gradient_Swatch-9" data-name="New Gradient Swatch" y1="17" x2="33.23" y2="17" xlink:href="#New_Gradient_Swatch"/>
    <linearGradient id="New_Gradient_Swatch-10" data-name="New Gradient Swatch" y1="17" y2="17" xlink:href="#New_Gradient_Swatch"/>
  </defs>
  <path class="cls-3" d="m30,1H2c-.55,0-1,.45-1,1v28c0,.55.45,1,1,1h28c.55,0,1-.45,1-1V2c0-.55-.45-1-1-1Zm-1,2v4H3V3h26ZM3,29V9h26v20H3Z"/>
  <path class="cls-10" d="m21,6h1c.55,0,1-.45,1-1s-.45-1-1-1h-1c-.55,0-1,.45-1,1s.45,1,1,1Z"/>
  <path class="cls-7" d="m26,6h1c.55,0,1-.45,1-1s-.45-1-1-1h-1c-.55,0-1,.45-1,1s.45,1,1,1Z"/>
  <path class="cls-6" d="m21.5,24h-11.36c-.55,0-1,.45-1,1s.45,1,1,1h11.36c.55,0,1-.45,1-1s-.45-1-1-1Z"/>
  <path class="cls-4" d="m6.5,24h-1c-.55,0-1,.45-1,1s.45,1,1,1h1c.55,0,1-.45,1-1s-.45-1-1-1Z"/>
  <path class="cls-2" d="m26.5,24h-1c-.55,0-1,.45-1,1s.45,1,1,1h1c.55,0,1-.45,1-1s-.45-1-1-1Z"/>
  <path class="cls-1" d="m11.5,22h1c1.38,0,2.5-1.12,2.5-2.5v-5c0-1.38-1.12-2.5-2.5-2.5h-1c-1.38,0-2.5,1.12-2.5,2.5v5c0,1.38,1.12,2.5,2.5,2.5Zm-.5-7.5c0-.28.22-.5.5-.5h1c.28,0,.5.22.5.5v5c0,.28-.22.5-.5.5h-1c-.28,0-.5-.22-.5-.5v-5Z"/>
  <path class="cls-5" d="m6,22c.55,0,1-.45,1-1v-8c0-.55-.45-1-1-1s-1,.45-1,1v8c0,.55.45,1,1,1Z"/>
  <path class="cls-9" d="m27,19.5v-5c0-1.38-1.12-2.5-2.5-2.5h-1c-1.38,0-2.5,1.12-2.5,2.5v5c0,1.38,1.12,2.5,2.5,2.5h1c1.38,0,2.5-1.12,2.5-2.5Zm-4,0v-5c0-.28.22-.5.5-.5h1c.28,0,.5.22.5.5v5c0,.28-.22.5-.5.5h-1c-.28,0-.5-.22-.5-.5Z"/>
  <path class="cls-8" d="m18,22c.55,0,1-.45,1-1v-8c0-.55-.45-1-1-1s-1,.45-1,1v8c0,.55.45,1,1,1Z"/>
</svg>