<?xml version="1.0" encoding="UTF-8"?>
<svg id="OBJECT" xmlns="http://www.w3.org/2000/svg" xmlns:xlink="http://www.w3.org/1999/xlink" viewBox="0 0 32 32">
  <defs>
    <style>
      .cls-1 {
        fill: url(#New_Gradient_Swatch-7);
      }

      .cls-2 {
        fill: url(#New_Gradient_Swatch-6);
      }

      .cls-3 {
        fill: url(#New_Gradient_Swatch);
      }

      .cls-4 {
        fill: url(#New_Gradient_Swatch-5);
      }

      .cls-5 {
        fill: url(#New_Gradient_Swatch-4);
      }

      .cls-6 {
        fill: url(#New_Gradient_Swatch-3);
      }

      .cls-7 {
        fill: url(#New_Gradient_Swatch-2);
      }
    </style>
    <linearGradient id="New_Gradient_Swatch" data-name="New Gradient Swatch" x1="-1.96" y1="18.5" x2="31.53" y2="18.5" gradientUnits="userSpaceOnUse">
      <stop offset="0" stop-color="#7738c8"/>
      <stop offset="1" stop-color="#461d93"/>
    </linearGradient>
    <linearGradient id="New_Gradient_Swatch-2" data-name="New Gradient Swatch" y1="18.5" x2="31.53" y2="18.5" xlink:href="#New_Gradient_Swatch"/>
    <linearGradient id="New_Gradient_Swatch-3" data-name="New Gradient Swatch" y1="18.5" x2="31.53" y2="18.5" xlink:href="#New_Gradient_Swatch"/>
    <linearGradient id="New_Gradient_Swatch-4" data-name="New Gradient Swatch" y1="16" x2="31.53" y2="16" xlink:href="#New_Gradient_Swatch"/>
    <linearGradient id="New_Gradient_Swatch-5" data-name="New Gradient Swatch" y1="9.25" x2="31.53" y2="9.25" xlink:href="#New_Gradient_Swatch"/>
    <linearGradient id="New_Gradient_Swatch-6" data-name="New Gradient Swatch" y1="5.75" y2="5.75" xlink:href="#New_Gradient_Swatch"/>
    <linearGradient id="New_Gradient_Swatch-7" data-name="New Gradient Swatch" y1="5.75" y2="5.75" xlink:href="#New_Gradient_Swatch"/>
  </defs>
  <path class="cls-3" d="m8.84,15.6c-.39-.39-1.03-.38-1.41.01l-2.14,2.19c-.38.39-.38,1.01,0,1.4l2.14,2.19c.2.2.46.3.71.3s.51-.09.7-.29c.39-.39.4-1.02.01-1.41l-1.46-1.49,1.46-1.49c.39-.39.38-1.03-.01-1.41Z"/>
  <path class="cls-7" d="m15.16,15.6c-.39.39-.4,1.02-.01,1.41l1.46,1.49-1.46,1.49c-.39.39-.38,1.03.01,1.41.19.19.45.29.7.29s.52-.1.71-.3l2.14-2.19c.38-.39.38-1.01,0-1.4l-2.14-2.19c-.39-.39-1.02-.4-1.41-.01Z"/>
  <path class="cls-6" d="m13.09,14.03c-.54-.13-1.08.2-1.21.73l-1.71,7c-.13.54.2,1.08.73,1.21.08.02.16.03.24.03.45,0,.86-.31.97-.76l1.71-7c.13-.54-.2-1.08-.73-1.21Z"/>
  <path class="cls-5" d="m28.76,1h-11.53c-1.23,0-2.24,1-2.24,2.24v6.76H4c-1.65,0-3,1.35-3,3v11c0,1.65,1.35,3,3,3h3.5l2.1,2.8c.56.75,1.46,1.2,2.4,1.2s1.84-.45,2.4-1.2l2.1-2.8h3.5c1.65,0,3-1.35,3-3v-10h2.38l1.38,2.76c.38.76,1.15,1.24,2,1.24,1.23,0,2.24-1,2.24-2.24V3.24c0-1.23-1-2.24-2.24-2.24Zm-7.76,23c0,.55-.45,1-1,1h-4c-.31,0-.61.15-.8.4l-2.4,3.2c-.38.5-1.23.5-1.6,0l-1.2-1.6h2c.55,0,1-.45,1-1s-.45-1-1-1H4c-.55,0-1-.45-1-1v-11c0-.55.45-1,1-1h11.02c.12,1.12,1.06,2,2.21,2h3.76v10Zm8-8.24c0,.22-.35.3-.45.11l-1.66-3.32c-.17-.34-.52-.55-.89-.55h-8.76c-.13,0-.24-.11-.24-.24V3.24c0-.13.11-.24.24-.24h11.53c.13,0,.24.11.24.24v12.53Z"/>
  <path class="cls-4" d="m26.5,8.25h-7c-.55,0-1,.45-1,1s.45,1,1,1h7c.55,0,1-.45,1-1s-.45-1-1-1Z"/>
  <path class="cls-2" d="m26.5,4.75h-3c-.55,0-1,.45-1,1s.45,1,1,1h3c.55,0,1-.45,1-1s-.45-1-1-1Z"/>
  <path class="cls-1" d="m19.5,6.75h.5c.55,0,1-.45,1-1s-.45-1-1-1h-.5c-.55,0-1,.45-1,1s.45,1,1,1Z"/>
</svg>