<?xml version="1.0" encoding="UTF-8"?>
<svg id="OBJECT" xmlns="http://www.w3.org/2000/svg" xmlns:xlink="http://www.w3.org/1999/xlink" viewBox="0 0 32 32">
  <defs>
    <style>
      .cls-1 {
        fill: url(#New_Gradient_Swatch-7);
      }

      .cls-2 {
        fill: url(#New_Gradient_Swatch-6);
      }

      .cls-3 {
        fill: url(#New_Gradient_Swatch);
      }

      .cls-4 {
        fill: url(#New_Gradient_Swatch-5);
      }

      .cls-5 {
        fill: url(#New_Gradient_Swatch-8);
      }

      .cls-6 {
        fill: url(#New_Gradient_Swatch-4);
      }

      .cls-7 {
        fill: url(#New_Gradient_Swatch-3);
      }

      .cls-8 {
        fill: url(#New_Gradient_Swatch-2);
      }
    </style>
    <linearGradient id="New_Gradient_Swatch" data-name="New Gradient Swatch" x1="-2.17" y1="8" x2="33.73" y2="8" gradientUnits="userSpaceOnUse">
      <stop offset="0" stop-color="#7738c8"/>
      <stop offset="1" stop-color="#461d93"/>
    </linearGradient>
    <linearGradient id="New_Gradient_Swatch-2" data-name="New Gradient Swatch" y1="5" x2="33.73" y2="5" xlink:href="#New_Gradient_Swatch"/>
    <linearGradient id="New_Gradient_Swatch-3" data-name="New Gradient Swatch" y1="5" x2="33.73" y2="5" xlink:href="#New_Gradient_Swatch"/>
    <linearGradient id="New_Gradient_Swatch-4" data-name="New Gradient Swatch" y1="24" y2="24" xlink:href="#New_Gradient_Swatch"/>
    <linearGradient id="New_Gradient_Swatch-5" data-name="New Gradient Swatch" y1="21" x2="33.73" y2="21" xlink:href="#New_Gradient_Swatch"/>
    <linearGradient id="New_Gradient_Swatch-6" data-name="New Gradient Swatch" y1="21" x2="33.73" y2="21" xlink:href="#New_Gradient_Swatch"/>
    <linearGradient id="New_Gradient_Swatch-7" data-name="New Gradient Swatch" y1="9.62" x2="33.73" y2="9.62" xlink:href="#New_Gradient_Swatch"/>
    <linearGradient id="New_Gradient_Swatch-8" data-name="New Gradient Swatch" y1="22.38" x2="33.73" y2="22.38" xlink:href="#New_Gradient_Swatch"/>
  </defs>
  <path class="cls-3" d="m16,2c0-.55-.45-1-1-1H2c-.55,0-1,.45-1,1v9c0,.55.45,1,1,1h3.5v1h-1c-.55,0-1,.45-1,1s.45,1,1,1h8c.55,0,1-.45,1-1s-.45-1-1-1h-1v-1h3.5c.55,0,1-.45,1-1V2Zm-6.5,11h-2v-1h2v1Zm4.5-3H3V3h11v7Z"/>
  <path class="cls-8" d="m6.25,6h.5c.55,0,1-.45,1-1s-.45-1-1-1h-.5c-.55,0-1,.45-1,1s.45,1,1,1Z"/>
  <path class="cls-7" d="m10.25,6h.5c.55,0,1-.45,1-1s-.45-1-1-1h-.5c-.55,0-1,.45-1,1s.45,1,1,1Z"/>
  <path class="cls-6" d="m30,17h-13c-.55,0-1,.45-1,1v9c0,.55.45,1,1,1h3.5v1h-1c-.55,0-1,.45-1,1s.45,1,1,1h8c.55,0,1-.45,1-1s-.45-1-1-1h-1v-1h3.5c.55,0,1-.45,1-1v-9c0-.55-.45-1-1-1Zm-5.5,12h-2v-1h2v1Zm4.5-3h-11v-7h11v7Z"/>
  <path class="cls-4" d="m21.25,22h.5c.55,0,1-.45,1-1s-.45-1-1-1h-.5c-.55,0-1,.45-1,1s.45,1,1,1Z"/>
  <path class="cls-2" d="m25.25,22h.5c.55,0,1-.45,1-1s-.45-1-1-1h-.5c-.55,0-1,.45-1,1s.45,1,1,1Z"/>
  <path class="cls-1" d="m19.5,6h4c.55,0,1,.45,1,1v4.84l-.79-.79c-.39-.39-1.02-.39-1.41,0s-.39,1.02,0,1.41l2.5,2.5c.2.2.45.29.71.29s.51-.1.71-.29l2.5-2.5c.39-.39.39-1.02,0-1.41s-1.02-.39-1.41,0l-.79.79v-4.84c0-1.65-1.35-3-3-3h-4c-.55,0-1,.45-1,1s.45,1,1,1Z"/>
  <path class="cls-5" d="m12.5,26h-4c-.55,0-1-.45-1-1v-4.84l.79.79c.2.2.45.29.71.29s.51-.1.71-.29c.39-.39.39-1.02,0-1.41l-2.5-2.5c-.39-.39-1.02-.39-1.41,0l-2.5,2.5c-.39.39-.39,1.02,0,1.41s1.02.39,1.41,0l.79-.79v4.84c0,1.65,1.35,3,3,3h4c.55,0,1-.45,1-1s-.45-1-1-1Z"/>
</svg>