<?xml version="1.0" encoding="UTF-8"?>
<svg id="OBJECT" xmlns="http://www.w3.org/2000/svg" xmlns:xlink="http://www.w3.org/1999/xlink" viewBox="0 0 32 32">
  <defs>
    <style>
      .cls-1 {
        fill: url(#New_Gradient_Swatch);
      }

      .cls-2 {
        fill: url(#New_Gradient_Swatch-4);
      }

      .cls-3 {
        fill: url(#New_Gradient_Swatch-3);
      }

      .cls-4 {
        fill: url(#New_Gradient_Swatch-2);
      }
    </style>
    <linearGradient id="New_Gradient_Swatch" data-name="New Gradient Swatch" x1="-2.87" y1="16" x2="32.63" y2="16" gradientUnits="userSpaceOnUse">
      <stop offset="0" stop-color="#7738c8"/>
      <stop offset="1" stop-color="#461d93"/>
    </linearGradient>
    <linearGradient id="New_Gradient_Swatch-2" data-name="New Gradient Swatch" y1="24.01" x2="32.63" y2="24.01" xlink:href="#New_Gradient_Swatch"/>
    <linearGradient id="New_Gradient_Swatch-3" data-name="New Gradient Swatch" y1="14.13" x2="32.63" y2="14.13" xlink:href="#New_Gradient_Swatch"/>
    <linearGradient id="New_Gradient_Swatch-4" data-name="New Gradient Swatch" y1="19.07" x2="32.63" y2="19.07" xlink:href="#New_Gradient_Swatch"/>
  </defs>
  <path class="cls-1" d="m27.96,25.67l-2.24-12.73c-.17-.95-.85-1.71-1.77-1.99l-.84-.25c-.12-.76-.53-1.46-1.18-1.94l-4.94-3.66.52-2.92c.1-.54-.27-1.06-.81-1.16-.54-.1-1.06.27-1.16.81l-.52,2.92-5.89,1.75c-1.11.33-1.92,1.24-2.12,2.37l-2.96,16.79c-.29,1.64.81,3.21,2.45,3.5l10.14,1.79c.18.03.35.05.53.05.99,0,1.9-.5,2.46-1.29l6.28-1.11c1.38-.24,2.3-1.56,2.05-2.94Zm-4.21-12.38l1.62,9.2-4.3.76,1.85-10.51.45.13c.2.06.34.22.38.42Zm-6.76,15.69l-10.14-1.79c-.56-.1-.93-.63-.83-1.19l2.96-16.79c.07-.38.34-.69.72-.8l4.94-1.47-.34,1.94c-.1.54.27,1.06.81,1.16.06.01.12.02.17.02.48,0,.9-.34.98-.83l.34-1.94,4.14,3.07c.31.23.47.62.4,1l-2.96,16.79c-.1.56-.63.92-1.19.83Zm8.57-2.35l-5.25.93.39-2.22,5.02-.89.27,1.56c.05.29-.14.57-.43.62Z"/>
  <path class="cls-4" d="m14.55,22.67l-1.9,1.29-1.35-1.86c-.32-.45-.95-.55-1.4-.22-.45.32-.55.95-.22,1.4l1.92,2.64c.2.27.5.41.81.41.19,0,.39-.06.56-.17l2.71-1.83c.46-.31.58-.93.27-1.39s-.93-.58-1.39-.27Z"/>
  <path class="cls-3" d="m12.46,15.47l1.9-1.29,1.35,1.86c.2.27.5.41.81.41.2,0,.41-.06.59-.19.45-.32.55-.95.22-1.4l-1.92-2.64c-.32-.44-.92-.54-1.37-.24l-2.71,1.83c-.46.31-.58.93-.27,1.39s.93.58,1.39.27Z"/>
  <path class="cls-2" d="m17.45,19.7l-7.08-3.09c-.51-.22-1.1.01-1.32.52-.22.51,0,1.1.52,1.32l7.08,3.09c.13.06.27.08.4.08.39,0,.75-.22.92-.6.22-.51,0-1.1-.52-1.32Z"/>
</svg>