<?xml version="1.0" encoding="UTF-8"?>
<svg id="OBJECT" xmlns="http://www.w3.org/2000/svg" xmlns:xlink="http://www.w3.org/1999/xlink" viewBox="0 0 32 32">
  <defs>
    <style>
      .cls-1 {
        fill: url(#New_Gradient_Swatch-13);
      }

      .cls-2 {
        fill: url(#New_Gradient_Swatch-7);
      }

      .cls-3 {
        fill: url(#New_Gradient_Swatch-6);
      }

      .cls-4 {
        fill: url(#New_Gradient_Swatch);
      }

      .cls-5 {
        fill: url(#New_Gradient_Swatch-5);
      }

      .cls-6 {
        fill: url(#New_Gradient_Swatch-8);
      }

      .cls-7 {
        fill: url(#New_Gradient_Swatch-4);
      }

      .cls-8 {
        fill: url(#New_Gradient_Swatch-3);
      }

      .cls-9 {
        fill: url(#New_Gradient_Swatch-14);
      }

      .cls-10 {
        fill: url(#New_Gradient_Swatch-10);
      }

      .cls-11 {
        fill: url(#New_Gradient_Swatch-12);
      }

      .cls-12 {
        fill: url(#New_Gradient_Swatch-9);
      }

      .cls-13 {
        fill: url(#New_Gradient_Swatch-15);
      }

      .cls-14 {
        fill: url(#New_Gradient_Swatch-11);
      }

      .cls-15 {
        fill: url(#New_Gradient_Swatch-2);
      }
    </style>
    <linearGradient id="New_Gradient_Swatch" data-name="New Gradient Swatch" x1="-3.3" y1="2.25" x2="33.23" y2="2.25" gradientUnits="userSpaceOnUse">
      <stop offset="0" stop-color="#7738c8"/>
      <stop offset="1" stop-color="#461d93"/>
    </linearGradient>
    <linearGradient id="New_Gradient_Swatch-2" data-name="New Gradient Swatch" y1="16" y2="16" xlink:href="#New_Gradient_Swatch"/>
    <linearGradient id="New_Gradient_Swatch-3" data-name="New Gradient Swatch" y1="22.5" y2="22.5" xlink:href="#New_Gradient_Swatch"/>
    <linearGradient id="New_Gradient_Swatch-4" data-name="New Gradient Swatch" y1="22.5" y2="22.5" xlink:href="#New_Gradient_Swatch"/>
    <linearGradient id="New_Gradient_Swatch-5" data-name="New Gradient Swatch" y1="22.5" y2="22.5" xlink:href="#New_Gradient_Swatch"/>
    <linearGradient id="New_Gradient_Swatch-6" data-name="New Gradient Swatch" y1="22.5" y2="22.5" xlink:href="#New_Gradient_Swatch"/>
    <linearGradient id="New_Gradient_Swatch-7" data-name="New Gradient Swatch" y1="22.5" y2="22.5" xlink:href="#New_Gradient_Swatch"/>
    <linearGradient id="New_Gradient_Swatch-8" data-name="New Gradient Swatch" y1="18.5" y2="18.5" xlink:href="#New_Gradient_Swatch"/>
    <linearGradient id="New_Gradient_Swatch-9" data-name="New Gradient Swatch" y1="18.5" y2="18.5" xlink:href="#New_Gradient_Swatch"/>
    <linearGradient id="New_Gradient_Swatch-10" data-name="New Gradient Swatch" y1="18.5" y2="18.5" xlink:href="#New_Gradient_Swatch"/>
    <linearGradient id="New_Gradient_Swatch-11" data-name="New Gradient Swatch" y1="18.5" y2="18.5" xlink:href="#New_Gradient_Swatch"/>
    <linearGradient id="New_Gradient_Swatch-12" data-name="New Gradient Swatch" y1="18.5" y2="18.5" xlink:href="#New_Gradient_Swatch"/>
    <linearGradient id="New_Gradient_Swatch-13" data-name="New Gradient Swatch" y1="26.5" x2="33.23" y2="26.5" xlink:href="#New_Gradient_Swatch"/>
    <linearGradient id="New_Gradient_Swatch-14" data-name="New Gradient Swatch" y1="26.5" y2="26.5" xlink:href="#New_Gradient_Swatch"/>
    <linearGradient id="New_Gradient_Swatch-15" data-name="New Gradient Swatch" y1="26.5" y2="26.5" xlink:href="#New_Gradient_Swatch"/>
  </defs>
  <path class="cls-4" d="m24,3.5c.55,0,1-.45,1-1v-.5c0-.55-.45-1-1-1s-1,.45-1,1v.5c0,.55.45,1,1,1Z"/>
  <path class="cls-15" d="m30,14H10.5v-3c0-.55-.45-1-1-1h-1.5v-6c0-.55.45-1,1-1h7c.55,0,1,.45,1,1v5c0,1.65,1.35,3,3,3h2c1.65,0,3-1.35,3-3v-4c0-.55-.45-1-1-1s-1,.45-1,1v4c0,.55-.45,1-1,1h-2c-.55,0-1-.45-1-1v-5c0-1.65-1.35-3-3-3h-7c-1.65,0-3,1.35-3,3v6h-1.5c-.55,0-1,.45-1,1v3h-1.5c-.55,0-1,.45-1,1v15c0,.55.45,1,1,1h28c.55,0,1-.45,1-1v-15c0-.55-.45-1-1-1Zm-24.5-2h3v2h-3v-2Zm23.5,17H3v-13h26v13Z"/>
  <path class="cls-8" d="m20.5,23.5h1c.55,0,1-.45,1-1s-.45-1-1-1h-1c-.55,0-1,.45-1,1s.45,1,1,1Z"/>
  <path class="cls-7" d="m15.5,23.5h1c.55,0,1-.45,1-1s-.45-1-1-1h-1c-.55,0-1,.45-1,1s.45,1,1,1Z"/>
  <path class="cls-5" d="m10.5,23.5h1c.55,0,1-.45,1-1s-.45-1-1-1h-1c-.55,0-1,.45-1,1s.45,1,1,1Z"/>
  <path class="cls-3" d="m5.5,23.5h1c.55,0,1-.45,1-1s-.45-1-1-1h-1c-.55,0-1,.45-1,1s.45,1,1,1Z"/>
  <path class="cls-2" d="m25.5,23.5h1c.55,0,1-.45,1-1s-.45-1-1-1h-1c-.55,0-1,.45-1,1s.45,1,1,1Z"/>
  <path class="cls-6" d="m20.5,19.5h1c.55,0,1-.45,1-1s-.45-1-1-1h-1c-.55,0-1,.45-1,1s.45,1,1,1Z"/>
  <path class="cls-12" d="m15.5,19.5h1c.55,0,1-.45,1-1s-.45-1-1-1h-1c-.55,0-1,.45-1,1s.45,1,1,1Z"/>
  <path class="cls-10" d="m10.5,19.5h1c.55,0,1-.45,1-1s-.45-1-1-1h-1c-.55,0-1,.45-1,1s.45,1,1,1Z"/>
  <path class="cls-14" d="m5.5,19.5h1c.55,0,1-.45,1-1s-.45-1-1-1h-1c-.55,0-1,.45-1,1s.45,1,1,1Z"/>
  <path class="cls-11" d="m25.5,19.5h1c.55,0,1-.45,1-1s-.45-1-1-1h-1c-.55,0-1,.45-1,1s.45,1,1,1Z"/>
  <path class="cls-1" d="m10.5,27.5h11c.55,0,1-.45,1-1s-.45-1-1-1h-11c-.55,0-1,.45-1,1s.45,1,1,1Z"/>
  <path class="cls-9" d="m5.5,27.5h1c.55,0,1-.45,1-1s-.45-1-1-1h-1c-.55,0-1,.45-1,1s.45,1,1,1Z"/>
  <path class="cls-13" d="m25.5,27.5h1c.55,0,1-.45,1-1s-.45-1-1-1h-1c-.55,0-1,.45-1,1s.45,1,1,1Z"/>
</svg>