<?xml version="1.0" encoding="UTF-8"?>
<svg id="OBJECT" xmlns="http://www.w3.org/2000/svg" xmlns:xlink="http://www.w3.org/1999/xlink" viewBox="0 0 32 32">
  <defs>
    <style>
      .cls-1 {
        fill: url(#New_Gradient_Swatch);
      }

      .cls-2 {
        fill: url(#New_Gradient_Swatch-4);
      }

      .cls-3 {
        fill: url(#New_Gradient_Swatch-3);
      }

      .cls-4 {
        fill: url(#New_Gradient_Swatch-2);
      }
    </style>
    <linearGradient id="New_Gradient_Swatch" data-name="New Gradient Swatch" x1="-7.22" y1="16" x2="31.9" y2="16" gradientUnits="userSpaceOnUse">
      <stop offset="0" stop-color="#7738c8"/>
      <stop offset="1" stop-color="#461d93"/>
    </linearGradient>
    <linearGradient id="New_Gradient_Swatch-2" data-name="New Gradient Swatch" y1="11" x2="31.9" y2="11" xlink:href="#New_Gradient_Swatch"/>
    <linearGradient id="New_Gradient_Swatch-3" data-name="New Gradient Swatch" y1="11" x2="31.9" y2="11" xlink:href="#New_Gradient_Swatch"/>
    <linearGradient id="New_Gradient_Swatch-4" data-name="New Gradient Swatch" x1="-7.22" y1="11" x2="31.9" y2="11" xlink:href="#New_Gradient_Swatch"/>
  </defs>
  <path class="cls-1" d="m31,16c0-.34-.17-.66-.46-.84l-2.58-1.66,2.58-1.66c.29-.18.46-.5.46-.84s-.17-.66-.46-.84L16.54,1.16c-.33-.21-.75-.21-1.08,0L1.46,10.16c-.29.18-.46.5-.46.84s.17.66.46.84l2.58,1.66-2.58,1.66c-.29.18-.46.5-.46.84s.17.66.46.84l2.58,1.66-2.58,1.66c-.29.18-.46.5-.46.84s.17.66.46.84l14,9c.16.11.35.16.54.16s.38-.05.54-.16l14-9c.29-.18.46-.5.46-.84s-.17-.66-.46-.84l-2.58-1.66,2.58-1.66c.29-.18.46-.5.46-.84ZM16,3.19l12.15,7.81-12.15,7.81L3.85,11l12.15-7.81Zm12.15,17.81l-12.15,7.81-12.15-7.81,2.04-1.31,9.57,6.15c.16.11.35.16.54.16s.38-.05.54-.16l9.57-6.15,2.04,1.31Zm-12.15,2.81l-12.15-7.81,2.04-1.31,9.57,6.15c.16.11.35.16.54.16s.38-.05.54-.16l9.57-6.15,2.04,1.31-12.15,7.81Z"/>
  <path class="cls-4" d="m12.66,8.25c-.4-.38-1.03-.37-1.41.02l-1.96,2.03c-.38.39-.38,1,0,1.39l1.96,2.03c.2.2.46.3.72.3s.5-.09.7-.28c.4-.38.41-1.02.02-1.41l-1.29-1.34,1.29-1.34c.38-.4.37-1.03-.02-1.41Z"/>
  <path class="cls-3" d="m19.34,13.75c.19.19.44.28.7.28s.52-.1.72-.3l1.96-2.03c.38-.39.38-1,0-1.39l-1.96-2.03c-.38-.4-1.02-.41-1.41-.02s-.41,1.02-.02,1.41l1.29,1.34-1.29,1.34c-.38.4-.37,1.03.02,1.41Z"/>
  <path class="cls-2" d="m17.76,7.98c.13-.54-.2-1.08-.74-1.21-.53-.13-1.08.2-1.21.74l-1.57,6.5c-.13.54.2,1.08.74,1.21.08.02.16.03.24.03.45,0,.86-.31.97-.77l1.57-6.5Z"/>
</svg>