<?xml version="1.0" encoding="UTF-8"?>
<svg id="OBJECT" xmlns="http://www.w3.org/2000/svg" xmlns:xlink="http://www.w3.org/1999/xlink" viewBox="0 0 32 32">
  <defs>
    <style>
      .cls-1 {
        fill: url(#New_Gradient_Swatch);
      }

      .cls-2 {
        fill: url(#New_Gradient_Swatch-2);
      }
    </style>
    <linearGradient id="New_Gradient_Swatch" data-name="New Gradient Swatch" x1="-2.17" y1="16" x2="33.73" y2="16" gradientUnits="userSpaceOnUse">
      <stop offset="0" stop-color="#7738c8"/>
      <stop offset="1" stop-color="#461d93"/>
    </linearGradient>
    <linearGradient id="New_Gradient_Swatch-2" data-name="New Gradient Swatch" y1="5.5" x2="33.73" y2="5.5" xlink:href="#New_Gradient_Swatch"/>
  </defs>
  <path class="cls-1" d="m27,8c-.55,0-1,.45-1,1v13c0,.55-.45,1-1,1h-2c-.55,0-1-.45-1-1V4c0-1.65-1.35-3-3-3h-6c-1.65,0-3,1.35-3,3v3h-1c-.55,0-1,.45-1,1v3h-1c-1.65,0-3,1.35-3,3v11c0,3.31,2.69,6,6,6h2c3.31,0,6-2.69,6-6v-11c0-1.65-1.35-3-3-3h-1v-3c0-.55-.45-1-1-1h-1v-3c0-.55.45-1,1-1h6c.55,0,1,.45,1,1v18c0,1.65,1.35,3,3,3h2c1.65,0,3-1.35,3-3v-13c0-.55-.45-1-1-1Zm-15,9.5v3c0,.28-.22.5-.5.5h-1c-.28,0-.5-.22-.5-.5v-3c0-.28.22-.5.5-.5h1c.28,0,.5.22.5.5Zm4-3.5v11c0,2.21-1.79,4-4,4h-2c-2.21,0-4-1.79-4-4v-11c0-.55.45-1,1-1h3v2.05c-1.14.23-2,1.24-2,2.45v3c0,1.38,1.12,2.5,2.5,2.5h1c1.38,0,2.5-1.12,2.5-2.5v-3c0-1.21-.86-2.22-2-2.45v-2.05h3c.55,0,1,.45,1,1Zm-6-3v-2h2v2h-2Z"/>
  <path class="cls-2" d="m27,4c-.55,0-1,.45-1,1v1c0,.55.45,1,1,1s1-.45,1-1v-1c0-.55-.45-1-1-1Z"/>
</svg>