<?xml version="1.0" encoding="UTF-8"?>
<svg id="OBJECT" xmlns="http://www.w3.org/2000/svg" xmlns:xlink="http://www.w3.org/1999/xlink" viewBox="0 0 32 32">
  <defs>
    <style>
      .cls-1 {
        fill: url(#New_Gradient_Swatch-6);
      }

      .cls-2 {
        fill: url(#New_Gradient_Swatch);
      }

      .cls-3 {
        fill: url(#New_Gradient_Swatch-5);
      }

      .cls-4 {
        fill: url(#New_Gradient_Swatch-4);
      }

      .cls-5 {
        fill: url(#New_Gradient_Swatch-3);
      }

      .cls-6 {
        fill: url(#New_Gradient_Swatch-2);
      }
    </style>
    <linearGradient id="New_Gradient_Swatch" data-name="New Gradient Swatch" x1="-1" y1="16" x2="29.39" y2="16" gradientUnits="userSpaceOnUse">
      <stop offset="0" stop-color="#7738c8"/>
      <stop offset="1" stop-color="#461d93"/>
    </linearGradient>
    <linearGradient id="New_Gradient_Swatch-2" data-name="New Gradient Swatch" y1="21.75" x2="29.39" y2="21.75" xlink:href="#New_Gradient_Swatch"/>
    <linearGradient id="New_Gradient_Swatch-3" data-name="New Gradient Swatch" y1="21.75" x2="29.39" y2="21.75" xlink:href="#New_Gradient_Swatch"/>
    <linearGradient id="New_Gradient_Swatch-4" data-name="New Gradient Swatch" x1="-1" y1="21.75" x2="29.39" y2="21.75" xlink:href="#New_Gradient_Swatch"/>
    <linearGradient id="New_Gradient_Swatch-5" data-name="New Gradient Swatch" y1="11" x2="29.39" y2="11" xlink:href="#New_Gradient_Swatch"/>
    <linearGradient id="New_Gradient_Swatch-6" data-name="New Gradient Swatch" y1="11" x2="29.39" y2="11" xlink:href="#New_Gradient_Swatch"/>
  </defs>
  <path class="cls-2" d="m21.75,12.5c-.6,0-1.18.06-1.75.17v-5.67c0-.55-.45-1-1-1h-5v-1.5c0-1.93-1.57-3.5-3.5-3.5s-3.5,1.57-3.5,3.5v1.5H2c-.55,0-1,.45-1,1v5c0,.55.45,1,1,1h2.5c.83,0,1.5.67,1.5,1.5s-.67,1.5-1.5,1.5h-2.5c-.55,0-1,.45-1,1v5c0,.55.45,1,1,1h10.59c.61,4.51,4.48,8,9.16,8,5.1,0,9.25-4.15,9.25-9.25s-4.15-9.25-9.25-9.25ZM3,18h1.5c1.93,0,3.5-1.57,3.5-3.5s-1.57-3.5-3.5-3.5h-1.5v-3h5c.55,0,1-.45,1-1v-2.5c0-.83.67-1.5,1.5-1.5s1.5.67,1.5,1.5v2.5c0,.55.45,1,1,1h5v5.3c-3.02,1.35-5.18,4.26-5.46,7.7H3v-3Zm18.75,11c-3.92,0-7.12-3.13-7.24-7.02,0,0,0,0,0,0v-.22c-.01-4,3.24-7.25,7.24-7.25s7.25,3.25,7.25,7.25-3.25,7.25-7.25,7.25Z"/>
  <path class="cls-6" d="m19.08,19.17c-.39-.39-1.02-.39-1.41,0l-1.88,1.88c-.39.39-.39,1.02,0,1.41l1.88,1.88c.2.2.45.29.71.29s.51-.1.71-.29c.39-.39.39-1.02,0-1.41l-1.17-1.17,1.17-1.17c.39-.39.39-1.02,0-1.41Z"/>
  <path class="cls-5" d="m27.71,21.04l-1.88-1.88c-.39-.39-1.02-.39-1.41,0s-.39,1.02,0,1.41l1.17,1.17-1.17,1.17c-.39.39-.39,1.02,0,1.41.2.2.45.29.71.29s.51-.1.71-.29l1.88-1.88c.39-.39.39-1.02,0-1.41Z"/>
  <path class="cls-4" d="m22.74,17.78c-.54-.13-1.08.19-1.21.73l-1.5,6c-.13.54.19,1.08.73,1.21.08.02.16.03.24.03.45,0,.86-.3.97-.76l1.5-6c.13-.54-.19-1.08-.73-1.21Z"/>
  <path class="cls-3" d="m11,10h-.5c-.55,0-1,.45-1,1s.45,1,1,1h.5c.55,0,1-.45,1-1s-.45-1-1-1Z"/>
  <path class="cls-1" d="m14.5,12h.5c.55,0,1-.45,1-1s-.45-1-1-1h-.5c-.55,0-1,.45-1,1s.45,1,1,1Z"/>
</svg>