<?xml version="1.0" encoding="UTF-8"?>
<svg id="OBJECT" xmlns="http://www.w3.org/2000/svg" xmlns:xlink="http://www.w3.org/1999/xlink" viewBox="0 0 32 32">
  <defs>
    <style>
      .cls-1 {
        fill: url(#New_Gradient_Swatch-6);
      }

      .cls-2 {
        fill: url(#New_Gradient_Swatch);
      }

      .cls-3 {
        fill: url(#New_Gradient_Swatch-5);
      }

      .cls-4 {
        fill: url(#New_Gradient_Swatch-4);
      }

      .cls-5 {
        fill: url(#New_Gradient_Swatch-3);
      }

      .cls-6 {
        fill: url(#New_Gradient_Swatch-2);
      }
    </style>
    <linearGradient id="New_Gradient_Swatch" data-name="New Gradient Swatch" x1="-2.17" y1="24" x2="33.73" y2="24" gradientUnits="userSpaceOnUse">
      <stop offset="0" stop-color="#7738c8"/>
      <stop offset="1" stop-color="#461d93"/>
    </linearGradient>
    <linearGradient id="New_Gradient_Swatch-2" data-name="New Gradient Swatch" x2="33.73" xlink:href="#New_Gradient_Swatch"/>
    <linearGradient id="New_Gradient_Swatch-3" data-name="New Gradient Swatch" y1="10.14" x2="33.73" y2="10.14" xlink:href="#New_Gradient_Swatch"/>
    <linearGradient id="New_Gradient_Swatch-4" data-name="New Gradient Swatch" y1="6.82" x2="33.73" y2="6.82" xlink:href="#New_Gradient_Swatch"/>
    <linearGradient id="New_Gradient_Swatch-5" data-name="New Gradient Swatch" y1="13" x2="33.73" y2="13" xlink:href="#New_Gradient_Swatch"/>
    <linearGradient id="New_Gradient_Swatch-6" data-name="New Gradient Swatch" y1="16" x2="33.73" y2="16" xlink:href="#New_Gradient_Swatch"/>
  </defs>
  <path class="cls-2" d="m5,22.5c-.55,0-1,.45-1,1v1c0,.55.45,1,1,1s1-.45,1-1v-1c0-.55-.45-1-1-1Z"/>
  <path class="cls-2" d="m9,22.5c-.55,0-1,.45-1,1v1c0,.55.45,1,1,1s1-.45,1-1v-1c0-.55-.45-1-1-1Z"/>
  <path class="cls-2" d="m13,22.5c-.55,0-1,.45-1,1v1c0,.55.45,1,1,1s1-.45,1-1v-1c0-.55-.45-1-1-1Z"/>
  <path class="cls-6" d="m27,23h-10c-.55,0-1,.45-1,1s.45,1,1,1h10c.55,0,1-.45,1-1s-.45-1-1-1Z"/>
  <path class="cls-5" d="m18.56,11.26c.4-.38.42-1.01.04-1.41-1.38-1.47-3.82-1.47-5.21,0-.38.4-.36,1.03.04,1.41.4.38,1.03.36,1.41-.04.62-.66,1.68-.66,2.29,0,.2.21.46.31.73.31.25,0,.49-.09.69-.27Z"/>
  <path class="cls-4" d="m12.98,8.33c.81-.86,1.88-1.33,3.02-1.33s2.21.47,3.02,1.33c.2.21.46.31.73.31.25,0,.49-.09.69-.27.4-.38.42-1.01.04-1.41-1.19-1.26-2.78-1.96-4.48-1.96s-3.29.7-4.48,1.96c-.38.4-.36,1.03.04,1.41.4.38,1.03.36,1.41-.04Z"/>
  <path class="cls-3" d="m16.21,12h-.42c-.55,0-1,.45-1,1s.45,1,1,1h.42c.55,0,1-.45,1-1s-.45-1-1-1Z"/>
  <path class="cls-1" d="m30,19h-1v-3c0-.55-.45-1-1-1h-1.5V2c0-.55-.45-1-1-1s-1,.45-1,1v13h-1.5c-.55,0-1,.45-1,1v3h-12v-3c0-.55-.45-1-1-1h-1.5V2c0-.55-.45-1-1-1s-1,.45-1,1v13h-1.5c-.55,0-1,.45-1,1v3h-1c-.55,0-1,.45-1,1v10c0,.55.45,1,1,1s1-.45,1-1v-1h26v1c0,.55.45,1,1,1s1-.45,1-1v-10c0-.55-.45-1-1-1Zm-6-2h3v2h-3v-2Zm-19,0h3v2h-3v-2Zm-2,4h26v6H3v-6Z"/>
</svg>