<?xml version="1.0" encoding="UTF-8"?>
<svg id="OBJECT" xmlns="http://www.w3.org/2000/svg" xmlns:xlink="http://www.w3.org/1999/xlink" viewBox="0 0 32 32">
  <defs>
    <style>
      .cls-1 {
        fill: url(#New_Gradient_Swatch);
      }

      .cls-2 {
        fill: url(#New_Gradient_Swatch-5);
      }

      .cls-3 {
        fill: url(#New_Gradient_Swatch-4);
      }

      .cls-4 {
        fill: url(#New_Gradient_Swatch-3);
      }

      .cls-5 {
        fill: url(#New_Gradient_Swatch-2);
      }
    </style>
    <linearGradient id="New_Gradient_Swatch" data-name="New Gradient Swatch" x1="-2.61" y1="16" x2="33.97" y2="16" gradientUnits="userSpaceOnUse">
      <stop offset="0" stop-color="#7738c8"/>
      <stop offset="1" stop-color="#461d93"/>
    </linearGradient>
    <linearGradient id="New_Gradient_Swatch-2" data-name="New Gradient Swatch" x2="33.97" xlink:href="#New_Gradient_Swatch"/>
    <linearGradient id="New_Gradient_Swatch-3" data-name="New Gradient Swatch" x2="33.97" xlink:href="#New_Gradient_Swatch"/>
    <linearGradient id="New_Gradient_Swatch-4" data-name="New Gradient Swatch" x2="33.97" xlink:href="#New_Gradient_Swatch"/>
    <linearGradient id="New_Gradient_Swatch-5" data-name="New Gradient Swatch" y1="16" x2="33.97" y2="16" xlink:href="#New_Gradient_Swatch"/>
  </defs>
  <path class="cls-1" d="m30,13h-1.87c-.3-1.22-.78-2.38-1.43-3.46l1.32-1.32c.39-.39.39-1.02,0-1.41l-2.83-2.83c-.39-.39-1.02-.39-1.41,0l-1.32,1.32c-1.07-.65-2.23-1.13-3.46-1.43v-1.87c0-.55-.45-1-1-1h-4c-.55,0-1,.45-1,1v1.87c-1.22.3-2.38.78-3.46,1.43l-1.32-1.32c-.39-.39-1.02-.39-1.41,0l-2.83,2.83c-.39.39-.39,1.02,0,1.41l1.32,1.32c-.65,1.07-1.13,2.23-1.43,3.46h-1.87c-.55,0-1,.45-1,1v4c0,.55.45,1,1,1h1.87c.3,1.22.78,2.38,1.43,3.46l-1.32,1.32c-.39.39-.39,1.02,0,1.41l2.83,2.83c.39.39,1.02.39,1.41,0l1.32-1.32c1.07.65,2.23,1.13,3.46,1.43v1.87c0,.55.45,1,1,1h4c.55,0,1-.45,1-1v-1.87c1.22-.3,2.38-.78,3.46-1.43l1.32,1.32c.39.39,1.02.39,1.41,0l2.83-2.83c.39-.39.39-1.02,0-1.41l-1.32-1.32c.65-1.07,1.13-2.23,1.43-3.46h1.87c.55,0,1-.45,1-1v-4c0-.55-.45-1-1-1Zm-1,4h-1.69c-.49,0-.9.35-.99.83-.27,1.52-.85,2.93-1.73,4.19-.28.4-.23.94.11,1.28l1.19,1.19-1.41,1.41-1.19-1.19c-.34-.34-.88-.39-1.28-.11-1.26.88-2.67,1.46-4.19,1.73-.48.08-.83.5-.83.98v1.69h-2v-1.69c0-.49-.35-.9-.83-.98-1.52-.27-2.93-.85-4.19-1.73-.4-.28-.94-.23-1.28.11l-1.19,1.19-1.41-1.41,1.19-1.19c.34-.34.39-.88.11-1.28-.88-1.26-1.46-2.67-1.73-4.19-.08-.48-.5-.83-.99-.83h-1.69v-2h1.69c.49,0,.9-.35.99-.83.27-1.52.85-2.93,1.73-4.19.28-.4.23-.94-.11-1.28l-1.19-1.19,1.41-1.41,1.19,1.19c.34.34.88.39,1.28.11,1.26-.88,2.67-1.46,4.19-1.73.48-.08.83-.5.83-.98v-1.69h2v1.69c0,.49.35.9.83.98,1.52.27,2.93.85,4.19,1.73.4.28.94.23,1.28-.11l1.19-1.19,1.41,1.41-1.19,1.19c-.34.34-.39.88-.11,1.28.88,1.26,1.46,2.67,1.73,4.19.08.48.5.83.99.83h1.69v2Z"/>
  <path class="cls-5" d="m16,6.75c-5.1,0-9.25,4.15-9.25,9.25s4.15,9.25,9.25,9.25,9.25-4.15,9.25-9.25-4.15-9.25-9.25-9.25Zm0,16.5c-4,0-7.25-3.25-7.25-7.25s3.25-7.25,7.25-7.25,7.25,3.25,7.25,7.25-3.25,7.25-7.25,7.25Z"/>
  <path class="cls-4" d="m13.33,13.42c-.39-.39-1.02-.39-1.41,0l-1.88,1.88c-.39.39-.39,1.02,0,1.41l1.88,1.88c.2.2.45.29.71.29s.51-.1.71-.29c.39-.39.39-1.02,0-1.41l-1.17-1.17,1.17-1.17c.39-.39.39-1.02,0-1.41Z"/>
  <path class="cls-3" d="m18.67,13.42c-.39.39-.39,1.02,0,1.41l1.17,1.17-1.17,1.17c-.39.39-.39,1.02,0,1.41.2.2.45.29.71.29s.51-.1.71-.29l1.88-1.88c.39-.39.39-1.02,0-1.41l-1.88-1.88c-.39-.39-1.02-.39-1.41,0Z"/>
  <path class="cls-2" d="m16.99,12.03c-.54-.14-1.08.19-1.21.73l-1.5,6c-.13.54.19,1.08.73,1.21.08.02.16.03.24.03.45,0,.86-.3.97-.76l1.5-6c.13-.54-.19-1.08-.73-1.21Z"/>
</svg>