<?xml version="1.0" encoding="UTF-8"?>
<svg id="OBJECT" xmlns="http://www.w3.org/2000/svg" xmlns:xlink="http://www.w3.org/1999/xlink" viewBox="0 0 32 32">
  <defs>
    <style>
      .cls-1 {
        fill: url(#New_Gradient_Swatch-6);
      }

      .cls-2 {
        fill: url(#New_Gradient_Swatch);
      }

      .cls-3 {
        fill: url(#New_Gradient_Swatch-5);
      }

      .cls-4 {
        fill: url(#New_Gradient_Swatch-4);
      }

      .cls-5 {
        fill: url(#New_Gradient_Swatch-3);
      }

      .cls-6 {
        fill: url(#New_Gradient_Swatch-2);
      }
    </style>
    <linearGradient id="New_Gradient_Swatch" data-name="New Gradient Swatch" x1="-2.7" y1="16" x2="35.66" y2="16" gradientUnits="userSpaceOnUse">
      <stop offset="0" stop-color="#7738c8"/>
      <stop offset="1" stop-color="#461d93"/>
    </linearGradient>
    <linearGradient id="New_Gradient_Swatch-2" data-name="New Gradient Swatch" y1="21" x2="35.66" y2="21" xlink:href="#New_Gradient_Swatch"/>
    <linearGradient id="New_Gradient_Swatch-3" data-name="New Gradient Swatch" y1="21" x2="35.66" y2="21" xlink:href="#New_Gradient_Swatch"/>
    <linearGradient id="New_Gradient_Swatch-4" data-name="New Gradient Swatch" y1="21" x2="35.66" y2="21" xlink:href="#New_Gradient_Swatch"/>
    <linearGradient id="New_Gradient_Swatch-5" data-name="New Gradient Swatch" y1="20" y2="20" xlink:href="#New_Gradient_Swatch"/>
    <linearGradient id="New_Gradient_Swatch-6" data-name="New Gradient Swatch" y1="20" y2="20" xlink:href="#New_Gradient_Swatch"/>
  </defs>
  <path class="cls-2" d="m21,11c-.1,0-.2.01-.3.02-1.15-1.29-2.63-2.21-4.29-2.67.05-.27.09-.56.09-.85v-3.5c0-1.65-1.35-3-3-3h-3c-1.65,0-3,1.35-3,3v3.5c0,.29.03.57.09.85-3.83,1.07-6.59,4.59-6.59,8.65v4c0,1.65,1.35,3,3,3h7.46c1.28,4.05,5.07,7,9.54,7,5.51,0,10-4.49,10-10s-4.49-10-10-10Zm-11.5-7c0-.55.45-1,1-1h3c.55,0,1,.45,1,1v3.5c0,1.38-1.12,2.5-2.5,2.5s-2.5-1.12-2.5-2.5v-3.5Zm-5.5,18c-.55,0-1-.45-1-1v-4c0-3.26,2.29-6.08,5.42-6.81.82,1.09,2.12,1.81,3.58,1.81s2.76-.72,3.58-1.81c.95.22,1.84.64,2.61,1.22-4.15,1.22-7.19,5.05-7.19,9.59,0,.34.02.67.05,1h-7.05Zm17,7c-4.41,0-8-3.59-8-8s3.59-8,8-8,8,3.59,8,8-3.59,8-8,8Z"/>
  <path class="cls-6" d="m18.16,18.25c-.4-.38-1.03-.37-1.41.02l-1.96,2.03c-.38.39-.38,1,0,1.39l1.96,2.03c.2.2.46.3.72.3s.5-.09.7-.28c.4-.38.41-1.02.02-1.41l-1.29-1.34,1.29-1.34c.38-.4.37-1.03-.02-1.41Z"/>
  <path class="cls-5" d="m27.22,20.3l-1.96-2.03c-.38-.4-1.02-.41-1.41-.02-.4.38-.41,1.02-.02,1.41l1.29,1.34-1.29,1.34c-.38.4-.37,1.03.02,1.41.19.19.45.28.7.28s.52-.1.72-.3l1.96-2.03c.38-.39.38-1,0-1.39Z"/>
  <path class="cls-4" d="m22.02,16.78c-.54-.13-1.08.2-1.21.74l-1.57,6.5c-.13.54.2,1.08.74,1.21.08.02.16.03.24.03.45,0,.86-.31.97-.76l1.57-6.5c.13-.54-.2-1.08-.74-1.21Z"/>
  <path class="cls-3" d="m5.5,19h-.5c-.55,0-1,.45-1,1s.45,1,1,1h.5c.55,0,1-.45,1-1s-.45-1-1-1Z"/>
  <path class="cls-1" d="m8.5,19h-.5c-.55,0-1,.45-1,1s.45,1,1,1h.5c.55,0,1-.45,1-1s-.45-1-1-1Z"/>
</svg>