<svg width="16" height="17" viewBox="0 0 16 17" fill="none" xmlns="http://www.w3.org/2000/svg">
<path d="M12.5 4.5V11C12.5 11.1326 12.4473 11.2598 12.3535 11.3536C12.2598 11.4473 12.1326 11.5 12 11.5C11.8674 11.5 11.7402 11.4473 11.6464 11.3536C11.5527 11.2598 11.5 11.1326 11.5 11V5.70687L4.35372 12.8538C4.2599 12.9476 4.13265 13.0003 3.99997 13.0003C3.86729 13.0003 3.74004 12.9476 3.64622 12.8538C3.5524 12.7599 3.49969 12.6327 3.49969 12.5C3.49969 12.3673 3.5524 12.2401 3.64622 12.1462L10.7931 5H5.49997C5.36736 5 5.24019 4.94732 5.14642 4.85355C5.05265 4.75979 4.99997 4.63261 4.99997 4.5C4.99997 4.36739 5.05265 4.24021 5.14642 4.14645C5.24019 4.05268 5.36736 4 5.49997 4H12C12.1326 4 12.2598 4.05268 12.3535 4.14645C12.4473 4.24021 12.5 4.36739 12.5 4.5Z" fill="#1B1B1B"/>
</svg>
