<svg width="150" height="54" viewBox="0 0 150 54" fill="none" xmlns="http://www.w3.org/2000/svg">
<path d="M35.5876 16L30.6207 0.478261H36.0089L40.0224 13.583H37.3172L41.5746 0.478261H46.3863L50.3555 13.583H47.7611L51.952 0.478261H56.9189L51.952 16H46.342L43.1046 5.26783H44.6124L41.1976 16H35.5876ZM62.4271 6.24348H69.3453V10.013H62.4271V6.24348ZM62.7819 12.053H70.5427V16H57.6375V0.478261H70.2545V4.42522H62.7819V12.053ZM72.1138 16V0.478261H80.4068C82.5503 0.478261 84.132 0.862609 85.152 1.6313C86.172 2.38522 86.682 3.35348 86.682 4.53609C86.682 5.31957 86.4603 6.02174 86.0168 6.64261C85.5881 7.2487 84.9599 7.72913 84.132 8.08391C83.3042 8.4387 82.2842 8.61609 81.072 8.61609L81.5155 7.4187C82.7277 7.4187 83.7699 7.5887 84.642 7.9287C85.529 8.2687 86.209 8.76391 86.682 9.41435C87.1699 10.05 87.4138 10.8187 87.4138 11.7204C87.4138 13.0657 86.852 14.1152 85.7286 14.8691C84.6199 15.623 82.9938 16 80.8503 16H72.1138ZM77.2581 12.3413H80.4068C80.9833 12.3413 81.412 12.2378 81.6929 12.0309C81.9886 11.8239 82.1364 11.5209 82.1364 11.1217C82.1364 10.7226 81.9886 10.4196 81.6929 10.2126C81.412 10.0057 80.9833 9.90217 80.4068 9.90217H76.9033V6.44304H79.6973C80.2886 6.44304 80.7173 6.34696 80.9833 6.15478C81.2642 5.94783 81.4047 5.65957 81.4047 5.29C81.4047 4.90565 81.2642 4.61739 80.9833 4.42522C80.7173 4.23304 80.2886 4.13696 79.6973 4.13696H77.2581V12.3413ZM1.05332 34V18.4783H8.70332C10.4329 18.4783 11.9555 18.7961 13.2711 19.4317C14.5868 20.0526 15.6142 20.9396 16.3533 22.0926C17.0924 23.2457 17.462 24.6204 17.462 26.217C17.462 27.8283 17.0924 29.2178 16.3533 30.3857C15.6142 31.5387 14.5868 32.433 13.2711 33.0687C11.9555 33.6896 10.4329 34 8.70332 34H1.05332ZM6.28636 29.92H8.48158C9.22071 29.92 9.86375 29.7796 10.4107 29.4987C10.9724 29.2178 11.4085 28.8039 11.719 28.257C12.0294 27.6952 12.1846 27.0152 12.1846 26.217C12.1846 25.4335 12.0294 24.7683 11.719 24.2213C11.4085 23.6743 10.9724 23.2604 10.4107 22.9796C9.86375 22.6987 9.22071 22.5583 8.48158 22.5583H6.28636V29.92ZM23.7189 24.2435H30.6371V28.013H23.7189V24.2435ZM24.0737 30.053H31.8345V34H18.9293V18.4783H31.5463V22.4252H24.0737V30.053ZM39.193 34.3548C37.8921 34.3548 36.6356 34.207 35.4234 33.9113C34.2112 33.6157 33.2134 33.2313 32.4299 32.7583L34.1151 28.9443C34.8543 29.373 35.6747 29.7204 36.5764 29.9865C37.493 30.2378 38.3799 30.3635 39.2373 30.3635C39.7399 30.3635 40.1317 30.3339 40.4125 30.2748C40.7082 30.2009 40.9225 30.1048 41.0556 29.9865C41.1886 29.8535 41.2551 29.6983 41.2551 29.5209C41.2551 29.24 41.0999 29.0183 40.7895 28.8557C40.4791 28.693 40.0651 28.56 39.5477 28.4565C39.0451 28.3383 38.4908 28.22 37.8847 28.1017C37.2786 27.9687 36.6651 27.7987 36.0443 27.5917C35.4382 27.3848 34.8764 27.1113 34.3591 26.7713C33.8564 26.4313 33.4499 25.9878 33.1395 25.4409C32.8291 24.8791 32.6738 24.1843 32.6738 23.3565C32.6738 22.3957 32.9399 21.5235 33.4721 20.74C34.0191 19.9417 34.8247 19.3061 35.8891 18.833C36.9682 18.36 38.306 18.1235 39.9025 18.1235C40.9521 18.1235 41.9869 18.2343 43.0069 18.4561C44.0269 18.6778 44.9434 19.0178 45.7564 19.4761L44.1821 23.2678C43.4134 22.8835 42.6669 22.5952 41.9425 22.403C41.233 22.2109 40.5382 22.1148 39.8582 22.1148C39.3556 22.1148 38.9564 22.1591 38.6608 22.2478C38.3651 22.3365 38.1508 22.4548 38.0177 22.6026C37.8995 22.7504 37.8404 22.913 37.8404 23.0904C37.8404 23.3565 37.9956 23.5709 38.306 23.7335C38.6164 23.8813 39.023 24.007 39.5256 24.1104C40.043 24.2139 40.6047 24.3248 41.2108 24.443C41.8317 24.5613 42.4451 24.7239 43.0512 24.9309C43.6573 25.1378 44.2117 25.4113 44.7143 25.7513C45.2317 26.0913 45.6456 26.5348 45.956 27.0817C46.2664 27.6287 46.4217 28.3087 46.4217 29.1217C46.4217 30.0678 46.1482 30.94 45.6012 31.7383C45.0691 32.5217 44.2708 33.1574 43.2064 33.6452C42.1421 34.1183 40.8043 34.3548 39.193 34.3548ZM47.5354 34V18.4783H52.7684V34H47.5354ZM62.8932 34.3548C61.6367 34.3548 60.4763 34.1626 59.4119 33.7783C58.3624 33.3791 57.4458 32.8174 56.6624 32.093C55.8937 31.3687 55.295 30.5113 54.8663 29.5209C54.4376 28.5304 54.2232 27.4365 54.2232 26.2391C54.2232 25.0417 54.4376 23.9478 54.8663 22.9574C55.295 21.967 55.9011 21.1096 56.6845 20.3852C57.468 19.6609 58.3919 19.1065 59.4563 18.7222C60.5354 18.323 61.718 18.1235 63.0041 18.1235C64.5415 18.1235 65.9089 18.3822 67.1063 18.8996C68.3185 19.417 69.3163 20.1561 70.0998 21.117L66.7515 24.0661C66.2637 23.5043 65.7315 23.083 65.155 22.8022C64.5932 22.5065 63.965 22.3587 63.2702 22.3587C62.6937 22.3587 62.1689 22.4474 61.6958 22.6248C61.2376 22.8022 60.8458 23.0609 60.5206 23.4009C60.1954 23.7409 59.9441 24.1474 59.7667 24.6204C59.5893 25.0935 59.5006 25.633 59.5006 26.2391C59.5006 26.8157 59.5893 27.3478 59.7667 27.8357C59.9441 28.3087 60.1954 28.7152 60.5206 29.0552C60.8458 29.3952 61.2302 29.6613 61.6737 29.8535C62.1319 30.0309 62.6419 30.1196 63.2037 30.1196C63.795 30.1196 64.3715 30.0235 64.9332 29.8313C65.495 29.6243 66.0937 29.277 66.7293 28.7891L69.6563 32.3813C68.7102 33.017 67.6311 33.5048 66.4189 33.8448C65.2067 34.1848 64.0315 34.3548 62.8932 34.3548ZM65.1106 31.7161V25.8178H69.6563V32.3813L65.1106 31.7161ZM71.4425 34V18.4783H75.7442L83.6381 27.9243H81.6425V18.4783H86.7425V34H82.4408L74.5468 24.5539H76.5425V34H71.4425ZM24.4407 52V36.4783H31.9133C33.362 36.4783 34.6112 36.7148 35.6607 37.1878C36.7251 37.6609 37.5455 38.3409 38.122 39.2278C38.6986 40.1 38.9868 41.1348 38.9868 42.3322C38.9868 43.5296 38.6986 44.5643 38.122 45.4365C37.5455 46.3087 36.7251 46.9887 35.6607 47.4765C34.6112 47.9496 33.362 48.1861 31.9133 48.1861H27.3455L29.6738 45.9465V52H24.4407ZM29.6738 46.523L27.3455 44.1504H31.5807C32.3051 44.1504 32.8373 43.9878 33.1773 43.6626C33.532 43.3374 33.7094 42.8939 33.7094 42.3322C33.7094 41.7704 33.532 41.327 33.1773 41.0017C32.8373 40.6765 32.3051 40.5139 31.5807 40.5139H27.3455L29.6738 38.1413V46.523ZM40.2596 52V36.4783H47.7322C49.1809 36.4783 50.43 36.7148 51.4796 37.1878C52.5439 37.6609 53.3643 38.3409 53.9409 39.2278C54.5174 40.1 54.8057 41.1348 54.8057 42.3322C54.8057 43.5296 54.5174 44.5643 53.9409 45.4365C53.3643 46.2939 52.5439 46.9517 51.4796 47.41C50.43 47.8683 49.1809 48.0974 47.7322 48.0974H43.1643L45.4926 45.9465V52H40.2596ZM49.5504 52L45.7365 46.3457H51.28L55.1383 52H49.5504ZM45.4926 46.523L43.1643 44.1504H47.3996C48.1239 44.1504 48.6561 43.9878 48.9961 43.6626C49.3509 43.3374 49.5283 42.8939 49.5283 42.3322C49.5283 41.7704 49.3509 41.327 48.9961 41.0017C48.6561 40.6765 48.1239 40.5139 47.3996 40.5139H43.1643L45.4926 38.1413V46.523ZM64.4761 52.3548C63.2196 52.3548 62.0517 52.1552 60.9726 51.7561C59.9082 51.357 58.9843 50.7952 58.2009 50.0709C57.4174 49.3317 56.8039 48.467 56.3604 47.4765C55.9317 46.4861 55.7174 45.407 55.7174 44.2391C55.7174 43.0565 55.9317 41.9774 56.3604 41.0017C56.8039 40.0113 57.4174 39.1539 58.2009 38.4296C58.9843 37.6904 59.9082 37.1213 60.9726 36.7222C62.0517 36.323 63.2196 36.1235 64.4761 36.1235C65.7474 36.1235 66.9152 36.323 67.9796 36.7222C69.0439 37.1213 69.9678 37.6904 70.7513 38.4296C71.5348 39.1539 72.1409 40.0113 72.5696 41.0017C73.013 41.9774 73.2348 43.0565 73.2348 44.2391C73.2348 45.407 73.013 46.4861 72.5696 47.4765C72.1409 48.467 71.5348 49.3317 70.7513 50.0709C69.9678 50.7952 69.0439 51.357 67.9796 51.7561C66.9152 52.1552 65.7474 52.3548 64.4761 52.3548ZM64.4761 48.1196C64.9639 48.1196 65.4148 48.0309 65.8287 47.8535C66.2574 47.6761 66.6269 47.4248 66.9374 47.0996C67.2626 46.7596 67.5139 46.353 67.6913 45.88C67.8687 45.3922 67.9574 44.8452 67.9574 44.2391C67.9574 43.633 67.8687 43.0935 67.6913 42.6204C67.5139 42.1326 67.2626 41.7261 66.9374 41.4009C66.6269 41.0609 66.2574 40.8022 65.8287 40.6248C65.4148 40.4474 64.9639 40.3587 64.4761 40.3587C63.9883 40.3587 63.53 40.4474 63.1013 40.6248C62.6874 40.8022 62.3178 41.0609 61.9926 41.4009C61.6822 41.7261 61.4382 42.1326 61.2609 42.6204C61.0835 43.0935 60.9948 43.633 60.9948 44.2391C60.9948 44.8452 61.0835 45.3922 61.2609 45.88C61.4382 46.353 61.6822 46.7596 61.9926 47.0996C62.3178 47.4248 62.6874 47.6761 63.1013 47.8535C63.53 48.0309 63.9883 48.1196 64.4761 48.1196ZM80.478 52.3548C79.1771 52.3548 77.9206 52.207 76.7085 51.9113C75.4963 51.6157 74.4985 51.2313 73.715 50.7583L75.4002 46.9443C76.1393 47.373 76.9598 47.7204 77.8615 47.9865C78.778 48.2378 79.665 48.3635 80.5224 48.3635C81.025 48.3635 81.4167 48.3339 81.6976 48.2748C81.9932 48.2009 82.2076 48.1048 82.3406 47.9865C82.4737 47.8535 82.5402 47.6983 82.5402 47.5209C82.5402 47.24 82.385 47.0183 82.0745 46.8557C81.7641 46.693 81.3502 46.56 80.8328 46.4565C80.3302 46.3383 79.7758 46.22 79.1698 46.1017C78.5637 45.9687 77.9502 45.7987 77.3293 45.5917C76.7232 45.3848 76.1615 45.1113 75.6441 44.7713C75.1415 44.4313 74.735 43.9878 74.4245 43.4409C74.1141 42.8791 73.9589 42.1843 73.9589 41.3565C73.9589 40.3957 74.225 39.5235 74.7571 38.74C75.3041 37.9417 76.1098 37.3061 77.1741 36.833C78.2532 36.36 79.5911 36.1235 81.1876 36.1235C82.2371 36.1235 83.2719 36.2343 84.2919 36.4561C85.3119 36.6778 86.2285 37.0178 87.0415 37.4761L85.4671 41.2678C84.6985 40.8835 83.9519 40.5952 83.2276 40.403C82.518 40.2109 81.8232 40.1148 81.1432 40.1148C80.6406 40.1148 80.2415 40.1591 79.9458 40.2478C79.6502 40.3365 79.4358 40.4548 79.3028 40.6026C79.1845 40.7504 79.1254 40.913 79.1254 41.0904C79.1254 41.3565 79.2806 41.5709 79.5911 41.7335C79.9015 41.8813 80.308 42.007 80.8106 42.1104C81.328 42.2139 81.8898 42.3248 82.4958 42.443C83.1167 42.5613 83.7302 42.7239 84.3363 42.9309C84.9424 43.1378 85.4967 43.4113 85.9993 43.7513C86.5167 44.0913 86.9306 44.5348 87.2411 45.0817C87.5515 45.6287 87.7067 46.3087 87.7067 47.1217C87.7067 48.0678 87.4332 48.94 86.8863 49.7383C86.3541 50.5217 85.5558 51.1574 84.4915 51.6452C83.4271 52.1183 82.0893 52.3548 80.478 52.3548Z" fill="white"/>
<rect x="92.6087" width="15.6522" height="7.82609" fill="white"/>
<rect x="110.87" width="32.6087" height="7.82609" fill="white"/>
<rect x="92.6087" y="45.6523" width="32.6087" height="7.82609" fill="white"/>
<rect x="127.826" y="45.6523" width="15.6522" height="7.82609" fill="white"/>
<path d="M148.695 16.9561H150V36.5215H148.695V53.4785H147.392V36.5215H146.087V16.9561H147.392V0H148.695V16.9561Z" fill="white"/>
<g clip-path="url(#clip0_11555_8851)">
<path d="M143.478 43.043H92.6087V10.4346H143.478V43.043ZM97.8499 19.4561V22.8496H103.969L101.198 25.8428V28.6143H103.038C103.881 28.6143 104.487 28.7553 104.857 29.0361C105.226 29.3022 105.41 29.664 105.41 30.1221C105.41 30.6395 105.189 31.0385 104.745 31.3193C104.302 31.6002 103.703 31.7412 102.95 31.7412C102.225 31.7412 101.479 31.6299 100.71 31.4082C99.9564 31.1865 99.2686 30.869 98.6478 30.4551L97.0511 33.7588C97.8493 34.2466 98.7808 34.6236 99.845 34.8896C100.924 35.1557 102.003 35.289 103.082 35.2891C104.649 35.2891 105.928 35.0444 106.918 34.5566C107.909 34.0541 108.641 33.4113 109.114 32.6279C109.601 31.8445 109.846 31.009 109.846 30.1221C109.846 28.7622 109.343 27.6533 108.338 26.7959C107.707 26.2402 106.884 25.8628 105.868 25.6611L109.07 22.2061V19.4561H97.8499ZM119.503 19.1465C117.877 19.1465 116.443 19.4784 115.201 20.1436C113.975 20.8088 113.007 21.7776 112.297 23.0488C111.602 24.3053 111.254 25.8352 111.254 27.6387C111.254 29.3091 111.551 30.7133 112.142 31.8516C112.748 32.9897 113.583 33.8473 114.647 34.4238C115.726 35.0003 116.99 35.289 118.439 35.2891C119.577 35.2891 120.604 35.0742 121.521 34.6455C122.437 34.2021 123.169 33.589 123.716 32.8057C124.263 32.0074 124.536 31.0683 124.536 29.9893C124.536 28.9988 124.293 28.1413 123.805 27.417C123.317 26.6779 122.667 26.1091 121.854 25.71C121.056 25.296 120.168 25.0889 119.193 25.0889C118.468 25.0889 117.81 25.1848 117.219 25.377C116.643 25.5691 116.14 25.8502 115.711 26.2197C115.706 26.2243 115.701 26.2288 115.696 26.2334C115.792 25.1603 116.138 24.3204 116.732 23.7139C117.456 22.9896 118.417 22.627 119.615 22.627C120.117 22.627 120.605 22.6865 121.077 22.8047C121.565 22.9082 122.031 23.1153 122.475 23.4258L124.071 20.2773C123.509 19.9226 122.822 19.6482 122.009 19.4561C121.211 19.2491 120.375 19.1465 119.503 19.1465ZM126.985 19.4561L126.209 28.5254H130.422C131.22 28.5254 131.833 28.5926 132.262 28.7256C132.691 28.8438 132.994 29.0282 133.171 29.2793C133.349 29.5157 133.438 29.7893 133.438 30.0996C133.438 30.617 133.208 31.0237 132.75 31.3193C132.292 31.6002 131.693 31.7412 130.954 31.7412C130.215 31.7412 129.468 31.6299 128.714 31.4082C127.975 31.1865 127.288 30.8688 126.653 30.4551L125.078 33.7588C125.862 34.2465 126.793 34.6236 127.872 34.8896C128.951 35.1557 130.023 35.2891 131.087 35.2891C132.654 35.2891 133.933 35.0377 134.923 34.5352C135.914 34.0325 136.645 33.3813 137.118 32.583C137.606 31.7701 137.85 30.9056 137.85 29.9893C137.85 29.0727 137.636 28.2517 137.207 27.5273C136.779 26.7884 136.098 26.205 135.167 25.7764C134.236 25.3329 133.002 25.1113 131.464 25.1113H130.428L130.616 22.8496H136.874V19.4561H126.985ZM118.151 28.2373C118.786 28.2373 119.297 28.4148 119.681 28.7695C120.08 29.1243 120.28 29.5974 120.28 30.1885C120.28 30.5875 120.19 30.9349 120.013 31.2305C119.836 31.5261 119.584 31.7554 119.259 31.918C118.949 32.0805 118.587 32.1621 118.173 32.1621C117.73 32.1621 117.345 32.0806 117.02 31.918C116.695 31.7406 116.443 31.5113 116.266 31.2305C116.089 30.9349 115.999 30.5951 115.999 30.2109C115.999 29.8119 116.089 29.4646 116.266 29.1689C116.458 28.8733 116.709 28.6441 117.02 28.4814C117.345 28.3188 117.722 28.2373 118.151 28.2373Z" fill="white"/>
</g>
<defs>
<clipPath id="clip0_11555_8851">
<rect width="50.8696" height="32.6087" fill="white" transform="translate(92.6087 10.4346)"/>
</clipPath>
</defs>
</svg>
