<?xml version="1.0" encoding="UTF-8"?>
<svg id="OBJECT" xmlns="http://www.w3.org/2000/svg" viewBox="0 0 32 32">
  <defs>
    <style>
      .cls-1 {
        fill: #7738c8;
      }

      .cls-2 {
        fill: #011839;
      }
    </style>
  </defs>
  <g>
    <path class="cls-2" d="m11,6.62c-.55,0-1,.45-1,1v5.5c0,.55.45,1,1,1s1-.45,1-1v-5.5c0-.55-.45-1-1-1Z"/>
    <path class="cls-2" d="m11,15.06c-.55,0-1,.45-1,1v.56c0,.55.45,1,1,1s1-.45,1-1v-.56c0-.55-.45-1-1-1Z"/>
    <path class="cls-2" d="m18.54,11.82L13.76,2.67c-.55-1.03-1.6-1.67-2.76-1.67s-2.22.64-2.77,1.68L1.35,15.86c-.23.45-.35.94-.35,1.45v.57c0,1.72,1.4,3.12,3.12,3.12h6.72c.55,0,1-.45,1-1s-.45-1-1-1h-6.72c-.62,0-1.12-.5-1.12-1.12v-.57c0-.19.04-.36.13-.53L10,3.61c.4-.75,1.6-.75,1.99,0l4.77,9.14c.26.49.86.68,1.35.42.49-.26.68-.86.42-1.35Z"/>
  </g>
  <path class="cls-1" d="m22,13c-4.96,0-9,4.04-9,9s4.04,9,9,9,9-4.04,9-9-4.04-9-9-9Zm-3.32,10.34c.38.4.37,1.03-.02,1.41-.19.19-.44.28-.7.28s-.52-.1-.72-.3l-1.96-2.03c-.38-.39-.38-1,0-1.39l1.96-2.03c.38-.4,1.02-.41,1.41-.02.4.38.41,1.02.02,1.41l-1.29,1.34,1.29,1.34Zm5.07-4.35l-1.57,6.5c-.11.46-.52.77-.97.77-.08,0-.16,0-.24-.03-.54-.13-.87-.67-.74-1.21l1.57-6.5c.13-.54.67-.86,1.21-.74.54.13.87.67.74,1.21Zm3,5.74c-.2.2-.46.3-.72.3s-.5-.09-.7-.28c-.4-.38-.41-1.02-.02-1.41l1.29-1.34-1.29-1.34c-.38-.4-.37-1.03.02-1.41s1.03-.37,1.41.02l1.96,2.03c.38.39.38,1,0,1.39l-1.96,2.03Z"/>
</svg>