<?xml version="1.0" encoding="UTF-8"?>
<svg id="OBJECT" xmlns="http://www.w3.org/2000/svg" viewBox="0 0 32 32">
  <defs>
    <style>
      .cls-1 {
        fill: #7738c8;
      }

      .cls-2 {
        fill: #011839;
      }
    </style>
  </defs>
  <g>
    <path class="cls-2" d="m25,10c-.56-.04-1.04.35-1.09.9l-1.41,14.1h-12.99l-1.41-14.1c-.06-.55-.54-.94-1.09-.9-.55.05-.95.54-.9,1.09l1.9,19c.05.51.48.9,1,.9h14c.51,0,.94-.39,1-.9l1.9-19c.05-.55-.35-1.04-.9-1.09Zm-15.09,19l-.2-2h12.59l-.2,2h-12.19Z"/>
    <path class="cls-2" d="m16,23c.55,0,1-.45,1-1v-8c0-.55-.45-1-1-1s-1,.45-1,1v8c0,.55.45,1,1,1Z"/>
    <path class="cls-2" d="m20,22c.55,0,1-.45,1-1v-6c0-.55-.45-1-1-1s-1,.45-1,1v6c0,.55.45,1,1,1Z"/>
    <path class="cls-2" d="m12,22c.55,0,1-.45,1-1v-6c0-.55-.45-1-1-1s-1,.45-1,1v6c0,.55.45,1,1,1Z"/>
  </g>
  <path class="cls-1" d="m27,5h-7v-3c0-.55-.45-1-1-1h-6c-.55,0-1,.45-1,1v3h-7c-.55,0-1,.45-1,1v3h24v-3c0-.55-.45-1-1-1Zm-13-2h4v2h-4v-2Z"/>
</svg>