<?xml version="1.0" encoding="UTF-8"?>
<svg id="OBJECT" xmlns="http://www.w3.org/2000/svg" viewBox="0 0 32 32">
  <defs>
    <style>
      .cls-1 {
        fill: #7738c8;
      }

      .cls-2 {
        fill: #011839;
      }
    </style>
  </defs>
  <g>
    <path class="cls-2" d="m8.84,15.6c-.39-.39-1.03-.38-1.41.01l-2.14,2.19c-.38.39-.38,1.01,0,1.4l2.14,2.19c.2.2.46.3.71.3s.51-.09.7-.29c.39-.39.4-1.02.01-1.41l-1.46-1.49,1.46-1.49c.39-.39.38-1.03-.01-1.41Z"/>
    <path class="cls-2" d="m15.14,17.01l1.46,1.49-1.46,1.49c-.39.39-.38,1.03.01,1.41.19.19.45.29.7.29s.52-.1.71-.3l2.14-2.19c.38-.39.38-1.01,0-1.4l-2.14-2.19c-.39-.39-1.02-.4-1.41-.01-.39.39-.4,1.02-.01,1.41Z"/>
    <path class="cls-2" d="m11.89,14.76l-1.71,7c-.13.54.2,1.08.73,1.21.08.02.16.03.24.03.45,0,.86-.31.97-.76l1.71-7c.13-.54-.2-1.08-.73-1.21-.54-.13-1.08.2-1.21.73Z"/>
    <path class="cls-2" d="m22,13c-.55,0-1,.45-1,1v10c0,.55-.45,1-1,1h-4c-.31,0-.61.15-.8.4l-2.4,3.2c-.38.5-1.23.5-1.6,0l-1.2-1.6h2c.55,0,1-.45,1-1s-.45-1-1-1H4c-.55,0-1-.45-1-1v-11c0-.55.45-1,1-1h10c.55,0,1-.45,1-1s-.45-1-1-1H4c-1.65,0-3,1.35-3,3v11c0,1.65,1.35,3,3,3h3.5l2.1,2.8c.56.75,1.46,1.2,2.4,1.2s1.84-.45,2.4-1.2l2.1-2.8h3.5c1.65,0,3-1.35,3-3v-10c0-.55-.45-1-1-1Z"/>
  </g>
  <path class="cls-1" d="m28.76,1h-10.53c-1.23,0-2.24,1-2.24,2.24v6.53c0,1.23,1,2.24,2.24,2.24h7.15l1.38,2.76c.38.76,1.15,1.24,2,1.24,1.23,0,2.24-1,2.24-2.24V3.24c0-1.23-1-2.24-2.24-2.24Zm-8.76,2.75h.5c.55,0,1,.45,1,1s-.45,1-1,1h-.5c-.55,0-1-.45-1-1s.45-1,1-1Zm7,5.5h-7c-.55,0-1-.45-1-1s.45-1,1-1h7c.55,0,1,.45,1,1s-.45,1-1,1Zm0-3.5h-3c-.55,0-1-.45-1-1s.45-1,1-1h3c.55,0,1,.45,1,1s-.45,1-1,1Z"/>
</svg>