<?xml version="1.0" encoding="UTF-8"?>
<svg id="OBJECT" xmlns="http://www.w3.org/2000/svg" viewBox="0 0 32 32">
  <defs>
    <style>
      .cls-1 {
        fill: #7738c8;
      }

      .cls-2 {
        fill: #011839;
      }
    </style>
  </defs>
  <g>
    <path class="cls-2" d="m21.93,8.76l-4.94-3.66.52-2.92c.1-.54-.27-1.06-.81-1.16-.54-.1-1.06.27-1.16.81l-.52,2.92-5.89,1.75c-1.11.33-1.92,1.24-2.12,2.37l-2.96,16.79c-.29,1.64.81,3.21,2.45,3.5l10.14,1.79c.18.03.35.05.53.05,1.44,0,2.72-1.03,2.97-2.5l2.96-16.79h0c.2-1.13-.25-2.27-1.18-2.95Zm-.79,2.61l-2.96,16.79c-.1.56-.63.92-1.19.83l-10.14-1.79c-.56-.1-.93-.63-.83-1.19l2.96-16.79c.07-.38.34-.69.72-.8l4.94-1.47-.34,1.94c-.1.54.27,1.06.81,1.16.06.01.12.02.17.02.48,0,.9-.34.98-.83l.34-1.94,4.14,3.07c.31.23.47.62.4,1Z"/>
    <path class="cls-2" d="m14.55,22.67l-1.9,1.29-1.35-1.86c-.32-.45-.95-.55-1.4-.22-.45.32-.55.95-.22,1.4l1.92,2.64c.2.27.5.41.81.41.19,0,.39-.06.56-.17l2.71-1.83c.46-.31.58-.93.27-1.39s-.93-.58-1.39-.27Z"/>
    <path class="cls-2" d="m12.46,15.47l1.9-1.29,1.35,1.86c.2.27.5.41.81.41.2,0,.41-.06.59-.19.45-.32.55-.95.22-1.4l-1.92-2.64c-.32-.44-.92-.54-1.37-.24l-2.71,1.83c-.46.31-.58.93-.27,1.39s.93.58,1.39.27Z"/>
    <path class="cls-2" d="m17.45,19.7l-7.08-3.09c-.51-.22-1.1.01-1.32.52-.22.51,0,1.1.52,1.32l7.08,3.09c.13.06.27.08.4.08.39,0,.75-.22.92-.6.22-.51,0-1.1-.52-1.32Z"/>
  </g>
  <g>
    <path class="cls-1" d="m25.72,12.94c-.08-.48-.3-.91-.61-1.25-.01.12-.02.24-.04.37l-1.91,10.82,4.18-.74-1.62-9.2Z"/>
    <path class="cls-1" d="m27.96,25.67l-.27-1.55-4.89.86-.68,3.87c-.03.15-.08.3-.12.45l3.92-.69c1.38-.24,2.3-1.56,2.05-2.94Z"/>
  </g>
</svg>