<?xml version="1.0" encoding="UTF-8"?>
<svg id="OBJECT" xmlns="http://www.w3.org/2000/svg" viewBox="0 0 32 32">
  <defs>
    <style>
      .cls-1 {
        fill: #7738c8;
      }

      .cls-2 {
        fill: #011839;
      }
    </style>
  </defs>
  <g>
    <path class="cls-2" d="m30,8c-.55,0-1,.45-1,1v20H12V9c0-.55-.45-1-1-1s-1,.45-1,1v20H3V9c0-.55-.45-1-1-1s-1,.45-1,1v21c0,.55.45,1,1,1h28c.55,0,1-.45,1-1V9c0-.55-.45-1-1-1Z"/>
    <path class="cls-2" d="m5.5,13h2c.55,0,1-.45,1-1s-.45-1-1-1h-2c-.55,0-1,.45-1,1s.45,1,1,1Z"/>
    <path class="cls-2" d="m5.5,17.67h2c.55,0,1-.45,1-1s-.45-1-1-1h-2c-.55,0-1,.45-1,1s.45,1,1,1Z"/>
    <path class="cls-2" d="m5.5,22.33h2c.55,0,1-.45,1-1s-.45-1-1-1h-2c-.55,0-1,.45-1,1s.45,1,1,1Z"/>
    <path class="cls-2" d="m5.5,27h2c.55,0,1-.45,1-1s-.45-1-1-1h-2c-.55,0-1,.45-1,1s.45,1,1,1Z"/>
    <path class="cls-2" d="m19,22h7c.55,0,1-.45,1-1s-.45-1-1-1h-7c-.55,0-1,.45-1,1s.45,1,1,1Z"/>
    <path class="cls-2" d="m15,22h.5c.55,0,1-.45,1-1s-.45-1-1-1h-.5c-.55,0-1,.45-1,1s.45,1,1,1Z"/>
    <path class="cls-2" d="m15,26h11c.55,0,1-.45,1-1s-.45-1-1-1h-11c-.55,0-1,.45-1,1s.45,1,1,1Z"/>
    <path class="cls-2" d="m16.27,16.6c.19.19.44.28.69.28.26,0,.53-.1.72-.31.38-.4.37-1.03-.03-1.41l-1.21-1.15,1.21-1.15c.4-.38.41-1.01.03-1.41-.38-.4-1.02-.41-1.41-.03l-1.96,1.88c-.2.19-.31.45-.31.72s.11.53.31.72l1.96,1.88Z"/>
    <path class="cls-2" d="m23.31,16.57c.2.21.46.31.72.31.25,0,.5-.09.69-.28l1.96-1.88c.2-.19.31-.45.31-.72s-.11-.53-.31-.72l-1.96-1.88c-.4-.38-1.03-.37-1.41.03-.38.4-.37,1.03.03,1.41l1.21,1.15-1.21,1.15c-.4.38-.41,1.01-.03,1.41Z"/>
    <path class="cls-2" d="m19.46,17.97c.08.02.17.03.25.03.44,0,.85-.3.97-.75l1.57-6c.14-.53-.18-1.08-.71-1.22-.53-.14-1.08.18-1.22.71l-1.57,6c-.14.53.18,1.08.71,1.22Z"/>
  </g>
  <path class="cls-1" d="m30,1H2c-.55,0-1,.45-1,1v5h30V2c0-.55-.45-1-1-1Zm-7,4h-1c-.55,0-1-.45-1-1s.45-1,1-1h1c.55,0,1,.45,1,1s-.45,1-1,1Zm5,0h-1c-.55,0-1-.45-1-1s.45-1,1-1h1c.55,0,1,.45,1,1s-.45,1-1,1Z"/>
</svg>