<?xml version="1.0" encoding="UTF-8"?>
<svg id="OBJECT" xmlns="http://www.w3.org/2000/svg" viewBox="0 0 32 32">
  <defs>
    <style>
      .cls-1 {
        fill: #7738c8;
      }

      .cls-2 {
        fill: #011839;
      }
    </style>
  </defs>
  <g>
    <path class="cls-2" d="m27,1H7c-1.65,0-3,1.35-3,3v19.5c0,.55.45,1,1,1s1-.45,1-1V4c0-.55.45-1,1-1h1v20c0,.55.45,1,1,1s1-.45,1-1V3h16v20c0,.55.45,1,1,1s1-.45,1-1V2c0-.55-.45-1-1-1Z"/>
    <path class="cls-2" d="m14.46,12.03c.25,0,.5-.09.7-.28.4-.38.41-1.02.02-1.41l-1.29-1.34,1.29-1.34c.38-.4.37-1.03-.02-1.41-.4-.38-1.03-.37-1.41.02l-1.96,2.03c-.38.39-.38,1,0,1.39l1.96,2.03c.2.2.46.3.72.3Z"/>
    <path class="cls-2" d="m22.25,6.27c-.38-.4-1.02-.41-1.41-.02-.4.38-.41,1.02-.02,1.41l1.29,1.34-1.29,1.34c-.38.4-.37,1.03.02,1.41.19.19.44.28.7.28s.52-.1.72-.3l1.96-2.03c.38-.39.38-1,0-1.39l-1.96-2.03Z"/>
    <path class="cls-2" d="m16.98,13.22c.08.02.16.03.24.03.45,0,.86-.31.97-.77l1.57-6.5c.13-.54-.2-1.08-.74-1.21-.54-.13-1.08.2-1.21.74l-1.57,6.5c-.13.54.2,1.08.74,1.21Z"/>
    <path class="cls-2" d="m23,15.25h-6c-.55,0-1,.45-1,1s.45,1,1,1h6c.55,0,1-.45,1-1s-.45-1-1-1Z"/>
    <path class="cls-2" d="m13.5,15.25h-.5c-.55,0-1,.45-1,1s.45,1,1,1h.5c.55,0,1-.45,1-1s-.45-1-1-1Z"/>
    <path class="cls-2" d="m23,19.25h-10c-.55,0-1,.45-1,1s.45,1,1,1h10c.55,0,1-.45,1-1s-.45-1-1-1Z"/>
  </g>
  <path class="cls-1" d="m4,27.5v1c0,1.38,1.12,2.5,2.5,2.5h21.5v-2h-15c-.55,0-1-.45-1-1s.45-1,1-1h15v-2H6.5c-1.38,0-2.5,1.12-2.5,2.5Zm5-.5h1c.55,0,1,.45,1,1s-.45,1-1,1h-1c-.55,0-1-.45-1-1s.45-1,1-1Z"/>
</svg>