<?xml version="1.0" encoding="UTF-8"?>
<svg id="OBJECT" xmlns="http://www.w3.org/2000/svg" viewBox="0 0 32 32">
  <defs>
    <style>
      .cls-1 {
        fill: #7738c8;
      }

      .cls-2 {
        fill: #011839;
      }
    </style>
  </defs>
  <g>
    <path class="cls-2" d="m26,16c-.55,0-1,.45-1,1v11.5c0,.28-.22.5-.5.5H3.5c-.28,0-.5-.22-.5-.5v-15c0-.28.22-.5.5-.5h6.5c.55,0,1-.45,1-1s-.45-1-1-1H3.5c-1.38,0-2.5,1.12-2.5,2.5v15c0,1.38,1.12,2.5,2.5,2.5h21c1.38,0,2.5-1.12,2.5-2.5v-11.5c0-.55-.45-1-1-1Z"/>
    <path class="cls-2" d="m5.15,17.72c-.29.47-.15,1.09.32,1.38l3,1.88-2.1,2.06c-.39.39-.4,1.02-.01,1.41.2.2.45.3.71.3s.51-.1.7-.29l2.44-2.4,3.25,2.03c.16.1.35.15.53.15s.37-.05.53-.15l3.25-2.03,2.44,2.4c.19.19.45.29.7.29s.52-.1.71-.3c.39-.39.38-1.03-.01-1.41l-2.1-2.06,3-1.88c.47-.29.61-.91.32-1.38-.29-.47-.91-.61-1.38-.32l-7.47,4.67-7.47-4.67c-.47-.29-1.09-.15-1.38.32Z"/>
  </g>
  <path class="cls-1" d="m29,1h-14c-1.1,0-2,.9-2,2v9.5c0,1.1.9,2,2,2h14c1.1,0,2-.9,2-2V3c0-1.1-.9-2-2-2Zm-10.32,8.09c.38.4.37,1.03-.02,1.41-.19.19-.44.28-.7.28s-.52-.1-.72-.3l-1.96-2.03c-.38-.39-.38-1,0-1.39l1.96-2.03c.38-.4,1.02-.41,1.41-.02.4.38.41,1.02.02,1.41l-1.29,1.34,1.29,1.34Zm5.07-4.35l-1.57,6.5c-.11.46-.52.77-.97.77-.08,0-.16,0-.24-.03-.54-.13-.87-.67-.74-1.21l1.57-6.5c.13-.54.67-.87,1.21-.74.54.13.87.67.74,1.21Zm4.96,3.71l-1.96,2.03c-.2.2-.46.3-.72.3s-.5-.09-.7-.28c-.4-.38-.41-1.02-.02-1.41l1.29-1.34-1.29-1.34c-.38-.4-.37-1.03.02-1.41.4-.38,1.03-.37,1.41.02l1.96,2.03c.38.39.38,1,0,1.39Z"/>
</svg>