<?xml version="1.0" encoding="UTF-8"?>
<svg id="OBJECT" xmlns="http://www.w3.org/2000/svg" viewBox="0 0 32 32">
  <defs>
    <style>
      .cls-1 {
        fill: #7738c8;
      }

      .cls-2 {
        fill: #011839;
      }
    </style>
  </defs>
  <g>
    <path class="cls-2" d="m21.66,12.58c-.23-.5-.83-.71-1.33-.48l-1.18.55-6.93-3.34,5.6-2.62c.5-.23.72-.83.48-1.33-.23-.5-.83-.71-1.33-.48l-7.51,3.51c-.18.08-.33.22-.43.39l-1.7,2.8-2.88,1.34c-.6.28-1.06.78-1.29,1.41-.23.63-.2,1.31.08,1.92l.42.89c.29.61.79,1.07,1.42,1.3.27.1.56.15.84.15.36,0,.72-.08,1.05-.24l2.88-1.33,3.24.49c.2.03.39,0,.57-.08l7.51-3.5c.5-.23.72-.83.48-1.33Zm-8.56,2.89l-3.24-.49c-.19-.03-.39,0-.57.08l-3.16,1.47c-.15.07-.28.05-.37.02-.13-.04-.23-.14-.29-.26l-.42-.89c-.07-.16-.04-.3-.02-.38.05-.13.14-.23.26-.28l3.15-1.47c.18-.08.33-.22.43-.39l1.39-2.29,6.54,3.15-3.72,1.73Z"/>
    <path class="cls-2" d="m4.26,21.33c-.54.61-3.26,3.73-3.26,5.67,0,2.21,1.79,4,4,4s4-1.79,4-4c0-1.94-2.71-5.06-3.26-5.67-.38-.42-1.11-.42-1.49,0Zm.74,7.67c-1.1,0-2-.9-2-2,0-.64.94-2.13,2-3.45,1.06,1.33,2,2.81,2,3.45,0,1.1-.9,2-2,2Z"/>
  </g>
  <path class="cls-1" d="m30.5,4.07c-.73-1.56-2.12-2.64-3.81-2.97-1.69-.33-3.39.17-4.64,1.36l-1.51,1.43-.67-1.45c-.23-.5-.83-.72-1.33-.48-.5.23-.72.83-.48,1.33l5.04,10.82c.17.36.53.58.91.58.14,0,.29-.03.42-.09.5-.23.72-.83.48-1.33l-.68-1.45,2.07-.24c1.71-.2,3.18-1.17,4.02-2.68.84-1.5.91-3.26.18-4.83Z"/>
</svg>