<?xml version="1.0" encoding="UTF-8"?>
<svg id="OBJECT" xmlns="http://www.w3.org/2000/svg" viewBox="0 0 32 32">
  <defs>
    <style>
      .cls-1 {
        fill: #7738c8;
      }

      .cls-2 {
        fill: #011839;
      }
    </style>
  </defs>
  <path class="cls-2" d="m20.7,22.22l-2.15-2.15c-.94-.95-2.59-.95-3.54,0l-3.76,3.76c-.82.83-2.26.82-3.08,0-.41-.41-.64-.96-.64-1.54s.23-1.13.64-1.54l3.76-3.76c.97-.97.97-2.56,0-3.54l-2.15-2.15c-.39-.39-1.02-.39-1.41,0l-4.82,4.82C.15,19.51.15,25.05,3.55,28.45c1.7,1.7,3.93,2.55,6.17,2.55s4.47-.85,6.17-2.55l4.82-4.82c.19-.19.29-.44.29-.71s-.11-.52-.29-.71Zm-11.63-8.8l1.44,1.44c.19.2.19.51,0,.71l-.8.8-1.8-1.8,1.16-1.16Zm5.4,13.62c-2.62,2.62-6.89,2.62-9.51,0-2.62-2.62-2.62-6.89,0-9.51l1.54-1.54,1.8,1.8-1.54,1.54c-.79.79-1.22,1.84-1.22,2.96s.43,2.17,1.22,2.96c.79.79,1.84,1.22,2.96,1.22s2.17-.43,2.96-1.22l1.54-1.54,1.8,1.8-1.54,1.54Zm2.96-2.96l-1.8-1.8.8-.8h0c.13-.13.28-.15.35-.15s.23.02.35.15l1.44,1.44-1.16,1.16Z"/>
  <path class="cls-1" d="m22,1c-4.96,0-9,4.04-9,9s4.04,9,9,9,9-4.04,9-9S26.96,1,22,1Zm-3.32,10.34c.38.4.37,1.03-.02,1.41-.19.19-.44.28-.7.28s-.52-.1-.72-.3l-1.96-2.03c-.38-.39-.38-1,0-1.39l1.96-2.03c.38-.4,1.02-.41,1.41-.02.4.38.41,1.02.02,1.41l-1.29,1.34,1.29,1.34Zm5.07-4.35l-1.57,6.5c-.11.46-.52.77-.97.77-.08,0-.16,0-.24-.03-.54-.13-.87-.67-.74-1.21l1.57-6.5c.13-.54.67-.86,1.21-.74.54.13.87.67.74,1.21Zm3,5.74c-.2.2-.46.3-.72.3s-.5-.09-.7-.28c-.4-.38-.41-1.02-.02-1.41l1.29-1.34-1.29-1.34c-.38-.4-.37-1.03.02-1.41s1.03-.37,1.41.02l1.96,2.03c.38.39.38,1,0,1.39l-1.96,2.03Z"/>
</svg>