<?xml version="1.0" encoding="UTF-8"?>
<svg id="OBJECT" xmlns="http://www.w3.org/2000/svg" viewBox="0 0 32 32">
  <defs>
    <style>
      .cls-1 {
        fill: #7738c8;
      }

      .cls-2 {
        fill: #011839;
      }
    </style>
  </defs>
  <g>
    <path class="cls-2" d="m30.77,16.07l-2.77-3.37v-.29c0-3.05-1.18-5.92-3.33-8.07s-5.01-3.33-8.07-3.33c-6.28,0-11.39,5.11-11.39,11.4v7.6c0,1.21-.17,2.42-.5,3.61l-.31,1.13c-.15.53.17,1.08.7,1.23.53.14,1.08-.17,1.23-.7l.31-1.13c.38-1.35.57-2.74.57-4.14v-7.6c0-5.18,4.21-9.4,9.39-9.4,2.52,0,4.88.98,6.65,2.75s2.75,4.13,2.75,6.65v.65c0,.23.08.46.23.63l2.39,2.9-2.27,2c-.23.2-.35.49-.34.79l.12,3c.04,1.02-.47,1.97-1.34,2.49-.8.47-1.79.51-2.59.14l-2.14-.98c-.5-.23-1.1,0-1.33.49s0,1.1.49,1.33l2.14.98c.62.29,1.29.43,1.99.43.85,0,1.7-.23,2.45-.67,1.51-.9,2.4-2.55,2.33-4.3l-.1-2.52,2.64-2.33c.41-.36.46-.97.11-1.39Z"/>
    <path class="cls-2" d="m14.02,10.73l-1.38-1.31,1.38-1.31c.4-.38.42-1.01.04-1.41-.38-.4-1.01-.42-1.41-.04l-2.14,2.03c-.2.19-.31.45-.31.73s.11.54.31.73l2.14,2.03c.19.18.44.27.69.27.26,0,.53-.1.73-.31.38-.4.36-1.03-.04-1.41Z"/>
    <path class="cls-2" d="m19.32,12.14c.2.21.46.31.73.31.25,0,.49-.09.69-.27l2.14-2.03c.2-.19.31-.45.31-.73s-.11-.54-.31-.73l-2.14-2.03c-.4-.38-1.03-.36-1.41.04s-.36,1.03.04,1.41l1.38,1.31-1.38,1.31c-.4.38-.42,1.01-.04,1.41Z"/>
    <path class="cls-2" d="m15.83,13.67c.44,0,.85-.3.97-.75l1.71-6.5c.14-.53-.18-1.08-.71-1.22-.53-.14-1.08.18-1.22.71l-1.71,6.5c-.14.53.18,1.08.71,1.22.08.02.17.03.26.03Z"/>
    <path class="cls-2" d="m22.69,16.67c0-.55-.45-1-1-1h-7c-.55,0-1,.45-1,1s.45,1,1,1h7c.55,0,1-.45,1-1Z"/>
    <path class="cls-2" d="m11.69,15.67h-1c-.55,0-1,.45-1,1s.45,1,1,1h1c.55,0,1-.45,1-1s-.45-1-1-1Z"/>
  </g>
  <path class="cls-1" d="m18.46,29h-1.93l.65-2H3.79l-.55,2h-1.24c-.55,0-1,.45-1,1s.45,1,1,1h16.46c.55,0,1-.45,1-1s-.45-1-1-1Z"/>
</svg>