<?xml version="1.0" encoding="UTF-8"?>
<svg id="OBJECT" xmlns="http://www.w3.org/2000/svg" viewBox="0 0 32 32">
  <defs>
    <style>
      .cls-1 {
        fill: #7738c8;
      }

      .cls-2 {
        fill: #011839;
      }
    </style>
  </defs>
  <g>
    <path class="cls-2" d="m9.5,23h1c.55,0,1-.45,1-1s-.45-1-1-1h-1c-.55,0-1,.45-1,1s.45,1,1,1Z"/>
    <path class="cls-2" d="m14.5,23h3c.55,0,1-.45,1-1s-.45-1-1-1h-3c-.55,0-1,.45-1,1s.45,1,1,1Z"/>
    <path class="cls-2" d="m21.5,23h1c.55,0,1-.45,1-1s-.45-1-1-1h-1c-.55,0-1,.45-1,1s.45,1,1,1Z"/>
    <path class="cls-2" d="m28,19.5h2c.55,0,1-.45,1-1v-3.5c0-.55-.45-1-1-1h-5.26c-.55,0-1,.45-1,1s.45,1,1,1h4.26v1.5h-1c-1.65,0-3,1.35-3,3s1.35,3,3,3h1v1.5H3v-1.5h1c1.65,0,3-1.35,3-3s-1.35-3-3-3h-1v-1.5h4.26c.55,0,1-.45,1-1s-.45-1-1-1H2c-.55,0-1,.45-1,1v3.5c0,.55.45,1,1,1h2c.55,0,1,.45,1,1s-.45,1-1,1h-2c-.55,0-1,.45-1,1v3.5c0,.55.45,1,1,1h1v3c0,.55.45,1,1,1h24c.55,0,1-.45,1-1v-3h1c.55,0,1-.45,1-1v-3.5c0-.55-.45-1-1-1h-2c-.55,0-1-.45-1-1s.45-1,1-1Zm-14,7.5h4v2h-4v-2Zm-2,2h-3v-2h3v2Zm8-2h3v2h-3v-2Zm-15,0h2v2h-2v-2Zm22,2h-2v-2h2v2Z"/>
  </g>
  <path class="cls-1" d="m16,18c4.96,0,9-4.04,9-9S20.96,0,16,0,7,4.04,7,9s4.04,9,9,9Zm3.32-10.34c-.38-.4-.37-1.03.02-1.41s1.03-.37,1.41.02l1.96,2.03c.38.39.38,1,0,1.39l-1.96,2.03c-.2.2-.46.3-.72.3s-.5-.09-.7-.28c-.4-.38-.41-1.02-.02-1.41l1.29-1.34-1.29-1.34Zm-5.07,4.35l1.57-6.5c.13-.54.67-.86,1.21-.74.54.13.87.67.74,1.21l-1.57,6.5c-.11.46-.52.77-.97.77-.08,0-.16,0-.24-.03-.54-.13-.87-.67-.74-1.21Zm-4.96-3.71l1.96-2.03c.38-.4,1.02-.41,1.41-.02.4.38.41,1.02.02,1.41l-1.29,1.34,1.29,1.34c.38.4.37,1.03-.02,1.41-.19.19-.44.28-.7.28s-.52-.1-.72-.3l-1.96-2.03c-.38-.39-.38-1,0-1.39Z"/>
</svg>