<?xml version="1.0" encoding="UTF-8"?>
<svg id="OBJECT" xmlns="http://www.w3.org/2000/svg" viewBox="0 0 32 32">
  <defs>
    <style>
      .cls-1 {
        fill: #7738c8;
      }

      .cls-2 {
        fill: #011839;
      }
    </style>
  </defs>
  <g>
    <path class="cls-2" d="m8.36,21.29c-.27-.27-.66-.36-1.03-.24-1.32.44-2.58,1.24-3.64,2.3-1.92,1.92-2.94,4.51-2.64,6.74.06.45.41.8.86.86.25.03.51.05.78.05,2.04,0,4.26-.99,5.96-2.69,1.06-1.06,1.85-2.32,2.3-3.64.12-.36.03-.76-.24-1.03l-2.35-2.35Zm-1.13,5.6c-1.25,1.25-2.8,2-4.23,2.1.1-1.43.86-2.98,2.1-4.23.69-.69,1.47-1.23,2.3-1.6l1.42,1.43c-.37.83-.91,1.61-1.6,2.3Z"/>
    <path class="cls-2" d="m30.88,1.98c-.06-.45-.41-.8-.86-.86-5.61-.73-12.15,1.86-17.06,6.77-2.73,2.73-4.77,5.95-5.9,9.33-.12.36-.03.76.24,1.03l6.45,6.45c.19.19.45.29.71.29.11,0,.21-.02.32-.05,3.38-1.14,6.61-3.18,9.33-5.9,4.92-4.92,7.51-11.45,6.77-17.06ZM14.72,22.85l-5.56-5.56c.28-.74.6-1.48.97-2.2l6.79,6.79c-.72.37-1.46.7-2.2.97Zm7.97-5.21c-1.23,1.23-2.57,2.3-3.98,3.21l-7.54-7.54c.9-1.41,1.98-2.75,3.21-3.98,4.25-4.25,9.76-6.61,14.6-6.28.33,4.83-2.03,10.35-6.28,14.6Z"/>
  </g>
  <g>
    <path class="cls-1" d="m26.58,22.93c-.39-.39-1.02-.39-1.41,0l-.85.85-.57-1.7c-1.85,1.56-3.86,2.85-5.97,3.82l1.66,2.76-.64.64c-.39.39-.39,1.02,0,1.41.2.2.45.29.71.29s.51-.1.71-.29l6.37-6.36c.39-.39.39-1.02,0-1.41Z"/>
    <path class="cls-1" d="m9.07,6.84c.39-.39.39-1.02,0-1.41s-1.02-.39-1.41,0L1.29,11.79c-.39.39-.39,1.02,0,1.41.2.2.45.29.71.29s.51-.1.71-.29l.68-.68,2.74,1.65c.98-2.11,2.27-4.12,3.84-5.97l-1.7-.57.8-.8Z"/>
  </g>
  <circle class="cls-1" cx="20" cy="12" r="4.5"/>
</svg>