<?xml version="1.0" encoding="UTF-8"?>
<svg id="OBJECT" xmlns="http://www.w3.org/2000/svg" viewBox="0 0 32 32">
  <defs>
    <style>
      .cls-1 {
        fill: #7738c8;
      }

      .cls-2 {
        fill: #011839;
      }
    </style>
  </defs>
  <g>
    <path class="cls-2" d="m11,7h1c.55,0,1-.45,1-1s-.45-1-1-1h-1c-.55,0-1,.45-1,1s.45,1,1,1Z"/>
    <path class="cls-2" d="m24,5h-5c-.55,0-1,.45-1,1s.45,1,1,1h5c.55,0,1-.45,1-1s-.45-1-1-1Z"/>
    <path class="cls-2" d="m24,8h-5c-.55,0-1,.45-1,1s.45,1,1,1h5c.55,0,1-.45,1-1s-.45-1-1-1Z"/>
    <path class="cls-2" d="m30.12,4.71l-2.83-2.83c-.57-.57-1.32-.88-2.12-.88H4c-1.65,0-3,1.35-3,3v24c0,1.65,1.35,3,3,3h24c1.65,0,3-1.35,3-3V6.83c0-.8-.31-1.56-.88-2.12Zm-21.12-1.71h5v5c0,.55-.45,1-1,1h-3c-.55,0-1-.45-1-1V3Zm20,25c0,.55-.45,1-1,1H4c-.55,0-1-.45-1-1V4c0-.55.45-1,1-1h3v5c0,1.65,1.35,3,3,3h3c1.65,0,3-1.35,3-3V3h9.17c.27,0,.52.1.71.29l2.83,2.83c.19.19.29.44.29.71v21.17Z"/>
  </g>
  <g>
    <path class="cls-1" d="m7,27h18v-9H7v9Zm7-7.5h8c.55,0,1,.45,1,1s-.45,1-1,1h-8c-.55,0-1-.45-1-1s.45-1,1-1Zm-4,0h.5c.55,0,1,.45,1,1s-.45,1-1,1h-.5c-.55,0-1-.45-1-1s.45-1,1-1Zm0,4h12c.55,0,1,.45,1,1s-.45,1-1,1h-12c-.55,0-1-.45-1-1s.45-1,1-1Z"/>
    <path class="cls-1" d="m24.5,14H7.5c-.28,0-.5.22-.5.5v1.5h18v-1.5c0-.28-.22-.5-.5-.5Z"/>
  </g>
</svg>