<?xml version="1.0" encoding="UTF-8"?>
<svg id="OBJECT" xmlns="http://www.w3.org/2000/svg" viewBox="0 0 32 32">
  <defs>
    <style>
      .cls-1 {
        fill: #7738c8;
      }

      .cls-2 {
        fill: #011839;
      }
    </style>
  </defs>
  <path class="cls-2" d="m30.14,25.99l-5.99-5.99c1.16-1.9,1.85-4.12,1.85-6.5,0-6.89-5.61-12.5-12.5-12.5S1,6.61,1,13.5s5.61,12.5,12.5,12.5c2.38,0,4.61-.68,6.51-1.85l5.99,5.99c.55.55,1.29.86,2.08.86s1.52-.31,2.07-.86c1.14-1.14,1.14-3.01,0-4.15ZM3,13.5C3,7.71,7.71,3,13.5,3s10.5,4.71,10.5,10.5-4.71,10.5-10.5,10.5S3,19.29,3,13.5Zm25.73,15.23c-.35.35-.97.35-1.32,0l-5.76-5.76c.47-.41.91-.85,1.32-1.32l5.76,5.76c.36.36.36.96,0,1.32Z"/>
  <path class="cls-1" d="m13.5,4.5c-4.96,0-9,4.04-9,9s4.04,9,9,9,9-4.04,9-9-4.04-9-9-9Zm-2.77,10.22c.39.39.39,1.02,0,1.41-.2.2-.45.29-.71.29s-.51-.1-.71-.29l-1.93-1.93c-.39-.39-.39-1.02,0-1.41l1.93-1.93c.39-.39,1.02-.39,1.41,0s.39,1.02,0,1.41l-1.22,1.22,1.22,1.22Zm4.51-4.07l-1.54,6.18c-.11.45-.52.76-.97.76-.08,0-.16,0-.24-.03-.54-.13-.86-.68-.73-1.21l1.54-6.18c.13-.54.67-.86,1.21-.73.54.13.86.68.73,1.21Zm2.44,5.49c-.2.2-.45.29-.71.29s-.51-.1-.71-.29c-.39-.39-.39-1.02,0-1.41l1.22-1.22-1.22-1.22c-.39-.39-.39-1.02,0-1.41s1.02-.39,1.41,0l1.93,1.93c.39.39.39,1.02,0,1.41l-1.93,1.93Z"/>
</svg>