<?xml version="1.0" encoding="UTF-8"?>
<svg id="OBJECT" xmlns="http://www.w3.org/2000/svg" viewBox="0 0 32 32">
  <defs>
    <style>
      .cls-1 {
        fill: #7738c8;
      }

      .cls-2 {
        fill: #011839;
      }
    </style>
  </defs>
  <path class="cls-2" d="m18,31h-4c-.55,0-1-.45-1-1v-1.87c-1.22-.3-2.38-.78-3.46-1.43l-1.32,1.32c-.39.39-1.02.39-1.41,0l-2.83-2.83c-.39-.39-.39-1.02,0-1.41l1.32-1.32c-.65-1.07-1.13-2.23-1.43-3.46h-1.87c-.55,0-1-.45-1-1v-4c0-.55.45-1,1-1h1.87c.3-1.22.78-2.38,1.43-3.46l-1.32-1.32c-.39-.39-.39-1.02,0-1.41l2.83-2.83c.39-.39,1.02-.39,1.41,0l1.32,1.32c1.07-.65,2.23-1.13,3.46-1.43v-1.87c0-.55.45-1,1-1h4c.55,0,1,.45,1,1v1.87c1.22.3,2.38.78,3.46,1.43l1.32-1.32c.39-.39,1.02-.39,1.41,0l2.83,2.83c.39.39.39,1.02,0,1.41l-1.32,1.32c.65,1.07,1.13,2.23,1.43,3.46h1.87c.55,0,1,.45,1,1v4c0,.55-.45,1-1,1h-1.87c-.3,1.22-.78,2.38-1.43,3.46l1.32,1.32c.39.39.39,1.02,0,1.41l-2.83,2.83c-.39.39-1.02.39-1.41,0l-1.32-1.32c-1.07.65-2.23,1.13-3.46,1.43v1.87c0,.55-.45,1-1,1Zm-3-2h2v-1.69c0-.49.35-.9.83-.98,1.52-.27,2.93-.85,4.19-1.73.4-.28.94-.23,1.28.11l1.19,1.19,1.41-1.41-1.19-1.19c-.34-.34-.39-.88-.11-1.28.88-1.26,1.46-2.67,1.73-4.19.08-.48.5-.83.99-.83h1.69v-2h-1.69c-.49,0-.9-.35-.99-.83-.27-1.52-.85-2.93-1.73-4.19-.28-.4-.23-.94.11-1.28l1.19-1.19-1.41-1.41-1.19,1.19c-.34.34-.88.39-1.28.11-1.26-.88-2.67-1.46-4.19-1.73-.48-.08-.83-.5-.83-.98v-1.69h-2v1.69c0,.49-.35.9-.83.98-1.52.27-2.93.85-4.19,1.73-.4.28-.94.23-1.28-.11l-1.19-1.19-1.41,1.41,1.19,1.19c.34.34.39.88.11,1.28-.88,1.26-1.46,2.67-1.73,4.19-.08.48-.5.83-.99.83h-1.69v2h1.69c.49,0,.9.35.99.83.27,1.52.85,2.93,1.73,4.19.28.4.23.94-.11,1.28l-1.19,1.19,1.41,1.41,1.19-1.19c.34-.34.88-.39,1.28-.11,1.26.88,2.67,1.46,4.19,1.73.48.08.83.5.83.98v1.69Z"/>
  <path class="cls-1" d="m16,7c-4.96,0-9,4.04-9,9s4.04,9,9,9,9-4.04,9-9-4.04-9-9-9Zm-3.27,10.23c.39.39.39,1.02,0,1.41-.2.2-.45.29-.71.29s-.51-.1-.71-.29l-1.93-1.93c-.39-.39-.39-1.02,0-1.41l1.93-1.93c.39-.39,1.02-.39,1.41,0s.39,1.02,0,1.41l-1.22,1.22,1.22,1.22Zm5.01-4.07l-1.54,6.18c-.11.45-.52.76-.97.76-.08,0-.16,0-.24-.03-.54-.13-.86-.68-.73-1.21l1.54-6.18c.13-.54.67-.86,1.21-.73.54.13.86.68.73,1.21Zm4.87,3.56l-1.93,1.93c-.2.2-.45.29-.71.29s-.51-.1-.71-.29c-.39-.39-.39-1.02,0-1.41l1.22-1.22-1.22-1.22c-.39-.39-.39-1.02,0-1.41s1.02-.39,1.41,0l1.93,1.93c.39.39.39,1.02,0,1.41Z"/>
</svg>