<?xml version="1.0" encoding="UTF-8"?>
<svg id="OBJECT" xmlns="http://www.w3.org/2000/svg" viewBox="0 0 32 32">
  <defs>
    <style>
      .cls-1 {
        fill: #7738c8;
      }

      .cls-2 {
        fill: #011839;
      }
    </style>
  </defs>
  <g>
    <path class="cls-2" d="m8.16,13.25c-.4-.38-1.03-.37-1.41.02l-1.96,2.03c-.38.39-.38,1,0,1.39l1.96,2.03c.2.2.46.3.72.3s.5-.09.7-.28c.4-.38.41-1.02.02-1.41l-1.29-1.34,1.29-1.34c.38-.4.37-1.03-.02-1.41Z"/>
    <path class="cls-2" d="m17.22,15.3l-1.96-2.03c-.38-.4-1.02-.41-1.41-.02-.4.38-.41,1.02-.02,1.41l1.29,1.34-1.29,1.34c-.38.4-.37,1.03.02,1.41.19.19.45.28.7.28s.52-.1.72-.3l1.96-2.03c.38-.39.38-1,0-1.39Z"/>
    <path class="cls-2" d="m12.02,11.78c-.53-.13-1.08.2-1.21.74l-1.57,6.5c-.13.54.2,1.08.74,1.21.08.02.16.03.24.03.45,0,.86-.31.97-.76l1.57-6.5c.13-.54-.2-1.08-.74-1.21Z"/>
    <path class="cls-2" d="m19.78,20.79c.78-1.42,1.22-3.05,1.22-4.79s-.44-3.37-1.22-4.79l2.56-2.25c.42-.36.46-1,.09-1.41-.36-.42-1-.46-1.41-.09l-2.39,2.09c-1.84-2.17-4.57-3.55-7.63-3.55C5.49,6,1,10.49,1,16s4.49,10,10,10c3.06,0,5.8-1.38,7.63-3.55l2.39,2.09c.19.17.42.25.66.25.28,0,.55-.12.75-.34.36-.42.32-1.05-.09-1.41l-2.56-2.25Zm-8.78,3.21c-4.41,0-8-3.59-8-8s3.59-8,8-8,8,3.59,8,8-3.59,8-8,8Z"/>
  </g>
  <g>
    <circle class="cls-1" cx="27" cy="5" r="4"/>
    <circle class="cls-1" cx="27" cy="27" r="4"/>
  </g>
</svg>