<?xml version="1.0" encoding="UTF-8"?>
<svg id="OBJECT" xmlns="http://www.w3.org/2000/svg" viewBox="0 0 32 32">
  <defs>
    <style>
      .cls-1 {
        fill: #7738c8;
      }

      .cls-2 {
        fill: #011839;
      }
    </style>
  </defs>
  <g>
    <path class="cls-2" d="m30.64,4.23c-.23-.19-.53-.27-.82-.22-3.11.55-3.86-1.97-3.93-2.25-.11-.45-.51-.76-.97-.76h-9.84c-.46,0-.86.32-.97.76-.08.29-.82,2.81-3.94,2.26-.29-.06-.59.03-.82.22-.23.19-.36.47-.36.77v4.05c0,.55.45,1,1,1s1-.45,1-1v-2.95s.04,0,.05,0c2.66,0,4.12-1.7,4.74-3.1h8.42c.61,1.4,2.08,3.1,4.74,3.1.02,0,.04,0,.05,0v10.54c0,4.19-2.23,8.13-5.82,10.29l-3.18,1.9-2.48-1.48c-.47-.28-1.09-.13-1.37.34-.28.47-.13,1.09.34,1.37l2.99,1.79c.16.09.34.14.51.14s.36-.05.51-.14l3.69-2.21c4.19-2.52,6.79-7.12,6.79-12.01V5c0-.3-.13-.58-.36-.77Z"/>
    <path class="cls-2" d="m17.68,6.5h4.64c.68.83,1.71,1.79,3.18,2.41v7.73c0,2.97-1.58,5.76-4.12,7.29l-1.89,1.13c-.47.28-.63.9-.35,1.37.19.31.52.49.86.49.17,0,.35-.05.51-.14l1.89-1.13c3.14-1.89,5.09-5.34,5.09-9.01v-8.42c0-.43-.28-.82-.69-.95-1.6-.52-2.62-1.57-3.19-2.35-.19-.26-.49-.41-.81-.41h-5.62c-.32,0-.62.15-.81.41-.57.79-1.59,1.84-3.19,2.35-.41.13-.69.52-.69.95v1.07c0,.55.45,1,1,1s1-.45,1-1v-.38c1.47-.63,2.5-1.58,3.18-2.41Z"/>
    <path class="cls-2" d="m20,10.5c.55,0,1-.45,1-1v-1c0-.55-.45-1-1-1s-1,.45-1,1v1c0,.55.45,1,1,1Z"/>
  </g>
  <path class="cls-1" d="m19,20c0-4.96-4.04-9-9-9S1,15.04,1,20s4.04,9,9,9,9-4.04,9-9Zm-12.32,1.34c.38.4.37,1.03-.02,1.41-.19.19-.44.28-.7.28s-.52-.1-.72-.3l-1.96-2.03c-.38-.39-.38-1,0-1.39l1.96-2.03c.38-.4,1.02-.41,1.41-.02.4.38.41,1.02.02,1.41l-1.29,1.34,1.29,1.34Zm5.07-4.35l-1.57,6.5c-.11.46-.52.77-.97.77-.08,0-.16,0-.24-.03-.54-.13-.87-.67-.74-1.21l1.57-6.5c.13-.54.67-.86,1.21-.74.54.13.87.67.74,1.21Zm2.28,6.05c-.25,0-.5-.09-.7-.28-.4-.38-.41-1.02-.02-1.41l1.29-1.34-1.29-1.34c-.38-.4-.37-1.03.02-1.41s1.03-.37,1.41.02l1.96,2.03c.38.39.38,1,0,1.39l-1.96,2.03c-.2.2-.46.3-.72.3Z"/>
</svg>