<?xml version="1.0" encoding="UTF-8"?>
<svg id="OBJECT" xmlns="http://www.w3.org/2000/svg" viewBox="0 0 32 32">
  <defs>
    <style>
      .cls-1 {
        fill: #7738c8;
      }

      .cls-2 {
        fill: #011839;
      }
    </style>
  </defs>
  <g>
    <path class="cls-2" d="m27.7,7.2l-5.9-5.9c-.39-.39-1.02-.39-1.41,0l-3.91,3.91-.52-.52c-.39-.39-1.02-.39-1.41,0L1.71,17.5c-.95.97-.95,2.54,0,3.5l6.28,6.28c.48.48,1.11.72,1.75.72s1.27-.24,1.76-.72l.2-.2c.39-.39.39-1.02,0-1.41s-1.02-.39-1.41,0l-.19.19c-.19.19-.5.19-.68,0l-6.28-6.28c-.18-.18-.18-.49,0-.68l8.11-8.1,5.81,5.81c.2.2.45.29.71.29s.51-.1.71-.29c.39-.39.39-1.02,0-1.41l-5.81-5.81,2.59-2.59,6.95,6.95-1.54,1.54c-.39.39-.39,1.02,0,1.41s1.02.39,1.41,0l2.25-2.25c.39-.39.39-1.02,0-1.41l-.52-.52,3.91-3.91c.39-.39.39-1.02,0-1.41Zm-5.33,3.91l-4.49-4.49,3.2-3.2,4.49,4.49-3.2,3.2Z"/>
    <path class="cls-2" d="m20.22,5.42l-.33.33c-.39.39-.39,1.02,0,1.41.2.2.45.29.71.29s.51-.1.71-.29l.33-.33c.39-.39.39-1.02,0-1.41s-1.02-.39-1.41,0Z"/>
    <path class="cls-2" d="m21.83,9.1c.2.2.45.29.71.29s.51-.1.71-.29l.33-.33c.39-.39.39-1.02,0-1.41s-1.02-.39-1.41,0l-.33.33c-.39.39-.39,1.02,0,1.41Z"/>
    <path class="cls-2" d="m4.92,18.54c-.39.39-.39,1.02,0,1.41l.35.35c.2.2.45.29.71.29s.51-.1.71-.29c.39-.39.39-1.02,0-1.41l-.35-.35c-.39-.39-1.02-.39-1.41,0Z"/>
    <path class="cls-2" d="m7.75,21.37c-.39.39-.39,1.02,0,1.41l.35.35c.2.2.45.29.71.29s.51-.1.71-.29c.39-.39.39-1.02,0-1.41l-.35-.35c-.39-.39-1.02-.39-1.41,0Z"/>
  </g>
  <path class="cls-1" d="m29,17.5h-14c-1.1,0-2,.9-2,2v9.5c0,1.1.9,2,2,2h14c1.1,0,2-.9,2-2v-9.5c0-1.1-.9-2-2-2Zm-10.32,8.09c.38.4.37,1.03-.02,1.41-.19.19-.44.28-.7.28s-.52-.1-.72-.3l-1.96-2.03c-.38-.39-.38-1,0-1.39l1.96-2.03c.38-.4,1.02-.41,1.41-.02.4.38.41,1.02.02,1.41l-1.29,1.34,1.29,1.34Zm5.07-4.35l-1.57,6.5c-.11.46-.52.77-.97.77-.08,0-.16,0-.24-.03-.54-.13-.87-.67-.74-1.21l1.57-6.5c.13-.54.67-.87,1.21-.74.54.13.87.67.74,1.21Zm4.96,3.71l-1.96,2.03c-.2.2-.46.3-.72.3s-.5-.09-.7-.28c-.4-.38-.41-1.02-.02-1.41l1.29-1.34-1.29-1.34c-.38-.4-.37-1.03.02-1.41.4-.38,1.03-.37,1.41.02l1.96,2.03c.38.39.38,1,0,1.39Z"/>
</svg>