<?xml version="1.0" encoding="UTF-8"?>
<svg id="OBJECT" xmlns="http://www.w3.org/2000/svg" viewBox="0 0 32 32">
  <defs>
    <style>
      .cls-1 {
        fill: #7738c8;
      }

      .cls-2 {
        fill: #011839;
      }
    </style>
  </defs>
  <g>
    <path class="cls-2" d="m30,8c-.55,0-1,.45-1,1v20H3V9c0-.55-.45-1-1-1s-1,.45-1,1v21c0,.55.45,1,1,1h28c.55,0,1-.45,1-1V9c0-.55-.45-1-1-1Z"/>
    <path class="cls-2" d="m10.14,24c-.55,0-1,.45-1,1s.45,1,1,1h11.36c.55,0,1-.45,1-1s-.45-1-1-1h-11.36Z"/>
    <path class="cls-2" d="m5.5,26h1c.55,0,1-.45,1-1s-.45-1-1-1h-1c-.55,0-1,.45-1,1s.45,1,1,1Z"/>
    <path class="cls-2" d="m25.5,24c-.55,0-1,.45-1,1s.45,1,1,1h1c.55,0,1-.45,1-1s-.45-1-1-1h-1Z"/>
    <path class="cls-2" d="m11.5,22h1c1.38,0,2.5-1.12,2.5-2.5v-5c0-1.38-1.12-2.5-2.5-2.5h-1c-1.38,0-2.5,1.12-2.5,2.5v5c0,1.38,1.12,2.5,2.5,2.5Zm-.5-7.5c0-.28.22-.5.5-.5h1c.28,0,.5.22.5.5v5c0,.28-.22.5-.5.5h-1c-.28,0-.5-.22-.5-.5v-5Z"/>
    <path class="cls-2" d="m6,22c.55,0,1-.45,1-1v-8c0-.55-.45-1-1-1s-1,.45-1,1v8c0,.55.45,1,1,1Z"/>
    <path class="cls-2" d="m23.5,22h1c1.38,0,2.5-1.12,2.5-2.5v-5c0-1.38-1.12-2.5-2.5-2.5h-1c-1.38,0-2.5,1.12-2.5,2.5v5c0,1.38,1.12,2.5,2.5,2.5Zm-.5-7.5c0-.28.22-.5.5-.5h1c.28,0,.5.22.5.5v5c0,.28-.22.5-.5.5h-1c-.28,0-.5-.22-.5-.5v-5Z"/>
    <path class="cls-2" d="m18,22c.55,0,1-.45,1-1v-8c0-.55-.45-1-1-1s-1,.45-1,1v8c0,.55.45,1,1,1Z"/>
  </g>
  <path class="cls-1" d="m30,1H2c-.55,0-1,.45-1,1v5h30V2c0-.55-.45-1-1-1Zm-7,4h-1c-.55,0-1-.45-1-1s.45-1,1-1h1c.55,0,1,.45,1,1s-.45,1-1,1Zm5,0h-1c-.55,0-1-.45-1-1s.45-1,1-1h1c.55,0,1,.45,1,1s-.45,1-1,1Z"/>
</svg>