<?xml version="1.0" encoding="UTF-8"?>
<svg id="OBJECT" xmlns="http://www.w3.org/2000/svg" viewBox="0 0 32 32">
  <defs>
    <style>
      .cls-1 {
        fill: #7738c8;
      }

      .cls-2 {
        fill: #011839;
      }
    </style>
  </defs>
  <g>
    <path class="cls-2" d="m20.21,16.69l-.22.03c-.55.08-.92.59-.84,1.14.07.5.5.85.99.85.05,0,.1,0,.15-.01l.24-.04c.55-.09.92-.6.83-1.14-.09-.55-.6-.92-1.14-.83Z"/>
    <path class="cls-2" d="m16.84,16.99s-.02,0-.03,0c-1.68.04-3.45-.06-5.04-.31-.55-.09-1.06.29-1.14.83-.08.55.29,1.06.83,1.14,1.44.23,2.96.34,4.54.34.29,0,.58,0,.86-.01.55-.01.99-.47.97-1.03-.01-.54-.46-.97-1-.97Z"/>
    <path class="cls-2" d="m16,1C7.45,1,1,4.01,1,8v8c0,3.99,6.45,7,15,7s15-3.01,15-7v-8c0-3.99-6.45-7-15-7Zm0,2c7.66,0,13,2.64,13,5s-5.34,5-13,5S3,10.36,3,8s5.34-5,13-5Zm0,18c-7.66,0-13-2.64-13-5v-4.42c2.54,2.07,7.3,3.42,13,3.42s10.46-1.34,13-3.42v4.42c0,2.36-5.34,5-13,5Z"/>
    <path class="cls-2" d="m11.27,10.65c.19.19.44.28.69.28.26,0,.53-.1.72-.31.38-.4.37-1.03-.03-1.41l-1.21-1.15,1.21-1.15c.4-.38.41-1.01.03-1.41-.38-.4-1.01-.41-1.41-.03l-1.96,1.88c-.2.19-.31.45-.31.72s.11.53.31.72l1.96,1.88Z"/>
    <path class="cls-2" d="m19.31,10.62c.2.21.46.31.72.31.25,0,.5-.09.69-.28l1.96-1.88c.2-.19.31-.45.31-.72s-.11-.53-.31-.72l-1.96-1.88c-.4-.38-1.03-.37-1.41.03-.38.4-.37,1.03.03,1.41l1.21,1.15-1.21,1.15c-.4.38-.41,1.01-.03,1.41Z"/>
    <path class="cls-2" d="m14.96,12.02c.08.02.17.03.25.03.44,0,.85-.3.97-.75l1.57-6c.14-.53-.18-1.08-.71-1.22-.53-.14-1.08.18-1.22.71l-1.57,6c-.14.53.18,1.08.71,1.22Z"/>
  </g>
  <path class="cls-1" d="m1,20.5v3.5c0,3.99,6.45,7,15,7s15-3.01,15-7v-3.5c-2.76,2.77-8.17,4.5-15,4.5s-12.24-1.72-15-4.5Zm10.85,8.21s-.1,0-.15-.01l-.24-.04c-.55-.09-.92-.6-.83-1.14.09-.54.6-.92,1.14-.83l.22.03c.55.08.92.59.84,1.14-.07.5-.5.85-.99.85Zm8.36-2.03c.54-.09,1.06.29,1.14.83.08.55-.29,1.06-.83,1.14-1.44.23-2.96.34-4.54.34-.29,0-.58,0-.86-.01-.55-.01-.99-.47-.97-1.03.01-.55.51-.99,1.03-.97,1.68.04,3.45-.06,5.04-.31Z"/>
</svg>