<?xml version="1.0" encoding="UTF-8"?>
<svg id="OBJECT" xmlns="http://www.w3.org/2000/svg" viewBox="0 0 32 32">
  <defs>
    <style>
      .cls-1 {
        fill: #7738c8;
      }

      .cls-2 {
        fill: #011839;
      }
    </style>
  </defs>
  <path class="cls-2" d="m28.5,19H3.5c-1.38,0-2.5,1.12-2.5,2.5v7c0,1.38,1.12,2.5,2.5,2.5h25c1.38,0,2.5-1.12,2.5-2.5v-7c0-1.38-1.12-2.5-2.5-2.5Zm.5,2.5v2.5h-4v-3h3.5c.28,0,.5.22.5.5Zm-20,2.5v-3h14v3h-14Zm-5.5-3h3.5v3H3v-2.5c0-.28.22-.5.5-.5Zm-.5,7.5v-2.5h12v3H3.5c-.28,0-.5-.22-.5-.5Zm25.5.5h-11.5v-3h12v2.5c0,.28-.22.5-.5.5Z"/>
  <path class="cls-1" d="m23.35,17c.41-.88.65-1.86.65-2.89v-.3c0-1.63-.59-3.22-1.66-4.48-.76-.9-1.43-1.85-1.99-2.84-1.2-2.12.11-3.75.17-3.83.29-.34.32-.82.07-1.2-.24-.37-.71-.54-1.13-.41-3.1.97-4.81,3.18-5.67,5.25-1.23-1.34-2.93-1.83-3.04-1.87-.36-.1-.73,0-.99.27-.26.26-.35.64-.24.99.37,1.18,0,3.31-1.03,5.84-.33.82-.5,1.69-.5,2.58,0,1.03.24,2.01.65,2.89h14.71Zm-4.04-5.59c-.32-.45-.24-1.08.23-1.39.45-.32,1.07-.22,1.39.23.73,1.02,1.64,3.44-.09,5.35-.04.05-.09.09-.13.12-.38.29-.92.27-1.28-.05-.41-.37-.44-1-.07-1.41,1.09-1.2-.05-2.83-.06-2.85Z"/>
</svg>