<?xml version="1.0" encoding="UTF-8"?>
<svg id="OBJECT" xmlns="http://www.w3.org/2000/svg" viewBox="0 0 32 32">
  <defs>
    <style>
      .cls-1 {
        fill: #7738c8;
      }

      .cls-2 {
        fill: #011839;
      }
    </style>
  </defs>
  <g>
    <path class="cls-2" d="m8.5,19h-1.5v-.5c0-1.38-1.12-2.5-2.5-2.5h-2.5c-.55,0-1,.45-1,1v11.5c0,1.38,1.12,2.5,2.5,2.5h5c1.38,0,2.5-1.12,2.5-2.5v-7c0-1.38-1.12-2.5-2.5-2.5Zm-3.5,10h-1.5c-.28,0-.5-.22-.5-.5v-10.5h1.5c.28,0,.5.22.5.5v10.5Zm4-.5c0,.28-.22.5-.5.5h-1.5v-8h1.5c.28,0,.5.22.5.5v7Z"/>
    <path class="cls-2" d="m30,16h-2.5c-1.38,0-2.5,1.12-2.5,2.5v.5h-1.5c-1.38,0-2.5,1.12-2.5,2.5v7c0,1.38,1.12,2.5,2.5,2.5h5c1.38,0,2.5-1.12,2.5-2.5v-11.5c0-.55-.45-1-1-1Zm-7,12.5v-7c0-.28.22-.5.5-.5h1.5v8h-1.5c-.28,0-.5-.22-.5-.5Zm6,0c0,.28-.22.5-.5.5h-1.5v-10.5c0-.28.22-.5.5-.5h1.5v10.5Z"/>
  </g>
  <path class="cls-1" d="m19,1h-6C6.38,1,1,6.38,1,13v1h2v-1c0-1.23.23-2.4.64-3.49l2.05.59c.22.06.45.1.68.1.75,0,1.47-.34,1.96-.95,1.15-1.42,2.85-2.24,4.67-2.24h6c1.82,0,3.52.82,4.67,2.24.64.79,1.68,1.13,2.64.85l2.05-.59c.41,1.09.64,2.26.64,3.49v1h2v-1c0-6.62-5.38-12-12-12Z"/>
</svg>