<?xml version="1.0" encoding="UTF-8"?>
<svg id="OBJECT" xmlns="http://www.w3.org/2000/svg" viewBox="0 0 32 32">
  <defs>
    <style>
      .cls-1 {
        fill: #7738c8;
      }

      .cls-2 {
        fill: #011839;
      }
    </style>
  </defs>
  <g>
    <path class="cls-2" d="m23.33,3.8c-2.33-2.08-5.46-3.08-8.59-2.73-5.06.56-9.14,4.64-9.68,9.71-.42,3.89,1.19,7.62,4.3,9.98.22.16.35.45.35.75v1.48c0,.55.45,1,1,1s1-.45,1-1v-1.48c0-.93-.43-1.81-1.14-2.35-2.55-1.93-3.86-4.99-3.52-8.17.45-4.14,3.78-7.48,7.92-7.94,2.6-.29,5.1.51,7.03,2.24,1.91,1.71,3,4.15,3,6.71,0,3-1.49,5.79-3.98,7.47-.82.55-1.31,1.47-1.31,2.47v1.06c0,.55.45,1,1,1s1-.45,1-1v-1.06c0-.33.16-.63.42-.81,3.05-2.05,4.86-5.46,4.86-9.13,0-3.12-1.34-6.11-3.67-8.2Z"/>
    <path class="cls-2" d="m30,11h-.89c-.55,0-1,.45-1,1s.45,1,1,1h.89c.55,0,1-.45,1-1s-.45-1-1-1Z"/>
    <path class="cls-2" d="m28.68,9.15c.11,0,.23-.02.34-.06l.84-.31c.52-.19.79-.76.6-1.28-.19-.52-.76-.79-1.28-.6l-.84.31c-.52.19-.79.76-.6,1.28.15.41.53.66.94.66Z"/>
    <path class="cls-2" d="m29.87,15.21l-.84-.31c-.52-.19-1.09.08-1.28.6-.19.52.08,1.09.6,1.28l.84.31c.11.04.23.06.34.06.41,0,.79-.25.94-.66.19-.52-.08-1.09-.6-1.28Z"/>
    <path class="cls-2" d="m2.89,13c.55,0,1-.45,1-1s-.45-1-1-1h-.89c-.55,0-1,.45-1,1s.45,1,1,1h.89Z"/>
    <path class="cls-2" d="m3.66,7.21l-.84-.31c-.52-.19-1.09.08-1.28.6-.19.52.08,1.09.6,1.28l.84.31c.11.04.23.06.34.06.41,0,.79-.25.94-.66.19-.52-.08-1.09-.6-1.28Z"/>
    <path class="cls-2" d="m2.97,14.91l-.84.31c-.52.19-.79.76-.6,1.28.15.41.53.66.94.66.11,0,.23-.02.34-.06l.84-.31c.52-.19.79-.76.6-1.28-.19-.52-.76-.79-1.28-.6Z"/>
    <path class="cls-2" d="m13.16,9.25c-.4-.38-1.03-.37-1.41.02l-1.96,2.03c-.38.39-.38,1,0,1.39l1.96,2.03c.2.2.46.3.72.3s.5-.09.7-.28c.4-.38.41-1.02.02-1.41l-1.29-1.34,1.29-1.34c.38-.4.37-1.03-.02-1.41Z"/>
    <path class="cls-2" d="m22.22,12.7c.38-.39.38-1,0-1.39l-1.96-2.03c-.38-.4-1.02-.41-1.41-.02-.4.38-.41,1.02-.02,1.41l1.29,1.34-1.29,1.34c-.38.4-.37,1.03.02,1.41.19.19.45.28.7.28s.52-.1.72-.3l1.96-2.03Z"/>
    <path class="cls-2" d="m17.02,7.78c-.53-.13-1.08.2-1.21.74l-1.57,6.5c-.13.54.2,1.08.74,1.21.08.02.16.03.24.03.45,0,.86-.31.97-.76l1.57-6.5c.13-.54-.2-1.08-.74-1.21Z"/>
  </g>
  <path class="cls-1" d="m22.21,27h-.5v-2h-12v2h-.5c-.55,0-1,.45-1,1s.45,1,1,1h2.79v1c0,.55.45,1,1,1h6c.55,0,1-.45,1-1v-1h2.21c.55,0,1-.45,1-1s-.45-1-1-1Z"/>
</svg>