<?xml version="1.0" encoding="UTF-8"?>
<svg id="OBJECT" xmlns="http://www.w3.org/2000/svg" viewBox="0 0 32 32">
  <defs>
    <style>
      .cls-1 {
        fill: #7738c8;
      }

      .cls-2 {
        fill: #011839;
      }
    </style>
  </defs>
  <g>
    <path class="cls-2" d="m24.5,4H3.5c-1.38,0-2.5,1.12-2.5,2.5v15c0,1.38,1.12,2.5,2.5,2.5h21c1.38,0,2.5-1.12,2.5-2.5V6.5c0-1.38-1.12-2.5-2.5-2.5ZM3.5,6h21c.28,0,.5.22.5.5v13.59l-5.21-6.7c-.38-.49-1.2-.49-1.58,0l-4.21,5.41-4.21-5.41c-.38-.49-1.2-.49-1.58,0l-5.21,6.7V6.5c0-.28.22-.5.5-.5Zm10.46,16H4.04l4.96-6.37,4.96,6.37Zm1.31-1.57l3.73-4.8,4.96,6.37h-7.47l-1.22-1.57Z"/>
    <path class="cls-2" d="m14,13.5c1.79,0,3.25-1.46,3.25-3.25s-1.46-3.25-3.25-3.25-3.25,1.46-3.25,3.25,1.46,3.25,3.25,3.25Zm0-4.5c.69,0,1.25.56,1.25,1.25s-.56,1.25-1.25,1.25-1.25-.56-1.25-1.25.56-1.25,1.25-1.25Z"/>
  </g>
  <path class="cls-1" d="m29,8v14c0,2.21-1.79,4-4,4H5c0,1.1.9,2,2,2h22c1.1,0,2-.9,2-2V10c0-1.1-.9-2-2-2Z"/>
</svg>