<?xml version="1.0" encoding="UTF-8"?>
<svg id="OBJECT" xmlns="http://www.w3.org/2000/svg" viewBox="0 0 32 32">
  <defs>
    <style>
      .cls-1 {
        fill: #7738c8;
      }

      .cls-2 {
        fill: #011839;
      }
    </style>
  </defs>
  <path class="cls-2" d="m25.5,16.5c1.38,0,2.5-1.12,2.5-2.5v-2.5c0-.55-.45-1-1-1s-1,.45-1,1v2.5c0,.28-.22.5-.5.5h-2.5v-.5c0-1.65-1.35-3-3-3h-8c-1.65,0-3,1.35-3,3v.5h-2.5c-.28,0-.5-.22-.5-.5v-2.5c0-.55-.45-1-1-1s-1,.45-1,1v2.5c0,1.38,1.12,2.5,2.5,2.5h2.5v2h-4c-.55,0-1,.45-1,1s.45,1,1,1h4v2h-2.5c-1.38,0-2.5,1.12-2.5,2.5v2.5c0,.55.45,1,1,1s1-.45,1-1v-2.5c0-.28.22-.5.5-.5h2.5v.5c0,3.31,2.69,6,6,6h2c3.31,0,6-2.69,6-6v-.5h2.5c.28,0,.5.22.5.5v2.5c0,.55.45,1,1,1s1-.45,1-1v-2.5c0-1.38-1.12-2.5-2.5-2.5h-2.5v-2h4c.55,0,1-.45,1-1s-.45-1-1-1h-4v-2h2.5Zm-4.5-2.5v7.87c-1.25-.46-2.6-.72-4-.82v-8.06h3c.55,0,1,.45,1,1Zm-10,0c0-.55.45-1,1-1h3v8.06c-1.4.09-2.75.35-4,.82v-7.87Zm6,15h-2c-2.21,0-4-1.79-4-4v-.94c1.49-.68,3.2-1.06,5-1.06s3.51.38,5,1.06v.94c0,2.21-1.79,4-4,4Z"/>
  <path class="cls-1" d="m10,3h1.52c.19,0,.37.11.45.28l1.39,2.83c-.22.42-.36.88-.36,1.39v1.5h6v-1.5c0-.5-.14-.97-.36-1.39l1.39-2.83c.08-.17.26-.28.45-.28h1.52c.55,0,1-.45,1-1s-.45-1-1-1h-1.52c-.95,0-1.83.55-2.25,1.4l-1.13,2.31c-.34-.14-.71-.22-1.1-.22s-.76.08-1.1.22l-1.13-2.32c-.42-.85-1.3-1.4-2.25-1.4h-1.52c-.55,0-1,.45-1,1s.45,1,1,1Z"/>
</svg>