<?xml version="1.0" encoding="UTF-8"?>
<svg id="OBJECT" xmlns="http://www.w3.org/2000/svg" viewBox="0 0 32 32">
  <defs>
    <style>
      .cls-1 {
        fill: #7738c8;
      }

      .cls-2 {
        fill: #011839;
      }
    </style>
  </defs>
  <g>
    <path class="cls-2" d="m13.16,8.75c-.4-.38-1.03-.37-1.41.02l-1.96,2.03c-.38.39-.38,1,0,1.39l1.96,2.03c.2.2.46.3.72.3s.5-.09.7-.28c.4-.38.41-1.02.02-1.41l-1.29-1.34,1.29-1.34c.38-.4.37-1.03-.02-1.41Z"/>
    <path class="cls-2" d="m22.22,10.8l-1.96-2.03c-.38-.4-1.02-.41-1.41-.02-.4.38-.41,1.02-.02,1.41l1.29,1.34-1.29,1.34c-.38.4-.37,1.03.02,1.41.19.19.45.28.7.28s.52-.1.72-.3l1.96-2.03c.38-.39.38-1,0-1.39Z"/>
    <path class="cls-2" d="m17.02,7.28c-.53-.13-1.08.2-1.21.74l-1.57,6.5c-.13.54.2,1.08.74,1.21.08.02.16.03.24.03.45,0,.86-.31.97-.76l1.57-6.5c.13-.54-.2-1.08-.74-1.21Z"/>
    <path class="cls-2" d="m26.5,11.5c0-5.79-4.71-10.5-10.5-10.5S5.5,5.71,5.5,11.5c0,4.44,2.77,8.23,6.67,9.77l1.06,3.89c.3,1.08,1.29,1.84,2.41,1.84h.71c1.12,0,2.11-.76,2.41-1.84l1.06-3.89c3.9-1.53,6.67-5.33,6.67-9.77Zm-9.66,13.13c-.06.22-.26.37-.48.37h-.71c-.22,0-.42-.15-.48-.37l-.75-2.77c.52.08,1.05.13,1.59.13s1.07-.05,1.59-.13l-.75,2.76Zm-.84-4.63c-4.69,0-8.5-3.81-8.5-8.5S11.31,3,16,3s8.5,3.81,8.5,8.5-3.81,8.5-8.5,8.5Z"/>
  </g>
  <path class="cls-1" d="m25,23h-3.57l-.73,2.68c-.53,1.96-2.31,3.32-4.34,3.32h-.71c-2.02,0-3.8-1.36-4.34-3.31l-.73-2.69h-3.57c-1.66,0-3,1.34-3,3v5h24v-5c0-1.66-1.34-3-3-3Zm-17,5h-1c-.55,0-1-.45-1-1s.45-1,1-1h1c.55,0,1,.45,1,1s-.45,1-1,1Zm17,0h-1c-.55,0-1-.45-1-1s.45-1,1-1h1c.55,0,1,.45,1,1s-.45,1-1,1Z"/>
</svg>