<?xml version="1.0" encoding="UTF-8"?>
<svg id="OBJECT" xmlns="http://www.w3.org/2000/svg" viewBox="0 0 32 32">
  <defs>
    <style>
      .cls-1 {
        fill: #7738c8;
      }

      .cls-2 {
        fill: #011839;
      }
    </style>
  </defs>
  <path class="cls-2" d="m15,11H7c-1.65,0-3,1.35-3,3v11c0,3.31,2.69,6,6,6h2c3.31,0,6-2.69,6-6v-11c0-1.65-1.35-3-3-3Zm-3,6.5v3c0,.28-.22.5-.5.5h-1c-.28,0-.5-.22-.5-.5v-3c0-.28.22-.5.5-.5h1c.28,0,.5.22.5.5Zm4,7.5c0,2.21-1.79,4-4,4h-2c-2.21,0-4-1.79-4-4v-11c0-.55.45-1,1-1h3v2.05c-1.14.23-2,1.24-2,2.45v3c0,1.38,1.12,2.5,2.5,2.5h1c1.38,0,2.5-1.12,2.5-2.5v-3c0-1.21-.86-2.22-2-2.45v-2.05h3c.55,0,1,.45,1,1v11Z"/>
  <g>
    <path class="cls-1" d="m27,4c-.55,0-1,.45-1,1v1c0,.55.45,1,1,1s1-.45,1-1v-1c0-.55-.45-1-1-1Z"/>
    <path class="cls-1" d="m27,8c-.55,0-1,.45-1,1v13c0,.55-.45,1-1,1h-2c-.55,0-1-.45-1-1V4c0-1.65-1.35-3-3-3h-6c-1.65,0-3,1.35-3,3v1h2v-1c0-.55.45-1,1-1h6c.55,0,1,.45,1,1v18c0,1.65,1.35,3,3,3h2c1.65,0,3-1.35,3-3v-13c0-.55-.45-1-1-1Z"/>
    <rect class="cls-1" x="8" y="7" width="6" height="3"/>
  </g>
</svg>