<?xml version="1.0" encoding="UTF-8"?>
<svg id="OBJECT" xmlns="http://www.w3.org/2000/svg" viewBox="0 0 32 32">
  <defs>
    <style>
      .cls-1 {
        fill: #7738c8;
      }

      .cls-2 {
        fill: #011839;
      }
    </style>
  </defs>
  <g>
    <path class="cls-2" d="m21.75,12.5c-5.1,0-9.25,4.15-9.25,9.25s4.15,9.25,9.25,9.25,9.25-4.15,9.25-9.25-4.15-9.25-9.25-9.25Zm0,16.5c-4,0-7.25-3.25-7.25-7.25s3.25-7.25,7.25-7.25,7.25,3.25,7.25,7.25-3.25,7.25-7.25,7.25Z"/>
    <path class="cls-2" d="m18.98,19.11c-.39-.39-1.02-.39-1.41,0l-1.93,1.93c-.39.39-.39,1.02,0,1.41l1.93,1.93c.2.2.45.29.71.29s.51-.1.71-.29c.39-.39.39-1.02,0-1.41l-1.23-1.23,1.23-1.23c.39-.39.39-1.02,0-1.41Z"/>
    <path class="cls-2" d="m27.87,21.04l-1.93-1.93c-.39-.39-1.02-.39-1.41,0s-.39,1.02,0,1.41l1.23,1.23-1.23,1.23c-.39.39-.39,1.02,0,1.41.2.2.45.29.71.29s.51-.1.71-.29l1.93-1.93c.39-.39.39-1.02,0-1.41Z"/>
    <path class="cls-2" d="m22.77,17.69c-.54-.14-1.08.19-1.21.73l-1.55,6.19c-.13.54.19,1.08.73,1.21.08.02.16.03.24.03.45,0,.86-.3.97-.76l1.55-6.19c.13-.54-.19-1.08-.73-1.21Z"/>
  </g>
  <path class="cls-1" d="m20,11.19c.65-.12,1.32-.19,2-.19V2c0-.3-.13-.58-.36-.77-.23-.19-.53-.28-.82-.22l-9.77,1.78c-1.19.22-2.05,1.25-2.05,2.46v9.77c-.84-.63-1.87-1.03-3-1.03-2.76,0-5,2.24-5,5s2.24,5,5,5,5-2.24,5-5c0,0,0,0,0,0v-10.12l9-1.68v3.99Z"/>
</svg>