<?xml version="1.0" encoding="UTF-8"?>
<svg id="OBJECT" xmlns="http://www.w3.org/2000/svg" viewBox="0 0 32 32">
  <defs>
    <style>
      .cls-1 {
        fill: #7738c8;
      }

      .cls-2 {
        fill: #011839;
      }
    </style>
  </defs>
  <g>
    <path class="cls-2" d="m23,18h-.5c-.55,0-1,.45-1,1s.45,1,1,1h.5c.55,0,1-.45,1-1s-.45-1-1-1Z"/>
    <path class="cls-2" d="m27,18h-.5c-.55,0-1,.45-1,1s.45,1,1,1h.5c.55,0,1-.45,1-1s-.45-1-1-1Z"/>
    <path class="cls-2" d="m28,15H4c-1.65,0-3,1.35-3,3v12c0,.55.45,1,1,1h28c.55,0,1-.45,1-1v-12c0-1.65-1.35-3-3-3Zm-3,14H7v-2.5c0-.28.22-.5.5-.5h17c.28,0,.5.22.5.5v2.5Zm4,0h-2v-2.5c0-1.38-1.12-2.5-2.5-2.5H7.5c-1.38,0-2.5,1.12-2.5,2.5v2.5h-2v-11c0-.55.45-1,1-1h24c.55,0,1,.45,1,1v11Z"/>
  </g>
  <path class="cls-1" d="m26,2c0-.55-.45-1-1-1H7c-.55,0-1,.45-1,1v11h20V2Zm-13.32,6.34c.38.4.37,1.03-.02,1.41-.19.19-.44.28-.7.28s-.52-.1-.72-.3l-1.96-2.03c-.38-.39-.38-1,0-1.39l1.96-2.03c.38-.4,1.02-.41,1.41-.02.4.38.41,1.02.02,1.41l-1.29,1.34,1.29,1.34Zm5.07-4.35l-1.57,6.5c-.11.46-.52.76-.97.76-.08,0-.16,0-.24-.03-.54-.13-.87-.67-.74-1.21l1.57-6.5c.13-.54.67-.87,1.21-.74.54.13.87.67.74,1.21Zm4.96,3.71l-1.96,2.03c-.2.2-.46.3-.72.3s-.5-.09-.7-.28c-.4-.38-.41-1.02-.02-1.41l1.29-1.34-1.29-1.34c-.38-.4-.37-1.03.02-1.41.4-.38,1.03-.38,1.41.02l1.96,2.03c.38.39.38,1,0,1.39Z"/>
</svg>