<?xml version="1.0" encoding="UTF-8"?>
<svg id="OBJECT" xmlns="http://www.w3.org/2000/svg" viewBox="0 0 32 32">
  <defs>
    <style>
      .cls-1 {
        fill: #7738c8;
      }

      .cls-2 {
        fill: #011839;
      }
    </style>
  </defs>
  <g>
    <path class="cls-2" d="m19,6h-5v-1.5c0-1.93-1.57-3.5-3.5-3.5s-3.5,1.57-3.5,3.5v1.5H2c-.55,0-1,.45-1,1v5c0,.55.45,1,1,1h2.5c.83,0,1.5.67,1.5,1.5s-.67,1.5-1.5,1.5h-2.5c-.55,0-1,.45-1,1v5c0,.55.45,1,1,1h8.51c.55,0,1-.45,1-1s-.45-1-1-1H3v-3h1.5c1.93,0,3.5-1.57,3.5-3.5s-1.57-3.5-3.5-3.5h-1.5v-3h5c.55,0,1-.45,1-1v-2.5c0-.83.67-1.5,1.5-1.5s1.5.67,1.5,1.5v2.5c0,.55.45,1,1,1h5v2.98c0,.55.45,1,1,1s1-.45,1-1v-3.98c0-.55-.45-1-1-1Z"/>
    <path class="cls-2" d="m11,10h-.5c-.55,0-1,.45-1,1s.45,1,1,1h.5c.55,0,1-.45,1-1s-.45-1-1-1Z"/>
    <path class="cls-2" d="m15,10h-.5c-.55,0-1,.45-1,1s.45,1,1,1h.5c.55,0,1-.45,1-1s-.45-1-1-1Z"/>
  </g>
  <path class="cls-1" d="m22,13c-4.96,0-9,4.04-9,9s4.04,9,9,9,9-4.04,9-9-4.04-9-9-9Zm-3.32,10.34c.38.4.37,1.03-.02,1.41-.19.19-.44.28-.7.28s-.52-.1-.72-.3l-1.96-2.03c-.38-.39-.38-1,0-1.39l1.96-2.03c.38-.4,1.02-.41,1.41-.02.4.38.41,1.02.02,1.41l-1.29,1.34,1.29,1.34Zm5.07-4.35l-1.57,6.5c-.11.46-.52.77-.97.77-.08,0-.16,0-.24-.03-.54-.13-.87-.67-.74-1.21l1.57-6.5c.13-.54.67-.86,1.21-.74.54.13.87.67.74,1.21Zm3,5.74c-.2.2-.46.3-.72.3s-.5-.09-.7-.28c-.4-.38-.41-1.02-.02-1.41l1.29-1.34-1.29-1.34c-.38-.4-.37-1.03.02-1.41s1.03-.37,1.41.02l1.96,2.03c.38.39.38,1,0,1.39l-1.96,2.03Z"/>
</svg>