<?xml version="1.0" encoding="UTF-8"?>
<svg id="OBJECT" xmlns="http://www.w3.org/2000/svg" viewBox="0 0 32 32">
  <defs>
    <style>
      .cls-1 {
        fill: #7738c8;
      }

      .cls-2 {
        fill: #011839;
      }
    </style>
  </defs>
  <g>
    <path class="cls-2" d="m4.5,16v1c0,.55.45,1,1,1s1-.45,1-1v-1c0-.55-.45-1-1-1s-1,.45-1,1Z"/>
    <path class="cls-2" d="m7.5,16v1c0,.55.45,1,1,1s1-.45,1-1v-1c0-.55-.45-1-1-1s-1,.45-1,1Z"/>
    <path class="cls-2" d="m27,10c.55,0,1-.45,1-1V2c0-.55-.45-1-1-1H2c-.55,0-1,.45-1,1v7c0,.55.45,1,1,1h1.5v2h-1.5c-.55,0-1,.45-1,1v7c0,.55.45,1,1,1h9c.55,0,1-.45,1-1s-.45-1-1-1H3v-5h23v2c0,.55.45,1,1,1s1-.45,1-1v-3c0-.55-.45-1-1-1h-1.5v-2h1.5ZM3,3h23v5H3V3Zm20.5,9H5.5v-2h18v2Z"/>
    <path class="cls-2" d="m5.5,4c-.55,0-1,.45-1,1v1c0,.55.45,1,1,1s1-.45,1-1v-1c0-.55-.45-1-1-1Z"/>
    <path class="cls-2" d="m8.5,4c-.55,0-1,.45-1,1v1c0,.55.45,1,1,1s1-.45,1-1v-1c0-.55-.45-1-1-1Z"/>
    <path class="cls-2" d="m23.5,4.5h-11c-.55,0-1,.45-1,1s.45,1,1,1h11c.55,0,1-.45,1-1s-.45-1-1-1Z"/>
  </g>
  <path class="cls-1" d="m29,17.5h-14c-1.1,0-2,.9-2,2v9.5c0,1.1.9,2,2,2h14c1.1,0,2-.9,2-2v-9.5c0-1.1-.9-2-2-2Zm-10.32,8.09c.38.4.37,1.03-.02,1.41-.19.19-.44.28-.7.28s-.52-.1-.72-.3l-1.96-2.03c-.38-.39-.38-1,0-1.39l1.96-2.03c.38-.4,1.02-.41,1.41-.02.4.38.41,1.02.02,1.41l-1.29,1.34,1.29,1.34Zm5.07-4.35l-1.57,6.5c-.11.46-.52.77-.97.77-.08,0-.16,0-.24-.03-.54-.13-.87-.67-.74-1.21l1.57-6.5c.13-.54.67-.87,1.21-.74.54.13.87.67.74,1.21Zm4.96,3.71l-1.96,2.03c-.2.2-.46.3-.72.3s-.5-.09-.7-.28c-.4-.38-.41-1.02-.02-1.41l1.29-1.34-1.29-1.34c-.38-.4-.37-1.03.02-1.41.4-.38,1.03-.37,1.41.02l1.96,2.03c.38.39.38,1,0,1.39Z"/>
</svg>