<?xml version="1.0" encoding="UTF-8"?>
<svg id="OBJECT" xmlns="http://www.w3.org/2000/svg" viewBox="0 0 32 32">
  <defs>
    <style>
      .cls-1 {
        fill: #7738c8;
      }

      .cls-2 {
        fill: #011839;
      }
    </style>
  </defs>
  <g>
    <path class="cls-2" d="m5,19c-.55,0-1,.45-1,1s.45,1,1,1h.5c.55,0,1-.45,1-1s-.45-1-1-1h-.5Z"/>
    <path class="cls-2" d="m8,19c-.55,0-1,.45-1,1s.45,1,1,1h.5c.55,0,1-.45,1-1s-.45-1-1-1h-.5Z"/>
    <path class="cls-2" d="m20.09,10.39c-1.05-.97-2.31-1.64-3.68-2.01.06-.28.09-.57.09-.87v-3.5c0-1.65-1.35-3-3-3h-3c-1.65,0-3,1.35-3,3v3.5c0,.29.03.57.09.85-3.82,1.07-6.59,4.59-6.59,8.65v4c0,1.65,1.35,3,3,3h6.05c.55,0,1-.45,1-1s-.45-1-1-1h-6.05c-.55,0-1-.45-1-1v-4c0-3.26,2.29-6.07,5.42-6.8.82,1.09,2.11,1.8,3.58,1.8s2.74-.71,3.57-1.79c1.18.27,2.27.81,3.16,1.64.19.18.44.27.68.27.27,0,.54-.11.73-.32.38-.41.35-1.04-.06-1.41Zm-5.59-2.89c0,1.38-1.12,2.5-2.5,2.5s-2.5-1.12-2.5-2.5v-3.5c0-.55.45-1,1-1h3c.55,0,1,.45,1,1v3.5Z"/>
  </g>
  <path class="cls-1" d="m22,13c-4.96,0-9,4.04-9,9s4.04,9,9,9,9-4.04,9-9-4.04-9-9-9Zm-3.32,10.34c.38.4.37,1.03-.02,1.41-.19.19-.44.28-.7.28s-.52-.1-.72-.3l-1.96-2.03c-.38-.39-.38-1,0-1.39l1.96-2.03c.38-.4,1.02-.41,1.41-.02.4.38.41,1.02.02,1.41l-1.29,1.34,1.29,1.34Zm5.07-4.35l-1.57,6.5c-.11.46-.52.77-.97.77-.08,0-.16,0-.24-.03-.54-.13-.87-.67-.74-1.21l1.57-6.5c.13-.54.67-.86,1.21-.74.54.13.87.67.74,1.21Zm3,5.74c-.2.2-.46.3-.72.3s-.5-.09-.7-.28c-.4-.38-.41-1.02-.02-1.41l1.29-1.34-1.29-1.34c-.38-.4-.37-1.03.02-1.41s1.03-.37,1.41.02l1.96,2.03c.38.39.38,1,0,1.39l-1.96,2.03Z"/>
</svg>