<?xml version="1.0" encoding="UTF-8"?>
<svg id="OBJECT" xmlns="http://www.w3.org/2000/svg" viewBox="0 0 32 32">
  <defs>
    <style>
      .cls-1 {
        fill: #7738c8;
      }

      .cls-2 {
        fill: #011839;
      }
    </style>
  </defs>
  <g>
    <path class="cls-2" d="m6.74,12.32c-.38-.4-1.01-.42-1.41-.05-1.88,1.76-3.35,3.96-4.26,6.38-.08.23-.08.48,0,.7.91,2.42,2.38,4.62,4.26,6.38.19.18.44.27.68.27.27,0,.53-.11.73-.32.38-.4.36-1.04-.05-1.41-1.56-1.46-2.81-3.28-3.61-5.27.81-1.99,2.05-3.81,3.61-5.27.4-.38.43-1.01.05-1.41Z"/>
    <path class="cls-2" d="m30.94,18.65c-.91-2.42-2.38-4.62-4.26-6.38-.4-.38-1.04-.36-1.41.05-.38.4-.36,1.04.05,1.41,1.56,1.46,2.81,3.28,3.61,5.27-.81,1.99-2.05,3.81-3.61,5.27-.4.38-.43,1.01-.05,1.41.2.21.46.32.73.32.24,0,.49-.09.68-.27,1.88-1.76,3.35-3.96,4.26-6.38.08-.23.08-.48,0-.7Z"/>
    <path class="cls-2" d="m16,4c-.55,0-1,.45-1,1v1c0,.55.45,1,1,1s1-.45,1-1v-1c0-.55-.45-1-1-1Z"/>
    <path class="cls-2" d="m12.27,5.66c-.19-.52-.76-.79-1.28-.6-.52.19-.79.76-.6,1.28l.34.94c.15.41.53.66.94.66.11,0,.23-.02.34-.06.52-.19.79-.76.6-1.28l-.34-.94Z"/>
    <path class="cls-2" d="m21.01,5.06c-.52-.19-1.09.08-1.28.6l-.34.94c-.19.52.08,1.09.6,1.28.11.04.23.06.34.06.41,0,.79-.25.94-.66l.34-.94c.19-.52-.08-1.09-.6-1.28Z"/>
  </g>
  <path class="cls-1" d="m19.99,10.43c-1.28-.28-2.62-.43-3.99-.43s-2.71.15-3.99.43c-2.39,1.71-4.01,4.91-4.01,8.57s1.62,6.86,4.01,8.57c1.28.28,2.62.43,3.99.43s2.71-.15,3.99-.43c2.39-1.71,4.01-4.91,4.01-8.57s-1.62-6.86-4.01-8.57Zm-6.8,9.91c.38.4.37,1.03-.02,1.41-.19.19-.44.28-.7.28s-.52-.1-.72-.3l-1.96-2.03c-.38-.39-.38-1,0-1.39l1.96-2.03c.38-.4,1.02-.41,1.41-.02.4.38.41,1.02.02,1.41l-1.29,1.34,1.29,1.34Zm4.57-4.35l-1.57,6.5c-.11.46-.52.77-.97.77-.08,0-.16,0-.24-.03-.54-.13-.87-.67-.74-1.21l1.57-6.5c.13-.54.67-.87,1.21-.74.54.13.87.67.74,1.21Zm2.5,5.74c-.2.2-.46.3-.72.3s-.5-.09-.7-.28c-.4-.38-.41-1.02-.02-1.41l1.29-1.34-1.29-1.34c-.38-.4-.37-1.03.02-1.41.4-.38,1.03-.37,1.41.02l1.96,2.03c.38.39.38,1,0,1.39l-1.96,2.03Z"/>
</svg>