<?xml version="1.0" encoding="UTF-8"?>
<svg id="OBJECT" xmlns="http://www.w3.org/2000/svg" viewBox="0 0 32 32">
  <defs>
    <style>
      .cls-1 {
        fill: #7738c8;
      }

      .cls-2 {
        fill: #011839;
      }
    </style>
  </defs>
  <g>
    <path class="cls-2" d="m30,1H2c-.55,0-1,.45-1,1v18c0,.55.45,1,1,1s1-.45,1-1V3h26v17c0,.55.45,1,1,1s1-.45,1-1V2c0-.55-.45-1-1-1Z"/>
    <path class="cls-2" d="m11.56,7.04c-.39-.39-1.03-.38-1.41.01l-2.86,2.92c-.38.39-.38,1.01,0,1.4l2.86,2.92c.2.2.46.3.71.3s.51-.1.7-.29c.39-.39.4-1.02.01-1.41l-2.17-2.22,2.17-2.22c.39-.39.38-1.03-.01-1.41Z"/>
    <path class="cls-2" d="m24.71,9.97l-2.86-2.92c-.39-.4-1.02-.4-1.41-.01-.39.39-.4,1.02-.01,1.41l2.17,2.22-2.17,2.22c-.39.39-.38,1.03.01,1.41.19.19.45.29.7.29s.52-.1.71-.3l2.86-2.92c.38-.39.38-1.01,0-1.4Z"/>
    <path class="cls-2" d="m17.38,5.03c-.53-.13-1.08.2-1.21.73l-2.29,9.33c-.13.54.2,1.08.73,1.21.08.02.16.03.24.03.45,0,.86-.31.97-.76l2.29-9.33c.13-.54-.2-1.08-.73-1.21Z"/>
    <path class="cls-2" d="m26,16h-1c-.55,0-1,.45-1,1s.45,1,1,1h1c.55,0,1-.45,1-1s-.45-1-1-1Z"/>
    <path class="cls-2" d="m7,16h-1c-.55,0-1,.45-1,1s.45,1,1,1h1c.55,0,1-.45,1-1s-.45-1-1-1Z"/>
  </g>
  <path class="cls-1" d="m1,25c0,.55.45,1,1,1h10.5v3h-4.5c-.55,0-1,.45-1,1s.45,1,1,1h16c.55,0,1-.45,1-1s-.45-1-1-1h-4.5v-3h10.5c.55,0,1-.45,1-1v-3H1v3Z"/>
</svg>