<?xml version="1.0" encoding="UTF-8"?>
<svg id="OBJECT" xmlns="http://www.w3.org/2000/svg" viewBox="0 0 32 32">
  <defs>
    <style>
      .cls-1 {
        fill: #7738c8;
      }

      .cls-2 {
        fill: #011839;
      }
    </style>
  </defs>
  <g>
    <path class="cls-2" d="m30,8c-.55,0-1,.45-1,1v20H3V9c0-.55-.45-1-1-1s-1,.45-1,1v21c0,.55.45,1,1,1h28c.55,0,1-.45,1-1V9c0-.55-.45-1-1-1Z"/>
    <path class="cls-2" d="m10.14,25c-.55,0-1,.45-1,1s.45,1,1,1h11.36c.55,0,1-.45,1-1s-.45-1-1-1h-11.36Z"/>
    <path class="cls-2" d="m5.5,27h1c.55,0,1-.45,1-1s-.45-1-1-1h-1c-.55,0-1,.45-1,1s.45,1,1,1Z"/>
    <path class="cls-2" d="m24.5,26c0,.55.45,1,1,1h1c.55,0,1-.45,1-1s-.45-1-1-1h-1c-.55,0-1,.45-1,1Z"/>
    <path class="cls-2" d="m10.14,20.28c.2.2.46.3.71.3s.51-.1.7-.29c.39-.39.4-1.02.01-1.41l-2.17-2.22,2.17-2.22c.39-.39.38-1.03-.01-1.41-.39-.39-1.03-.38-1.41.01l-2.86,2.92c-.38.39-.38,1.01,0,1.4l2.86,2.92Z"/>
    <path class="cls-2" d="m20.44,20.3c.19.19.45.29.7.29s.52-.1.71-.3l2.86-2.92c.38-.39.38-1.01,0-1.4l-2.86-2.92c-.39-.4-1.02-.4-1.41-.01-.39.39-.4,1.02-.01,1.41l2.17,2.22-2.17,2.22c-.39.39-.38,1.03.01,1.41Z"/>
    <path class="cls-2" d="m14.62,22.3c.08.02.16.03.24.03.45,0,.86-.31.97-.76l2.29-9.33c.13-.54-.2-1.08-.73-1.21-.53-.13-1.08.2-1.21.73l-2.29,9.33c-.13.54.2,1.08.73,1.21Z"/>
  </g>
  <path class="cls-1" d="m30,1H2c-.55,0-1,.45-1,1v5h30V2c0-.55-.45-1-1-1Zm-7,4h-1c-.55,0-1-.45-1-1s.45-1,1-1h1c.55,0,1,.45,1,1s-.45,1-1,1Zm5,0h-1c-.55,0-1-.45-1-1s.45-1,1-1h1c.55,0,1,.45,1,1s-.45,1-1,1Z"/>
</svg>