<?xml version="1.0" encoding="UTF-8"?>
<svg id="OBJECT" xmlns="http://www.w3.org/2000/svg" viewBox="0 0 32 32">
  <path d="m30.27,3.56l-1.83-1.83c-.54-.54-1.28-.8-2.04-.72l-5.16.57c-.56.06-1.09.32-1.49.72l-7.01,7.01c-.47.47-.73,1.1-.73,1.77v4.65l-1.13,1.12-4.95-.83c-.94-.16-1.9.15-2.58.83l-2.05,2.05c-.24.24-.34.58-.27.91.07.33.3.6.61.73l4.02,1.61c-.65.97-.55,2.3.31,3.16l.72.72c.49.49,1.13.73,1.77.73.49,0,.97-.14,1.39-.42l1.61,4.02c.12.31.4.54.73.61.07.01.13.02.2.02.26,0,.52-.1.71-.29l2.05-2.05c.67-.67.98-1.64.83-2.58l-.83-4.95,1.12-1.12h4.65c.67,0,1.3-.26,1.77-.73l7.01-7.01c.4-.4.65-.93.72-1.49l.57-5.16c.08-.76-.18-1.5-.72-2.04ZM4.76,18.28c.22-.22.53-.32.83-.27l3.54.59-2,2-3.36-1.34.98-.98Zm3.33,6.35l-.72-.72c-.2-.19-.2-.51,0-.71l5.63-5.63,1.43,1.43-5.63,5.63c-.2.19-.51.2-.71,0Zm5.9,1.77c.05.3-.05.62-.27.83l-.98.98-1.34-3.36,2-2,.59,3.54Zm14.44-15.86c-.01.11-.06.22-.14.3l-7.01,7.01c-.09.09-.22.15-.35.15h-4.65l-2.26-2.26v-4.65c0-.13.05-.26.15-.35l7.01-7.01c.08-.08.19-.13.3-.14l5.16-.57s.04,0,.06,0c.13,0,.26.05.35.15l1.83,1.83c.11.11.16.26.14.41l-.57,5.16Z"/>
  <path d="m19.77,14.14l-1.87-.03-.03-1.87c0-.55-.46-.98-1-.98h-.02c-.55,0-.99.46-.98,1.02l.05,2.84c0,.54.44.97.98.98l2.84.05h.02c.54,0,.99-.44,1-.98,0-.55-.43-1.01-.98-1.02Z"/>
  <path d="m25.46,5.55l-2.84-.05h-.02c-.54,0-.99.44-1,.98,0,.55.43,1.01.98,1.02l1.88.03.03,1.88c0,.55.46.98,1,.98h.02c.55,0,.99-.46.98-1.02l-.05-2.84c0-.54-.44-.97-.98-.98Z"/>
  <path d="m20.28,7.43c-.29-.47-.9-.62-1.37-.33-.47.29-.62.9-.33,1.37l3.51,5.74c.19.31.52.48.85.48.18,0,.36-.05.52-.15.47-.29.62-.9.33-1.37l-3.51-5.74Z"/>
</svg>