<?xml version="1.0" encoding="UTF-8"?>
<svg id="OBJECT" xmlns="http://www.w3.org/2000/svg" viewBox="0 0 32 32">
  <path d="m4.26,21.33c-.54.61-3.26,3.73-3.26,5.67,0,2.21,1.79,4,4,4s4-1.79,4-4c0-1.94-2.71-5.06-3.26-5.67-.38-.42-1.11-.42-1.49,0Zm.74,7.67c-1.1,0-2-.9-2-2,0-.64.94-2.13,2-3.45,1.06,1.33,2,2.81,2,3.45,0,1.1-.9,2-2,2Z"/>
  <path d="m30.5,4.07c-.73-1.56-2.12-2.64-3.81-2.97-1.69-.33-3.39.17-4.64,1.36l-1.51,1.43-.67-1.45c-.23-.5-.83-.72-1.33-.48-.5.23-.72.83-.48,1.33l.42.9-9.01,4.2c-.18.08-.33.22-.43.39l-1.71,2.81-2.87,1.34c-1.25.58-1.79,2.07-1.21,3.32l.41.89c.28.61.78,1.06,1.41,1.29.28.1.57.15.86.15.36,0,.72-.08,1.06-.24l2.87-1.34,3.25.5c.19.03.39,0,.57-.08l9.01-4.2.42.9c.17.36.53.58.91.58.14,0,.29-.03.42-.09.5-.23.72-.83.48-1.33l-.68-1.45,2.07-.24c1.71-.2,3.18-1.17,4.02-2.68.84-1.5.91-3.26.18-4.83ZM13.09,15.47l-3.25-.5c-.19-.03-.39,0-.57.08l-3.15,1.47c-.16.08-.31.04-.38.02-.07-.03-.21-.09-.28-.26l-.41-.89c-.12-.25,0-.55.24-.67l3.15-1.47c.18-.08.33-.22.43-.39l1.39-2.29,6.54,3.15-3.71,1.73Zm6.05-2.82l-6.93-3.34,7.1-3.31,2.52,5.4-2.68,1.25Zm9.43-4.73c-.52.94-1.44,1.55-2.5,1.67l-2.73.31-1.91-4.1,2-1.89c.78-.74,1.83-1.05,2.89-.85,1.06.2,1.92.88,2.37,1.85s.41,2.07-.11,3.01Z"/>
</svg>