<?xml version="1.0" encoding="UTF-8"?>
<svg id="OBJECT" xmlns="http://www.w3.org/2000/svg" viewBox="0 0 32 32">
  <path d="m30.92,17.62c-2.43-5.84-8.29-9.62-14.92-9.62S3.51,11.77,1.08,17.62c-.1.25-.1.52,0,.77,2.43,5.84,8.29,9.62,14.92,9.62s12.49-3.77,14.92-9.62c.1-.25.1-.52,0-.77Zm-27.83.38c.87-1.91,2.17-3.54,3.77-4.83-.56,1.51-.86,3.15-.86,4.83s.3,3.32.86,4.83c-1.6-1.29-2.9-2.92-3.77-4.83Zm7.09,6.82c-1.4-1.87-2.18-4.28-2.18-6.82s.78-4.96,2.18-6.82c1.79-.76,3.76-1.18,5.82-1.18s4.04.42,5.82,1.18c1.4,1.86,2.18,4.28,2.18,6.82s-.78,4.96-2.18,6.82c-1.79.76-3.76,1.18-5.82,1.18s-4.04-.42-5.82-1.18Zm14.97-1.99c.56-1.51.86-3.15.86-4.83s-.3-3.32-.86-4.83c1.6,1.29,2.9,2.93,3.77,4.83-.87,1.91-2.17,3.54-3.77,4.83Z"/>
  <path d="m13.16,15.25c-.4-.38-1.03-.37-1.41.02l-1.96,2.03c-.38.39-.38,1,0,1.39l1.96,2.03c.2.2.46.3.72.3s.5-.09.7-.28c.4-.38.41-1.02.02-1.41l-1.29-1.34,1.29-1.34c.38-.4.37-1.03-.02-1.41Z"/>
  <path d="m22.22,18.7c.38-.39.38-1,0-1.39l-1.96-2.03c-.38-.4-1.02-.41-1.41-.02-.4.38-.41,1.02-.02,1.41l1.29,1.34-1.29,1.34c-.38.4-.37,1.03.02,1.41.19.19.44.28.7.28s.52-.1.72-.3l1.96-2.03Z"/>
  <path d="m17.02,13.78c-.54-.13-1.08.2-1.21.74l-1.57,6.5c-.13.54.2,1.08.74,1.21.08.02.16.03.24.03.45,0,.86-.31.97-.77l1.57-6.5c.13-.54-.2-1.08-.74-1.21Z"/>
  <path d="m16,7c.55,0,1-.45,1-1v-1c0-.55-.45-1-1-1s-1,.45-1,1v1c0,.55.45,1,1,1Z"/>
  <path d="m10.73,7.28c.15.41.53.66.94.66.11,0,.23-.02.34-.06.52-.19.79-.76.6-1.28l-.34-.94c-.19-.52-.76-.79-1.28-.6-.52.19-.79.76-.6,1.28l.34.94Z"/>
  <path d="m19.99,7.88c.11.04.23.06.34.06.41,0,.79-.25.94-.66l.34-.94c.19-.52-.08-1.09-.6-1.28-.52-.19-1.09.08-1.28.6l-.34.94c-.19.52.08,1.09.6,1.28Z"/>
</svg>