<?xml version="1.0" encoding="UTF-8"?>
<svg id="OBJECT" xmlns="http://www.w3.org/2000/svg" viewBox="0 0 32 32">
  <path d="m30,1H2c-.55,0-1,.45-1,1v23c0,.55.45,1,1,1h10.5v3h-4.5c-.55,0-1,.45-1,1s.45,1,1,1h16c.55,0,1-.45,1-1s-.45-1-1-1h-4.5v-3h10.5c.55,0,1-.45,1-1V2c0-.55-.45-1-1-1Zm-1,2v17H3V3h26Zm-11.5,26h-3v-3h3v3Zm-14.5-5v-2h26v2H3Z"/>
  <path d="m10.14,14.28c.2.2.46.3.71.3s.51-.1.7-.29c.39-.39.4-1.02.01-1.41l-2.17-2.22,2.17-2.22c.39-.39.38-1.03-.01-1.41-.39-.39-1.03-.38-1.41.01l-2.86,2.92c-.38.39-.38,1.01,0,1.4l2.86,2.92Z"/>
  <path d="m20.44,14.3c.19.19.45.29.7.29s.52-.1.71-.3l2.86-2.92c.38-.39.38-1.01,0-1.4l-2.86-2.92c-.39-.4-1.02-.4-1.41-.01-.39.39-.4,1.02-.01,1.41l2.17,2.22-2.17,2.22c-.39.39-.38,1.03.01,1.41Z"/>
  <path d="m14.62,16.3c.08.02.16.03.24.03.45,0,.86-.31.97-.76l2.29-9.33c.13-.54-.2-1.08-.73-1.21-.53-.13-1.08.2-1.21.73l-2.29,9.33c-.13.54.2,1.08.73,1.21Z"/>
  <path d="m24,17c0,.55.45,1,1,1h1c.55,0,1-.45,1-1s-.45-1-1-1h-1c-.55,0-1,.45-1,1Z"/>
  <path d="m6,18h1c.55,0,1-.45,1-1s-.45-1-1-1h-1c-.55,0-1,.45-1,1s.45,1,1,1Z"/>
</svg>