<?xml version="1.0" encoding="UTF-8"?>
<svg id="OBJECT" xmlns="http://www.w3.org/2000/svg" xmlns:xlink="http://www.w3.org/1999/xlink" viewBox="0 0 32 32">
  <defs>
    <style>
      .cls-1 {
        fill: url(#New_Gradient_Swatch-7);
      }

      .cls-2 {
        fill: url(#New_Gradient_Swatch-6);
      }

      .cls-3 {
        fill: url(#New_Gradient_Swatch);
      }

      .cls-4 {
        fill: url(#New_Gradient_Swatch-5);
      }

      .cls-5 {
        fill: url(#New_Gradient_Swatch-8);
      }

      .cls-6 {
        fill: url(#New_Gradient_Swatch-4);
      }

      .cls-7 {
        fill: url(#New_Gradient_Swatch-3);
      }

      .cls-8 {
        fill: url(#New_Gradient_Swatch-2);
      }
    </style>
    <linearGradient id="New_Gradient_Swatch" data-name="New Gradient Swatch" x1="-3.65" y1="16" x2="34.33" y2="16" gradientUnits="userSpaceOnUse">
      <stop offset="0" stop-color="#7738c8"/>
      <stop offset="1" stop-color="#461d93"/>
    </linearGradient>
    <linearGradient id="New_Gradient_Swatch-2" data-name="New Gradient Swatch" y1="9" y2="9" xlink:href="#New_Gradient_Swatch"/>
    <linearGradient id="New_Gradient_Swatch-3" data-name="New Gradient Swatch" y1="9" x2="34.33" y2="9" xlink:href="#New_Gradient_Swatch"/>
    <linearGradient id="New_Gradient_Swatch-4" data-name="New Gradient Swatch" y1="9" x2="34.33" y2="9" xlink:href="#New_Gradient_Swatch"/>
    <linearGradient id="New_Gradient_Swatch-5" data-name="New Gradient Swatch" y1="16.25" y2="16.25" xlink:href="#New_Gradient_Swatch"/>
    <linearGradient id="New_Gradient_Swatch-6" data-name="New Gradient Swatch" y1="16.25" x2="34.33" y2="16.25" xlink:href="#New_Gradient_Swatch"/>
    <linearGradient id="New_Gradient_Swatch-7" data-name="New Gradient Swatch" y1="20.25" y2="20.25" xlink:href="#New_Gradient_Swatch"/>
    <linearGradient id="New_Gradient_Swatch-8" data-name="New Gradient Swatch" y1="27" x2="34.33" y2="27" xlink:href="#New_Gradient_Swatch"/>
  </defs>
  <path class="cls-3" d="m27,1H7c-1.65,0-3,1.35-3,3v24.5c0,1.38,1.12,2.5,2.5,2.5h20.5c.55,0,1-.45,1-1V2c0-.55-.45-1-1-1ZM6,4c0-.55.45-1,1-1h1v20h-1.5c-.17,0-.34.02-.5.05V4Zm20,22h-13c-.55,0-1,.45-1,1s.45,1,1,1h13v1H6.5c-.28,0-.5-.22-.5-.5v-3c0-.28.22-.5.5-.5h19.5v1Zm0-3H10V3h16v20Z"/>
  <path class="cls-8" d="m13.75,11.73c.2.2.46.3.72.3s.5-.09.7-.28c.4-.38.41-1.02.02-1.41l-1.29-1.34,1.29-1.34c.38-.4.37-1.03-.02-1.41-.4-.38-1.03-.37-1.41.02l-1.96,2.03c-.38.39-.38,1,0,1.39l1.96,2.03Z"/>
  <path class="cls-7" d="m20.84,11.75c.19.19.44.28.7.28s.52-.1.72-.3l1.96-2.03c.38-.39.38-1,0-1.39l-1.96-2.03c-.38-.4-1.02-.41-1.41-.02-.4.38-.41,1.02-.02,1.41l1.29,1.34-1.29,1.34c-.38.4-.37,1.03.02,1.41Z"/>
  <path class="cls-6" d="m16.98,13.22c.08.02.16.03.24.03.45,0,.86-.31.97-.77l1.57-6.5c.13-.54-.2-1.08-.74-1.21-.54-.13-1.08.2-1.21.74l-1.57,6.5c-.13.54.2,1.08.74,1.21Z"/>
  <path class="cls-4" d="m17,17.25h6c.55,0,1-.45,1-1s-.45-1-1-1h-6c-.55,0-1,.45-1,1s.45,1,1,1Z"/>
  <path class="cls-2" d="m13,17.25h.5c.55,0,1-.45,1-1s-.45-1-1-1h-.5c-.55,0-1,.45-1,1s.45,1,1,1Z"/>
  <path class="cls-1" d="m23,19.25h-10c-.55,0-1,.45-1,1s.45,1,1,1h10c.55,0,1-.45,1-1s-.45-1-1-1Z"/>
  <path class="cls-5" d="m9,28h1c.55,0,1-.45,1-1s-.45-1-1-1h-1c-.55,0-1,.45-1,1s.45,1,1,1Z"/>
</svg>