<?xml version="1.0" encoding="UTF-8"?>
<svg id="OBJECT" xmlns="http://www.w3.org/2000/svg" xmlns:xlink="http://www.w3.org/1999/xlink" viewBox="0 0 32 32">
  <defs>
    <style>
      .cls-1 {
        fill: url(#New_Gradient_Swatch);
      }

      .cls-2 {
        fill: url(#New_Gradient_Swatch-2);
      }
    </style>
    <linearGradient id="New_Gradient_Swatch" data-name="New Gradient Swatch" x1="-3.3" y1="16" x2="33.23" y2="16" gradientUnits="userSpaceOnUse">
      <stop offset="0" stop-color="#7738c8"/>
      <stop offset="1" stop-color="#461d93"/>
    </linearGradient>
    <linearGradient id="New_Gradient_Swatch-2" data-name="New Gradient Swatch" y1="14.86" x2="33.23" y2="14.86" xlink:href="#New_Gradient_Swatch"/>
  </defs>
  <path class="cls-1" d="m28.5,19h-6.55c1.26-1.25,2.05-2.98,2.05-4.89v-.3c0-1.63-.59-3.22-1.66-4.48-.76-.9-1.43-1.85-1.99-2.84-1.2-2.13.12-3.76.17-3.82.29-.34.32-.83.08-1.2-.24-.37-.71-.54-1.13-.41-3.1.97-4.81,3.18-5.67,5.25-1.23-1.34-2.93-1.83-3.04-1.87-.36-.1-.73,0-.99.27-.26.26-.35.64-.24.99.37,1.18,0,3.31-1.03,5.84-.33.82-.5,1.69-.5,2.58,0,1.91.78,3.64,2.05,4.89H3.5c-1.38,0-2.5,1.12-2.5,2.5v7c0,1.38,1.12,2.5,2.5,2.5h25c1.38,0,2.5-1.12,2.5-2.5v-7c0-1.38-1.12-2.5-2.5-2.5Zm.5,2.5v2.5h-4v-3h3.5c.28,0,.5.22.5.5Zm-20,2.5v-3h14v3h-14Zm1-9.89c0-.63.12-1.25.36-1.83.61-1.51,1.24-3.45,1.31-5.21.7.5,1.4,1.29,1.4,2.47v1.46c0,.55.45,1,1,1s1-.45,1-1v-1.44c0-.22.18-3.5,2.82-5.5-.11.96.02,2.12.74,3.39.62,1.1,1.36,2.16,2.2,3.15.76.9,1.18,2.03,1.18,3.19v.3c0,2.7-2.2,4.89-4.89,4.89h0s-2.21,0-2.21,0h0c-2.7,0-4.89-2.2-4.89-4.89Zm-6.5,6.89h3.5v3H3v-2.5c0-.28.22-.5.5-.5Zm-.5,7.5v-2.5h12v3H3.5c-.28,0-.5-.22-.5-.5Zm25.5.5h-11.5v-3h12v2.5c0,.28-.22.5-.5.5Z"/>
  <path class="cls-2" d="m17.12,17.48c.06,0,.12,0,.18-.02,2.53-.47,3.28-2.95,3.32-4.2.02-.55-.42-1.01-.97-1.03-.57-.03-1.01.42-1.03.97,0,.02-.08,2-1.68,2.3-.54.1-.9.62-.8,1.16.09.48.51.82.98.82Z"/>
</svg>