<?xml version="1.0" encoding="UTF-8"?>
<svg id="OBJECT" xmlns="http://www.w3.org/2000/svg" xmlns:xlink="http://www.w3.org/1999/xlink" viewBox="0 0 32 32">
  <defs>
    <style>
      .cls-1 {
        fill: url(#New_Gradient_Swatch);
      }
    </style>
    <linearGradient id="New_Gradient_Swatch" data-name="New Gradient Swatch" x1="-2.87" y1="16" x2="32.63" y2="16" gradientUnits="userSpaceOnUse">
      <stop offset="0" stop-color="#7738c8"/>
      <stop offset="1" stop-color="#461d93"/>
    </linearGradient>
  </defs>
  <path class="cls-1" d="m19,1h-6C6.38,1,1,6.38,1,13v15.5c0,1.38,1.12,2.5,2.5,2.5h5c1.38,0,2.5-1.12,2.5-2.5v-9c0-1.38-1.12-2.5-2.5-2.5h-1.5v-.5c0-1.38-1.12-2.5-2.5-2.5h-1.5v-1c0-1.23.23-2.4.64-3.49l2.05.59c.22.06.45.1.68.1.75,0,1.47-.34,1.96-.95,1.15-1.42,2.85-2.24,4.67-2.24h6c1.82,0,3.52.82,4.67,2.24.64.79,1.68,1.13,2.64.85l2.05-.59c.41,1.09.64,2.26.64,3.49v1h-1.5c-1.38,0-2.5,1.12-2.5,2.5v.5h-1.5c-1.38,0-2.5,1.12-2.5,2.5v9c0,1.38,1.12,2.5,2.5,2.5h5c1.38,0,2.5-1.12,2.5-2.5v-15.5c0-6.62-5.38-12-12-12Zm-10.5,18c.28,0,.5.22.5.5v9c0,.28-.22.5-.5.5h-1.5v-10h1.5Zm-3.5-2.5v12.5h-1.5c-.28,0-.5-.22-.5-.5v-12.5h1.5c.28,0,.5.22.5.5Zm20.76-8.33c-.2.05-.4-.02-.54-.19-1.53-1.9-3.8-2.98-6.22-2.98h-6c-2.42,0-4.69,1.09-6.22,2.99-.14.17-.34.24-.54.19l-1.7-.49c1.77-2.81,4.9-4.69,8.46-4.69h6c3.56,0,6.68,1.88,8.46,4.69l-1.7.49Zm-2.76,20.33v-9c0-.28.22-.5.5-.5h1.5v10h-1.5c-.28,0-.5-.22-.5-.5Zm6,0c0,.28-.22.5-.5.5h-1.5v-12.5c0-.28.22-.5.5-.5h1.5v12.5Z"/>
</svg>