<?xml version="1.0" encoding="UTF-8"?>
<svg id="OBJECT" xmlns="http://www.w3.org/2000/svg" xmlns:xlink="http://www.w3.org/1999/xlink" viewBox="0 0 32 32">
  <defs>
    <style>
      .cls-1 {
        fill: url(#New_Gradient_Swatch-6);
      }

      .cls-2 {
        fill: url(#New_Gradient_Swatch);
      }

      .cls-3 {
        fill: url(#New_Gradient_Swatch-5);
      }

      .cls-4 {
        fill: url(#New_Gradient_Swatch-4);
      }

      .cls-5 {
        fill: url(#New_Gradient_Swatch-3);
      }

      .cls-6 {
        fill: url(#New_Gradient_Swatch-2);
      }
    </style>
    <linearGradient id="New_Gradient_Swatch" data-name="New Gradient Swatch" x1="-2.61" y1="16" x2="33.97" y2="16" gradientUnits="userSpaceOnUse">
      <stop offset="0" stop-color="#7738c8"/>
      <stop offset="1" stop-color="#461d93"/>
    </linearGradient>
    <linearGradient id="New_Gradient_Swatch-2" data-name="New Gradient Swatch" y1="11.5" x2="33.97" y2="11.5" xlink:href="#New_Gradient_Swatch"/>
    <linearGradient id="New_Gradient_Swatch-3" data-name="New Gradient Swatch" y1="11.5" x2="33.97" y2="11.5" xlink:href="#New_Gradient_Swatch"/>
    <linearGradient id="New_Gradient_Swatch-4" data-name="New Gradient Swatch" y1="11.5" x2="33.97" y2="11.5" xlink:href="#New_Gradient_Swatch"/>
    <linearGradient id="New_Gradient_Swatch-5" data-name="New Gradient Swatch" y1="27" y2="27" xlink:href="#New_Gradient_Swatch"/>
    <linearGradient id="New_Gradient_Swatch-6" data-name="New Gradient Swatch" y1="27" y2="27" xlink:href="#New_Gradient_Swatch"/>
  </defs>
  <path class="cls-2" d="m25,23h-5.65l.47-1.73c3.9-1.53,6.67-5.33,6.67-9.77,0-5.79-4.71-10.5-10.5-10.5S5.5,5.71,5.5,11.5c0,4.44,2.77,8.23,6.67,9.77l.47,1.73h-5.65c-1.65,0-3,1.35-3,3v4c0,.55.45,1,1,1h22c.55,0,1-.45,1-1v-4c0-1.65-1.35-3-3-3ZM7.5,11.5c0-4.69,3.81-8.5,8.5-8.5s8.5,3.81,8.5,8.5-3.81,8.5-8.5,8.5-8.5-3.81-8.5-8.5Zm8.5,10.5c.54,0,1.07-.05,1.59-.13l-.75,2.76c-.06.22-.26.37-.48.37h-.71c-.22,0-.42-.15-.48-.37l-.75-2.77c.52.08,1.05.13,1.59.13Zm10,7H6v-3c0-.55.45-1,1-1h6.19l.04.16c.3,1.08,1.29,1.84,2.41,1.84h.71c1.12,0,2.11-.76,2.41-1.84l.04-.16h6.19c.55,0,1,.45,1,1v3Z"/>
  <path class="cls-6" d="m13.16,8.75c-.4-.38-1.03-.37-1.41.02l-1.96,2.03c-.38.39-.38,1,0,1.39l1.96,2.03c.2.2.46.3.72.3s.5-.09.7-.28c.4-.38.41-1.02.02-1.41l-1.29-1.34,1.29-1.34c.38-.4.37-1.03-.02-1.41Z"/>
  <path class="cls-5" d="m18.84,14.25c.19.19.45.28.7.28s.52-.1.72-.3l1.96-2.03c.38-.39.38-1,0-1.39l-1.96-2.03c-.38-.4-1.02-.41-1.41-.02-.4.38-.41,1.02-.02,1.41l1.29,1.34-1.29,1.34c-.38.4-.37,1.03.02,1.41Z"/>
  <path class="cls-4" d="m17.76,8.49c.13-.54-.2-1.08-.74-1.21-.53-.13-1.08.2-1.21.74l-1.57,6.5c-.13.54.2,1.08.74,1.21.08.02.16.03.24.03.45,0,.86-.31.97-.76l1.57-6.5Z"/>
  <path class="cls-3" d="m24,26h-1c-.55,0-1,.45-1,1s.45,1,1,1h1c.55,0,1-.45,1-1s-.45-1-1-1Z"/>
  <path class="cls-1" d="m9,26h-1c-.55,0-1,.45-1,1s.45,1,1,1h1c.55,0,1-.45,1-1s-.45-1-1-1Z"/>
</svg>