<?xml version="1.0" encoding="UTF-8"?>
<svg id="OBJECT" xmlns="http://www.w3.org/2000/svg" xmlns:xlink="http://www.w3.org/1999/xlink" viewBox="0 0 32 32">
  <defs>
    <style>
      .cls-1 {
        fill: url(#New_Gradient_Swatch-6);
      }

      .cls-2 {
        fill: url(#New_Gradient_Swatch);
      }

      .cls-3 {
        fill: url(#New_Gradient_Swatch-5);
      }

      .cls-4 {
        fill: url(#New_Gradient_Swatch-4);
      }

      .cls-5 {
        fill: url(#New_Gradient_Swatch-3);
      }

      .cls-6 {
        fill: url(#New_Gradient_Swatch-2);
      }
    </style>
    <linearGradient id="New_Gradient_Swatch" data-name="New Gradient Swatch" x1="-2.7" y1="16" x2="35.66" y2="16" gradientUnits="userSpaceOnUse">
      <stop offset="0" stop-color="#7738c8"/>
      <stop offset="1" stop-color="#461d93"/>
    </linearGradient>
    <linearGradient id="New_Gradient_Swatch-2" data-name="New Gradient Swatch" y1="9.42" y2="9.42" xlink:href="#New_Gradient_Swatch"/>
    <linearGradient id="New_Gradient_Swatch-3" data-name="New Gradient Swatch" y1="9.42" x2="35.66" y2="9.42" xlink:href="#New_Gradient_Swatch"/>
    <linearGradient id="New_Gradient_Swatch-4" data-name="New Gradient Swatch" y1="9.42" x2="35.66" y2="9.42" xlink:href="#New_Gradient_Swatch"/>
    <linearGradient id="New_Gradient_Swatch-5" data-name="New Gradient Swatch" y1="16.67" x2="35.66" y2="16.67" xlink:href="#New_Gradient_Swatch"/>
    <linearGradient id="New_Gradient_Swatch-6" data-name="New Gradient Swatch" y1="16.67" x2="35.66" y2="16.67" xlink:href="#New_Gradient_Swatch"/>
  </defs>
  <path class="cls-2" d="m30.77,16.07l-2.77-3.37v-.3c0-6.28-5.11-11.4-11.4-11.4S5.21,6.11,5.21,12.4v7.6c0,1.22-.16,2.44-.49,3.61l-1.48,5.39h-1.24c-.55,0-1,.45-1,1s.45,1,1,1h16.46c.55,0,1-.45,1-1s-.45-1-1-1h-1.09l1.12-3.47,2.85,1.31c1.43.66,3.09.57,4.44-.24,1.51-.9,2.4-2.54,2.33-4.3l-.1-2.52,2.64-2.32c.41-.36.46-.97.11-1.39ZM5.31,29l.55-2h10.06l-.65,2H5.31Zm21.03-10.41c-.23.2-.35.49-.34.79l.12,3c.04,1.02-.48,1.98-1.35,2.5-.78.47-1.75.52-2.58.14l-3.06-1.41.52-1.61c.17-.53-.12-1.09-.64-1.26-.53-.17-1.09.12-1.26.64l-1.17,3.62H6.41l.24-.86c.37-1.35.56-2.74.56-4.14v-7.6c0-5.18,4.21-9.4,9.4-9.4s9.4,4.22,9.4,9.4v.65c0,.23.08.46.23.63l2.39,2.9-2.27,2Z"/>
  <path class="cls-6" d="m14.02,10.73l-1.38-1.31,1.38-1.31c.4-.38.42-1.01.04-1.41-.38-.4-1.01-.42-1.41-.04l-2.14,2.03c-.2.19-.31.45-.31.73s.11.54.31.73l2.14,2.03c.19.18.44.27.69.27.26,0,.53-.1.73-.31.38-.4.36-1.03-.04-1.41Z"/>
  <path class="cls-5" d="m20.73,6.66c-.4-.38-1.03-.36-1.41.04s-.36,1.03.04,1.41l1.38,1.31-1.38,1.31c-.4.38-.42,1.01-.04,1.41.2.21.46.31.73.31.25,0,.49-.09.69-.27l2.14-2.03c.2-.19.31-.45.31-.73s-.11-.54-.31-.73l-2.14-2.03Z"/>
  <path class="cls-4" d="m15.58,13.64c.08.02.17.03.26.03.44,0,.85-.3.97-.75l1.71-6.5c.14-.53-.18-1.08-.71-1.22-.53-.14-1.08.18-1.22.71l-1.71,6.5c-.14.53.18,1.08.71,1.22Z"/>
  <path class="cls-3" d="m21.69,15.67h-7c-.55,0-1,.45-1,1s.45,1,1,1h7c.55,0,1-.45,1-1s-.45-1-1-1Z"/>
  <path class="cls-1" d="m11.69,15.67h-1c-.55,0-1,.45-1,1s.45,1,1,1h1c.55,0,1-.45,1-1s-.45-1-1-1Z"/>
</svg>