<?xml version="1.0" encoding="UTF-8"?>
<svg id="OBJECT" xmlns="http://www.w3.org/2000/svg" xmlns:xlink="http://www.w3.org/1999/xlink" viewBox="0 0 32 32">
  <defs>
    <style>
      .cls-1 {
        fill: url(#New_Gradient_Swatch-7);
      }

      .cls-2 {
        fill: url(#New_Gradient_Swatch-6);
      }

      .cls-3 {
        fill: url(#New_Gradient_Swatch);
      }

      .cls-4 {
        fill: url(#New_Gradient_Swatch-5);
      }

      .cls-5 {
        fill: url(#New_Gradient_Swatch-8);
      }

      .cls-6 {
        fill: url(#New_Gradient_Swatch-4);
      }

      .cls-7 {
        fill: url(#New_Gradient_Swatch-3);
      }

      .cls-8 {
        fill: url(#New_Gradient_Swatch-2);
      }
    </style>
    <linearGradient id="New_Gradient_Swatch" data-name="New Gradient Swatch" x1="-1.96" y1="16.5" x2="31.53" y2="16.5" gradientUnits="userSpaceOnUse">
      <stop offset="0" stop-color="#7738c8"/>
      <stop offset="1" stop-color="#461d93"/>
    </linearGradient>
    <linearGradient id="New_Gradient_Swatch-2" data-name="New Gradient Swatch" y1="5.5" y2="5.5" xlink:href="#New_Gradient_Swatch"/>
    <linearGradient id="New_Gradient_Swatch-3" data-name="New Gradient Swatch" y1="5.5" y2="5.5" xlink:href="#New_Gradient_Swatch"/>
    <linearGradient id="New_Gradient_Swatch-4" data-name="New Gradient Swatch" y1="5.5" x2="31.53" y2="5.5" xlink:href="#New_Gradient_Swatch"/>
    <linearGradient id="New_Gradient_Swatch-5" data-name="New Gradient Swatch" y1="16" y2="16" xlink:href="#New_Gradient_Swatch"/>
    <linearGradient id="New_Gradient_Swatch-6" data-name="New Gradient Swatch" y1="23.5" x2="31.53" y2="23.5" xlink:href="#New_Gradient_Swatch"/>
    <linearGradient id="New_Gradient_Swatch-7" data-name="New Gradient Swatch" y1="23.5" x2="31.53" y2="23.5" xlink:href="#New_Gradient_Swatch"/>
    <linearGradient id="New_Gradient_Swatch-8" data-name="New Gradient Swatch" y1="23.5" x2="31.53" y2="23.5" xlink:href="#New_Gradient_Swatch"/>
  </defs>
  <path class="cls-3" d="m5.5,15c-.55,0-1,.45-1,1v1c0,.55.45,1,1,1s1-.45,1-1v-1c0-.55-.45-1-1-1Z"/>
  <path class="cls-3" d="m8.5,15c-.55,0-1,.45-1,1v1c0,.55.45,1,1,1s1-.45,1-1v-1c0-.55-.45-1-1-1Z"/>
  <path class="cls-8" d="m5.5,4c-.55,0-1,.45-1,1v1c0,.55.45,1,1,1s1-.45,1-1v-1c0-.55-.45-1-1-1Z"/>
  <path class="cls-7" d="m8.5,4c-.55,0-1,.45-1,1v1c0,.55.45,1,1,1s1-.45,1-1v-1c0-.55-.45-1-1-1Z"/>
  <path class="cls-6" d="m23.5,4.5h-11c-.55,0-1,.45-1,1s.45,1,1,1h11c.55,0,1-.45,1-1s-.45-1-1-1Z"/>
  <path class="cls-4" d="m28.5,16h-.5v-3c0-.55-.45-1-1-1h-1.5v-2h1.5c.55,0,1-.45,1-1V2c0-.55-.45-1-1-1H2c-.55,0-1,.45-1,1v7c0,.55.45,1,1,1h1.5v2h-1.5c-.55,0-1,.45-1,1v7c0,.55.45,1,1,1h9v7.5c0,1.38,1.12,2.5,2.5,2.5h15c1.38,0,2.5-1.12,2.5-2.5v-10c0-1.38-1.12-2.5-2.5-2.5ZM3,3h23v5H3V3Zm2.5,7h18v2H5.5v-2Zm-2.5,9v-5h23v2h-12.5c-1.38,0-2.5,1.12-2.5,2.5v.5H3Zm26,9.5c0,.28-.22.5-.5.5h-15c-.28,0-.5-.22-.5-.5v-10c0-.28.22-.5.5-.5h15c.28,0,.5.22.5.5v10Z"/>
  <path class="cls-2" d="m18.16,20.75c-.4-.38-1.03-.37-1.41.02l-1.96,2.03c-.38.39-.38,1,0,1.39l1.96,2.03c.2.2.46.3.72.3s.5-.09.7-.28c.4-.38.41-1.02.02-1.41l-1.29-1.34,1.29-1.34c.38-.4.37-1.03-.02-1.41Z"/>
  <path class="cls-1" d="m25.25,20.77c-.38-.4-1.02-.41-1.41-.02-.4.38-.41,1.02-.02,1.41l1.29,1.34-1.29,1.34c-.38.4-.37,1.03.02,1.41.19.19.44.28.7.28s.52-.1.72-.3l1.96-2.03c.38-.39.38-1,0-1.39l-1.96-2.03Z"/>
  <path class="cls-5" d="m22.02,19.28c-.53-.13-1.08.2-1.21.74l-1.57,6.5c-.13.54.2,1.08.74,1.21.08.02.16.03.24.03.45,0,.86-.31.97-.77l1.57-6.5c.13-.54-.2-1.08-.74-1.21Z"/>
</svg>