<?xml version="1.0" encoding="UTF-8"?>
<svg id="OBJECT" xmlns="http://www.w3.org/2000/svg" xmlns:xlink="http://www.w3.org/1999/xlink" viewBox="0 0 32 32">
  <defs>
    <style>
      .cls-1 {
        fill: url(#New_Gradient_Swatch);
      }

      .cls-2 {
        fill: url(#New_Gradient_Swatch-3);
      }

      .cls-3 {
        fill: url(#New_Gradient_Swatch-2);
      }
    </style>
    <linearGradient id="New_Gradient_Swatch" data-name="New Gradient Swatch" x1="-2.87" y1="16" x2="32.63" y2="16" gradientUnits="userSpaceOnUse">
      <stop offset="0" stop-color="#7738c8"/>
      <stop offset="1" stop-color="#461d93"/>
    </linearGradient>
    <linearGradient id="New_Gradient_Swatch-2" data-name="New Gradient Swatch" y1="16" y2="16" xlink:href="#New_Gradient_Swatch"/>
    <linearGradient id="New_Gradient_Swatch-3" data-name="New Gradient Swatch" y1="16" x2="32.63" y2="16" xlink:href="#New_Gradient_Swatch"/>
  </defs>
  <path class="cls-1" d="m8.16,13.25c-.4-.38-1.03-.37-1.41.02l-1.96,2.03c-.38.39-.38,1,0,1.39l1.96,2.03c.2.2.46.3.72.3s.5-.09.7-.28c.4-.38.41-1.02.02-1.41l-1.29-1.34,1.29-1.34c.38-.4.37-1.03-.02-1.41Z"/>
  <path class="cls-1" d="m17.22,15.3l-1.96-2.03c-.38-.4-1.02-.41-1.41-.02-.4.38-.41,1.02-.02,1.41l1.29,1.34-1.29,1.34c-.38.4-.37,1.03.02,1.41.19.19.45.28.7.28s.52-.1.72-.3l1.96-2.03c.38-.39.38-1,0-1.39Z"/>
  <path class="cls-3" d="m12.02,11.78c-.53-.13-1.08.2-1.21.74l-1.57,6.5c-.13.54.2,1.08.74,1.21.08.02.16.03.24.03.45,0,.86-.31.97-.76l1.57-6.5c.13-.54-.2-1.08-.74-1.21Z"/>
  <path class="cls-2" d="m26,21c-1.37,0-2.61.56-3.52,1.45l-2.65-1.77c.75-1.4,1.17-2.99,1.17-4.68s-.43-3.29-1.17-4.68l2.65-1.77c.9.9,2.15,1.45,3.52,1.45,2.76,0,5-2.24,5-5s-2.24-5-5-5-5,2.24-5,5c0,.67.14,1.3.37,1.88l-2.65,1.77c-1.84-2.23-4.61-3.65-7.72-3.65C5.49,6,1,10.49,1,16s4.49,10,10,10c3.11,0,5.88-1.42,7.72-3.65l2.65,1.77c-.24.58-.37,1.22-.37,1.88,0,2.76,2.24,5,5,5s5-2.24,5-5-2.24-5-5-5Zm0-18c1.65,0,3,1.35,3,3s-1.35,3-3,3-3-1.35-3-3,1.35-3,3-3Zm-15,21c-4.41,0-8-3.59-8-8s3.59-8,8-8,8,3.59,8,8-3.59,8-8,8Zm15,5c-1.65,0-3-1.35-3-3s1.35-3,3-3,3,1.35,3,3-1.35,3-3,3Z"/>
</svg>