<?xml version="1.0" encoding="UTF-8"?>
<svg id="OBJECT" xmlns="http://www.w3.org/2000/svg" xmlns:xlink="http://www.w3.org/1999/xlink" viewBox="0 0 32 32">
  <defs>
    <style>
      .cls-1 {
        fill: url(#New_Gradient_Swatch);
      }

      .cls-2 {
        fill: url(#New_Gradient_Swatch-5);
      }

      .cls-3 {
        fill: url(#New_Gradient_Swatch-4);
      }

      .cls-4 {
        fill: url(#New_Gradient_Swatch-3);
      }

      .cls-5 {
        fill: url(#New_Gradient_Swatch-2);
      }
    </style>
    <linearGradient id="New_Gradient_Swatch" data-name="New Gradient Swatch" x1="-3.3" y1="16" x2="33.23" y2="16" gradientUnits="userSpaceOnUse">
      <stop offset="0" stop-color="#7738c8"/>
      <stop offset="1" stop-color="#461d93"/>
    </linearGradient>
    <linearGradient id="New_Gradient_Swatch-2" data-name="New Gradient Swatch" y1="19" x2="33.23" y2="19" xlink:href="#New_Gradient_Swatch"/>
    <linearGradient id="New_Gradient_Swatch-3" data-name="New Gradient Swatch" y1="19" x2="33.23" y2="19" xlink:href="#New_Gradient_Swatch"/>
    <linearGradient id="New_Gradient_Swatch-4" data-name="New Gradient Swatch" y1="19" y2="19" xlink:href="#New_Gradient_Swatch"/>
    <linearGradient id="New_Gradient_Swatch-5" data-name="New Gradient Swatch" y1="9" y2="9" xlink:href="#New_Gradient_Swatch"/>
  </defs>
  <path class="cls-1" d="m30.64,4.23c-.23-.19-.53-.27-.82-.22-3.12.55-3.86-1.97-3.93-2.25-.11-.45-.51-.76-.97-.76h-9.84c-.46,0-.86.32-.97.76-.07.29-.81,2.82-3.93,2.26-.29-.05-.59.03-.82.22-.23.19-.36.47-.36.77v4.2c-4.56.93-8,4.97-8,9.8,0,5.51,4.49,10,10,10,1.44,0,2.8-.31,4.04-.86.24.17.49.34.76.5l3.69,2.21c.16.1.34.14.51.14s.36-.05.51-.14l3.69-2.21c4.19-2.52,6.8-7.12,6.8-12V5c0-.3-.13-.58-.36-.77ZM3,19c0-4.41,3.59-8,8-8s8,3.59,8,8-3.59,8-8,8-8-3.59-8-8Zm11.5-9.36v-.73c1.22-.52,2.31-1.35,3.18-2.42h4.63c.88,1.07,1.96,1.89,3.18,2.42v7.72c0,2.97-1.58,5.76-4.13,7.29l-1.37.82-.59-.36c1-1.56,1.59-3.41,1.59-5.4,0-4.28-2.71-7.93-6.5-9.36Zm14.5,7c0,4.19-2.23,8.13-5.83,10.29l-3.17,1.9-3.04-1.82c.42-.32.82-.66,1.19-1.03l1.33.8c.16.1.34.14.51.14s.36-.05.51-.14l1.89-1.13c3.14-1.89,5.1-5.34,5.1-9v-8.42c0-.43-.28-.82-.69-.95-1.59-.52-2.62-1.57-3.2-2.36-.19-.26-.49-.41-.81-.41h-5.61c-.32,0-.62.15-.81.41-.58.79-1.6,1.85-3.2,2.36-.41.13-.69.52-.69.95v.9c-.49-.07-.99-.12-1.5-.12v-2.9h.05c2.66,0,4.12-1.7,4.74-3.1h8.42c.61,1.4,2.08,3.1,4.74,3.1h.05v10.54Z"/>
  <path class="cls-5" d="m8.16,16.25c-.4-.38-1.03-.37-1.41.02l-1.96,2.03c-.38.39-.38,1,0,1.39l1.96,2.03c.2.2.46.3.72.3s.5-.09.7-.28c.4-.38.41-1.02.02-1.41l-1.29-1.34,1.29-1.34c.38-.4.37-1.03-.02-1.41Z"/>
  <path class="cls-4" d="m17.22,18.3l-1.96-2.03c-.38-.4-1.02-.41-1.41-.02s-.41,1.02-.02,1.41l1.29,1.34-1.29,1.34c-.38.4-.37,1.03.02,1.41.19.19.44.28.7.28s.52-.1.72-.3l1.96-2.03c.38-.39.38-1,0-1.39Z"/>
  <path class="cls-3" d="m12.02,14.78c-.53-.13-1.08.2-1.21.74l-1.57,6.5c-.13.54.2,1.08.74,1.21.08.02.16.03.24.03.45,0,.86-.31.97-.77l1.57-6.5c.13-.54-.2-1.08-.74-1.21Z"/>
  <path class="cls-2" d="m20,10.5c.55,0,1-.45,1-1v-1c0-.55-.45-1-1-1s-1,.45-1,1v1c0,.55.45,1,1,1Z"/>
</svg>