<?xml version="1.0" encoding="UTF-8"?>
<svg id="OBJECT" xmlns="http://www.w3.org/2000/svg" xmlns:xlink="http://www.w3.org/1999/xlink" viewBox="0 0 32 32">
  <defs>
    <style>
      .cls-1 {
        fill: url(#New_Gradient_Swatch-7);
      }

      .cls-2 {
        fill: url(#New_Gradient_Swatch-6);
      }

      .cls-3 {
        fill: url(#New_Gradient_Swatch);
      }

      .cls-4 {
        fill: url(#New_Gradient_Swatch-5);
      }

      .cls-5 {
        fill: url(#New_Gradient_Swatch-8);
      }

      .cls-6 {
        fill: url(#New_Gradient_Swatch-4);
      }

      .cls-7 {
        fill: url(#New_Gradient_Swatch-3);
      }

      .cls-8 {
        fill: url(#New_Gradient_Swatch-9);
      }

      .cls-9 {
        fill: url(#New_Gradient_Swatch-2);
      }
    </style>
    <linearGradient id="New_Gradient_Swatch" data-name="New Gradient Swatch" x1="-3.65" y1="16" x2="34.33" y2="16" gradientUnits="userSpaceOnUse">
      <stop offset="0" stop-color="#7738c8"/>
      <stop offset="1" stop-color="#461d93"/>
    </linearGradient>
    <linearGradient id="New_Gradient_Swatch-2" data-name="New Gradient Swatch" y1="5" y2="5" xlink:href="#New_Gradient_Swatch"/>
    <linearGradient id="New_Gradient_Swatch-3" data-name="New Gradient Swatch" y1="5" y2="5" xlink:href="#New_Gradient_Swatch"/>
    <linearGradient id="New_Gradient_Swatch-4" data-name="New Gradient Swatch" y1="26" x2="34.33" y2="26" xlink:href="#New_Gradient_Swatch"/>
    <linearGradient id="New_Gradient_Swatch-5" data-name="New Gradient Swatch" y1="26" y2="26" xlink:href="#New_Gradient_Swatch"/>
    <linearGradient id="New_Gradient_Swatch-6" data-name="New Gradient Swatch" y1="26" y2="26" xlink:href="#New_Gradient_Swatch"/>
    <linearGradient id="New_Gradient_Swatch-7" data-name="New Gradient Swatch" y1="16.67" x2="34.33" y2="16.67" xlink:href="#New_Gradient_Swatch"/>
    <linearGradient id="New_Gradient_Swatch-8" data-name="New Gradient Swatch" y1="16.67" x2="34.33" y2="16.67" xlink:href="#New_Gradient_Swatch"/>
    <linearGradient id="New_Gradient_Swatch-9" data-name="New Gradient Swatch" y1="16.67" x2="34.33" y2="16.67" xlink:href="#New_Gradient_Swatch"/>
  </defs>
  <path class="cls-3" d="m30,1H2c-.55,0-1,.45-1,1v28c0,.55.45,1,1,1h28c.55,0,1-.45,1-1V2c0-.55-.45-1-1-1Zm-1,2v4H3V3h26ZM3,29V9h26v20H3Z"/>
  <path class="cls-9" d="m21,6h1c.55,0,1-.45,1-1s-.45-1-1-1h-1c-.55,0-1,.45-1,1s.45,1,1,1Z"/>
  <path class="cls-7" d="m26,6h1c.55,0,1-.45,1-1s-.45-1-1-1h-1c-.55,0-1,.45-1,1s.45,1,1,1Z"/>
  <path class="cls-6" d="m21.5,25h-11.36c-.55,0-1,.45-1,1s.45,1,1,1h11.36c.55,0,1-.45,1-1s-.45-1-1-1Z"/>
  <path class="cls-4" d="m6.5,25h-1c-.55,0-1,.45-1,1s.45,1,1,1h1c.55,0,1-.45,1-1s-.45-1-1-1Z"/>
  <path class="cls-2" d="m26.5,25h-1c-.55,0-1,.45-1,1s.45,1,1,1h1c.55,0,1-.45,1-1s-.45-1-1-1Z"/>
  <path class="cls-1" d="m10.14,20.28c.2.2.46.3.71.3s.51-.1.7-.29c.39-.39.4-1.02.01-1.41l-2.17-2.22,2.17-2.22c.39-.39.38-1.03-.01-1.41-.39-.39-1.03-.38-1.41.01l-2.86,2.92c-.38.39-.38,1.01,0,1.4l2.86,2.92Z"/>
  <path class="cls-5" d="m20.44,20.3c.19.19.45.29.7.29s.52-.1.71-.3l2.86-2.92c.38-.39.38-1.01,0-1.4l-2.86-2.92c-.39-.4-1.02-.4-1.41-.01-.39.39-.4,1.02-.01,1.41l2.17,2.22-2.17,2.22c-.39.39-.38,1.03.01,1.41Z"/>
  <path class="cls-8" d="m14.62,22.3c.08.02.16.03.24.03.45,0,.86-.31.97-.76l2.29-9.33c.13-.54-.2-1.08-.73-1.21-.53-.13-1.08.2-1.21.73l-2.29,9.33c-.13.54.2,1.08.73,1.21Z"/>
</svg>