<svg width="38" height="38" viewBox="0 0 38 38" fill="none" xmlns="http://www.w3.org/2000/svg">
<rect width="38" height="38" rx="19" fill="#062B55"/>
<path d="M12.1953 12.1953C12.4556 11.9349 12.8777 11.9349 13.1381 12.1953L25.3946 24.4518C25.6549 24.7121 25.6549 25.1342 25.3946 25.3946C25.1342 25.6549 24.7121 25.6549 24.4518 25.3946L12.1953 13.1381C11.9349 12.8777 11.9349 12.4556 12.1953 12.1953Z" fill="white"/>
<path d="M25.3946 12.1953C25.6549 12.4556 25.6549 12.8777 25.3946 13.1381L13.1381 25.3946C12.8777 25.6549 12.4556 25.6549 12.1953 25.3946C11.9349 25.1342 11.9349 24.7121 12.1953 24.4518L24.4518 12.1953C24.7121 11.9349 25.1342 11.9349 25.3946 12.1953Z" fill="white"/>
</svg>
