<svg width="160" height="29" viewBox="0 0 160 29" fill="none" xmlns="http://www.w3.org/2000/svg">
<path d="M10.0341 10.33H7.12414V23.5H2.86414V10.33H0.974139V6.88H2.86414V6.04C2.86414 4 3.44414 2.5 4.60414 1.54C5.76414 0.579999 7.51414 0.129999 9.85414 0.19V3.73C8.83414 3.71 8.12414 3.88 7.72414 4.24C7.32414 4.6 7.12414 5.25 7.12414 6.19V6.88H10.0341V10.33ZM11.3759 15.13C11.3759 13.45 11.7059 11.96 12.3659 10.66C13.0459 9.36 13.9559 8.36 15.0959 7.66C16.2559 6.96 17.5459 6.61 18.9659 6.61C20.2059 6.61 21.2859 6.86 22.2059 7.36C23.1459 7.86 23.8959 8.49 24.4559 9.25V6.88H28.6859V23.5H24.4559V21.07C23.9159 21.85 23.1659 22.5 22.2059 23.02C21.2659 23.52 20.1759 23.77 18.9359 23.77C17.5359 23.77 16.2559 23.41 15.0959 22.69C13.9559 21.97 13.0459 20.96 12.3659 19.66C11.7059 18.34 11.3759 16.83 11.3759 15.13ZM24.4559 15.19C24.4559 14.17 24.2559 13.3 23.8559 12.58C23.4559 11.84 22.9159 11.28 22.2359 10.9C21.5559 10.5 20.8259 10.3 20.0459 10.3C19.2659 10.3 18.5459 10.49 17.8859 10.87C17.2259 11.25 16.6859 11.81 16.2659 12.55C15.8659 13.27 15.6659 14.13 15.6659 15.13C15.6659 16.13 15.8659 17.01 16.2659 17.77C16.6859 18.51 17.2259 19.08 17.8859 19.48C18.5659 19.88 19.2859 20.08 20.0459 20.08C20.8259 20.08 21.5559 19.89 22.2359 19.51C22.9159 19.11 23.4559 18.55 23.8559 17.83C24.2559 17.09 24.4559 16.21 24.4559 15.19ZM38.848 23.77C37.488 23.77 36.268 23.53 35.188 23.05C34.108 22.55 33.248 21.88 32.608 21.04C31.988 20.2 31.648 19.27 31.588 18.25H35.818C35.898 18.89 36.208 19.42 36.748 19.84C37.308 20.26 37.998 20.47 38.818 20.47C39.618 20.47 40.238 20.31 40.678 19.99C41.138 19.67 41.368 19.26 41.368 18.76C41.368 18.22 41.088 17.82 40.528 17.56C39.988 17.28 39.118 16.98 37.918 16.66C36.678 16.36 35.658 16.05 34.858 15.73C34.078 15.41 33.398 14.92 32.818 14.26C32.258 13.6 31.978 12.71 31.978 11.59C31.978 10.67 32.238 9.83 32.758 9.07C33.298 8.31 34.058 7.71 35.038 7.27C36.038 6.83 37.208 6.61 38.548 6.61C40.528 6.61 42.108 7.11 43.288 8.11C44.468 9.09 45.118 10.42 45.238 12.1H41.218C41.158 11.44 40.878 10.92 40.378 10.54C39.898 10.14 39.248 9.94 38.428 9.94C37.668 9.94 37.078 10.08 36.658 10.36C36.258 10.64 36.058 11.03 36.058 11.53C36.058 12.09 36.338 12.52 36.898 12.82C37.458 13.1 38.328 13.39 39.508 13.69C40.708 13.99 41.698 14.3 42.478 14.62C43.258 14.94 43.928 15.44 44.488 16.12C45.068 16.78 45.368 17.66 45.388 18.76C45.388 19.72 45.118 20.58 44.578 21.34C44.058 22.1 43.298 22.7 42.298 23.14C41.318 23.56 40.168 23.77 38.848 23.77ZM53.4256 10.33V18.37C53.4256 18.93 53.5556 19.34 53.8156 19.6C54.0956 19.84 54.5556 19.96 55.1956 19.96H57.1456V23.5H54.5056C50.9656 23.5 49.1956 21.78 49.1956 18.34V10.33H47.2156V6.88H49.1956V2.77H53.4256V6.88H57.1456V10.33H53.4256ZM88.1577 10.33V18.37C88.1577 18.93 88.2877 19.34 88.5477 19.6C88.8277 19.84 89.2877 19.96 89.9277 19.96H91.8777V23.5H89.2377C85.6977 23.5 83.9277 21.78 83.9277 18.34V10.33H81.9477V6.88H83.9277V2.77H88.1577V6.88H91.8777V10.33H88.1577ZM98.7985 9.46C99.3385 8.58 100.039 7.89 100.899 7.39C101.779 6.89 102.779 6.64 103.899 6.64V11.05H102.789C101.469 11.05 100.469 11.36 99.7885 11.98C99.1285 12.6 98.7985 13.68 98.7985 15.22V23.5H94.5985V6.88H98.7985V9.46ZM105.347 15.13C105.347 13.45 105.677 11.96 106.337 10.66C107.017 9.36 107.927 8.36 109.067 7.66C110.227 6.96 111.517 6.61 112.937 6.61C114.177 6.61 115.257 6.86 116.177 7.36C117.117 7.86 117.867 8.49 118.427 9.25V6.88H122.657V23.5H118.427V21.07C117.887 21.85 117.137 22.5 116.177 23.02C115.237 23.52 114.147 23.77 112.907 23.77C111.507 23.77 110.227 23.41 109.067 22.69C107.927 21.97 107.017 20.96 106.337 19.66C105.677 18.34 105.347 16.83 105.347 15.13ZM118.427 15.19C118.427 14.17 118.227 13.3 117.827 12.58C117.427 11.84 116.887 11.28 116.207 10.9C115.527 10.5 114.797 10.3 114.017 10.3C113.237 10.3 112.517 10.49 111.857 10.87C111.197 11.25 110.657 11.81 110.237 12.55C109.837 13.27 109.637 14.13 109.637 15.13C109.637 16.13 109.837 17.01 110.237 17.77C110.657 18.51 111.197 19.08 111.857 19.48C112.537 19.88 113.257 20.08 114.017 20.08C114.797 20.08 115.527 19.89 116.207 19.51C116.887 19.11 117.427 18.55 117.827 17.83C118.227 17.09 118.427 16.21 118.427 15.19ZM125.379 15.19C125.379 13.47 125.729 11.97 126.429 10.69C127.129 9.39 128.099 8.39 129.339 7.69C130.579 6.97 131.999 6.61 133.599 6.61C135.659 6.61 137.359 7.13 138.699 8.17C140.059 9.19 140.969 10.63 141.429 12.49H136.899C136.659 11.77 136.249 11.21 135.669 10.81C135.109 10.39 134.409 10.18 133.569 10.18C132.369 10.18 131.419 10.62 130.719 11.5C130.019 12.36 129.669 13.59 129.669 15.19C129.669 16.77 130.019 18 130.719 18.88C131.419 19.74 132.369 20.17 133.569 20.17C135.269 20.17 136.379 19.41 136.899 17.89H141.429C140.969 19.69 140.059 21.12 138.699 22.18C137.339 23.24 135.639 23.77 133.599 23.77C131.999 23.77 130.579 23.42 129.339 22.72C128.099 22 127.129 21 126.429 19.72C125.729 18.42 125.379 16.91 125.379 15.19ZM154.046 23.5L148.406 16.42V23.5H144.206V1.3H148.406V13.93L153.986 6.88H159.446L152.126 15.22L159.506 23.5H154.046Z" fill="black"/>
<path d="M78.6165 24.7V28.69H61.0065V24.7H78.6165Z" fill="#3DD7A1"/>
</svg>
