<svg width="20" height="21" viewBox="0 0 20 21" fill="none" xmlns="http://www.w3.org/2000/svg">
<path d="M17.4883 4.18144C17.4698 3.8767 17.3403 3.58927 17.1245 3.37338C16.9086 3.1575 16.6211 3.02809 16.3164 3.00957C15.3336 2.95097 12.8219 3.04082 10.7375 5.12441L10.3664 5.50019H5.80937C5.64459 5.49926 5.48126 5.53111 5.3289 5.59388C5.17654 5.65665 5.03818 5.74909 4.92187 5.86582L2.24218 8.54707C2.07784 8.71129 1.96253 8.91807 1.90917 9.14419C1.85582 9.37031 1.86654 9.60682 1.94013 9.82719C2.01372 10.0476 2.14727 10.2431 2.32579 10.3917C2.50431 10.5404 2.72073 10.6364 2.95077 10.6689L5.95624 11.0885L9.41015 14.5424L9.82968 17.5494C9.86194 17.7795 9.95791 17.9959 10.1067 18.1743C10.2556 18.3526 10.4513 18.4858 10.6719 18.5588C10.8003 18.6017 10.9349 18.6236 11.0703 18.6236C11.2343 18.6239 11.3967 18.5918 11.5483 18.529C11.6998 18.4663 11.8374 18.3742 11.9531 18.258L14.6344 15.5783C14.7511 15.462 14.8435 15.3236 14.9063 15.1713C14.9691 15.0189 15.0009 14.8556 15 14.6908V10.1338L15.3726 9.76113C17.457 7.67675 17.5469 5.16503 17.4883 4.18144ZM5.80937 6.75019H9.1164L6.02812 9.83769L3.12499 9.433L5.80937 6.75019ZM11.6226 6.01191C12.2232 5.40764 12.9458 4.93848 13.7422 4.63575C14.5385 4.33303 15.3903 4.20371 16.2406 4.25644C16.2954 5.10721 16.1674 5.95984 15.8653 6.75704C15.5632 7.55424 15.0939 8.27753 14.4891 8.87832L9.99999 13.3658L7.13437 10.5002L11.6226 6.01191ZM13.75 14.6908L11.068 17.3752L10.6625 14.4713L13.75 11.3838V14.6908ZM7.95624 15.433C7.60468 16.2033 6.4289 18.0002 3.12499 18.0002C2.95923 18.0002 2.80026 17.9343 2.68305 17.8171C2.56584 17.6999 2.49999 17.541 2.49999 17.3752C2.49999 14.0713 4.29687 12.8955 5.06718 12.5432C5.14187 12.5091 5.22254 12.4901 5.30458 12.4872C5.38661 12.4843 5.46842 12.4976 5.54532 12.5263C5.62221 12.5551 5.6927 12.5987 5.75275 12.6546C5.8128 12.7106 5.86124 12.7778 5.89531 12.8525C5.92937 12.9272 5.94838 13.0079 5.95127 13.0899C5.95416 13.172 5.94086 13.2538 5.91213 13.3307C5.8834 13.4076 5.83981 13.4781 5.78384 13.5381C5.72787 13.5982 5.66062 13.6466 5.58593 13.6807C5.08359 13.9096 3.97499 14.6463 3.77968 16.7205C5.8539 16.5252 6.59218 15.4166 6.81952 14.9143C6.85359 14.8396 6.90203 14.7723 6.96208 14.7163C7.02213 14.6604 7.09261 14.6168 7.16951 14.5881C7.24641 14.5593 7.32822 14.546 7.41025 14.5489C7.49229 14.5518 7.57296 14.5708 7.64765 14.6049C7.72234 14.6389 7.78959 14.6874 7.84556 14.7474C7.90153 14.8075 7.94512 14.878 7.97385 14.9549C8.00257 15.0318 8.01588 15.1136 8.01299 15.1956C8.0101 15.2776 7.99109 15.3583 7.95702 15.433H7.95624Z" fill="#FBFBFB"/>
</svg>
