<svg width="32" height="32" viewBox="0 0 32 32" fill="none" xmlns="http://www.w3.org/2000/svg">
<path d="M6.66675 16.6666C6.66675 16.2985 6.96522 16 7.33341 16H24.6667C25.0349 16 25.3334 16.2985 25.3334 16.6666C25.3334 17.0348 25.0349 17.3333 24.6667 17.3333H7.33341C6.96522 17.3333 6.66675 17.0348 6.66675 16.6666Z" fill="#1B1B1B"/>
<path d="M6.66675 23.3333C6.66675 22.9651 6.96522 22.6666 7.33341 22.6666H24.6667C25.0349 22.6666 25.3334 22.9651 25.3334 23.3333C25.3334 23.7015 25.0349 24 24.6667 24H7.33341C6.96522 24 6.66675 23.7015 6.66675 23.3333Z" fill="#1B1B1B"/>
<path d="M6.66675 9.99998C6.66675 9.63179 6.96522 9.33331 7.33341 9.33331H24.6667C25.0349 9.33331 25.3334 9.63179 25.3334 9.99998C25.3334 10.3682 25.0349 10.6666 24.6667 10.6666H7.33341C6.96522 10.6666 6.66675 10.3682 6.66675 9.99998Z" fill="#1B1B1B"/>
</svg>
