<svg width="20" height="21" viewBox="0 0 20 21" fill="none" xmlns="http://www.w3.org/2000/svg">
<path d="M17.3695 10.1789C17.3648 10.1688 17.3601 10.1586 17.3547 10.1492L15 5.96094V3C15 2.66848 14.8683 2.35054 14.6339 2.11612C14.3994 1.8817 14.0815 1.75 13.75 1.75H6.24997C5.91845 1.75 5.60051 1.8817 5.36609 2.11612C5.13167 2.35054 4.99997 2.66848 4.99997 3V5.9625L2.64529 10.1492C2.63982 10.1586 2.63513 10.1688 2.62966 10.1789C2.52765 10.3843 2.48431 10.6138 2.50444 10.8422C2.52457 11.0707 2.60737 11.2891 2.74372 11.4734L2.75232 11.4844L9.50544 20.2563C9.56383 20.332 9.63881 20.3933 9.72461 20.4355C9.81042 20.4776 9.90475 20.4996 10.0004 20.4996C10.096 20.4996 10.1903 20.4776 10.2761 20.4355C10.3619 20.3933 10.4369 20.332 10.4953 20.2563L17.2476 11.4844L17.2562 11.4734C17.3926 11.2891 17.4754 11.0706 17.4954 10.8421C17.5154 10.6137 17.4718 10.3842 17.3695 10.1789ZM13.75 3V5.5H6.24997V3H13.75ZM9.99997 11.75C9.81455 11.75 9.6333 11.695 9.47913 11.592C9.32496 11.489 9.20479 11.3426 9.13384 11.1713C9.06288 11 9.04431 10.8115 9.08049 10.6296C9.11666 10.4477 9.20595 10.2807 9.33706 10.1496C9.46817 10.0185 9.63522 9.92919 9.81708 9.89301C9.99893 9.85684 10.1874 9.87541 10.3587 9.94636C10.53 10.0173 10.6765 10.1375 10.7795 10.2917C10.8825 10.4458 10.9375 10.6271 10.9375 10.8125C10.9375 11.0611 10.8387 11.2996 10.6629 11.4754C10.4871 11.6512 10.2486 11.75 9.99997 11.75ZM10.625 18.0391V12.9086C11.1285 12.7585 11.5612 12.4321 11.8439 11.9892C12.1266 11.5463 12.2404 11.0164 12.1646 10.4965C12.0887 9.97653 11.8282 9.50127 11.4308 9.15759C11.0333 8.81391 10.5254 8.62478 9.99997 8.62478C9.47453 8.62478 8.96664 8.81391 8.56918 9.15759C8.17172 9.50127 7.91125 9.97653 7.83539 10.4965C7.75953 11.0164 7.87336 11.5463 8.15606 11.9892C8.43876 12.4321 8.87143 12.7585 9.37497 12.9086V18.0383L3.74997 10.7344L5.99138 6.75H14.0093L16.25 10.7344L10.625 18.0391Z" fill="#FBFBFB"/>
</svg>
