<svg width="20" height="21" viewBox="0 0 20 21" fill="none" xmlns="http://www.w3.org/2000/svg">
<path d="M17.4883 4.18144C17.4698 3.8767 17.3404 3.58927 17.1245 3.37338C16.9086 3.1575 16.6212 3.02809 16.3164 3.00957C15.3336 2.95097 12.8219 3.04082 10.7375 5.12441L10.3664 5.50019H5.8094C5.64462 5.49926 5.48129 5.53111 5.32893 5.59388C5.17657 5.65665 5.03821 5.74909 4.9219 5.86582L2.24221 8.54707C2.07787 8.71129 1.96256 8.91807 1.9092 9.14419C1.85585 9.37031 1.86657 9.60682 1.94016 9.82719C2.01375 10.0476 2.1473 10.2431 2.32582 10.3917C2.50434 10.5404 2.72076 10.6364 2.9508 10.6689L5.95627 11.0885L9.41018 14.5424L9.82971 17.5494C9.86197 17.7795 9.95794 17.9959 10.1068 18.1743C10.2556 18.3526 10.4513 18.4858 10.6719 18.5588C10.8004 18.6017 10.9349 18.6236 11.0703 18.6236C11.2343 18.6239 11.3968 18.5918 11.5483 18.529C11.6998 18.4663 11.8374 18.3742 11.9531 18.258L14.6344 15.5783C14.7511 15.462 14.8436 15.3236 14.9063 15.1713C14.9691 15.0189 15.001 14.8556 15 14.6908V10.1338L15.3727 9.76113C17.4571 7.67675 17.5469 5.16503 17.4883 4.18144ZM5.8094 6.75019H9.11643L6.02815 9.83769L3.12502 9.433L5.8094 6.75019ZM11.6227 6.01191C12.2232 5.40764 12.9458 4.93848 13.7422 4.63575C14.5385 4.33303 15.3903 4.20371 16.2406 4.25644C16.2954 5.10721 16.1674 5.95984 15.8653 6.75704C15.5632 7.55424 15.094 8.27753 14.4891 8.87832L10 13.3658L7.1344 10.5002L11.6227 6.01191ZM13.75 14.6908L11.068 17.3752L10.6625 14.4713L13.75 11.3838V14.6908ZM7.95627 15.433C7.60471 16.2033 6.42893 18.0002 3.12502 18.0002C2.95926 18.0002 2.80029 17.9343 2.68308 17.8171C2.56587 17.6999 2.50002 17.541 2.50002 17.3752C2.50002 14.0713 4.2969 12.8955 5.06721 12.5432C5.1419 12.5091 5.22257 12.4901 5.30461 12.4872C5.38664 12.4843 5.46845 12.4976 5.54535 12.5263C5.62225 12.5551 5.69273 12.5987 5.75278 12.6546C5.81283 12.7106 5.86127 12.7778 5.89534 12.8525C5.9294 12.9272 5.94841 13.0079 5.9513 13.0899C5.95419 13.172 5.94089 13.2538 5.91216 13.3307C5.88343 13.4076 5.83984 13.4781 5.78387 13.5381C5.7279 13.5982 5.66065 13.6466 5.58596 13.6807C5.08362 13.9096 3.97502 14.6463 3.77971 16.7205C5.85393 16.5252 6.59221 15.4166 6.81955 14.9143C6.85362 14.8396 6.90206 14.7723 6.96211 14.7163C7.02216 14.6604 7.09265 14.6168 7.16954 14.5881C7.24644 14.5593 7.32825 14.546 7.41028 14.5489C7.49232 14.5518 7.57299 14.5708 7.64768 14.6049C7.72237 14.6389 7.78962 14.6874 7.84559 14.7474C7.90156 14.8075 7.94515 14.878 7.97388 14.9549C8.00261 15.0318 8.01591 15.1136 8.01302 15.1956C8.01013 15.2776 7.99112 15.3583 7.95705 15.433H7.95627Z" fill="#1B1B1B"/>
</svg>
