<?xml version="1.0" encoding="UTF-8"?>
<svg id="OBJECT" xmlns="http://www.w3.org/2000/svg" viewBox="0 0 32 32">
  <path d="m14.02,10H4c-1.65,0-3,1.35-3,3v11c0,1.65,1.35,3,3,3h6c.55,0,1,.45,1,1s-.45,1-1,1h-1l.6.8c.56.75,1.46,1.2,2.4,1.2s1.84-.45,2.4-1.2l2.1-2.8h3.5c1.65,0,3-1.35,3-3v-10h-4.76c-2.25,0-4.09-1.78-4.21-4Zm-5.67,9.99c.39.39.38,1.03-.01,1.41-.19.19-.45.29-.7.29s-.52-.1-.71-.3l-2.14-2.19c-.38-.39-.38-1.01,0-1.4l2.14-2.19c.39-.39,1.02-.4,1.41-.01.39.39.4,1.02.01,1.41l-1.46,1.49,1.46,1.49Zm5.47-4.75l-1.71,7c-.11.46-.52.76-.97.76-.08,0-.16,0-.24-.03-.54-.13-.86-.67-.73-1.21l1.71-7c.13-.54.67-.87,1.21-.73.54.13.86.67.73,1.21Zm5.39,3.96l-2.14,2.19c-.2.2-.46.3-.71.3s-.51-.09-.7-.29c-.39-.39-.4-1.02-.01-1.41l1.46-1.49-1.46-1.49c-.39-.39-.38-1.03.01-1.41.39-.39,1.03-.38,1.41.01l2.14,2.19c.38.39.38,1.01,0,1.4Z"/>
  <path d="m28.76,1h-10.53c-1.23,0-2.24,1-2.24,2.24v6.53c0,1.23,1,2.24,2.24,2.24h7.15l1.38,2.76c.38.76,1.15,1.24,2,1.24,1.23,0,2.24-1,2.24-2.24V3.24c0-1.23-1-2.24-2.24-2.24Zm-8.76,2.75h.5c.55,0,1,.45,1,1s-.45,1-1,1h-.5c-.55,0-1-.45-1-1s.45-1,1-1Zm7,5.5h-7c-.55,0-1-.45-1-1s.45-1,1-1h7c.55,0,1,.45,1,1s-.45,1-1,1Zm0-3.5h-3c-.55,0-1-.45-1-1s.45-1,1-1h3c.55,0,1,.45,1,1s-.45,1-1,1Z"/>
</svg>