<?xml version="1.0" encoding="UTF-8"?>
<svg id="OBJECT" xmlns="http://www.w3.org/2000/svg" viewBox="0 0 32 32">
  <path d="m8,23V1h-1c-1.65,0-3,1.35-3,3v19.76c.72-.48,1.57-.76,2.5-.76h1.5Z"/>
  <path d="m27,1H10v22h18V2c0-.55-.45-1-1-1Zm-9.76,10.02l1.57-6.5c.13-.54.67-.87,1.21-.74.54.13.87.67.74,1.21l-1.57,6.5c-.11.46-.52.77-.97.77-.08,0-.16,0-.24-.03-.54-.13-.87-.67-.74-1.21Zm-4.46-3.71l1.96-2.03c.38-.4,1.02-.41,1.41-.02.4.38.41,1.02.02,1.41l-1.29,1.34,1.29,1.34c.38.4.37,1.03-.02,1.41-.19.19-.44.28-.7.28s-.52-.1-.72-.3l-1.96-2.03c-.38-.39-.38-1,0-1.39Zm2.72,7.95c0,.55-.45,1-1,1h-.5c-.55,0-1-.45-1-1s.45-1,1-1h.5c.55,0,1,.45,1,1Zm8.5,5h-10c-.55,0-1-.45-1-1s.45-1,1-1h10c.55,0,1,.45,1,1s-.45,1-1,1Zm0-4h-6c-.55,0-1-.45-1-1s.45-1,1-1h6c.55,0,1,.45,1,1s-.45,1-1,1Zm1.22-7.55l-1.96,2.03c-.2.2-.46.3-.72.3s-.5-.09-.7-.28c-.4-.38-.41-1.02-.02-1.41l1.29-1.34-1.29-1.34c-.38-.4-.37-1.03.02-1.41.4-.38,1.03-.37,1.41.02l1.96,2.03c.38.39.38,1,0,1.39Z"/>
  <path d="m4,27.5v1c0,1.38,1.12,2.5,2.5,2.5h21.5v-2h-15c-.55,0-1-.45-1-1s.45-1,1-1h15v-2H6.5c-1.38,0-2.5,1.12-2.5,2.5Zm5-.5h1c.55,0,1,.45,1,1s-.45,1-1,1h-1c-.55,0-1-.45-1-1s.45-1,1-1Z"/>
</svg>