<?xml version="1.0" encoding="UTF-8"?>
<svg id="OBJECT" xmlns="http://www.w3.org/2000/svg" viewBox="0 0 32 32">
  <path d="m1,30c0,.55.45,1,1,1h8V9H1v21Zm3.5-18h2c.55,0,1,.45,1,1s-.45,1-1,1h-2c-.55,0-1-.45-1-1s.45-1,1-1Zm0,4.67h2c.55,0,1,.45,1,1s-.45,1-1,1h-2c-.55,0-1-.45-1-1s.45-1,1-1Zm0,4.67h2c.55,0,1,.45,1,1s-.45,1-1,1h-2c-.55,0-1-.45-1-1s.45-1,1-1Zm0,4.67h2c.55,0,1,.45,1,1s-.45,1-1,1h-2c-.55,0-1-.45-1-1s.45-1,1-1Z"/>
  <path d="m30,1H2c-.55,0-1,.45-1,1v5h30V2c0-.55-.45-1-1-1Zm-7,4h-1c-.55,0-1-.45-1-1s.45-1,1-1h1c.55,0,1,.45,1,1s-.45,1-1,1Zm5,0h-1c-.55,0-1-.45-1-1s.45-1,1-1h1c.55,0,1,.45,1,1s-.45,1-1,1Z"/>
  <path d="m12,31h18c.55,0,1-.45,1-1V9H12v22Zm12.35-16.15c-.4-.38-.41-1.01-.03-1.41.38-.4,1.02-.41,1.41-.03l1.96,1.88c.2.19.31.45.31.72s-.11.53-.31.72l-1.96,1.88c-.19.18-.44.28-.69.28-.26,0-.53-.1-.72-.31-.38-.4-.37-1.03.03-1.41l1.21-1.15-1.21-1.15Zm-4.6,3.9l1.57-6c.14-.53.69-.85,1.22-.71.53.14.85.69.71,1.22l-1.57,6c-.12.45-.52.75-.97.75-.08,0-.17-.01-.25-.03-.53-.14-.85-.69-.71-1.22Zm.25,3.25h7c.55,0,1,.45,1,1s-.45,1-1,1h-7c-.55,0-1-.45-1-1s.45-1,1-1Zm-4.69-6.72l1.96-1.88c.4-.38,1.03-.37,1.41.03.38.4.37,1.03-.03,1.41l-1.21,1.15,1.21,1.15c.4.38.41,1.01.03,1.41-.2.21-.46.31-.72.31-.25,0-.5-.09-.69-.28l-1.96-1.88c-.2-.19-.31-.45-.31-.72s.11-.53.31-.72Zm.69,6.72h.5c.55,0,1,.45,1,1s-.45,1-1,1h-.5c-.55,0-1-.45-1-1s.45-1,1-1Zm0,4h11c.55,0,1,.45,1,1s-.45,1-1,1h-11c-.55,0-1-.45-1-1s.45-1,1-1Z"/>
</svg>