<?xml version="1.0" encoding="UTF-8"?>
<svg id="OBJECT" xmlns="http://www.w3.org/2000/svg" viewBox="0 0 32 32">
  <rect x="12.5" y="24" width="7" height="7" rx="2" ry="2"/>
  <path d="m29,24h-.5v-2.5c0-1.38-1.12-2.5-2.5-2.5h-9v-2.5h-2v2.5H6c-1.38,0-2.5,1.12-2.5,2.5v2.5h-.5c-1.1,0-2,.9-2,2v3c0,1.1.9,2,2,2h3c1.1,0,2-.9,2-2v-3c0-1.1-.9-2-2-2h-.5v-2.5c0-.28.22-.5.5-.5h9v1h2v-1h9c.28,0,.5.22.5.5v2.5h-.5c-1.1,0-2,.9-2,2v3c0,1.1.9,2,2,2h3c1.1,0,2-.9,2-2v-3c0-1.1-.9-2-2-2Z"/>
  <path d="m9,14.5h14c1.1,0,2-.9,2-2V3c0-1.1-.9-2-2-2h-14c-1.1,0-2,.9-2,2v9.5c0,1.1.9,2,2,2Zm10.32-8.09c-.38-.4-.37-1.03.02-1.41.4-.38,1.03-.37,1.41.02l1.96,2.03c.38.39.38,1,0,1.39l-1.96,2.03c-.2.2-.46.3-.72.3s-.5-.09-.7-.28c-.4-.38-.41-1.02-.02-1.41l1.29-1.34-1.29-1.34Zm-5.07,4.35l1.57-6.5c.13-.54.67-.87,1.21-.74.54.13.87.67.74,1.21l-1.57,6.5c-.11.46-.52.77-.97.77-.08,0-.16,0-.24-.03-.54-.13-.87-.67-.74-1.21Zm-4.96-3.71l1.96-2.03c.38-.4,1.02-.41,1.41-.02.4.38.41,1.02.02,1.41l-1.29,1.34,1.29,1.34c.38.4.37,1.03-.02,1.41-.19.19-.44.28-.7.28s-.52-.1-.72-.3l-1.96-2.03c-.38-.39-.38-1,0-1.39Z"/>
</svg>