<?xml version="1.0" encoding="UTF-8"?>
<svg id="OBJECT" xmlns="http://www.w3.org/2000/svg" viewBox="0 0 32 32">
  <path d="m28,10h-2v-2c0-.55-.45-1-1-1H7c-.55,0-1,.45-1,1v13c0,2.21,1.79,4,4,4h12c2.21,0,4-1.79,4-4v-1h2c1.65,0,3-1.35,3-3v-4c0-1.65-1.35-3-3-3Zm-15.47,7.5c.38.4.36,1.04-.04,1.41-.19.18-.44.27-.68.27-.27,0-.53-.11-.73-.32l-2.05-2.19c-.36-.38-.36-.98,0-1.37l2.05-2.19c.38-.4,1.01-.42,1.41-.04.4.38.42,1.01.04,1.41l-1.41,1.5,1.41,1.5Zm5.26-4.77l-1.64,7c-.11.46-.52.77-.97.77-.08,0-.15,0-.23-.03-.54-.13-.87-.66-.75-1.2l1.64-7c.13-.54.66-.87,1.2-.75.54.13.87.66.75,1.2Zm5.18,3.96l-2.05,2.19c-.2.21-.46.32-.73.32-.25,0-.49-.09-.68-.27-.4-.38-.42-1.01-.04-1.41l1.41-1.5-1.41-1.5c-.38-.4-.36-1.04.04-1.41.4-.38,1.04-.36,1.41.04l2.05,2.19c.36.38.36.98,0,1.37Zm6.02.32c0,.55-.45,1-1,1h-2v-6h2c.55,0,1,.45,1,1v4Z"/>
  <path d="m30,26H2c-.55,0-1,.45-1,1s.45,1,1,1h2.28l.43,1.29c.34,1.02,1.29,1.71,2.37,1.71h17.84c1.08,0,2.03-.69,2.37-1.71l.43-1.29h2.28c.55,0,1-.45,1-1s-.45-1-1-1Z"/>
  <path d="m16,5.5c.55,0,1-.45,1-1v-2.5c0-.55-.45-1-1-1s-1,.45-1,1v2.5c0,.55.45,1,1,1Z"/>
  <path d="m21,5.5c.55,0,1-.45,1-1v-2.5c0-.55-.45-1-1-1s-1,.45-1,1v2.5c0,.55.45,1,1,1Z"/>
  <path d="m11,5.5c.55,0,1-.45,1-1v-2.5c0-.55-.45-1-1-1s-1,.45-1,1v2.5c0,.55.45,1,1,1Z"/>
</svg>