<?xml version="1.0" encoding="UTF-8"?>
<svg id="OBJECT" xmlns="http://www.w3.org/2000/svg" viewBox="0 0 32 32">
  <path d="m5.92,16.04c-.94-.16-1.9.15-2.58.83l-2.05,2.05c-.24.24-.34.58-.27.91.07.33.3.6.61.73l1.95.78,4.87-4.87-2.53-.42Z"/>
  <path d="m15.54,23.55l-4.87,4.87.78,1.95c.12.31.4.54.73.61.07.01.13.02.2.02.26,0,.52-.1.71-.29l2.06-2.05c.67-.67.98-1.64.82-2.58l-.42-2.53Z"/>
  <path d="m11.59,16.15l-6.63,6.63c-.97.98-.97,2.56,0,3.54h0l.72.72c.49.49,1.13.73,1.77.73s1.28-.24,1.77-.73l6.63-6.63-4.26-4.26Z"/>
  <path d="m30.27,3.56l-1.83-1.83c-.54-.54-1.28-.8-2.04-.72l-5.16.57c-.56.06-1.09.32-1.49.72l-7.01,7.01c-.47.47-.73,1.1-.73,1.77v2.65l6.26,6.26h2.65c.67,0,1.3-.26,1.77-.73l7.01-7.01c.4-.4.65-.93.72-1.49l.57-5.16c.08-.76-.18-1.5-.72-2.04Zm-9.51,11.58h-.02l-2.84-.05c-.54,0-.97-.44-.98-.98l-.05-2.84c0-.55.43-1.01.98-1.02h.02c.54,0,.99.44,1,.98l.03,1.87,1.87.03c.55,0,.99.46.98,1.02,0,.55-.46.98-1,.98Zm3.7-1.59c-.16.1-.34.15-.52.15-.34,0-.67-.17-.85-.48l-3.51-5.74c-.29-.47-.14-1.09.33-1.37.47-.29,1.09-.14,1.37.33l3.51,5.74c.29.47.14,1.09-.33,1.37Zm2.06-4.15h-.02c-.54,0-.99-.44-1-.98l-.03-1.88-1.88-.03c-.55,0-.99-.46-.98-1.02,0-.55.46-.98,1-.98h.02l2.84.05c.54,0,.97.44.98.98l.05,2.84c0,.55-.43,1.01-.98,1.02Z"/>
</svg>