<?xml version="1.0" encoding="UTF-8"?>
<svg id="OBJECT" xmlns="http://www.w3.org/2000/svg" viewBox="0 0 32 32">
  <path d="m1,12.5v3.5c0,3.99,6.45,7,15,7s15-3.01,15-7v-3.5c-2.76,2.77-8.17,4.5-15,4.5S3.76,15.28,1,12.5Zm18.99,6.22l.22-.03c.54-.09,1.06.29,1.14.83.09.55-.29,1.06-.83,1.14l-.24.04s-.1.01-.15.01c-.49,0-.92-.36-.99-.85-.08-.55.3-1.05.84-1.14Zm-3.15.27c.54,0,.98.43,1,.97.01.55-.42,1.01-.97,1.03-.28,0-.57.01-.86.01-1.57,0-3.1-.11-4.54-.34-.55-.09-.92-.6-.83-1.14.09-.55.6-.92,1.14-.83,1.58.25,3.36.35,5.04.31,0,0,.02,0,.03,0Z"/>
  <path d="m1,20.5v3.5c0,3.99,6.45,7,15,7s15-3.01,15-7v-3.5c-2.76,2.77-8.17,4.5-15,4.5s-12.24-1.72-15-4.5Zm10.85,8.21s-.1,0-.15-.01l-.24-.04c-.55-.09-.92-.6-.83-1.14.09-.54.6-.92,1.14-.83l.22.03c.55.08.92.59.84,1.14-.07.5-.5.85-.99.85Zm8.36-2.03c.54-.09,1.06.29,1.14.83.08.55-.29,1.06-.83,1.14-1.44.23-2.96.34-4.54.34-.29,0-.58,0-.86-.01-.55-.01-.99-.47-.97-1.03.01-.55.51-.99,1.03-.97,1.68.04,3.45-.06,5.04-.31Z"/>
  <path d="m16,15c8.55,0,15-3.01,15-7S24.55,1,16,1,1,4.01,1,8s6.45,7,15,7Zm3.35-8.1c-.4-.38-.41-1.01-.03-1.41.38-.4,1.02-.41,1.41-.03l1.96,1.88c.2.19.31.45.31.72s-.11.53-.31.72l-1.96,1.88c-.19.19-.44.28-.69.28-.26,0-.53-.1-.72-.31-.38-.4-.37-1.03.03-1.41l1.21-1.15-1.21-1.15Zm-5.1,3.9l1.57-6c.14-.53.69-.86,1.22-.71.53.14.85.69.71,1.22l-1.57,6c-.12.45-.52.75-.97.75-.08,0-.17-.01-.25-.03-.53-.14-.85-.69-.71-1.22Zm-4.94-3.47l1.96-1.88c.4-.38,1.03-.37,1.41.03.38.4.37,1.03-.03,1.41l-1.21,1.15,1.21,1.15c.4.38.41,1.01.03,1.41-.2.21-.46.31-.72.31-.25,0-.5-.09-.69-.28l-1.96-1.88c-.2-.19-.31-.45-.31-.72s.11-.53.31-.72Z"/>
</svg>