<?xml version="1.0" encoding="UTF-8"?>
<svg id="OBJECT" xmlns="http://www.w3.org/2000/svg" viewBox="0 0 32 32">
  <path d="m29,19h-4v5h6v-3c0-1.1-.9-2-2-2Z"/>
  <rect x="9" y="19" width="14" height="5"/>
  <path d="m1,29c0,1.1.9,2,2,2h12v-5H1v3Z"/>
  <path d="m7,19H3c-1.1,0-2,.9-2,2v3h6v-5Z"/>
  <path d="m17,31h12c1.1,0,2-.9,2-2v-3h-14v5Z"/>
  <path d="m23.35,17c.41-.88.65-1.86.65-2.89v-.3c0-1.63-.59-3.22-1.66-4.48-.76-.9-1.43-1.85-1.99-2.84-1.2-2.12.11-3.75.17-3.83.29-.34.32-.82.07-1.2-.24-.37-.71-.54-1.13-.41-3.1.97-4.81,3.18-5.67,5.25-1.23-1.34-2.93-1.83-3.04-1.87-.36-.1-.73,0-.99.27-.26.26-.35.64-.24.99.37,1.18,0,3.31-1.03,5.84-.33.82-.5,1.69-.5,2.58,0,1.03.24,2.01.65,2.89h14.71Zm-4.04-5.59c-.32-.45-.24-1.08.23-1.39.45-.32,1.07-.22,1.39.23.73,1.02,1.64,3.44-.09,5.35-.04.05-.09.09-.13.12-.38.29-.92.27-1.28-.05-.41-.37-.44-1-.07-1.41,1.09-1.2-.05-2.83-.06-2.85Z"/>
</svg>