<?xml version="1.0" encoding="UTF-8"?>
<svg id="OBJECT" xmlns="http://www.w3.org/2000/svg" viewBox="0 0 32 32">
  <path d="m29,8v14c0,2.21-1.79,4-4,4H5c0,1.1.9,2,2,2h22c1.1,0,2-.9,2-2V10c0-1.1-.9-2-2-2Z"/>
  <path d="m9.69,13.39l4.3,5.53,4.3-5.53c.19-.24.48-.39.79-.39s.6.14.79.39l7.06,9.08c.04-.15.06-.3.06-.46V6c0-1.1-.9-2-2-2H3c-1.1,0-2,.9-2,2v16c0,.16.02.31.06.46l7.06-9.07c.38-.49,1.2-.49,1.58,0Zm4.31-7.39c1.79,0,3.25,1.46,3.25,3.25s-1.46,3.25-3.25,3.25-3.25-1.46-3.25-3.25,1.46-3.25,3.25-3.25Z"/>
  <circle cx="14" cy="9.25" r="1.25"/>
  <path d="m15.26,20.55l2.69,3.45h7.05c.19,0,.37-.03.54-.08l-6.45-8.29-3.83,4.92Z"/>
  <path d="m8.91,15.63l-6.45,8.29c.17.05.35.08.54.08h12.42l-6.51-8.37Z"/>
</svg>