<?xml version="1.0" encoding="UTF-8"?>
<svg id="OBJECT" xmlns="http://www.w3.org/2000/svg" viewBox="0 0 32 32">
  <path d="m24,3.5c.55,0,1-.45,1-1v-.5c0-.55-.45-1-1-1s-1,.45-1,1v.5c0,.55.45,1,1,1Z"/>
  <path d="m29.5,16H2.5c-.83,0-1.5.67-1.5,1.5v12c0,.83.67,1.5,1.5,1.5h27c.83,0,1.5-.67,1.5-1.5v-12c0-.83-.67-1.5-1.5-1.5Zm-14,2.5h1c.55,0,1,.45,1,1s-.45,1-1,1h-1c-.55,0-1-.45-1-1s.45-1,1-1Zm0,4h1c.55,0,1,.45,1,1s-.45,1-1,1h-1c-.55,0-1-.45-1-1s.45-1,1-1Zm-5-4h1c.55,0,1,.45,1,1s-.45,1-1,1h-1c-.55,0-1-.45-1-1s.45-1,1-1Zm0,4h1c.55,0,1,.45,1,1s-.45,1-1,1h-1c-.55,0-1-.45-1-1s.45-1,1-1Zm-4,6h-1c-.55,0-1-.45-1-1s.45-1,1-1h1c.55,0,1,.45,1,1s-.45,1-1,1Zm0-4h-1c-.55,0-1-.45-1-1s.45-1,1-1h1c.55,0,1,.45,1,1s-.45,1-1,1Zm0-4h-1c-.55,0-1-.45-1-1s.45-1,1-1h1c.55,0,1,.45,1,1s-.45,1-1,1Zm15,8h-11c-.55,0-1-.45-1-1s.45-1,1-1h11c.55,0,1,.45,1,1s-.45,1-1,1Zm0-4h-1c-.55,0-1-.45-1-1s.45-1,1-1h1c.55,0,1,.45,1,1s-.45,1-1,1Zm0-4h-1c-.55,0-1-.45-1-1s.45-1,1-1h1c.55,0,1,.45,1,1s-.45,1-1,1Zm5,8h-1c-.55,0-1-.45-1-1s.45-1,1-1h1c.55,0,1,.45,1,1s-.45,1-1,1Zm0-4h-1c-.55,0-1-.45-1-1s.45-1,1-1h1c.55,0,1,.45,1,1s-.45,1-1,1Zm0-4h-1c-.55,0-1-.45-1-1s.45-1,1-1h1c.55,0,1,.45,1,1s-.45,1-1,1Z"/>
  <path d="m8,4c0-.55.45-1,1-1h7c.55,0,1,.45,1,1v5c0,1.65,1.35,3,3,3h2c1.65,0,3-1.35,3-3v-4c0-.55-.45-1-1-1s-1,.45-1,1v4c0,.55-.45,1-1,1h-2c-.55,0-1-.45-1-1v-5c0-1.65-1.35-3-3-3h-7c-1.65,0-3,1.35-3,3v5h2v-5Z"/>
  <rect x="3.5" y="11" width="7" height="3"/>
</svg>