<?xml version="1.0" encoding="UTF-8"?>
<svg id="OBJECT" xmlns="http://www.w3.org/2000/svg" viewBox="0 0 32 32">
  <path d="m18.46,29h-2.93l.65-2H3.79l-.55,2h-1.24c-.55,0-1,.45-1,1s.45,1,1,1h16.46c.55,0,1-.45,1-1s-.45-1-1-1Z"/>
  <path d="m30.77,16.07l-2.77-3.37v-.3c0-6.28-5.11-11.4-11.4-11.4S5.21,6.11,5.21,12.4v7.6c0,1.22-.16,2.44-.49,3.61l-.38,1.39h12.49l1.17-3.62c.17-.52.73-.81,1.26-.64.53.17.81.73.64,1.26l-1.17,3.63,2.63,1.21c1.43.66,3.09.57,4.44-.24,1.51-.9,2.4-2.54,2.33-4.3l-.1-2.52,2.64-2.32c.41-.36.46-.97.11-1.39Zm-15.91-4.65l1.71-6.5c.14-.54.7-.85,1.22-.71.53.14.85.69.71,1.22l-1.71,6.5c-.12.45-.52.75-.97.75-.08,0-.17-.01-.26-.03-.53-.14-.85-.69-.71-1.22Zm-3.18,5.26h-1c-.55,0-1-.45-1-1s.45-1,1-1h1c.55,0,1,.45,1,1s-.45,1-1,1Zm.95-5.49l-2.14-2.03c-.2-.19-.31-.45-.31-.73s.11-.54.31-.73l2.14-2.03c.4-.38,1.04-.36,1.41.04.38.4.36,1.03-.04,1.41l-1.38,1.31,1.38,1.31c.4.38.42,1.01.04,1.41-.2.21-.46.31-.73.31-.25,0-.49-.09-.69-.27Zm9.05,5.49h-7c-.55,0-1-.45-1-1s.45-1,1-1h7c.55,0,1,.45,1,1s-.45,1-1,1Zm1.19-7.52l-2.14,2.03c-.19.18-.44.27-.69.27-.26,0-.53-.1-.73-.31-.38-.4-.36-1.03.04-1.41l1.38-1.31-1.38-1.31c-.4-.38-.42-1.01-.04-1.41s1.01-.42,1.41-.04l2.14,2.03c.2.19.31.45.31.73s-.11.54-.31.73Z"/>
</svg>