<?xml version="1.0" encoding="UTF-8"?>
<svg id="OBJECT" xmlns="http://www.w3.org/2000/svg" viewBox="0 0 32 32">
  <path d="m22,13c-4.96,0-9,4.04-9,9s4.04,9,9,9,9-4.04,9-9-4.04-9-9-9Zm-3.32,10.34c.38.4.37,1.03-.02,1.41-.19.19-.44.28-.7.28s-.52-.1-.72-.3l-1.96-2.03c-.38-.39-.38-1,0-1.39l1.96-2.03c.38-.4,1.02-.41,1.41-.02.4.38.41,1.02.02,1.41l-1.29,1.34,1.29,1.34Zm5.07-4.35l-1.57,6.5c-.11.46-.52.77-.97.77-.08,0-.16,0-.24-.03-.54-.13-.87-.67-.74-1.21l1.57-6.5c.13-.54.67-.86,1.21-.74.54.13.87.67.74,1.21Zm3,5.74c-.2.2-.46.3-.72.3s-.5-.09-.7-.28c-.4-.38-.41-1.02-.02-1.41l1.29-1.34-1.29-1.34c-.38-.4-.37-1.03.02-1.41s1.03-.37,1.41.02l1.96,2.03c.38.39.38,1,0,1.39l-1.96,2.03Z"/>
  <path d="m20,11.19c.65-.12,1.32-.19,2-.19V2c0-.3-.13-.58-.36-.77-.23-.19-.53-.28-.82-.22l-9.77,1.78c-1.19.22-2.05,1.25-2.05,2.46v9.77c-.84-.63-1.87-1.03-3-1.03-2.76,0-5,2.24-5,5s2.24,5,5,5,5-2.24,5-5c0,0,0,0,0,0v-10.12l9-1.68v3.99Z"/>
</svg>