<?xml version="1.0" encoding="UTF-8"?>
<svg id="OBJECT" xmlns="http://www.w3.org/2000/svg" viewBox="0 0 32 32">
  <path d="m26,2c0-.55-.45-1-1-1H7c-.55,0-1,.45-1,1v13h20V2Zm-13.32,7.34c.38.4.37,1.03-.02,1.41-.19.19-.44.28-.7.28s-.52-.1-.72-.3l-1.96-2.03c-.38-.39-.38-1,0-1.39l1.96-2.03c.38-.4,1.02-.41,1.41-.02.4.38.41,1.02.02,1.41l-1.29,1.34,1.29,1.34Zm5.07-4.35l-1.57,6.5c-.11.46-.52.76-.97.76-.08,0-.16,0-.24-.03-.54-.13-.87-.67-.74-1.21l1.57-6.5c.13-.54.67-.87,1.21-.74.54.13.87.67.74,1.21Zm4.96,3.71l-1.96,2.03c-.2.2-.46.3-.72.3s-.5-.09-.7-.28c-.4-.38-.41-1.02-.02-1.41l1.29-1.34-1.29-1.34c-.38-.4-.37-1.03.02-1.41.4-.38,1.03-.38,1.41.02l1.96,2.03c.38.39.38,1,0,1.39Z"/>
  <path d="m24.5,26H7.5c-.28,0-.5.22-.5.5v4.5h18v-4.5c0-.28-.22-.5-.5-.5Z"/>
  <path d="m29,17H3c-1.1,0-2,.9-2,2v12h4v-4.5c0-1.38,1.12-2.5,2.5-2.5h17c1.38,0,2.5,1.12,2.5,2.5v4.5h4v-12c0-1.1-.9-2-2-2Zm-5,4h-.5c-.55,0-1-.45-1-1s.45-1,1-1h.5c.55,0,1,.45,1,1s-.45,1-1,1Zm4,0h-.5c-.55,0-1-.45-1-1s.45-1,1-1h.5c.55,0,1,.45,1,1s-.45,1-1,1Z"/>
</svg>