<?xml version="1.0" encoding="UTF-8"?>
<svg id="OBJECT" xmlns="http://www.w3.org/2000/svg" viewBox="0 0 32 32">
  <path d="m30,19H2c-.55,0-1,.45-1,1v10c0,.55.45,1,1,1s1-.45,1-1v-1h26v1c0,.55.45,1,1,1s1-.45,1-1v-10c0-.55-.45-1-1-1Zm-24,5.5c0,.55-.45,1-1,1s-1-.45-1-1v-1c0-.55.45-1,1-1s1,.45,1,1v1Zm4,0c0,.55-.45,1-1,1s-1-.45-1-1v-1c0-.55.45-1,1-1s1,.45,1,1v1Zm4,0c0,.55-.45,1-1,1s-1-.45-1-1v-1c0-.55.45-1,1-1s1,.45,1,1v1Zm13,.5h-10c-.55,0-1-.45-1-1s.45-1,1-1h10c.55,0,1,.45,1,1s-.45,1-1,1Z"/>
  <path d="m29,15c0-.55-.45-1-1-1h-1.5V2c0-.55-.45-1-1-1s-1,.45-1,1v12h-1.5c-.55,0-1,.45-1,1v2h7v-2Z"/>
  <path d="m10,15c0-.55-.45-1-1-1h-1.5V2c0-.55-.45-1-1-1s-1,.45-1,1v12h-1.5c-.55,0-1,.45-1,1v2h7v-2Z"/>
  <path d="m18.56,11.26c.4-.38.42-1.01.04-1.41-1.38-1.47-3.82-1.47-5.21,0-.38.4-.36,1.03.04,1.41.4.38,1.03.36,1.41-.04.62-.66,1.68-.66,2.29,0,.2.21.46.31.73.31.25,0,.49-.09.69-.27Z"/>
  <path d="m12.98,8.33c.81-.86,1.88-1.33,3.02-1.33s2.21.47,3.02,1.33c.2.21.46.31.73.31.25,0,.49-.09.69-.27.4-.38.42-1.01.04-1.41-1.19-1.26-2.78-1.96-4.48-1.96s-3.29.7-4.48,1.96c-.38.4-.36,1.03.04,1.41.4.38,1.03.36,1.41-.04Z"/>
  <path d="m16.21,12h-.42c-.55,0-1,.45-1,1s.45,1,1,1h.42c.55,0,1-.45,1-1s-.45-1-1-1Z"/>
</svg>