<?xml version="1.0" encoding="UTF-8"?>
<svg id="OBJECT" xmlns="http://www.w3.org/2000/svg" viewBox="0 0 32 32">
  <path d="m10,10h4c.55,0,1-.45,1-1V1h-6v8c0,.55.45,1,1,1Zm1.5-4h1c.55,0,1,.45,1,1s-.45,1-1,1h-1c-.55,0-1-.45-1-1s.45-1,1-1Z"/>
  <path d="m24,20H8v11h16v-11Zm-9,2.5h6c.55,0,1,.45,1,1s-.45,1-1,1h-6c-.55,0-1-.45-1-1s.45-1,1-1Zm-4,0h.5c.55,0,1,.45,1,1s-.45,1-1,1h-.5c-.55,0-1-.45-1-1s.45-1,1-1Zm10,6h-10c-.55,0-1-.45-1-1s.45-1,1-1h10c.55,0,1,.45,1,1s-.45,1-1,1Z"/>
  <path d="m23.5,16h-15c-.28,0-.5.22-.5.5v1.5h16v-1.5c0-.28-.22-.5-.5-.5Z"/>
  <path d="m30.41,5l-3.41-3.41c-.38-.38-.88-.59-1.41-.59h-8.59v8c0,1.65-1.35,3-3,3h-4c-1.65,0-3-1.35-3-3V1H3c-1.1,0-2,.9-2,2v26c0,1.1.9,2,2,2h3v-14.5c0-1.38,1.12-2.5,2.5-2.5h15c1.38,0,2.5,1.12,2.5,2.5v14.5h3c1.1,0,2-.9,2-2V6.41c0-.53-.21-1.04-.59-1.41Zm-6.41,5h-4c-.55,0-1-.45-1-1s.45-1,1-1h4c.55,0,1,.45,1,1s-.45,1-1,1Zm0-3h-4c-.55,0-1-.45-1-1s.45-1,1-1h4c.55,0,1,.45,1,1s-.45,1-1,1Z"/>
</svg>