<?xml version="1.0" encoding="UTF-8"?>
<svg id="OBJECT" xmlns="http://www.w3.org/2000/svg" viewBox="0 0 32 32">
  <circle cx="27" cy="5" r="4"/>
  <path d="m21.65,7.7l-2.93,1.95c-1.84-2.23-4.61-3.65-7.72-3.65C5.49,6,1,10.49,1,16s4.49,10,10,10c3.11,0,5.88-1.42,7.72-3.65l2.93,1.95c.31-.6.71-1.15,1.19-1.61l-3.01-2c.75-1.4,1.17-2.99,1.17-4.68s-.43-3.29-1.17-4.68l3.01-2c-.48-.46-.88-1.01-1.19-1.61Zm-13.97,9.64c.38.4.37,1.03-.02,1.41-.19.19-.45.28-.7.28s-.52-.1-.72-.3l-1.96-2.03c-.38-.39-.38-1,0-1.39l1.96-2.03c.38-.4,1.02-.41,1.41-.02.4.38.41,1.02.02,1.41l-1.29,1.34,1.29,1.34Zm5.08-4.35l-1.57,6.5c-.11.46-.52.76-.97.76-.08,0-.16,0-.24-.03-.54-.13-.87-.67-.74-1.21l1.57-6.5c.13-.54.67-.87,1.21-.74.54.13.87.67.74,1.21Zm3,5.74c-.2.2-.46.3-.72.3s-.5-.09-.7-.28c-.4-.38-.41-1.02-.02-1.41l1.29-1.34-1.29-1.34c-.38-.4-.37-1.03.02-1.41.4-.38,1.03-.37,1.41.02l1.96,2.03c.38.39.38,1,0,1.39l-1.96,2.03Z"/>
  <circle cx="27" cy="27" r="4"/>
</svg>