<?xml version="1.0" encoding="UTF-8"?>
<svg id="OBJECT" xmlns="http://www.w3.org/2000/svg" viewBox="0 0 32 32">
  <path d="m19,20c0-4.96-4.04-9-9-9S1,15.04,1,20s4.04,9,9,9,9-4.04,9-9Zm-12.32,1.34c.38.4.37,1.03-.02,1.41-.19.19-.44.28-.7.28s-.52-.1-.72-.3l-1.96-2.03c-.38-.39-.38-1,0-1.39l1.96-2.03c.38-.4,1.02-.41,1.41-.02.4.38.41,1.02.02,1.41l-1.29,1.34,1.29,1.34Zm5.07-4.35l-1.57,6.5c-.11.46-.52.77-.97.77-.08,0-.16,0-.24-.03-.54-.13-.87-.67-.74-1.21l1.57-6.5c.13-.54.67-.86,1.21-.74.54.13.87.67.74,1.21Zm2.28,6.05c-.25,0-.5-.09-.7-.28-.4-.38-.41-1.02-.02-1.41l1.29-1.34-1.29-1.34c-.38-.4-.37-1.03.02-1.41s1.03-.37,1.41.02l1.96,2.03c.38.39.38,1,0,1.39l-1.96,2.03c-.2.2-.46.3-.72.3Z"/>
  <path d="m20,24.75l1.37-.82c2.54-1.53,4.13-4.32,4.13-7.29v-7.72c-1.22-.52-2.31-1.35-3.18-2.42h-4.63c-.88,1.07-1.96,1.89-3.18,2.42v1.06c3.83,1.72,6.5,5.57,6.5,10.03,0,1.69-.39,3.28-1.07,4.71l.07.04Zm0-14.25c-.55,0-1-.45-1-1v-1c0-.55.45-1,1-1s1,.45,1,1v1c0,.55-.45,1-1,1Z"/>
  <path d="m30.64,4.23c-.23-.19-.53-.27-.82-.22-3.11.55-3.86-1.96-3.93-2.26-.11-.44-.51-.76-.97-.76h-9.84c-.46,0-.86.32-.97.76-.07.29-.81,2.82-3.93,2.26-.29-.05-.59.03-.82.22-.23.19-.36.47-.36.77v4.05c.33-.03.66-.05,1-.05.86,0,1.7.11,2.5.3v-1.07c0-.43.28-.82.69-.95,1.59-.52,2.62-1.57,3.2-2.36.19-.26.49-.41.81-.41h5.61c.32,0,.62.15.81.41.58.79,1.6,1.85,3.2,2.36.41.13.69.52.69.95v8.42c0,3.67-1.95,7.12-5.1,9l-1.89,1.13c-.16.1-.34.14-.51.14s-.36-.05-.51-.14l-.58-.35c-.71.98-1.58,1.84-2.56,2.54l3.14,1.89c.16.1.34.14.51.14s.36-.05.51-.14l3.69-2.21c4.19-2.52,6.8-7.12,6.8-12V5c0-.3-.13-.58-.36-.77Z"/>
</svg>