<?xml version="1.0" encoding="UTF-8"?>
<svg id="OBJECT" xmlns="http://www.w3.org/2000/svg" viewBox="0 0 32 32">
  <path d="m22,13c-4.96,0-9,4.04-9,9s4.04,9,9,9,9-4.04,9-9-4.04-9-9-9Zm-3.32,10.34c.38.4.37,1.03-.02,1.41-.19.19-.44.28-.7.28s-.52-.1-.72-.3l-1.96-2.03c-.38-.39-.38-1,0-1.39l1.96-2.03c.38-.4,1.02-.41,1.41-.02.4.38.41,1.02.02,1.41l-1.29,1.34,1.29,1.34Zm5.07-4.35l-1.57,6.5c-.11.46-.52.77-.97.77-.08,0-.16,0-.24-.03-.54-.13-.87-.67-.74-1.21l1.57-6.5c.13-.54.67-.86,1.21-.74.54.13.87.67.74,1.21Zm3,5.74c-.2.2-.46.3-.72.3s-.5-.09-.7-.28c-.4-.38-.41-1.02-.02-1.41l1.29-1.34-1.29-1.34c-.38-.4-.37-1.03.02-1.41s1.03-.37,1.41.02l1.96,2.03c.38.39.38,1,0,1.39l-1.96,2.03Z"/>
  <path d="m20.76,11.08c-.85-.97-1.91-1.76-3.11-2.29-.83,2.33-3.04,4-5.65,4s-4.82-1.67-5.65-4c-3.15,1.4-5.35,4.56-5.35,8.22v4c0,1.65,1.35,3,3,3h7.19c-.12-.65-.19-1.32-.19-2,0-5.64,4.28-10.31,9.76-10.92Zm-15.26,9.92h-.5c-.55,0-1-.45-1-1s.45-1,1-1h.5c.55,0,1,.45,1,1s-.45,1-1,1Zm3,0h-.5c-.55,0-1-.45-1-1s.45-1,1-1h.5c.55,0,1,.45,1,1s-.45,1-1,1Z"/>
  <path d="m12,10.78c2.21,0,4-1.79,4-4v-3.11c0-1.47-1.2-2.67-2.67-2.67h-2.67c-1.47,0-2.67,1.2-2.67,2.67v3.11c0,2.21,1.79,4,4,4Z"/>
</svg>