<?xml version="1.0" encoding="UTF-8"?>
<svg id="OBJECT" xmlns="http://www.w3.org/2000/svg" viewBox="0 0 32 32">
  <path d="m16,7c.55,0,1-.45,1-1v-1c0-.55-.45-1-1-1s-1,.45-1,1v1c0,.55.45,1,1,1Z"/>
  <path d="m10.73,7.28c.15.41.53.66.94.66.11,0,.23-.02.34-.06.52-.19.79-.76.6-1.28l-.34-.94c-.19-.52-.76-.79-1.28-.6-.52.19-.79.76-.6,1.28l.34.94Z"/>
  <path d="m19.99,7.88c.11.04.23.06.34.06.41,0,.79-.25.94-.66l.34-.94c.19-.52-.08-1.09-.6-1.28-.52-.19-1.09.08-1.28.6l-.34.94c-.19.52.08,1.09.6,1.28Z"/>
  <path d="m8.18,9.91c-3.17,1.67-5.71,4.34-7.11,7.7-.1.25-.1.52,0,.77,1.4,3.36,3.94,6.04,7.11,7.7-1.36-2.22-2.18-5.03-2.18-8.09s.82-5.87,2.18-8.09Z"/>
  <path d="m19.99,8.48c-1.28-.31-2.62-.48-3.99-.48s-2.71.17-3.99.48c-2.39,1.9-4.01,5.45-4.01,9.52s1.62,7.62,4.01,9.52c1.28.31,2.62.48,3.99.48s2.71-.17,3.99-.48c2.39-1.9,4.01-5.45,4.01-9.52s-1.62-7.62-4.01-9.52Zm-6.8,10.86c.38.4.37,1.03-.02,1.41-.19.19-.44.28-.7.28s-.52-.1-.72-.3l-1.96-2.03c-.38-.39-.38-1,0-1.39l1.96-2.03c.38-.4,1.02-.41,1.41-.02.4.38.41,1.02.02,1.41l-1.29,1.34,1.29,1.34Zm4.57-4.35l-1.57,6.5c-.11.46-.52.77-.97.77-.08,0-.16,0-.24-.03-.54-.13-.87-.67-.74-1.21l1.57-6.5c.13-.54.67-.87,1.21-.74.54.13.87.67.74,1.21Zm2.5,5.74c-.2.2-.46.3-.72.3s-.5-.09-.7-.28c-.4-.38-.41-1.02-.02-1.41l1.29-1.34-1.29-1.34c-.38-.4-.37-1.03.02-1.41.4-.38,1.03-.37,1.41.02l1.96,2.03c.38.39.38,1,0,1.39l-1.96,2.03Z"/>
  <path d="m30.92,17.62c-1.4-3.36-3.94-6.04-7.11-7.7,1.36,2.22,2.18,5.03,2.18,8.09s-.82,5.87-2.18,8.09c3.17-1.67,5.71-4.34,7.11-7.7.1-.25.1-.52,0-.77Z"/>
</svg>