<?xml version="1.0" encoding="UTF-8"?>
<svg id="OBJECT" xmlns="http://www.w3.org/2000/svg" viewBox="0 0 32 32">
  <path d="m1,25c0,.55.45,1,1,1h10.5v3h-4.5c-.55,0-1,.45-1,1s.45,1,1,1h16c.55,0,1-.45,1-1s-.45-1-1-1h-4.5v-3h10.5c.55,0,1-.45,1-1v-3H1v3Z"/>
  <path d="m30,1H2c-.55,0-1,.45-1,1v18h30V2c0-.55-.45-1-1-1ZM7,17h-1c-.55,0-1-.45-1-1s.45-1,1-1h1c.55,0,1,.45,1,1s-.45,1-1,1Zm4.57-5.12c.39.39.38,1.03-.01,1.41-.19.19-.45.29-.7.29s-.52-.1-.71-.3l-2.86-2.92c-.38-.39-.38-1.01,0-1.4l2.86-2.92c.39-.4,1.02-.4,1.41-.01.39.39.4,1.02.01,1.41l-2.17,2.22,2.17,2.22Zm6.54-6.65l-2.29,9.33c-.11.46-.52.76-.97.76-.08,0-.16,0-.24-.03-.54-.13-.86-.67-.73-1.21l2.29-9.33c.13-.54.68-.87,1.21-.73.54.13.86.67.73,1.21Zm3.03,8.35c-.25,0-.5-.1-.7-.29-.39-.39-.4-1.02-.01-1.41l2.17-2.22-2.17-2.22c-.39-.39-.38-1.03.01-1.41.39-.39,1.03-.38,1.41.01l2.86,2.92c.38.39.38,1.01,0,1.4l-2.86,2.92c-.2.2-.46.3-.71.3Zm4.86,3.42h-1c-.55,0-1-.45-1-1s.45-1,1-1h1c.55,0,1,.45,1,1s-.45,1-1,1Z"/>
</svg>