<?xml version="1.0" encoding="UTF-8"?>
<svg id="OBJECT" xmlns="http://www.w3.org/2000/svg" viewBox="0 0 32 32">
  <path d="m11,6.62c-.55,0-1,.45-1,1v5.5c0,.55.45,1,1,1s1-.45,1-1v-5.5c0-.55-.45-1-1-1Z"/>
  <path d="m11,15.06c-.55,0-1,.45-1,1v.56c0,.55.45,1,1,1s1-.45,1-1v-.56c0-.55-.45-1-1-1Z"/>
  <path d="m21.75,12.5c-.92,0-1.81.14-2.65.39L13.77,2.68c-.54-1.03-1.6-1.68-2.77-1.68s-2.23.64-2.77,1.68L1.35,15.86c-.23.44-.35.94-.35,1.44v.57c0,1.72,1.4,3.12,3.12,3.12h8.42c-.02.25-.04.5-.04.75,0,5.1,4.15,9.25,9.25,9.25s9.25-4.15,9.25-9.25-4.15-9.25-9.25-9.25Zm-17.63,6.5c-.62,0-1.12-.5-1.12-1.12v-.57c0-.18.04-.36.13-.52L10.01,3.6c.39-.75,1.6-.75,1.99,0l5.26,10.07c-2.05,1.15-3.62,3.05-4.33,5.32H4.12Zm17.63,10c-4,0-7.25-3.25-7.25-7.25s3.25-7.25,7.25-7.25,7.25,3.25,7.25,7.25-3.25,7.25-7.25,7.25Z"/>
  <path d="m19.08,19.17c-.39-.39-1.02-.39-1.41,0l-1.88,1.88c-.39.39-.39,1.02,0,1.41l1.88,1.88c.2.2.45.29.71.29s.51-.1.71-.29c.39-.39.39-1.02,0-1.41l-1.17-1.17,1.17-1.17c.39-.39.39-1.02,0-1.41Z"/>
  <path d="m27.71,21.04l-1.88-1.88c-.39-.39-1.02-.39-1.41,0s-.39,1.02,0,1.41l1.17,1.17-1.17,1.17c-.39.39-.39,1.02,0,1.41.2.2.45.29.71.29s.51-.1.71-.29l1.88-1.88c.39-.39.39-1.02,0-1.41Z"/>
  <path d="m22.74,17.78c-.53-.13-1.08.19-1.21.73l-1.5,6c-.13.54.19,1.08.73,1.21.08.02.16.03.24.03.45,0,.86-.3.97-.76l1.5-6c.13-.54-.19-1.08-.73-1.21Z"/>
</svg>