<?xml version="1.0" encoding="UTF-8"?>
<svg id="OBJECT" xmlns="http://www.w3.org/2000/svg" viewBox="0 0 32 32">
  <path d="m16,23c.55,0,1-.45,1-1v-8c0-.55-.45-1-1-1s-1,.45-1,1v8c0,.55.45,1,1,1Z"/>
  <path d="m20,22c.55,0,1-.45,1-1v-6c0-.55-.45-1-1-1s-1,.45-1,1v6c0,.55.45,1,1,1Z"/>
  <path d="m12,22c.55,0,1-.45,1-1v-6c0-.55-.45-1-1-1s-1,.45-1,1v6c0,.55.45,1,1,1Z"/>
  <path d="m27,5h-7v-3c0-.55-.45-1-1-1h-6c-.55,0-1,.45-1,1v3h-7c-.55,0-1,.45-1,1v4c0,.55.45,1,1,1h1.09l1.91,19.1c.05.51.48.9,1,.9h14c.51,0,.94-.39,1-.9l1.91-19.1h1.09c.55,0,1-.45,1-1v-4c0-.55-.45-1-1-1Zm-13-2h4v2h-4v-2Zm-4.1,26l-.2-2h12.59l-.2,2h-12.19Zm12.59-4h-12.99l-1.4-14h15.79l-1.4,14Zm3.5-16H6v-2h20v2Z"/>
</svg>