<?xml version="1.0" encoding="UTF-8"?>
<svg id="OBJECT" xmlns="http://www.w3.org/2000/svg" viewBox="0 0 32 32">
  <path d="m30,1H2c-.55,0-1,.45-1,1v28c0,.55.45,1,1,1h28c.55,0,1-.45,1-1V2c0-.55-.45-1-1-1Zm-1,2v4H3V3h26ZM3,29V9h26v20H3Z"/>
  <path d="m21,6h1c.55,0,1-.45,1-1s-.45-1-1-1h-1c-.55,0-1,.45-1,1s.45,1,1,1Z"/>
  <path d="m26,6h1c.55,0,1-.45,1-1s-.45-1-1-1h-1c-.55,0-1,.45-1,1s.45,1,1,1Z"/>
  <path d="m21.5,24h-11.36c-.55,0-1,.45-1,1s.45,1,1,1h11.36c.55,0,1-.45,1-1s-.45-1-1-1Z"/>
  <path d="m6.5,24h-1c-.55,0-1,.45-1,1s.45,1,1,1h1c.55,0,1-.45,1-1s-.45-1-1-1Z"/>
  <path d="m26.5,24h-1c-.55,0-1,.45-1,1s.45,1,1,1h1c.55,0,1-.45,1-1s-.45-1-1-1Z"/>
  <path d="m11.5,22h1c1.38,0,2.5-1.12,2.5-2.5v-5c0-1.38-1.12-2.5-2.5-2.5h-1c-1.38,0-2.5,1.12-2.5,2.5v5c0,1.38,1.12,2.5,2.5,2.5Zm-.5-7.5c0-.28.22-.5.5-.5h1c.28,0,.5.22.5.5v5c0,.28-.22.5-.5.5h-1c-.28,0-.5-.22-.5-.5v-5Z"/>
  <path d="m6,22c.55,0,1-.45,1-1v-8c0-.55-.45-1-1-1s-1,.45-1,1v8c0,.55.45,1,1,1Z"/>
  <path d="m27,19.5v-5c0-1.38-1.12-2.5-2.5-2.5h-1c-1.38,0-2.5,1.12-2.5,2.5v5c0,1.38,1.12,2.5,2.5,2.5h1c1.38,0,2.5-1.12,2.5-2.5Zm-4,0v-5c0-.28.22-.5.5-.5h1c.28,0,.5.22.5.5v5c0,.28-.22.5-.5.5h-1c-.28,0-.5-.22-.5-.5Z"/>
  <path d="m18,22c.55,0,1-.45,1-1v-8c0-.55-.45-1-1-1s-1,.45-1,1v8c0,.55.45,1,1,1Z"/>
</svg>