<?xml version="1.0" encoding="UTF-8"?>
<svg id="OBJECT" xmlns="http://www.w3.org/2000/svg" viewBox="0 0 32 32">
  <path d="m30,1H2c-.55,0-1,.45-1,1v28c0,.55.45,1,1,1h28c.55,0,1-.45,1-1V2c0-.55-.45-1-1-1Zm-1,2v4H3V3h26ZM3,9h7v20H3V9Zm9,20V9h17v20H12Z"/>
  <path d="m5.5,13h2c.55,0,1-.45,1-1s-.45-1-1-1h-2c-.55,0-1,.45-1,1s.45,1,1,1Z"/>
  <path d="m7.5,15.67h-2c-.55,0-1,.45-1,1s.45,1,1,1h2c.55,0,1-.45,1-1s-.45-1-1-1Z"/>
  <path d="m7.5,20.33h-2c-.55,0-1,.45-1,1s.45,1,1,1h2c.55,0,1-.45,1-1s-.45-1-1-1Z"/>
  <path d="m7.5,25h-2c-.55,0-1,.45-1,1s.45,1,1,1h2c.55,0,1-.45,1-1s-.45-1-1-1Z"/>
  <path d="m21,6h1c.55,0,1-.45,1-1s-.45-1-1-1h-1c-.55,0-1,.45-1,1s.45,1,1,1Z"/>
  <path d="m26,6h1c.55,0,1-.45,1-1s-.45-1-1-1h-1c-.55,0-1,.45-1,1s.45,1,1,1Z"/>
  <path d="m26,21h-7c-.55,0-1,.45-1,1s.45,1,1,1h7c.55,0,1-.45,1-1s-.45-1-1-1Z"/>
  <path d="m15,23h.5c.55,0,1-.45,1-1s-.45-1-1-1h-.5c-.55,0-1,.45-1,1s.45,1,1,1Z"/>
  <path d="m26,25h-11c-.55,0-1,.45-1,1s.45,1,1,1h11c.55,0,1-.45,1-1s-.45-1-1-1Z"/>
  <path d="m16.27,17.6c.19.18.44.28.69.28.26,0,.53-.1.72-.31.38-.4.37-1.03-.03-1.41l-1.21-1.15,1.21-1.15c.4-.38.41-1.01.03-1.41-.38-.4-1.02-.41-1.41-.03l-1.96,1.88c-.2.19-.31.45-.31.72s.11.53.31.72l1.96,1.88Z"/>
  <path d="m24.73,12.4c-.4-.38-1.03-.37-1.41.03-.38.4-.37,1.03.03,1.41l1.21,1.15-1.21,1.15c-.4.38-.41,1.01-.03,1.41.2.21.46.31.72.31.25,0,.5-.09.69-.28l1.96-1.88c.2-.19.31-.45.31-.72s-.11-.53-.31-.72l-1.96-1.88Z"/>
  <path d="m19.46,18.97c.08.02.17.03.25.03.44,0,.85-.3.97-.75l1.57-6c.14-.53-.18-1.08-.71-1.22-.53-.14-1.08.18-1.22.71l-1.57,6c-.14.53.18,1.08.71,1.22Z"/>
</svg>