<?xml version="1.0" encoding="UTF-8"?>
<svg id="OBJECT" xmlns="http://www.w3.org/2000/svg" viewBox="0 0 32 32">
  <path d="m27,1H7c-1.65,0-3,1.35-3,3v24.5c0,1.38,1.12,2.5,2.5,2.5h20.5c.55,0,1-.45,1-1V2c0-.55-.45-1-1-1ZM6,4c0-.55.45-1,1-1h1v20h-1.5c-.17,0-.34.02-.5.05V4Zm20,22h-13c-.55,0-1,.45-1,1s.45,1,1,1h13v1H6.5c-.28,0-.5-.22-.5-.5v-3c0-.28.22-.5.5-.5h19.5v1Zm0-3H10V3h16v20Z"/>
  <path d="m13.75,11.73c.2.2.46.3.72.3s.5-.09.7-.28c.4-.38.41-1.02.02-1.41l-1.29-1.34,1.29-1.34c.38-.4.37-1.03-.02-1.41-.4-.38-1.03-.37-1.41.02l-1.96,2.03c-.38.39-.38,1,0,1.39l1.96,2.03Z"/>
  <path d="m20.84,11.75c.19.19.44.28.7.28s.52-.1.72-.3l1.96-2.03c.38-.39.38-1,0-1.39l-1.96-2.03c-.38-.4-1.02-.41-1.41-.02-.4.38-.41,1.02-.02,1.41l1.29,1.34-1.29,1.34c-.38.4-.37,1.03.02,1.41Z"/>
  <path d="m16.98,13.22c.08.02.16.03.24.03.45,0,.86-.31.97-.77l1.57-6.5c.13-.54-.2-1.08-.74-1.21-.54-.13-1.08.2-1.21.74l-1.57,6.5c-.13.54.2,1.08.74,1.21Z"/>
  <path d="m17,17.25h6c.55,0,1-.45,1-1s-.45-1-1-1h-6c-.55,0-1,.45-1,1s.45,1,1,1Z"/>
  <path d="m13,17.25h.5c.55,0,1-.45,1-1s-.45-1-1-1h-.5c-.55,0-1,.45-1,1s.45,1,1,1Z"/>
  <path d="m23,19.25h-10c-.55,0-1,.45-1,1s.45,1,1,1h10c.55,0,1-.45,1-1s-.45-1-1-1Z"/>
  <path d="m9,28h1c.55,0,1-.45,1-1s-.45-1-1-1h-1c-.55,0-1,.45-1,1s.45,1,1,1Z"/>
</svg>