<?xml version="1.0" encoding="UTF-8"?>
<svg id="OBJECT" xmlns="http://www.w3.org/2000/svg" viewBox="0 0 32 32">
  <path d="m30,15h-3v-2.5h2c.55,0,1-.45,1-1s-.45-1-1-1h-2v-1.55c0-.27-.11-.52-.29-.71l-2.95-2.95c-.19-.19-.44-.29-.71-.29h-1.55v-2c0-.55-.45-1-1-1s-1,.45-1,1v2h-2.5v-3c0-.55-.45-1-1-1s-1,.45-1,1v3h-2.5v-2c0-.55-.45-1-1-1s-1,.45-1,1v2h-1.55c-.27,0-.52.11-.71.29l-2.95,2.95c-.19.19-.29.44-.29.71v1.55h-2c-.55,0-1,.45-1,1s.45,1,1,1h2v2.5h-3c-.55,0-1,.45-1,1s.45,1,1,1h3v2.5h-2c-.55,0-1,.45-1,1s.45,1,1,1h2v1.55c0,.27.11.52.29.71l2.95,2.95c.19.19.44.29.71.29h1.55v2c0,.55.45,1,1,1s1-.45,1-1v-2h2.5v3c0,.55.45,1,1,1s1-.45,1-1v-3h2.5v2c0,.55.45,1,1,1s1-.45,1-1v-2h1.55c.27,0,.52-.11.71-.29l2.95-2.95c.19-.19.29-.44.29-.71v-1.55h2c.55,0,1-.45,1-1s-.45-1-1-1h-2v-2.5h3c.55,0,1-.45,1-1s-.45-1-1-1Zm-5,7.64l-2.36,2.36h-13.27l-2.36-2.36v-13.27l2.36-2.36h13.27l2.36,2.36v13.27Z"/>
  <path d="m21,8.5h-10c-1.38,0-2.5,1.12-2.5,2.5v10c0,1.38,1.12,2.5,2.5,2.5h10c1.38,0,2.5-1.12,2.5-2.5v-10c0-1.38-1.12-2.5-2.5-2.5Zm-5,5.5c.55,0,1,.45,1,1s-.45,1-1,1-1-.45-1-1,.45-1,1-1Zm5.5,7c0,.28-.22.5-.5.5h-10c-.28,0-.5-.22-.5-.5v-10c0-.28.22-.5.5-.5h4v1.68c-1.16.41-2,1.51-2,2.82,0,1.65,1.35,3,3,3s3-1.35,3-3c0-1.3-.84-2.4-2-2.82v-1.68h4c.28,0,.5.22.5.5v10Z"/>
  <path d="m19.5,18.5h-.5c-.55,0-1,.45-1,1s.45,1,1,1h.5c.55,0,1-.45,1-1s-.45-1-1-1Z"/>
  <path d="m13,18.5h-.5c-.55,0-1,.45-1,1s.45,1,1,1h.5c.55,0,1-.45,1-1s-.45-1-1-1Z"/>
</svg>