<?xml version="1.0" encoding="UTF-8"?>
<svg id="OBJECT" xmlns="http://www.w3.org/2000/svg" viewBox="0 0 32 32">
  <path d="m18.13,20.07c-.41-.37-1.04-.33-1.41.08l-1.96,2.19c-.34.38-.34.96,0,1.34l1.96,2.19c.2.22.47.33.74.33.24,0,.48-.08.67-.26.41-.37.45-1,.08-1.41l-1.36-1.52,1.36-1.52c.37-.41.33-1.04-.08-1.41Z"/>
  <path d="m25.28,20.14c-.37-.41-1-.45-1.41-.08-.41.37-.45,1-.08,1.41l1.36,1.52-1.36,1.52c-.37.41-.33,1.04.08,1.41.19.17.43.26.67.26.27,0,.55-.11.74-.33l1.96-2.19c.34-.38.34-.96,0-1.34l-1.96-2.19Z"/>
  <path d="m22,18.52c-.54-.12-1.07.22-1.19.76l-1.57,7c-.12.54.22,1.07.76,1.19.07.02.15.02.22.02.46,0,.87-.32.97-.78l1.57-7c.12-.54-.22-1.07-.76-1.19Z"/>
  <path d="m28.5,15h-9.61l7.25-7.25c.55-.55.85-1.28.85-2.06s-.3-1.51-.85-2.06l-1.8-1.8c-1.1-1.1-3.02-1.1-4.12,0L3.51,18.54c-.77.77-1.14,1.82-1.02,2.9l.26,2.36-1.46,1.46c-.39.39-.39,1.02,0,1.41.2.2.45.29.71.29s.51-.1.71-.29l1.46-1.46,2.36.26h0c.13.01.26.02.4.02.94,0,1.83-.37,2.51-1.04l1.57-1.57v5.61c0,1.38,1.12,2.5,2.5,2.5h15c1.38,0,2.5-1.12,2.5-2.5v-11c0-1.38-1.12-2.5-2.5-2.5Zm-6.86-11.76c.34-.35.94-.35,1.29,0l1.8,1.8c.17.17.27.4.27.65s-.09.47-.27.64l-1.55,1.55-3.09-3.09,1.55-1.55Zm-13.62,19.81c-.33.33-.8.5-1.27.44l-2.04-.23-.23-2.04c-.05-.47.11-.93.44-1.27l1.46-1.46c1.55.35,2.75,1.54,3.09,3.09l-1.46,1.46Zm-.05-6.14l10.71-10.71,3.09,3.09-10.71,10.71c-.61-1.39-1.71-2.48-3.09-3.09Zm21.03,11.59c0,.28-.22.5-.5.5h-15c-.28,0-.5-.22-.5-.5v-7.61l3.89-3.89h11.61c.28,0,.5.22.5.5v11Z"/>
</svg>