<?xml version="1.0" encoding="UTF-8"?>
<svg id="OBJECT" xmlns="http://www.w3.org/2000/svg" viewBox="0 0 32 32">
  <path d="m28.5,1h-15c-1.38,0-2.5,1.12-2.5,2.5v7.5H3.5c-1.38,0-2.5,1.12-2.5,2.5v15c0,1.38,1.12,2.5,2.5,2.5h21c1.38,0,2.5-1.12,2.5-2.5v-12.5h1.5c1.38,0,2.5-1.12,2.5-2.5V3.5c0-1.38-1.12-2.5-2.5-2.5Zm-3.5,27.5c0,.28-.22.5-.5.5H3.5c-.28,0-.5-.22-.5-.5v-15c0-.28.22-.5.5-.5h7.5v.5c0,1.38,1.12,2.5,2.5,2.5h11.5v12.5Zm4-15c0,.28-.22.5-.5.5h-15c-.28,0-.5-.22-.5-.5V3.5c0-.28.22-.5.5-.5h15c.28,0,.5.22.5.5v10Z"/>
  <path d="m18.16,5.75c-.4-.38-1.03-.38-1.41.02l-1.96,2.03c-.38.39-.38,1,0,1.39l1.96,2.03c.2.2.46.3.72.3s.5-.09.7-.28c.4-.38.41-1.02.02-1.41l-1.29-1.34,1.29-1.34c.38-.4.37-1.03-.02-1.41Z"/>
  <path d="m25.25,5.77c-.38-.4-1.02-.41-1.41-.02-.4.38-.41,1.02-.02,1.41l1.29,1.34-1.29,1.34c-.38.4-.37,1.03.02,1.41.19.19.44.28.7.28s.52-.1.72-.3l1.96-2.03c.38-.39.38-1,0-1.39l-1.96-2.03Z"/>
  <path d="m22.02,4.28c-.54-.13-1.08.2-1.21.74l-1.57,6.5c-.13.54.2,1.08.74,1.21.08.02.16.03.24.03.45,0,.86-.31.97-.76l1.57-6.5c.13-.54-.2-1.08-.74-1.21Z"/>
  <path d="m5.15,17.72c-.29.47-.15,1.09.32,1.38l3,1.88-2.1,2.06c-.39.39-.4,1.02-.01,1.41.2.2.45.3.71.3s.51-.1.7-.29l2.44-2.4,3.25,2.03c.16.1.35.15.53.15s.37-.05.53-.15l3.25-2.03,2.44,2.4c.19.19.45.29.7.29s.52-.1.71-.3c.39-.39.38-1.03-.01-1.41l-2.1-2.06,3-1.88c.47-.29.61-.91.32-1.38-.29-.47-.91-.61-1.38-.32l-7.47,4.67-7.47-4.67c-.47-.29-1.09-.15-1.38.32Z"/>
</svg>