<?xml version="1.0" encoding="UTF-8"?>
<svg id="OBJECT" xmlns="http://www.w3.org/2000/svg" viewBox="0 0 32 32">
  <path d="m14.64,16.78c.26,0,.53-.1.73-.31.38-.4.36-1.03-.04-1.41l-1.38-1.31,1.38-1.31c.4-.38.42-1.01.04-1.41-.38-.4-1.01-.42-1.41-.04l-2.14,2.03c-.2.19-.31.45-.31.73s.11.54.31.73l2.14,2.03c.19.18.44.27.69.27Z"/>
  <path d="m22.05,10.99c-.4-.38-1.04-.36-1.41.04-.38.4-.36,1.03.04,1.41l1.38,1.31-1.38,1.31c-.4.38-.42,1.01-.04,1.41.2.21.46.31.73.31.25,0,.49-.09.69-.27l2.14-2.03c.2-.19.31-.45.31-.73s-.11-.54-.31-.73l-2.14-2.03Z"/>
  <path d="m19.11,9.53c-.53-.14-1.08.18-1.22.71l-1.71,6.5c-.14.53.18,1.08.71,1.22.08.02.17.03.26.03.44,0,.85-.3.97-.75l1.71-6.5c.14-.53-.18-1.08-.71-1.22Z"/>
  <path d="m16,20h-2c-.55,0-1,.45-1,1s.45,1,1,1h2c.55,0,1-.45,1-1s-.45-1-1-1Z"/>
  <path d="m22,20h-2c-.55,0-1,.45-1,1s.45,1,1,1h2c.55,0,1-.45,1-1s-.45-1-1-1Z"/>
  <path d="m27.71,6.29l-5-5c-.19-.19-.44-.29-.71-.29h-13c-.55,0-1,.45-1,1v3h-3c-.55,0-1,.45-1,1v24c0,.55.45,1,1,1h18c.55,0,1-.45,1-1v-3h3c.55,0,1-.45,1-1V7c0-.27-.11-.52-.29-.71Zm-4.71-1.88l1.59,1.59h-1.59v-1.59Zm-1,24.59H6V7h2v19c0,.55.45,1,1,1h13v2Zm-12-4V3h11v4c0,.55.45,1,1,1h4v17H10Z"/>
</svg>