<?xml version="1.0" encoding="UTF-8"?>
<svg id="OBJECT" xmlns="http://www.w3.org/2000/svg" viewBox="0 0 32 32">
  <path d="m30,5h-15.38l-1.72-3.45c-.17-.34-.52-.55-.89-.55H2c-.55,0-1,.45-1,1v16c0,.55.45,1,1,1h4.2c-.13.65-.2,1.32-.2,2,0,5.51,4.49,10,10,10s10-4.49,10-10c0-.68-.07-1.35-.2-2h4.2c.55,0,1-.45,1-1V6c0-.55-.45-1-1-1Zm-14,24c-4.41,0-8-3.59-8-8s3.59-8,8-8,8,3.59,8,8-3.59,8-8,8Zm13-12h-3.84c-1.55-3.53-5.07-6-9.16-6s-7.61,2.47-9.16,6h-3.84V3h8.38l1,2h-3.38c-.55,0-1,.45-1,1s.45,1,1,1h20v10Z"/>
  <path d="m13.16,18.25c-.4-.38-1.03-.37-1.41.02l-1.96,2.03c-.38.39-.38,1,0,1.39l1.96,2.03c.2.2.46.3.72.3s.5-.09.7-.28c.4-.38.41-1.02.02-1.41l-1.29-1.34,1.29-1.34c.38-.4.37-1.03-.02-1.41Z"/>
  <path d="m18.84,18.25c-.4.38-.41,1.02-.02,1.41l1.29,1.34-1.29,1.34c-.38.4-.37,1.03.02,1.41.19.19.45.28.7.28s.52-.1.72-.3l1.96-2.03c.38-.39.38-1,0-1.39l-1.96-2.03c-.38-.4-1.02-.41-1.41-.02Z"/>
  <path d="m17.02,16.78c-.53-.13-1.08.2-1.21.74l-1.57,6.5c-.13.54.2,1.08.74,1.21.08.02.16.03.24.03.45,0,.86-.31.97-.76l1.57-6.5c.13-.54-.2-1.08-.74-1.21Z"/>
  <path d="m22,10h1c.55,0,1-.45,1-1s-.45-1-1-1h-1c-.55,0-1,.45-1,1s.45,1,1,1Z"/>
  <path d="m26,10h1c.55,0,1-.45,1-1s-.45-1-1-1h-1c-.55,0-1,.45-1,1s.45,1,1,1Z"/>
</svg>