<?xml version="1.0" encoding="UTF-8"?>
<svg id="OBJECT" xmlns="http://www.w3.org/2000/svg" viewBox="0 0 32 32">
  <path d="m25.5,16h-.5v-6c0-4.96-4.04-9-9-9S7,5.04,7,10v6h-.5c-1.38,0-2.5,1.12-2.5,2.5v10c0,1.38,1.12,2.5,2.5,2.5h19c1.38,0,2.5-1.12,2.5-2.5v-10c0-1.38-1.12-2.5-2.5-2.5Zm-16.5-6c0-3.86,3.14-7,7-7s7,3.14,7,7v6h-1.5v-6c0-3.03-2.47-5.5-5.5-5.5s-5.5,2.47-5.5,5.5v6h-1.5v-6Zm10.5,6h-7v-6c0-1.93,1.57-3.5,3.5-3.5s3.5,1.57,3.5,3.5v6Zm6.5,12.5c0,.28-.22.5-.5.5H6.5c-.28,0-.5-.22-.5-.5v-10c0-.28.22-.5.5-.5h19c.28,0,.5.22.5.5v10Z"/>
  <path d="m12.16,20.75c-.4-.38-1.03-.38-1.41.02l-1.96,2.03c-.38.39-.38,1,0,1.39l1.96,2.03c.2.2.46.3.72.3s.5-.09.7-.28c.4-.38.41-1.02.02-1.41l-1.29-1.34,1.29-1.34c.38-.4.37-1.03-.02-1.41Z"/>
  <path d="m21.25,20.77c-.38-.4-1.02-.41-1.41-.02s-.41,1.02-.02,1.41l1.29,1.34-1.29,1.34c-.38.4-.37,1.03.02,1.41.19.19.44.28.7.28s.52-.1.72-.3l1.96-2.03c.38-.39.38-1,0-1.39l-1.96-2.03Z"/>
  <path d="m17.02,19.28c-.53-.13-1.08.2-1.21.74l-1.57,6.5c-.13.54.2,1.08.74,1.21.08.02.16.03.24.03.45,0,.86-.31.97-.76l1.57-6.5c.13-.54-.2-1.08-.74-1.21Z"/>
</svg>