<?xml version="1.0" encoding="UTF-8"?>
<svg id="OBJECT" xmlns="http://www.w3.org/2000/svg" viewBox="0 0 32 32">
  <path d="m12.52,13.18c.26,0,.51-.1.71-.29.39-.39.39-1.02,0-1.41l-1.23-1.23,1.23-1.23c.39-.39.39-1.02,0-1.41s-1.02-.39-1.41,0l-1.93,1.93c-.39.39-.39,1.02,0,1.41l1.93,1.93c.2.2.45.29.71.29Z"/>
  <path d="m18.77,12.89c.2.2.45.29.71.29s.51-.1.71-.29l1.93-1.93c.39-.39.39-1.02,0-1.41l-1.93-1.93c-.39-.39-1.02-.39-1.41,0s-.39,1.02,0,1.41l1.23,1.23-1.23,1.23c-.39.39-.39,1.02,0,1.41Z"/>
  <path d="m14.98,14.31c.08.02.16.03.24.03.45,0,.86-.3.97-.76l1.55-6.19c.13-.54-.19-1.08-.73-1.21-.54-.14-1.08.19-1.21.73l-1.55,6.19c-.13.54.19,1.08.73,1.21Z"/>
  <path d="m10.5,21h-1c-.55,0-1,.45-1,1s.45,1,1,1h1c.55,0,1-.45,1-1s-.45-1-1-1Z"/>
  <path d="m17.5,21h-3c-.55,0-1,.45-1,1s.45,1,1,1h3c.55,0,1-.45,1-1s-.45-1-1-1Z"/>
  <path d="m22.5,21h-1c-.55,0-1,.45-1,1s.45,1,1,1h1c.55,0,1-.45,1-1s-.45-1-1-1Z"/>
  <path d="m28,19.5h2c.55,0,1-.45,1-1v-3.5c0-.55-.45-1-1-1h-5.55c.51-1.15.8-2.41.8-3.75,0-5.1-4.15-9.25-9.25-9.25S6.75,5.15,6.75,10.25c0,1.34.29,2.6.8,3.75H2c-.55,0-1,.45-1,1v3.5c0,.55.45,1,1,1h2c.55,0,1,.45,1,1s-.45,1-1,1h-2c-.55,0-1,.45-1,1v3.5c0,.55.45,1,1,1h1v3c0,.55.45,1,1,1h24c.55,0,1-.45,1-1v-3h1c.55,0,1-.45,1-1v-3.5c0-.55-.45-1-1-1h-2c-.55,0-1-.45-1-1s.45-1,1-1ZM16,3c4,0,7.25,3.25,7.25,7.25s-3.25,7.25-7.25,7.25-7.25-3.25-7.25-7.25,3.25-7.25,7.25-7.25ZM5,27h2v2h-2v-2Zm18,0v2h-3v-2h3Zm-5,2h-4v-2h4v2Zm-6,0h-3v-2h3v2Zm15,0h-2v-2h2v2Zm1-5.5h1v1.5H3v-1.5h1c1.65,0,3-1.35,3-3s-1.35-3-3-3h-1v-1.5h5.77c1.7,2.13,4.31,3.5,7.23,3.5s5.54-1.37,7.23-3.5h5.77v1.5h-1c-1.65,0-3,1.35-3,3s1.35,3,3,3Z"/>
</svg>