<?xml version="1.0" encoding="UTF-8"?>
<svg id="OBJECT" xmlns="http://www.w3.org/2000/svg" viewBox="0 0 32 32">
  <path d="m8.36,21.29c-.27-.27-.66-.36-1.03-.24-1.32.44-2.58,1.24-3.64,2.3-1.92,1.92-2.94,4.51-2.64,6.74.06.45.41.8.86.86.25.03.51.05.78.05,2.04,0,4.26-.99,5.96-2.69,1.06-1.06,1.85-2.32,2.3-3.64.12-.36.03-.76-.24-1.03l-2.35-2.35Zm-1.13,5.6c-1.25,1.25-2.8,2-4.23,2.1.1-1.43.86-2.98,2.1-4.23.69-.69,1.47-1.23,2.3-1.6l1.42,1.43c-.37.83-.91,1.61-1.6,2.3Z"/>
  <path d="m25.6,22.49l-.85.85-1.24-3.73c.2-.19.4-.37.59-.56,4.92-4.92,7.51-11.45,6.77-17.06-.06-.45-.41-.8-.86-.86-5.61-.73-12.15,1.86-17.06,6.77-.19.19-.37.39-.56.59l-3.73-1.24.85-.85c.39-.39.39-1.02,0-1.41s-1.02-.39-1.41,0L1.73,11.35c-.39.39-.39,1.02,0,1.41.2.2.45.29.71.29s.51-.1.71-.29l.64-.64,4.3,2.58c-.4.83-.74,1.67-1.03,2.53-.12.36-.03.76.24,1.03l6.45,6.45c.19.19.45.29.71.29.11,0,.21-.02.32-.05.85-.29,1.7-.63,2.53-1.03l2.58,4.3-.64.64c-.39.39-.39,1.02,0,1.41.2.2.45.29.71.29s.51-.1.71-.29l6.37-6.36c.39-.39.39-1.02,0-1.41s-1.02-.39-1.41,0ZM5.25,10.67l1.84-1.84,3.89,1.3c-.72.9-1.36,1.85-1.93,2.82l-3.79-2.28Zm9.47,12.18l-5.56-5.56c.28-.74.6-1.48.97-2.2l6.79,6.79c-.72.37-1.46.7-2.2.97Zm-3.55-9.55c.9-1.41,1.98-2.75,3.21-3.98,4.25-4.25,9.76-6.61,14.6-6.28.33,4.83-2.03,10.35-6.28,14.6-1.23,1.23-2.57,2.3-3.98,3.21l-7.54-7.54Zm10.17,13.46l-2.28-3.79c.97-.57,1.92-1.22,2.82-1.94l1.3,3.89-1.84,1.84Z"/>
  <path d="m24.5,12c0-2.48-2.02-4.5-4.5-4.5s-4.5,2.02-4.5,4.5,2.02,4.5,4.5,4.5,4.5-2.02,4.5-4.5Zm-4.5,2.5c-1.38,0-2.5-1.12-2.5-2.5s1.12-2.5,2.5-2.5,2.5,1.12,2.5,2.5-1.12,2.5-2.5,2.5Z"/>
</svg>