<?xml version="1.0" encoding="UTF-8"?>
<svg id="OBJECT" xmlns="http://www.w3.org/2000/svg" viewBox="0 0 32 32">
  <path d="m11,8h1c.55,0,1-.45,1-1s-.45-1-1-1h-1c-.55,0-1,.45-1,1s.45,1,1,1Z"/>
  <path d="m15,23.5h6c.55,0,1-.45,1-1s-.45-1-1-1h-6c-.55,0-1,.45-1,1s.45,1,1,1Z"/>
  <path d="m11,23.5h.5c.55,0,1-.45,1-1s-.45-1-1-1h-.5c-.55,0-1,.45-1,1s.45,1,1,1Z"/>
  <path d="m21,25.5h-10c-.55,0-1,.45-1,1s.45,1,1,1h10c.55,0,1-.45,1-1s-.45-1-1-1Z"/>
  <path d="m24,5h-5c-.55,0-1,.45-1,1s.45,1,1,1h5c.55,0,1-.45,1-1s-.45-1-1-1Z"/>
  <path d="m24,8h-5c-.55,0-1,.45-1,1s.45,1,1,1h5c.55,0,1-.45,1-1s-.45-1-1-1Z"/>
  <path d="m30.12,4.71l-2.83-2.83c-.57-.57-1.32-.88-2.12-.88H4c-1.65,0-3,1.35-3,3v24c0,1.65,1.35,3,3,3h24c1.65,0,3-1.35,3-3V6.83c0-.8-.31-1.56-.88-2.12Zm-21.12-1.71h5v6c0,.55-.45,1-1,1h-3c-.55,0-1-.45-1-1V3Zm15,15H8v-1.5c0-.28.22-.5.5-.5h15c.28,0,.5.22.5.5v1.5Zm-16,2h16v9H8v-9Zm21,8c0,.55-.45,1-1,1h-2v-12.5c0-1.38-1.12-2.5-2.5-2.5h-15c-1.38,0-2.5,1.12-2.5,2.5v12.5h-2c-.55,0-1-.45-1-1V4c0-.55.45-1,1-1h3v6c0,1.65,1.35,3,3,3h3c1.65,0,3-1.35,3-3V3h9.17c.27,0,.52.1.71.29l2.83,2.83c.19.19.29.44.29.71v21.17Z"/>
</svg>