<svg xmlns="http://www.w3.org/2000/svg" width="128" height="128" viewBox="0 0 128 128">
  <title>Analysis</title>
  <g>
    <g>
      <path d="M14,17H114a8,8,0,0,1,8,8v77a9,9,0,0,1-9,9H15a9,9,0,0,1-9-9V25a8,8,0,0,1,8-8Z" fill="#e1f7ff"/>
      <path d="M114,17H14a8,8,0,0,0-8,8V38.433H122V25A8,8,0,0,0,114,17Z" fill="#0081d0"/>
      <circle cx="21.57" cy="27.717" r="4" fill="#f37249"/>
      <circle cx="37.626" cy="27.717" r="4" fill="#ffcc5b"/>
      <path d="M122,25a8,8,0,0,0-8-8H60.262L50.124,38.433H122Z" fill="#a4def7"/>
      <path d="M112.267,29.466H67.522a1.75,1.75,0,0,1,0-3.5h44.745a1.75,1.75,0,0,1,0,3.5Z" fill="#59b7e8"/>
    </g>
    <path d="M21.778,100.466a1.749,1.749,0,0,1-1.75-1.75v-48a1.75,1.75,0,0,1,3.5,0v48A1.75,1.75,0,0,1,21.778,100.466Z" fill="#0081d0"/>
    <rect x="31.44" y="60" width="11.273" height="38.717" fill="#f37249"/>
    <rect x="50.727" y="69" width="11.273" height="29.717" fill="#ffcc5b"/>
    <g>
      <path d="M109.685,59.216h-29a1.75,1.75,0,0,1,0-3.5h29a1.75,1.75,0,0,1,0,3.5Z" fill="#59b7e8"/>
      <path d="M109.685,70.716h-29a1.75,1.75,0,0,1,0-3.5h29a1.75,1.75,0,0,1,0,3.5Z" fill="#59b7e8"/>
      <path d="M109.685,82.216h-29a1.75,1.75,0,0,1,0-3.5h29a1.75,1.75,0,0,1,0,3.5Z" fill="#59b7e8"/>
      <path d="M109.685,93.716h-29a1.75,1.75,0,0,1,0-3.5h29a1.75,1.75,0,0,1,0,3.5Z" fill="#59b7e8"/>
    </g>
    <path d="M68,100.466H14.916a1.75,1.75,0,1,1,0-3.5H68a1.75,1.75,0,0,1,0,3.5Z" fill="#59b7e8"/>
  </g>
</svg>
