<svg xmlns="http://www.w3.org/2000/svg" width="128" height="128" viewBox="0 0 128 128">
  <title>Bug</title>
  <g>
    <g>
      <path d="M14,17H114a8,8,0,0,1,8,8v77a9,9,0,0,1-9,9H15a9,9,0,0,1-9-9V25A8,8,0,0,1,14,17Z" fill="#e1f7ff"/>
      <path d="M114,17H14a8,8,0,0,0-8,8V38.433H122V25A8,8,0,0,0,114,17Z" fill="#0081d0"/>
      <circle cx="21.57" cy="27.717" r="4" fill="#f37249"/>
      <circle cx="37.626" cy="27.717" r="4" fill="#ffcc5b"/>
      <path d="M122,25a8,8,0,0,0-8-8H60.262L50.124,38.433H122Z" fill="#a4def7"/>
      <path d="M112.267,29.466H67.523a1.75,1.75,0,0,1,0-3.5h44.744a1.75,1.75,0,0,1,0,3.5Z" fill="#59b7e8"/>
    </g>
    <path d="M57.245,56.464a1.781,1.781,0,0,1-.388-.043c-5.538-1.254-7.056-6.7-7.084-9.4A1.749,1.749,0,0,1,51.5,45.253a1.771,1.771,0,0,1,1.769,1.724c0,.224.157,5.079,4.356,6.03a1.75,1.75,0,0,1-.384,3.457Z" fill="#0081d0"/>
    <path d="M70.733,56.448a1.75,1.75,0,0,1-.375-3.459c4.213-.929,4.387-5.8,4.392-6.006a1.75,1.75,0,0,1,3.5.065c-.044,2.7-1.592,8.137-7.138,9.359A1.743,1.743,0,0,1,70.733,56.448Z" fill="#0081d0"/>
    <path d="M49.217,75.908c-9.414,0-12.864-7.646-13.373-11.689a1.75,1.75,0,0,1,3.471-.444c.049.363,1.259,8.633,9.9,8.633a1.75,1.75,0,0,1,0,3.5Z" fill="#0081d0"/>
    <path d="M78.783,75.908a1.75,1.75,0,0,1,0-3.5c8.714,0,9.856-8.274,9.9-8.627a1.75,1.75,0,0,1,3.472.438C91.647,68.262,88.2,75.908,78.783,75.908Z" fill="#0081d0"/>
    <path d="M41.8,103.01c-.038,0-.075,0-.113,0a1.749,1.749,0,0,1-1.636-1.849c.223-3.694,2.74-10.928,10.673-11.861a1.75,1.75,0,0,1,.41,3.476c-6.986.822-7.568,8.285-7.589,8.6A1.755,1.755,0,0,1,41.8,103.01Z" fill="#0081d0"/>
    <path d="M86.2,103.013a1.75,1.75,0,0,1-1.745-1.64c-.022-.334-.612-7.78-7.589-8.6a1.75,1.75,0,0,1,.41-3.476c7.933.933,10.45,8.167,10.673,11.861A1.751,1.751,0,0,1,86.3,103.01Z" fill="#0081d0"/>
    <path d="M49.217,84.8H38.024a1.75,1.75,0,0,1,0-3.5H49.217a1.75,1.75,0,0,1,0,3.5Z" fill="#0081d0"/>
    <path d="M89.976,84.8H78.783a1.75,1.75,0,0,1,0-3.5H89.976a1.75,1.75,0,0,1,0,3.5Z" fill="#0081d0"/>
    <path d="M49.217,62.514V84.123a14.783,14.783,0,0,0,29.566,0V62.514Z" fill="#f37249"/>
    <path d="M64,51.64c-5.36,0-9.7,4.87-9.7,10.87H73.7C73.7,56.51,69.36,51.64,64,51.64Z" fill="#ffcc5b"/>
    <path d="M64,84.8a1.75,1.75,0,0,1-1.75-1.75V62.51a1.75,1.75,0,1,1,3.5,0V83.045A1.75,1.75,0,0,1,64,84.8Z" fill="#ffcc5b"/>
  </g>
</svg>
