<svg xmlns="http://www.w3.org/2000/svg" width="128" height="128" viewBox="0 0 128 128">
  <title>Chat</title>
  <g>
    <g>
      <path d="M14,17H114a8,8,0,0,1,8,8v77a9,9,0,0,1-9,9H15a9,9,0,0,1-9-9V25A8,8,0,0,1,14,17Z" fill="#e1f7ff"/>
      <path d="M114,17H14a8,8,0,0,0-8,8V38.433H122V25A8,8,0,0,0,114,17Z" fill="#0081d0"/>
      <circle cx="21.57" cy="27.717" r="4" fill="#f37249"/>
      <circle cx="37.626" cy="27.717" r="4" fill="#ffcc5b"/>
      <path d="M122,25a8,8,0,0,0-8-8H60.262L50.124,38.433H122Z" fill="#a4def7"/>
      <path d="M112.267,29.466H67.522a1.75,1.75,0,0,1,0-3.5h44.745a1.75,1.75,0,0,1,0,3.5Z" fill="#59b7e8"/>
    </g>
    <polygon points="44.24 48.46 44.24 59.46 83.63 78.74 96.63 78.74 96.63 48.46 44.24 48.46" fill="#59b7e8"/>
    <polygon points="31.24 59.457 31.24 89.744 42.946 89.744 42.946 101.461 57.435 89.744 83.631 89.744 83.631 59.457 31.24 59.457" fill="#a4def7"/>
    <circle cx="57.435" cy="74.6" r="4.01" fill="#f37249"/>
    <path d="M46.956,74.6a4.011,4.011,0,1,0-4.01,4.011A4.011,4.011,0,0,0,46.956,74.6Z" fill="#f37249"/>
    <path d="M75.935,74.6a4.01,4.01,0,1,0-4.01,4.011A4.01,4.01,0,0,0,75.935,74.6Z" fill="#f37249"/>
  </g>
</svg>
