<svg xmlns="http://www.w3.org/2000/svg" width="128" height="128" viewBox="0 0 128 128">
  <title>Checklist</title>
  <g>
    <g>
      <path d="M14,17H114a8,8,0,0,1,8,8v77a9,9,0,0,1-9,9H15a9,9,0,0,1-9-9V25A8,8,0,0,1,14,17Z" fill="#e1f7ff"/>
      <path d="M114,17H14a8,8,0,0,0-8,8V38.433H122V25A8,8,0,0,0,114,17Z" fill="#0081d0"/>
      <circle cx="21.57" cy="27.717" r="4" fill="#f37249"/>
      <circle cx="37.626" cy="27.717" r="4" fill="#ffcc5b"/>
      <path d="M122,25a8,8,0,0,0-8-8H60.262L50.124,38.433H122Z" fill="#a4def7"/>
      <path d="M112.267,29.466H67.523a1.75,1.75,0,0,1,0-3.5h44.744a1.75,1.75,0,0,1,0,3.5Z" fill="#59b7e8"/>
    </g>
    <rect x="21.57" y="48.484" width="19.863" height="19.863" fill="#a4def7"/>
    <path d="M32.841,64.369a1.751,1.751,0,0,1-1.188-.465l-6.1-5.635A1.75,1.75,0,1,1,27.932,55.7L32.586,60l9.168-12.549a1.75,1.75,0,1,1,2.826,2.065L34.254,63.651a1.748,1.748,0,0,1-1.244.71C32.954,64.366,32.9,64.369,32.841,64.369Z" fill="#f37249"/>
    <path d="M106.222,55.166H64a1.75,1.75,0,0,1,0-3.5h42.222a1.75,1.75,0,0,1,0,3.5Z" fill="#59b7e8"/>
    <path d="M106.222,65.166H64a1.75,1.75,0,0,1,0-3.5h42.222a1.75,1.75,0,0,1,0,3.5Z" fill="#59b7e8"/>
    <rect x="21.57" y="81.086" width="19.863" height="19.863" fill="#a4def7"/>
    <path d="M32.841,96.971a1.751,1.751,0,0,1-1.188-.465l-6.1-5.636a1.75,1.75,0,1,1,2.376-2.57l4.654,4.3,9.168-12.549a1.75,1.75,0,0,1,2.826,2.064L34.254,96.253a1.754,1.754,0,0,1-1.244.71C32.954,96.968,32.9,96.971,32.841,96.971Z" fill="#f37249"/>
    <path d="M106.222,87.768H64a1.75,1.75,0,0,1,0-3.5h42.222a1.75,1.75,0,1,1,0,3.5Z" fill="#59b7e8"/>
    <path d="M106.222,97.768H64a1.75,1.75,0,0,1,0-3.5h42.222a1.75,1.75,0,1,1,0,3.5Z" fill="#59b7e8"/>
  </g>
</svg>
