<svg xmlns="http://www.w3.org/2000/svg" width="128" height="128" viewBox="0 0 128 128">
  <title>Cloud Computing</title>
  <g>
    <g>
      <path d="M14,17H114a8,8,0,0,1,8,8v77a9,9,0,0,1-9,9H15a9,9,0,0,1-9-9V25A8,8,0,0,1,14,17Z" fill="#e1f7ff"/>
      <path d="M114,17H14a8,8,0,0,0-8,8V38.433H122V25A8,8,0,0,0,114,17Z" fill="#0081d0"/>
      <circle cx="21.57" cy="27.717" r="4" fill="#f37249"/>
      <circle cx="37.626" cy="27.717" r="4" fill="#ffcc5b"/>
      <path d="M122,25a8,8,0,0,0-8-8H60.262L50.124,38.433H122Z" fill="#a4def7"/>
      <path d="M112.267,29.466H67.522a1.75,1.75,0,0,1,0-3.5h44.745a1.75,1.75,0,0,1,0,3.5Z" fill="#59b7e8"/>
    </g>
    <path d="M64,93.131a1.749,1.749,0,0,1-1.75-1.75V79.929a1.75,1.75,0,0,1,3.5,0V91.381A1.749,1.749,0,0,1,64,93.131Z" fill="#0081d0"/>
    <path d="M59.5,97.631H43.206a1.75,1.75,0,1,1,0-3.5H59.5a1.75,1.75,0,0,1,0,3.5Z" fill="#0081d0"/>
    <path d="M84.794,97.631H68.5a1.75,1.75,0,0,1,0-3.5H84.794a1.75,1.75,0,1,1,0,3.5Z" fill="#0081d0"/>
    <path d="M96.49,79.929a9.01,9.01,0,1,0,0-18.02,8.831,8.831,0,0,0-5.16,1.64c-1.35-8.98-10.88-15.93-22.44-15.93-9.93,0-18.37,5.13-21.4,12.28a9.77,9.77,0,0,0-17.37,6.15v.03a5.02,5.02,0,0,0-.67-.04,6.945,6.945,0,1,0,0,13.89Z" fill="#59b7e8"/>
    <rect x="59.5" y="91.381" width="9" height="9" fill="#f37249"/>
    <circle cx="38.706" cy="95.881" r="4.5" fill="#f37249"/>
    <circle cx="89.294" cy="95.881" r="4.5" fill="#f37249"/>
  </g>
</svg>
