<svg xmlns="http://www.w3.org/2000/svg" width="128" height="128" viewBox="0 0 128 128">
  <title>Cloud Security</title>
  <g>
    <path d="M108.61,49.9a12.588,12.588,0,0,0-7.36,2.38C98.74,38.4,85.78,27.8,70.17,27.8c-12.64,0-23.54,6.949-28.56,16.968-9.762-4.431-19.832,4.047-18.41,12.219a11.013,11.013,0,0,0-5.85-1.679,11.753,11.753,0,0,0,0,23.492h91.26c7.4,0,13.39-6.471,13.39-14.45S116.01,49.9,108.61,49.9Z" fill="#59b7e8"/>
    <path d="M75.81,71.234a1.75,1.75,0,0,1-1.75-1.75v-9.97a10.06,10.06,0,0,0-20.12,0v9.97a1.75,1.75,0,0,1-3.5,0v-9.97a13.56,13.56,0,0,1,27.12,0v9.97A1.75,1.75,0,0,1,75.81,71.234Z" fill="#ffcc5b"/>
    <path d="M47,71.128V97.264c9.4,3.909,24.6,3.909,34,0V71.128C71.6,67.218,56.4,67.218,47,71.128Z" fill="#0081d0"/>
    <circle cx="64" cy="81.196" r="4.733" fill="#f37249"/>
  </g>
</svg>
