<svg xmlns="http://www.w3.org/2000/svg" width="128" height="128" viewBox="0 0 128 128">
  <title>Cloud</title>
  <g>
    <path d="M108.61,49.919a12.588,12.588,0,0,0-7.36,2.38c-2.51-13.887-15.47-24.48-31.08-24.48-12.64,0-23.54,6.948-28.56,16.968-9.762-4.431-19.832,4.047-18.41,12.218a11.021,11.021,0,0,0-5.85-1.678,11.753,11.753,0,0,0,0,23.492h91.26c7.4,0,13.39-6.471,13.39-14.45S116.01,49.919,108.61,49.919Z" fill="#59b7e8"/>
    <path d="M64,55.6A23.167,23.167,0,1,0,87.167,78.765,23.193,23.193,0,0,0,64,55.6Zm0,3.5a19.571,19.571,0,0,1,12.6,4.588L48.922,91.368A19.649,19.649,0,0,1,64,59.1Zm0,39.333a19.574,19.574,0,0,1-12.6-4.589L79.078,66.161A19.65,19.65,0,0,1,64,98.432Z" fill="#f37249"/>
  </g>
</svg>
