<svg xmlns="http://www.w3.org/2000/svg" width="128" height="128" viewBox="0 0 128 128">
  <title>Content</title>
  <g>
    <g>
      <path d="M14,17H114a8,8,0,0,1,8,8v77a9,9,0,0,1-9,9H15a9,9,0,0,1-9-9V25A8,8,0,0,1,14,17Z" fill="#e1f7ff"/>
      <path d="M114,17H14a8,8,0,0,0-8,8V38.433H122V25A8,8,0,0,0,114,17Z" fill="#0081d0"/>
      <circle cx="21.57" cy="27.717" r="4" fill="#f37249"/>
      <circle cx="37.626" cy="27.717" r="4" fill="#ffcc5b"/>
      <path d="M122,25a8,8,0,0,0-8-8H60.262L50.124,38.433H122Z" fill="#a4def7"/>
      <path d="M112.267,29.466H67.522a1.75,1.75,0,0,1,0-3.5h44.745a1.75,1.75,0,0,1,0,3.5Z" fill="#59b7e8"/>
    </g>
    <rect x="17.933" y="52.717" width="34" height="44" fill="#59b7e8"/>
    <rect x="64.067" y="52.717" width="46" height="11" fill="#ffcc5b"/>
    <path d="M110.067,76.466h-46a1.75,1.75,0,1,1,0-3.5h46a1.75,1.75,0,0,1,0,3.5Z" fill="#59b7e8"/>
    <path d="M110.067,87.466h-46a1.75,1.75,0,1,1,0-3.5h46a1.75,1.75,0,0,1,0,3.5Z" fill="#59b7e8"/>
    <path d="M110.067,98.466h-46a1.75,1.75,0,1,1,0-3.5h46a1.75,1.75,0,0,1,0,3.5Z" fill="#59b7e8"/>
    <polygon points="51.933 85.732 29.324 70.352 17.933 81.051 17.933 96.717 51.933 96.717 51.933 85.732" fill="#f37249"/>
    <path d="M45.239,63.6a4.012,4.012,0,1,0-4.012,4.012A4.012,4.012,0,0,0,45.239,63.6Z" fill="#ffcc5b"/>
  </g>
</svg>
