<svg xmlns="http://www.w3.org/2000/svg" width="128" height="128" viewBox="0 0 128 128">
  <title>Database</title>
  <g>
    <g>
      <path d="M14,17H114a8,8,0,0,1,8,8v77a9,9,0,0,1-9,9H15a9,9,0,0,1-9-9V25A8,8,0,0,1,14,17Z" fill="#e1f7ff"/>
      <path d="M114,17H14a8,8,0,0,0-8,8V38.433H122V25A8,8,0,0,0,114,17Z" fill="#0081d0"/>
      <circle cx="21.57" cy="27.717" r="4" fill="#f37249"/>
      <circle cx="37.626" cy="27.717" r="4" fill="#ffcc5b"/>
      <path d="M122,25a8,8,0,0,0-8-8H60.262L50.124,38.433H122Z" fill="#a4def7"/>
      <path d="M112.267,29.466H67.522a1.75,1.75,0,0,1,0-3.5h44.745a1.75,1.75,0,0,1,0,3.5Z" fill="#59b7e8"/>
    </g>
    <path d="M64,92.141a1.75,1.75,0,0,1-1.75-1.75V79.483a1.75,1.75,0,0,1,3.5,0V90.391A1.75,1.75,0,0,1,64,92.141Z" fill="#59b7e8"/>
    <path d="M59.5,96.641H39.561a1.75,1.75,0,1,1,0-3.5H59.5a1.75,1.75,0,1,1,0,3.5Z" fill="#59b7e8"/>
    <path d="M88.438,96.641H68.5a1.75,1.75,0,0,1,0-3.5H88.438a1.75,1.75,0,0,1,0,3.5Z" fill="#59b7e8"/>
    <rect x="42.5" y="50.327" width="43" height="14.578" rx="2.674" fill="#59b7e8"/>
    <path d="M50.856,60.408a2.792,2.792,0,1,1,2.791-2.792A2.8,2.8,0,0,1,50.856,60.408Z" fill="#f37249"/>
    <path d="M59.8,60.408a2.792,2.792,0,1,1,2.791-2.792A2.8,2.8,0,0,1,59.8,60.408Z" fill="#f37249"/>
    <path d="M45.175,64.905H82.826A2.674,2.674,0,0,1,85.5,67.58v9.229a2.674,2.674,0,0,1-2.674,2.674H45.174A2.674,2.674,0,0,1,42.5,76.809V67.58A2.675,2.675,0,0,1,45.175,64.905Z" fill="#a4def7"/>
    <path d="M50.856,74.986a2.792,2.792,0,1,1,2.791-2.792A2.8,2.8,0,0,1,50.856,74.986Z" fill="#f37249"/>
    <path d="M59.8,74.986a2.792,2.792,0,1,1,2.791-2.792A2.8,2.8,0,0,1,59.8,74.986Z" fill="#f37249"/>
    <circle cx="64" cy="94.891" r="4.5" fill="#0081d0"/>
    <circle cx="36.061" cy="94.891" r="3.5" fill="#0081d0"/>
    <circle cx="91.939" cy="94.891" r="3.5" fill="#0081d0"/>
  </g>
</svg>
