<svg xmlns="http://www.w3.org/2000/svg" width="128" height="128" viewBox="0 0 128 128">
  <title>Design Tools</title>
  <g>
    <g>
      <path d="M117.558,63.989c-2.435-18.417-15.546-33.5-33.56-40.033h28.335a1.75,1.75,0,0,0,0-3.5H69.8a1.749,1.749,0,0,0-1.75,1.75c0,.038.009.074.011.112l0,.013a1.749,1.749,0,0,0,1.565,1.917c23.362,2.36,41.646,18.891,44.464,40.2a1.751,1.751,0,0,0,1.733,1.521,1.665,1.665,0,0,0,.232-.016A1.749,1.749,0,0,0,117.558,63.989Z" fill="#0081d0"/>
      <path d="M58.2,20.757H15.667a1.75,1.75,0,1,0,0,3.5H43.216c-17.6,6.7-30.379,21.624-32.774,39.732a1.749,1.749,0,0,0,1.5,1.964,1.655,1.655,0,0,0,.232.016,1.752,1.752,0,0,0,1.733-1.521c2.8-21.165,20.947-37.681,44.134-40.165.042-.005.081-.019.123-.026H58.2a1.75,1.75,0,0,0,0-3.5Z" fill="#0081d0"/>
    </g>
    <polygon points="64 28.006 35.673 70.368 48.405 96.176 64 96.176 79.595 96.176 92.327 70.368 64 28.006" fill="#ffcc5b"/>
    <path d="M79.6,96.176H48.405a19.389,19.389,0,0,0-7.641,15.418H87.236A19.389,19.389,0,0,0,79.6,96.176Z" fill="#0081d0"/>
    <path d="M64,64.284a1.75,1.75,0,0,1-1.75-1.75V28.005a1.75,1.75,0,1,1,3.5,0V62.534A1.75,1.75,0,0,1,64,64.284Z" fill="#0081d0"/>
    <circle cx="64" cy="70.018" r="7.484" transform="translate(-10.235 10.962) rotate(-9.068)" fill="#f37249"/>
    <rect x="58.2" y="16.405" width="11.6" height="11.6" fill="#59b7e8"/>
    <rect x="6" y="64.218" width="11.6" height="11.6" fill="#59b7e8"/>
    <rect x="110.4" y="64.218" width="11.6" height="11.6" fill="#59b7e8"/>
    <path d="M15.667,22.206a4.834,4.834,0,1,1-4.834-4.834A4.833,4.833,0,0,1,15.667,22.206Z" fill="#f37249"/>
    <path d="M122,22.206a4.834,4.834,0,1,1-4.833-4.834A4.833,4.833,0,0,1,122,22.206Z" fill="#f37249"/>
  </g>
</svg>
