<svg xmlns="http://www.w3.org/2000/svg" width="128" height="128" viewBox="0 0 128 128">
  <title>Development</title>
  <g>
    <g>
      <path d="M14,17H114a8,8,0,0,1,8,8v77a9,9,0,0,1-9,9H15a9,9,0,0,1-9-9V25A8,8,0,0,1,14,17Z" fill="#e1f7ff"/>
      <path d="M114,17H14a8,8,0,0,0-8,8V38.433H122V25A8,8,0,0,0,114,17Z" fill="#0081d0"/>
      <circle cx="21.57" cy="27.717" r="4" fill="#f37249"/>
      <circle cx="37.626" cy="27.717" r="4" fill="#ffcc5b"/>
      <path d="M122,25a8,8,0,0,0-8-8H60.262L50.124,38.433H122Z" fill="#a4def7"/>
      <path d="M112.267,29.466H67.522a1.75,1.75,0,0,1,0-3.5h44.745a1.75,1.75,0,0,1,0,3.5Z" fill="#59b7e8"/>
    </g>
    <path d="M62,74.476a20.883,20.883,0,0,0-2.259-9.438l4.668-3.611L59.515,55.1l-4.672,3.613A20.9,20.9,0,0,0,45,53.867V47.976H37v5.891a20.9,20.9,0,0,0-9.843,4.845L22.485,55.1l-4.894,6.328,4.668,3.611a20.845,20.845,0,0,0,0,18.876l-4.668,3.61,4.894,6.328,4.672-3.613A20.908,20.908,0,0,0,37,95.085v5.891h8V95.085a20.908,20.908,0,0,0,9.843-4.846l4.672,3.613,4.894-6.328-4.668-3.61A20.886,20.886,0,0,0,62,74.476Z" fill="#f37249"/>
    <circle cx="41" cy="74.489" r="12" fill="#ffcc5b"/>
    <path d="M111.409,58.989h-33a1.75,1.75,0,0,1,0-3.5h33a1.75,1.75,0,0,1,0,3.5Z" fill="#59b7e8"/>
    <path d="M111.409,70.489h-33a1.75,1.75,0,0,1,0-3.5h33a1.75,1.75,0,1,1,0,3.5Z" fill="#59b7e8"/>
    <path d="M111.409,81.989h-33a1.75,1.75,0,0,1,0-3.5h33a1.75,1.75,0,1,1,0,3.5Z" fill="#59b7e8"/>
    <path d="M111.409,93.489h-33a1.75,1.75,0,0,1,0-3.5h33a1.75,1.75,0,1,1,0,3.5Z" fill="#59b7e8"/>
  </g>
</svg>
