<svg xmlns="http://www.w3.org/2000/svg" width="128" height="128" viewBox="0 0 128 128">
  <title>Domain</title>
  <g>
    <circle cx="64" cy="64" r="48" fill="#a4def7"/>
    <path d="M30.614,98.471a47.958,47.958,0,0,0,66.772,0C88.962,93.2,77.123,89.91,64,89.91S39.038,93.2,30.614,98.471Z" fill="#e1f7ff"/>
    <path d="M30.614,29.529C39.038,34.8,50.877,38.09,64,38.09S88.962,34.8,97.386,29.529a47.958,47.958,0,0,0-66.772,0Z" fill="#e1f7ff"/>
    <ellipse cx="64" cy="64" rx="17.043" ry="48" fill="#59b7e8"/>
    <path d="M49.964,36.784A74.744,74.744,0,0,0,64,38.09a74.744,74.744,0,0,0,14.036-1.306C74.962,24.232,69.824,16,64,16S53.037,24.232,49.964,36.784Z" fill="#a4def7"/>
    <path d="M78.036,91.216a76.078,76.078,0,0,0-28.072,0C53.037,103.768,58.176,112,64,112S74.962,103.768,78.036,91.216Z" fill="#a4def7"/>
    <rect x="4" y="50.168" width="120" height="27.663" fill="#0081d0"/>
    <rect x="92.615" y="50.168" width="31.385" height="27.663" fill="#59b7e8"/>
    <g>
      <path d="M29.453,71.75a1.751,1.751,0,0,1-1.628-1.109L24.733,62.78l-3.091,7.861a1.751,1.751,0,0,1-3.318-.18l-3.279-12a1.75,1.75,0,0,1,3.377-.922l1.89,6.919,2.792-7.1a1.751,1.751,0,0,1,3.258,0l2.792,7.1,1.891-6.919a1.75,1.75,0,0,1,3.377.922l-3.279,12a1.752,1.752,0,0,1-1.594,1.287Z" fill="#e1f7ff"/>
      <path d="M53.027,71.75A1.751,1.751,0,0,1,51.4,70.641L48.308,62.78l-3.092,7.861a1.77,1.77,0,0,1-1.724,1.107A1.752,1.752,0,0,1,41.9,70.461l-3.279-12A1.75,1.75,0,0,1,42,57.539l1.891,6.919,2.792-7.1a1.75,1.75,0,0,1,3.257,0l2.792,7.1,1.891-6.919A1.75,1.75,0,0,1,58,58.461l-3.279,12a1.751,1.751,0,0,1-1.594,1.287Z" fill="#e1f7ff"/>
      <path d="M76.6,71.75a1.75,1.75,0,0,1-1.628-1.109L71.882,62.78,68.79,70.641a1.776,1.776,0,0,1-1.724,1.107,1.75,1.75,0,0,1-1.593-1.287l-3.28-12a1.75,1.75,0,0,1,3.377-.922l1.891,6.919,2.792-7.1a1.751,1.751,0,0,1,3.258,0l2.792,7.1,1.89-6.919a1.75,1.75,0,0,1,3.377.922l-3.279,12A1.751,1.751,0,0,1,76.7,71.748Z" fill="#e1f7ff"/>
    </g>
    <path d="M117,70.35l-4.274-4.274a7.347,7.347,0,1,0-2.475,2.475l4.274,4.274A1.75,1.75,0,1,0,117,70.35Zm-14.352-8.056a3.821,3.821,0,1,1,3.821,3.821A3.826,3.826,0,0,1,102.648,62.294Z" fill="#ffcc5b"/>
  </g>
</svg>
