<svg xmlns="http://www.w3.org/2000/svg" width="128" height="128" viewBox="0 0 128 128">
  <title>Email</title>
  <g>
    <g>
      <path d="M14,17H114a8,8,0,0,1,8,8v77a9,9,0,0,1-9,9H15a9,9,0,0,1-9-9V25A8,8,0,0,1,14,17Z" fill="#e1f7ff"/>
      <path d="M114,17H14a8,8,0,0,0-8,8V38.433H122V25A8,8,0,0,0,114,17Z" fill="#0081d0"/>
      <circle cx="21.57" cy="27.717" r="4" fill="#f37249"/>
      <circle cx="37.626" cy="27.717" r="4" fill="#ffcc5b"/>
      <path d="M122,25a8,8,0,0,0-8-8H60.262L50.124,38.433H122Z" fill="#a4def7"/>
      <path d="M112.267,29.466H67.523a1.75,1.75,0,0,1,0-3.5h44.744a1.75,1.75,0,0,1,0,3.5Z" fill="#59b7e8"/>
    </g>
    <rect x="57.926" y="54.717" width="50" height="40" fill="#59b7e8"/>
    <polygon points="57.926 65.139 82.926 77.166 107.926 65.139 107.926 54.717 57.926 54.717 57.926 65.139" fill="#a4def7"/>
    <g>
      <path d="M45.9,63.466H17.733a1.75,1.75,0,1,1,0-3.5H45.9a1.75,1.75,0,0,1,0,3.5Z" fill="#59b7e8"/>
      <path d="M45.9,76.467H22.733a1.75,1.75,0,0,1,0-3.5H45.9a1.75,1.75,0,1,1,0,3.5Z" fill="#59b7e8"/>
      <path d="M45.9,89.467H27.733a1.75,1.75,0,0,1,0-3.5H45.9a1.75,1.75,0,1,1,0,3.5Z" fill="#59b7e8"/>
    </g>
  </g>
</svg>
