<svg xmlns="http://www.w3.org/2000/svg" width="128" height="128" viewBox="0 0 128 128">
  <title>Error</title>
  <g>
    <g>
      <path d="M14,17H114a8,8,0,0,1,8,8v77a9,9,0,0,1-9,9H15a9,9,0,0,1-9-9V25A8,8,0,0,1,14,17Z" fill="#e1f7ff"/>
      <path d="M114,17H14a8,8,0,0,0-8,8V38.433H122V25A8,8,0,0,0,114,17Z" fill="#0081d0"/>
      <circle cx="21.57" cy="27.717" r="4" fill="#f37249"/>
      <circle cx="37.626" cy="27.717" r="4" fill="#ffcc5b"/>
      <path d="M122,25a8,8,0,0,0-8-8H60.262L50.124,38.433H122Z" fill="#a4def7"/>
      <path d="M112.267,29.466H67.522a1.75,1.75,0,0,1,0-3.5h44.745a1.75,1.75,0,0,1,0,3.5Z" fill="#59b7e8"/>
    </g>
    <g>
      <path d="M44.6,90.743a1.75,1.75,0,0,1-1.75-1.75V80.985H29a1.75,1.75,0,0,1-1.4-2.8L43.2,57.39a1.751,1.751,0,0,1,3.151,1.05V77.485H48.4a1.75,1.75,0,1,1,0,3.5H46.347v8.008A1.751,1.751,0,0,1,44.6,90.743ZM32.5,77.485H42.847V63.69Z" fill="#f37249"/>
      <path d="M95.194,90.743a1.75,1.75,0,0,1-1.75-1.75V80.985H79.6a1.75,1.75,0,0,1-1.4-2.8l15.6-20.795a1.75,1.75,0,0,1,3.15,1.05V77.485H99a1.75,1.75,0,0,1,0,3.5H96.944v8.008A1.75,1.75,0,0,1,95.194,90.743ZM83.1,77.485H93.444V63.69Z" fill="#f37249"/>
      <path d="M64,90.743c-6.681,0-10.067-5.728-10.067-17.027S57.319,56.69,64,56.69s10.067,5.728,10.067,17.026S70.681,90.743,64,90.743ZM64,60.19c-1.624,0-6.567,0-6.567,13.526S62.376,87.243,64,87.243s6.567,0,6.567-13.527S65.624,60.19,64,60.19Z" fill="#f37249"/>
    </g>
  </g>
</svg>
