<svg xmlns="http://www.w3.org/2000/svg" width="128" height="128" viewBox="0 0 128 128">
  <title>Finance</title>
  <g>
    <g>
      <path d="M14,17H114a8,8,0,0,1,8,8v77a9,9,0,0,1-9,9H15a9,9,0,0,1-9-9V25A8,8,0,0,1,14,17Z" fill="#e1f7ff"/>
      <path d="M114,17H14a8,8,0,0,0-8,8V38.433H122V25A8,8,0,0,0,114,17Z" fill="#0081d0"/>
      <circle cx="21.57" cy="27.717" r="4" fill="#f37249"/>
      <circle cx="37.626" cy="27.717" r="4" fill="#ffcc5b"/>
      <path d="M122,25a8,8,0,0,0-8-8H60.262L50.124,38.433H122Z" fill="#a4def7"/>
      <path d="M112.267,29.466H67.523a1.75,1.75,0,0,1,0-3.5h44.744a1.75,1.75,0,0,1,0,3.5Z" fill="#59b7e8"/>
    </g>
    <rect x="17.933" y="52.717" width="33.933" height="44" fill="#a4def7"/>
    <rect x="64" y="52.717" width="46.067" height="11" fill="#f37249"/>
    <path d="M110.067,76.467H64a1.75,1.75,0,1,1,0-3.5h46.067a1.75,1.75,0,0,1,0,3.5Z" fill="#59b7e8"/>
    <path d="M110.067,87.467H64a1.75,1.75,0,1,1,0-3.5h46.067a1.75,1.75,0,0,1,0,3.5Z" fill="#59b7e8"/>
    <path d="M110.067,98.467H64a1.75,1.75,0,1,1,0-3.5h46.067a1.75,1.75,0,0,1,0,3.5Z" fill="#59b7e8"/>
    <path d="M34.9,72.967c-2.575,0-4.75-1.54-4.75-3.363s2.175-3.362,4.75-3.362a5.039,5.039,0,0,1,4.448,2.2,1.75,1.75,0,0,0,3.083-1.658,8.09,8.09,0,0,0-5.781-3.869V60.535a1.75,1.75,0,0,0-3.5,0V62.9c-3.71.67-6.5,3.419-6.5,6.7,0,3.785,3.7,6.863,8.25,6.863,2.575,0,4.75,1.54,4.75,3.362s-2.175,3.362-4.75,3.362a5,5,0,0,1-4.469-2.24,1.749,1.749,0,1,0-3.107,1.609,8.039,8.039,0,0,0,5.826,3.959V88.9a1.75,1.75,0,0,0,3.5,0V86.533c3.71-.67,6.5-3.42,6.5-6.7C43.149,76.045,39.448,72.967,34.9,72.967Z" fill="#f37249"/>
  </g>
</svg>
