<svg xmlns="http://www.w3.org/2000/svg" width="128" height="128" viewBox="0 0 128 128">
  <title>Gallery</title>
  <g>
    <g>
      <path d="M14,17H114a8,8,0,0,1,8,8v77a9,9,0,0,1-9,9H15a9,9,0,0,1-9-9V25A8,8,0,0,1,14,17Z" fill="#e1f7ff"/>
      <path d="M114,17H14a8,8,0,0,0-8,8V38.433H122V25A8,8,0,0,0,114,17Z" fill="#0081d0"/>
      <circle cx="21.57" cy="27.717" r="4" fill="#f37249"/>
      <circle cx="37.626" cy="27.717" r="4" fill="#ffcc5b"/>
      <path d="M122,25a8,8,0,0,0-8-8H60.262L50.124,38.433H122Z" fill="#a4def7"/>
      <path d="M112.267,29.466H67.522a1.75,1.75,0,0,1,0-3.5h44.745a1.75,1.75,0,0,1,0,3.5Z" fill="#59b7e8"/>
    </g>
    <rect x="17.5" y="50.717" width="93" height="37" fill="#59b7e8"/>
    <polygon points="81.155 65.751 62.684 77.867 62.684 87.717 110.5 87.717 81.155 65.751" fill="#a4def7"/>
    <path d="M106.223,100.467H21.777a1.75,1.75,0,0,1,0-3.5h84.446a1.75,1.75,0,0,1,0,3.5Z" fill="#0081d0"/>
    <polygon points="46.037 61.386 17.5 78.412 17.5 87.717 72.632 87.717 46.037 61.386" fill="#f37249"/>
    <circle cx="96.509" cy="61.386" r="4.147" fill="#ffcc5b"/>
  </g>
</svg>
