<svg xmlns="http://www.w3.org/2000/svg" width="128" height="128" viewBox="0 0 128 128">
  <title>Graphic Design</title>
  <g>
    <g>
      <path d="M14,17H114a8,8,0,0,1,8,8v77a9,9,0,0,1-9,9H15a9,9,0,0,1-9-9V25A8,8,0,0,1,14,17Z" fill="#e1f7ff"/>
      <path d="M114,17H14a8,8,0,0,0-8,8V38.433H122V25A8,8,0,0,0,114,17Z" fill="#0081d0"/>
      <circle cx="21.57" cy="27.717" r="4" fill="#f37249"/>
      <circle cx="37.626" cy="27.717" r="4" fill="#ffcc5b"/>
      <path d="M122,25a8,8,0,0,0-8-8H60.262L50.124,38.433H122Z" fill="#a4def7"/>
      <path d="M112.267,29.466H67.522a1.75,1.75,0,0,1,0-3.5h44.745a1.75,1.75,0,0,1,0,3.5Z" fill="#59b7e8"/>
    </g>
    <path d="M64,57.346S55.684,74.12,44.937,79.29c0,0,8.108,11.108,8.108,21.176H74.954c0-10.068,8.109-21.176,8.109-21.176C72.316,74.12,64,57.346,64,57.346Z" fill="#ffcc5b"/>
    <path d="M74.954,100.466H53.045S44.9,100.438,44.937,111H83.063C83.1,100.438,74.954,100.466,74.954,100.466Z" fill="#0081d0"/>
    <path d="M65.75,79.214V57.346a1.75,1.75,0,0,0-3.5,0V79.214a6.052,6.052,0,1,0,3.5,0ZM64,87.557a2.552,2.552,0,1,1,2.552-2.552A2.554,2.554,0,0,1,64,87.557Z" fill="#f37249"/>
    <path d="M103.645,76.083h-3c-2.067-10.5-9.454-19.24-19.564-23.933H99.472a1.75,1.75,0,0,0,0-3.5H69.887a1.75,1.75,0,0,0-1.714-1.4H59.827a1.75,1.75,0,0,0-1.715,1.4H28.528a1.75,1.75,0,0,0,0,3.5H46.921c-10.11,4.693-17.5,13.434-19.564,23.933h-3a1.75,1.75,0,0,0-1.75,1.75v8.346a1.751,1.751,0,0,0,1.75,1.75H32.7a1.751,1.751,0,0,0,1.75-1.75V77.833a1.75,1.75,0,0,0-1.75-1.75H30.938C33.648,63.947,44.409,54.541,58.077,52.4v4.947a1.749,1.749,0,0,0,1.75,1.75h8.346a1.75,1.75,0,0,0,1.75-1.75V52.4c13.668,2.142,24.429,11.547,27.138,23.684H95.3a1.749,1.749,0,0,0-1.75,1.75v8.346a1.75,1.75,0,0,0,1.75,1.75h8.346a1.751,1.751,0,0,0,1.75-1.75V77.833A1.75,1.75,0,0,0,103.645,76.083ZM30.951,84.429H26.105V79.583h4.846ZM66.423,55.6H61.577V50.75h4.846ZM101.9,84.429H97.049V79.583H101.9Z" fill="#0081d0"/>
  </g>
</svg>
