<svg xmlns="http://www.w3.org/2000/svg" width="128" height="128" viewBox="0 0 128 128">
  <title>Home Page</title>
  <g>
    <g>
      <path d="M14,17H114a8,8,0,0,1,8,8v77a9,9,0,0,1-9,9H15a9,9,0,0,1-9-9V25a8,8,0,0,1,8-8Z" fill="#e1f7ff"/>
      <path d="M114,17H14a8,8,0,0,0-8,8V38.433H122V25A8,8,0,0,0,114,17Z" fill="#0081d0"/>
      <circle cx="21.57" cy="27.717" r="4" fill="#f37249"/>
      <circle cx="37.626" cy="27.717" r="4" fill="#ffcc5b"/>
      <path d="M122,25a8,8,0,0,0-8-8H60.262L50.124,38.433H122Z" fill="#a4def7"/>
      <path d="M112.267,29.466H67.522a1.75,1.75,0,0,1,0-3.5h44.745a1.75,1.75,0,0,1,0,3.5Z" fill="#59b7e8"/>
    </g>
    <polygon points="64 48.491 43.5 66.665 50.748 66.665 50.748 84.593 64 84.593 77.252 84.593 77.252 66.665 84.5 66.665 64 48.491" fill="#59b7e8"/>
    <rect x="58.956" y="70.339" width="10.088" height="14.254" fill="#0081d0"/>
    <rect x="30.5" y="91.571" width="67" height="10.858" fill="#ffcc5b"/>
    <rect x="30.5" y="91.571" width="10.858" height="10.858" fill="#f37249"/>
  </g>
</svg>
