<svg xmlns="http://www.w3.org/2000/svg" width="128" height="128" viewBox="0 0 128 128">
  <title>Html</title>
  <g>
    <path d="M14,17H114a8,8,0,0,1,8,8v77a9,9,0,0,1-9,9H15a9,9,0,0,1-9-9V25A8,8,0,0,1,14,17Z" fill="#e1f7ff"/>
    <path d="M114,17H14a8,8,0,0,0-8,8V38.433H122V25A8,8,0,0,0,114,17Z" fill="#0081d0"/>
    <circle cx="21.57" cy="27.717" r="4" fill="#f37249"/>
    <circle cx="37.626" cy="27.717" r="4" fill="#ffcc5b"/>
    <path d="M122,25a8,8,0,0,0-8-8H60.262L50.124,38.433H122Z" fill="#a4def7"/>
    <path d="M112.267,29.466H67.523a1.75,1.75,0,0,1,0-3.5h44.744a1.75,1.75,0,0,1,0,3.5Z" fill="#59b7e8"/>
    <path d="M44.612,85.605a1.742,1.742,0,0,1-1.066-.363L27.933,73.234a1.75,1.75,0,0,1,0-2.774L43.546,58.452a1.75,1.75,0,1,1,2.134,2.774L31.871,71.847,45.68,82.468a1.75,1.75,0,0,1-1.068,3.137Z" fill="#f37249"/>
    <path d="M83.388,85.605a1.75,1.75,0,0,1-1.068-3.137L96.129,71.847,82.32,61.226a1.75,1.75,0,1,1,2.134-2.774L100.067,70.46a1.75,1.75,0,0,1,0,2.774L84.454,85.242A1.742,1.742,0,0,1,83.388,85.605Z" fill="#f37249"/>
    <path d="M55.1,96.467a1.752,1.752,0,0,1-1.6-2.462l17.8-40a1.751,1.751,0,1,1,3.2,1.423l-17.8,40A1.751,1.751,0,0,1,55.1,96.467Z" fill="#0081d0"/>
  </g>
</svg>
