<svg xmlns="http://www.w3.org/2000/svg" width="128" height="128" viewBox="0 0 128 128">
  <title>Idea</title>
  <g>
    <path d="M14,17H114a8,8,0,0,1,8,8v77a9,9,0,0,1-9,9H15a9,9,0,0,1-9-9V25A8,8,0,0,1,14,17Z" fill="#e1f7ff"/>
    <path d="M114,17H14a8,8,0,0,0-8,8V38.433H122V25A8,8,0,0,0,114,17Z" fill="#0081d0"/>
    <circle cx="21.57" cy="27.717" r="4" fill="#f37249"/>
    <circle cx="37.626" cy="27.717" r="4" fill="#ffcc5b"/>
    <path d="M122,25a8,8,0,0,0-8-8H60.262L50.124,38.433H122Z" fill="#a4def7"/>
    <path d="M112.267,29.466H67.522a1.75,1.75,0,0,1,0-3.5h44.745a1.75,1.75,0,0,1,0,3.5Z" fill="#59b7e8"/>
  </g>
  <g>
    <path d="M79.911,74.315A15.911,15.911,0,1,0,57,88.58v7.245a7,7,0,0,0,14,0V88.58A15.883,15.883,0,0,0,79.911,74.315Z" fill="#ffcc5b"/>
    <path d="M69.234,72.385H58.766a1.75,1.75,0,0,0,0,3.5H62.25v18.94a1.75,1.75,0,0,0,3.5,0V75.885h3.484a1.75,1.75,0,0,0,0-3.5Z" fill="#f37249"/>
    <path d="M57,94.825v1a7,7,0,0,0,14,0v-1Z" fill="#0081d0"/>
    <path d="M73,96.575H55a1.75,1.75,0,1,1,0-3.5H73a1.75,1.75,0,0,1,0,3.5Z" fill="#59b7e8"/>
    <path d="M64,54.154a1.75,1.75,0,0,1-1.75-1.75V47.015a1.75,1.75,0,0,1,3.5,0V52.4A1.75,1.75,0,0,1,64,54.154Z" fill="#f37249"/>
    <path d="M37.626,79.55H32.237a1.75,1.75,0,0,1,0-3.5h5.389a1.75,1.75,0,0,1,0,3.5Z" fill="#f37249"/>
    <path d="M95.763,79.55H90.374a1.75,1.75,0,0,1,0-3.5h5.389a1.75,1.75,0,0,1,0,3.5Z" fill="#f37249"/>
    <path d="M41.543,62.412a1.744,1.744,0,0,1-1.031-.336L36.159,58.9a1.75,1.75,0,0,1,2.065-2.827l4.352,3.177a1.75,1.75,0,0,1-1.033,3.164Z" fill="#f37249"/>
    <path d="M86.457,62.412a1.75,1.75,0,0,1-1.033-3.163l4.351-3.178A1.75,1.75,0,0,1,91.84,58.9l-4.352,3.177A1.738,1.738,0,0,1,86.457,62.412Z" fill="#f37249"/>
  </g>
</svg>
