<svg xmlns="http://www.w3.org/2000/svg" width="128" height="128" viewBox="0 0 128 128">
  <title>Image</title>
  <g>
    <g>
      <path d="M14,17H114a8,8,0,0,1,8,8v77a9,9,0,0,1-9,9H15a9,9,0,0,1-9-9V25A8,8,0,0,1,14,17Z" fill="#e1f7ff"/>
      <path d="M114,17H14a8,8,0,0,0-8,8V38.433H122V25A8,8,0,0,0,114,17Z" fill="#0081d0"/>
      <circle cx="21.57" cy="27.717" r="4" fill="#f37249"/>
      <circle cx="37.626" cy="27.717" r="4" fill="#ffcc5b"/>
      <path d="M122,25a8,8,0,0,0-8-8H60.262L50.124,38.433H122Z" fill="#a4def7"/>
      <path d="M112.267,29.466H67.522a1.75,1.75,0,0,1,0-3.5h44.745a1.75,1.75,0,0,1,0,3.5Z" fill="#59b7e8"/>
    </g>
    <rect x="17.933" y="52.717" width="37.933" height="44" fill="#a4def7"/>
    <rect x="72.135" y="52.717" width="37.933" height="44" fill="#a4def7"/>
    <circle cx="30.018" cy="64.231" r="4" fill="#f37249"/>
    <polygon points="55.865 77.682 45.492 68.858 32.854 81.774 26.018 75.124 17.933 83.692 17.933 96.717 55.865 96.717 55.865 77.682" fill="#59b7e8"/>
    <circle cx="84.219" cy="64.231" r="4" fill="#f37249"/>
    <polygon points="110.067 77.682 99.694 68.858 87.056 81.774 80.219 75.124 72.135 83.692 72.135 96.717 110.067 96.717 110.067 77.682" fill="#59b7e8"/>
  </g>
</svg>
