<svg xmlns="http://www.w3.org/2000/svg" width="128" height="128" viewBox="0 0 128 128">
  <title>Internet Speed</title>
  <g>
    <g>
      <path d="M14,17H114a8,8,0,0,1,8,8v77a9,9,0,0,1-9,9H15a9,9,0,0,1-9-9V25A8,8,0,0,1,14,17Z" fill="#e1f7ff"/>
      <path d="M114,17H14a8,8,0,0,0-8,8V38.433H122V25A8,8,0,0,0,114,17Z" fill="#0081d0"/>
      <circle cx="21.57" cy="27.717" r="4" fill="#f37249"/>
      <circle cx="37.626" cy="27.717" r="4" fill="#ffcc5b"/>
      <path d="M122,25a8,8,0,0,0-8-8H60.262L50.124,38.433H122Z" fill="#a4def7"/>
      <path d="M112.267,29.466H67.522a1.75,1.75,0,0,1,0-3.5h44.745a1.75,1.75,0,0,1,0,3.5Z" fill="#59b7e8"/>
    </g>
    <path d="M64,48.31a46,46,0,0,0-46,46h92A46,46,0,0,0,64,48.31Z" fill="#a4def7"/>
    <path d="M61.4,86.42l9.73,3.63c1.44-9.28,3.2-23.45,3.2-23.45S66.39,78.47,61.4,86.42Z" fill="#f37249"/>
    <g>
      <path d="M34.879,58.776l5.407,6.434a1.75,1.75,0,0,0,2.68-2.252L37.64,56.622c-.956.67-1.892,1.368-2.793,2.108C34.859,58.745,34.866,58.762,34.879,58.776Z" fill="#0081d0"/>
      <path d="M64,48.31c-.587,0-1.168.023-1.75.044v9.253a1.75,1.75,0,0,0,3.5,0V48.354C65.168,48.333,64.587,48.31,64,48.31Z" fill="#0081d0"/>
      <path d="M22,79.958l8.115,2.549a1.782,1.782,0,0,0,.526.08,1.75,1.75,0,0,0,.523-3.42l-8.115-2.549a1.75,1.75,0,0,0-1.654.339c-.207.509-.416,1.018-.606,1.537A1.751,1.751,0,0,0,22,79.958Z" fill="#0081d0"/>
      <path d="M95.688,81.361a1.751,1.751,0,0,0,1.669,1.226,1.782,1.782,0,0,0,.526-.08L106,79.958a1.748,1.748,0,0,0,1.21-1.464c-.189-.519-.4-1.029-.606-1.538a1.749,1.749,0,0,0-1.653-.338l-8.115,2.549A1.752,1.752,0,0,0,95.688,81.361Z" fill="#0081d0"/>
      <path d="M86.373,65.834a1.748,1.748,0,0,0,1.341-.624l5.407-6.434c.012-.014.02-.031.032-.046-.9-.74-1.837-1.438-2.793-2.108l-5.326,6.336a1.75,1.75,0,0,0,1.339,2.876Z" fill="#0081d0"/>
    </g>
    <circle cx="64" cy="94.314" r="8.304" transform="translate(-45.042 127.492) rotate(-72.763)" fill="#0081d0"/>
  </g>
</svg>
