<svg xmlns="http://www.w3.org/2000/svg" width="128" height="128" viewBox="0 0 128 128">
  <title>Interaction</title>
  <g>
    <g>
      <path d="M14,10.533H114a8,8,0,0,1,8,8v77a9,9,0,0,1-9,9H15a9,9,0,0,1-9-9v-77A8,8,0,0,1,14,10.533Z" fill="#e1f7ff"/>
      <path d="M114,10.533H14a8,8,0,0,0-8,8V31.966H122V18.533A8,8,0,0,0,114,10.533Z" fill="#0081d0"/>
      <circle cx="21.57" cy="21.25" r="4" fill="#f37249"/>
      <circle cx="37.626" cy="21.25" r="4" fill="#ffcc5b"/>
      <path d="M122,18.533a8,8,0,0,0-8-8H60.262L50.124,31.966H122Z" fill="#a4def7"/>
    </g>
    <path d="M69.738,75.243a4.546,4.546,0,1,0-8.37,3.553L54.63,62.923a4.91,4.91,0,1,0-9.039,3.837L54.4,87.51h0a8.231,8.231,0,0,0-5.278,8.511c.293,4.018,3.262,8.533,5.54,11.346,6.953,8.583,16.647,13.433,30.773,7.54,9.5-3.963,14.418-15.261,9.828-26.075L86.554,68.317a4.68,4.68,0,0,0-5.619-2.743,4.546,4.546,0,0,0-2.827,6.116,4.546,4.546,0,0,0-8.37,3.553" fill="#ffcc5b"/>
    <path d="M39.053,71.255a1.75,1.75,0,0,1-1.612-1.066A13.752,13.752,0,0,1,62.759,59.442a1.75,1.75,0,0,1-3.223,1.367,10.252,10.252,0,0,0-18.874,8.012,1.75,1.75,0,0,1-1.609,2.434Z" fill="#0081d0"/>
    <path d="M32.523,74.027a1.751,1.751,0,0,1-1.612-1.067A20.846,20.846,0,0,1,69.288,56.67a1.751,1.751,0,0,1-3.223,1.369A17.344,17.344,0,1,0,34.134,71.593a1.752,1.752,0,0,1-1.611,2.434Z" fill="#0081d0"/>
  </g>
</svg>
