<svg xmlns="http://www.w3.org/2000/svg" width="128" height="128" viewBox="0 0 128 128">
  <title>Launch</title>
  <g>
    <g>
      <path d="M14,11.13H114a8,8,0,0,1,8,8v77a9,9,0,0,1-9,9H15a9,9,0,0,1-9-9v-77A8,8,0,0,1,14,11.13Z" fill="#e1f7ff"/>
      <path d="M114,11.13H14a8,8,0,0,0-8,8V32.563H122V19.13A8,8,0,0,0,114,11.13Z" fill="#0081d0"/>
      <circle cx="21.57" cy="21.847" r="4" fill="#f37249"/>
      <circle cx="37.626" cy="21.847" r="4" fill="#ffcc5b"/>
      <path d="M122,19.13a8,8,0,0,0-8-8H60.262L50.124,32.563H122Z" fill="#a4def7"/>
    </g>
    <polygon points="46.584 82.187 33.5 103.767 37.61 111.62 51.827 104.546 46.584 82.187" fill="#0081d0"/>
    <polygon points="81.416 82.187 76.173 104.546 90.39 111.62 94.5 103.767 81.416 82.187" fill="#0081d0"/>
    <path d="M64,43.379c-13.752,4.945-25.689,32.682-10.341,65.365H74.341C89.689,76.061,77.752,48.324,64,43.379Z" fill="#a4def7"/>
    <polygon points="64 108.744 55.904 108.744 57.714 117.05 64 117.05 70.286 117.05 72.096 108.744 64 108.744" fill="#f37249"/>
    <path d="M78.037,59.218C74.75,51.034,69.523,45.365,64,43.379c-5.536,1.99-10.773,7.679-14.059,15.892H77.879Z" fill="#f37249"/>
    <circle cx="64" cy="77.197" r="6.5" fill="#59b7e8"/>
  </g>
</svg>
