<svg xmlns="http://www.w3.org/2000/svg" width="128" height="128" viewBox="0 0 128 128">
  <title>Login</title>
  <g>
    <g>
      <path d="M14,17H114a8,8,0,0,1,8,8v77a9,9,0,0,1-9,9H15a9,9,0,0,1-9-9V25A8,8,0,0,1,14,17Z" fill="#e1f7ff"/>
      <path d="M114,17H14a8,8,0,0,0-8,8V38.433H122V25A8,8,0,0,0,114,17Z" fill="#0081d0"/>
      <circle cx="21.57" cy="27.717" r="4" fill="#f37249"/>
      <circle cx="37.626" cy="27.717" r="4" fill="#ffcc5b"/>
      <path d="M122,25a8,8,0,0,0-8-8H60.262L50.124,38.433H122Z" fill="#a4def7"/>
      <path d="M112.267,29.466H67.523a1.75,1.75,0,0,1,0-3.5h44.744a1.75,1.75,0,0,1,0,3.5Z" fill="#59b7e8"/>
    </g>
    <circle cx="64" cy="65.019" r="18" fill="#a4def7"/>
    <path d="M69.092,58.792A5.092,5.092,0,1,0,64,63.883,5.092,5.092,0,0,0,69.092,58.792Z" fill="#f37249"/>
    <path d="M64,69.65c-5.928,0-11.1,2.828-13.737,6.986a17.973,17.973,0,0,0,27.474,0C75.1,72.478,69.928,69.65,64,69.65Z" fill="#f37249"/>
    <rect x="32.5" y="91.003" width="63" height="10.858" fill="#a4def7"/>
    <rect x="32.5" y="91.003" width="10.858" height="10.858" fill="#0081d0"/>
  </g>
</svg>
