<svg xmlns="http://www.w3.org/2000/svg" width="128" height="128" viewBox="0 0 128 128">
  <title>Online Document</title>
  <g>
    <g>
      <path d="M14,12.835H114a8,8,0,0,1,8,8v77a9,9,0,0,1-9,9H15a9,9,0,0,1-9-9v-77A8,8,0,0,1,14,12.835Z" fill="#e1f7ff"/>
      <path d="M114,12.835H14a8,8,0,0,0-8,8V34.268H122V20.835A8,8,0,0,0,114,12.835Z" fill="#0081d0"/>
      <circle cx="21.57" cy="23.551" r="4" fill="#f37249"/>
      <circle cx="37.626" cy="23.551" r="4" fill="#ffcc5b"/>
      <path d="M122,20.835a8,8,0,0,0-8-8H60.262L50.124,34.268H122Z" fill="#a4def7"/>
    </g>
    <polygon points="88.34 68.135 88.34 115.165 39.66 115.165 39.66 53.035 73.24 53.035 88.34 68.135" fill="#a4def7"/>
    <polygon points="88.34 68.135 73.24 68.135 73.24 53.035 88.34 68.135" fill="#f37249"/>
    <path d="M78.185,87.7H49.815a1.75,1.75,0,0,1,0-3.5h28.37a1.75,1.75,0,0,1,0,3.5Z" fill="#59b7e8"/>
    <path d="M78.185,97.567H49.815a1.75,1.75,0,0,1,0-3.5h28.37a1.75,1.75,0,0,1,0,3.5Z" fill="#59b7e8"/>
    <path d="M78.185,107.433H49.815a1.75,1.75,0,1,1,0-3.5h28.37a1.75,1.75,0,0,1,0,3.5Z" fill="#59b7e8"/>
  </g>
</svg>
