<svg xmlns="http://www.w3.org/2000/svg" width="128" height="128" viewBox="0 0 128 128">
  <title>Password</title>
  <g>
    <g>
      <path d="M14,17H114a8,8,0,0,1,8,8v77a9,9,0,0,1-9,9H15a9,9,0,0,1-9-9V25A8,8,0,0,1,14,17Z" fill="#e1f7ff"/>
      <path d="M114,17H14a8,8,0,0,0-8,8V38.433H122V25A8,8,0,0,0,114,17Z" fill="#0081d0"/>
      <circle cx="21.57" cy="27.717" r="4" fill="#f37249"/>
      <circle cx="37.626" cy="27.717" r="4" fill="#ffcc5b"/>
      <path d="M122,25a8,8,0,0,0-8-8H60.262L50.124,38.433H122Z" fill="#a4def7"/>
      <path d="M112.267,29.466H67.523a1.75,1.75,0,0,1,0-3.5h44.744a1.75,1.75,0,0,1,0,3.5Z" fill="#59b7e8"/>
    </g>
    <rect x="30" y="81.253" width="68" height="20" fill="#a4def7"/>
    <path d="M70.86,61.44a1.751,1.751,0,0,1-1.75-1.75V55.35a5.11,5.11,0,0,0-10.22,0v4.34a1.75,1.75,0,0,1-3.5,0V55.35a8.61,8.61,0,0,1,17.22,0v4.34A1.751,1.751,0,0,1,70.86,61.44Z" fill="#59b7e8"/>
    <g>
      <path d="M49.994,87.531a1.751,1.751,0,0,0-2.433-.457l-1.262.863v-.684a1.75,1.75,0,0,0-3.5,0v.684l-1.262-.863a1.75,1.75,0,0,0-1.976,2.89l1.887,1.29-1.887,1.289a1.75,1.75,0,0,0,1.976,2.89L42.8,94.57v.683a1.75,1.75,0,0,0,3.5,0V94.57l1.262.863a1.75,1.75,0,1,0,1.976-2.89L47.65,91.254l1.887-1.29A1.75,1.75,0,0,0,49.994,87.531Z" fill="#f37249"/>
      <path d="M69.445,87.531a1.751,1.751,0,0,0-2.433-.457l-1.262.863v-.684a1.75,1.75,0,1,0-3.5,0v.684l-1.262-.863a1.75,1.75,0,0,0-1.976,2.89l1.887,1.29-1.887,1.289a1.75,1.75,0,0,0,1.976,2.89l1.262-.863v.683a1.75,1.75,0,0,0,3.5,0V94.57l1.262.863a1.75,1.75,0,1,0,1.976-2.89L67.1,91.254l1.887-1.29A1.751,1.751,0,0,0,69.445,87.531Z" fill="#f37249"/>
      <path d="M88.439,92.543l-1.887-1.289,1.887-1.29a1.75,1.75,0,0,0-1.976-2.89l-1.262.863v-.684a1.75,1.75,0,0,0-3.5,0v.684l-1.262-.863a1.75,1.75,0,0,0-1.976,2.89l1.887,1.29-1.887,1.289a1.75,1.75,0,0,0,1.976,2.89L81.7,94.57v.683a1.75,1.75,0,1,0,3.5,0V94.57l1.262.863a1.75,1.75,0,0,0,1.976-2.89Z" fill="#f37249"/>
    </g>
    <path d="M53.254,59.694H74.746a0,0,0,0,1,0,0v7.18a6.477,6.477,0,0,1-6.477,6.477H59.731a6.477,6.477,0,0,1-6.477-6.477v-7.18A0,0,0,0,1,53.254,59.694Z" fill="#0081d0"/>
  </g>
</svg>
