<svg xmlns="http://www.w3.org/2000/svg" width="128" height="128" viewBox="0 0 128 128">
  <title>Personal Website</title>
  <g>
    <g>
      <path d="M14,17H114a8,8,0,0,1,8,8v77a9,9,0,0,1-9,9H15a9,9,0,0,1-9-9V25a8,8,0,0,1,8-8Z" fill="#e1f7ff"/>
      <path d="M114,17H14a8,8,0,0,0-8,8V38.433H122V25A8,8,0,0,0,114,17Z" fill="#0081d0"/>
      <circle cx="21.57" cy="27.717" r="4" fill="#f37249"/>
      <circle cx="37.626" cy="27.717" r="4" fill="#ffcc5b"/>
      <path d="M122,25a8,8,0,0,0-8-8H60.262L50.124,38.433H122Z" fill="#a4def7"/>
      <path d="M112.267,29.466H67.522a1.75,1.75,0,0,1,0-3.5h44.745a1.75,1.75,0,0,1,0,3.5Z" fill="#59b7e8"/>
    </g>
    <rect x="17.933" y="52.717" width="33.933" height="44" fill="#a4def7"/>
    <rect x="64" y="52.717" width="46.067" height="11" fill="#f37249"/>
    <path d="M110.067,76.467H64a1.75,1.75,0,1,1,0-3.5h46.067a1.75,1.75,0,0,1,0,3.5Z" fill="#59b7e8"/>
    <path d="M110.067,87.467H64a1.75,1.75,0,1,1,0-3.5h46.067a1.75,1.75,0,0,1,0,3.5Z" fill="#59b7e8"/>
    <path d="M110.067,98.467H64a1.75,1.75,0,1,1,0-3.5h46.067a1.75,1.75,0,0,1,0,3.5Z" fill="#59b7e8"/>
    <circle cx="34.899" cy="66.731" r="6.727" fill="#59b7e8"/>
    <path d="M34.9,81.69c-6.88,0-13.01,2.23-16.97,5.72l0,9.307H51.865l0-9.307C47.91,83.92,41.78,81.69,34.9,81.69Z" fill="#59b7e8"/>
  </g>
</svg>
