<svg xmlns="http://www.w3.org/2000/svg" width="128" height="128" viewBox="0 0 128 128">
  <title>Pipette</title>
  <g>
    <path d="M73.131,23.362,39.725,56.767a12.737,12.737,0,0,0-2.438,14.58L31.424,77.21A4.156,4.156,0,0,0,37.3,83.087l5.862-5.862a12.737,12.737,0,0,0,14.58-2.439L91.15,41.38Z" fill="#a4def7"/>
    <path d="M97.249,30.35a25.483,25.483,0,0,0,4.791-3.775c6.372-6.372,8.38-14.694,4.485-18.589S94.308,6.1,87.937,12.472a25.531,25.531,0,0,0-3.776,4.791c-6.65-5.484-12.026-6.987-18.07-.942L82.14,32.371l16.05,16.05C104.235,42.376,102.733,37,97.249,30.35Z" fill="#0081d0"/>
    <path d="M64.69,67.841,60.484,36.008h0L39.725,56.767a12.737,12.737,0,0,0-2.438,14.58L31.424,77.21A4.156,4.156,0,0,0,37.3,83.087l5.862-5.862a12.737,12.737,0,0,0,14.58-2.439l6.946-6.945Z" fill="#f37249"/>
    <path d="M38.822,112.333c0-6.048-9.667-17.622-9.667-17.622s-9.667,11.574-9.667,17.622a9.667,9.667,0,0,0,19.334,0Z" fill="#f37249"/>
  </g>
</svg>
