<svg xmlns="http://www.w3.org/2000/svg" width="128" height="128" viewBox="0 0 128 128">
  <title>Programming</title>
  <g>
    <g>
      <path d="M55.837,84.1a1.722,1.722,0,0,1-.71-.152,1.748,1.748,0,0,1-.888-2.309L70.563,44.942a1.75,1.75,0,0,1,3.2,1.422L57.436,83.058A1.749,1.749,0,0,1,55.837,84.1Z" fill="#0081d0"/>
      <path d="M49.322,74.133a1.735,1.735,0,0,1-1.065-.363L33.934,62.754a1.748,1.748,0,0,1,0-2.774L48.257,48.965a1.749,1.749,0,1,1,2.133,2.773L37.87,61.367,50.39,71a1.75,1.75,0,0,1-1.068,3.137Z" fill="#0081d0"/>
      <path d="M78.678,74.133A1.75,1.75,0,0,1,77.61,71l12.52-9.629L77.61,51.738a1.749,1.749,0,0,1,2.133-2.773L94.066,59.98a1.748,1.748,0,0,1,0,2.774L79.743,73.77A1.735,1.735,0,0,1,78.678,74.133Z" fill="#0081d0"/>
    </g>
    <path d="M114,64a49.981,49.981,0,0,0-2.242-14.848l11.3-8.87-8.987-15.564-13.349,5.355A49.927,49.927,0,0,0,74.661,15.151L72.986,4H55.014L53.339,15.151A49.927,49.927,0,0,0,27.283,30.073l-13.35-5.355L4.947,40.282l11.3,8.87a50.288,50.288,0,0,0,0,29.7l-11.3,8.87,8.986,15.564,13.35-5.355a49.927,49.927,0,0,0,26.056,14.922L55.014,124H72.986l1.675-11.151a49.927,49.927,0,0,0,26.056-14.922l13.349,5.355,8.987-15.564-11.3-8.87A49.981,49.981,0,0,0,114,64ZM64,102a38,38,0,1,1,38-38A38,38,0,0,1,64,102Z" fill="#f37249"/>
  </g>
</svg>
