<svg xmlns="http://www.w3.org/2000/svg" width="128" height="128" viewBox="0 0 128 128">
  <title>Refresh</title>
  <g>
    <g>
      <path d="M14,17H114a8,8,0,0,1,8,8v77a9,9,0,0,1-9,9H15a9,9,0,0,1-9-9V25A8,8,0,0,1,14,17Z" fill="#e1f7ff"/>
      <path d="M114,17H14a8,8,0,0,0-8,8V38.433H122V25A8,8,0,0,0,114,17Z" fill="#0081d0"/>
      <circle cx="21.57" cy="27.717" r="4" fill="#f37249"/>
      <circle cx="37.626" cy="27.717" r="4" fill="#ffcc5b"/>
      <path d="M122,25a8,8,0,0,0-8-8H60.262L50.124,38.433H122Z" fill="#a4def7"/>
      <path d="M112.267,29.466H67.523a1.75,1.75,0,0,1,0-3.5h44.744a1.75,1.75,0,0,1,0,3.5Z" fill="#59b7e8"/>
    </g>
    <path d="M87.3,80.521A1.751,1.751,0,0,0,85.1,81.64a22.19,22.19,0,0,1-40.472,3.878l6.247,2.655a1.749,1.749,0,1,0,1.369-3.22l-10.3-4.379a1.75,1.75,0,0,0-2.41,1.315L37.746,92.315a1.751,1.751,0,0,0,1.429,2.021,1.771,1.771,0,0,0,.3.025A1.751,1.751,0,0,0,41.2,92.906L42.037,88A25.675,25.675,0,0,0,88.422,82.73,1.752,1.752,0,0,0,87.3,80.521Z" fill="#f37249"/>
    <path d="M89.207,54.819A1.751,1.751,0,0,0,87.152,56.2l-1.066,5.417a25.677,25.677,0,0,0-46.492,5.1A1.75,1.75,0,1,0,42.92,67.8a22.187,22.187,0,0,1,40.365-4.06l-6.153-2.818a1.75,1.75,0,1,0-1.457,3.183L86.03,68.847a1.75,1.75,0,0,0,2.446-1.254l2.11-10.719A1.75,1.75,0,0,0,89.207,54.819Z" fill="#0081d0"/>
  </g>
</svg>
