<svg xmlns="http://www.w3.org/2000/svg" width="128" height="128" viewBox="0 0 128 128">
  <title>Search</title>
  <g>
    <g>
      <path d="M14,17H114a8,8,0,0,1,8,8v77a9,9,0,0,1-9,9H15a9,9,0,0,1-9-9V25A8,8,0,0,1,14,17Z" fill="#e1f7ff"/>
      <path d="M114,17H14a8,8,0,0,0-8,8V38.433H122V25A8,8,0,0,0,114,17Z" fill="#0081d0"/>
      <circle cx="21.57" cy="27.717" r="4" fill="#f37249"/>
      <circle cx="37.626" cy="27.717" r="4" fill="#ffcc5b"/>
      <path d="M122,25a8,8,0,0,0-8-8H60.262L50.124,38.433H122Z" fill="#a4def7"/>
      <path d="M112.267,29.466H67.522a1.75,1.75,0,0,1,0-3.5h44.745a1.75,1.75,0,0,1,0,3.5Z" fill="#59b7e8"/>
    </g>
    <path d="M73.367,86.117A1.743,1.743,0,0,1,72.13,85.6l-7.757-7.756a1.75,1.75,0,0,1,2.475-2.475L74.6,83.129a1.751,1.751,0,0,1-1.237,2.988Z" fill="#0081d0"/>
    <circle cx="53.353" cy="64.353" r="17.353" fill="#59b7e8"/>
    <path d="M44.9,72.577a1.748,1.748,0,0,1-1.4-.7,11.754,11.754,0,0,1-.172-13.848,1.75,1.75,0,1,1,2.852,2.03,8.25,8.25,0,0,0,.121,9.718,1.751,1.751,0,0,1-1.4,2.8Z" fill="#e1f7ff"/>
    <path d="M83.169,101.485l-13.46-13.46,7.316-7.316,13.46,13.46a5.174,5.174,0,0,1,0,7.316h0A5.174,5.174,0,0,1,83.169,101.485Z" fill="#f37249"/>
  </g>
</svg>
