<svg xmlns="http://www.w3.org/2000/svg" width="128" height="128" viewBox="0 0 128 128">
  <title>Setting</title>
  <g>
    <g>
      <path d="M14,17H114a8,8,0,0,1,8,8v77a9,9,0,0,1-9,9H15a9,9,0,0,1-9-9V25A8,8,0,0,1,14,17Z" fill="#e1f7ff"/>
      <path d="M114,17H14a8,8,0,0,0-8,8V38.433H122V25A8,8,0,0,0,114,17Z" fill="#0081d0"/>
      <circle cx="21.57" cy="27.717" r="4" fill="#f37249"/>
      <circle cx="37.626" cy="27.717" r="4" fill="#ffcc5b"/>
      <path d="M122,25a8,8,0,0,0-8-8H60.262L50.124,38.433H122Z" fill="#a4def7"/>
      <path d="M112.267,29.466H67.522a1.75,1.75,0,0,1,0-3.5h44.745a1.75,1.75,0,0,1,0,3.5Z" fill="#59b7e8"/>
    </g>
    <path d="M109.2,82.86l-7.85-9.8-10.81,6.7A40.843,40.843,0,0,0,71.8,70.75L70.28,58.13H57.72L56.2,70.75a40.843,40.843,0,0,0-18.74,9.01l-10.81-6.7-7.85,9.8,8.9,9.07A40.922,40.922,0,0,0,23,111h82a40.922,40.922,0,0,0-4.7-19.07Z" fill="#f37249"/>
    <path d="M64,85.66A25.333,25.333,0,0,0,38.66,111H89.34A25.333,25.333,0,0,0,64,85.66Z" fill="#ffcc5b"/>
  </g>
</svg>
