<svg xmlns="http://www.w3.org/2000/svg" width="128" height="128" viewBox="0 0 128 128">
  <title>Startup</title>
  <g>
    <polygon points="48.028 84.412 50.926 96.181 77.074 96.181 79.972 84.412 64 77.936 48.028 84.412" fill="#0081d0"/>
    <path d="M72.6,96.181c1.005,1.421,1.459,3.411,1.459,6.107C74.049,111.709,69.015,122,64,122s-10.049-10.291-10.059-19.712c0-2.7.454-4.686,1.459-6.107" fill="#f37249"/>
    <g>
      <polygon points="20.518 95.505 20.522 95.507 20.522 95.492 20.518 95.495 20.518 95.505" fill="#0081d0"/>
      <polygon points="107.478 95.492 107.478 95.507 107.482 95.505 107.482 95.495 107.478 95.492" fill="#0081d0"/>
      <path d="M92.383,60.381H35.617l-15.095,16.5V95.492c4.5-4.077,11.615-7.438,20.327-9.621A96.431,96.431,0,0,1,64,83.175a96.431,96.431,0,0,1,23.151,2.7c8.712,2.183,15.829,5.544,20.327,9.621V76.881Z" fill="#0081d0"/>
    </g>
    <path d="M64,6C47.759,6,35.617,37.355,35.617,60.381a59.514,59.514,0,0,0,5.232,25.49s13.9-2.7,23.151-2.7c10.059,0,23.151,2.7,23.151,2.7a59.514,59.514,0,0,0,5.232-25.49C92.383,37.355,80.241,6,64,6Z" fill="#a4def7"/>
    <path d="M85.954,28.387C80.841,15.761,73.06,6,64,6c-9.1,0-16.916,9.851-22.027,22.563H85.741Z" fill="#f37249"/>
    <circle cx="64" cy="51.936" r="10.629" fill="#e1f7ff"/>
  </g>
</svg>
