<svg xmlns="http://www.w3.org/2000/svg" width="128" height="128" viewBox="0 0 128 128">
  <title>Target</title>
  <g>
    <g>
      <path d="M14,17H114a8,8,0,0,1,8,8v77a9,9,0,0,1-9,9H15a9,9,0,0,1-9-9V25A8,8,0,0,1,14,17Z" fill="#e1f7ff"/>
      <path d="M114,17H14a8,8,0,0,0-8,8V38.433H122V25A8,8,0,0,0,114,17Z" fill="#0081d0"/>
      <circle cx="21.57" cy="27.717" r="4" fill="#f37249"/>
      <circle cx="37.626" cy="27.717" r="4" fill="#ffcc5b"/>
      <path d="M122,25a8,8,0,0,0-8-8H60.262L50.124,38.433H122Z" fill="#a4def7"/>
      <path d="M112.267,29.466H67.522a1.75,1.75,0,0,1,0-3.5h44.745a1.75,1.75,0,0,1,0,3.5Z" fill="#59b7e8"/>
    </g>
    <circle cx="64" cy="74.025" r="21.5" fill="#ffcc5b"/>
    <circle cx="64" cy="74.025" r="11" fill="#f37249"/>
    <path d="M64,69.116a1.749,1.749,0,0,1-1.75-1.75V46.6a1.75,1.75,0,1,1,3.5,0V67.366A1.749,1.749,0,0,1,64,69.116Z" fill="#0081d0"/>
    <path d="M91.425,75.774H70.658a1.75,1.75,0,0,1,0-3.5H91.425a1.75,1.75,0,1,1,0,3.5Z" fill="#0081d0"/>
    <path d="M64,103.2a1.749,1.749,0,0,1-1.75-1.75V80.683a1.75,1.75,0,1,1,3.5,0V101.45A1.749,1.749,0,0,1,64,103.2Z" fill="#0081d0"/>
    <path d="M57.342,75.774H36.574a1.75,1.75,0,0,1,0-3.5H57.342a1.75,1.75,0,0,1,0,3.5Z" fill="#0081d0"/>
  </g>
</svg>
