<svg xmlns="http://www.w3.org/2000/svg" width="128" height="128" viewBox="0 0 128 128">
  <title>Text Tool</title>
  <g>
    <path d="M108.467,14.517h-37.7a1.75,1.75,0,0,1,0-3.5h37.7a1.75,1.75,0,0,1,0,3.5Z" fill="#0081d0"/>
    <path d="M12.767,58.983a1.749,1.749,0,0,1-1.75-1.75v-37.7a1.75,1.75,0,0,1,3.5,0v37.7A1.75,1.75,0,0,1,12.767,58.983Z" fill="#0081d0"/>
    <path d="M57.233,116.983h-37.7a1.75,1.75,0,0,1,0-3.5h37.7a1.75,1.75,0,1,1,0,3.5Z" fill="#0081d0"/>
    <path d="M115.23,110.22a1.751,1.751,0,0,1-1.75-1.75V70.77a1.75,1.75,0,0,1,3.5,0v37.7A1.751,1.751,0,0,1,115.23,110.22Z" fill="#0081d0"/>
    <path d="M115.23,58.98a1.75,1.75,0,0,1-1.75-1.75V19.53a1.75,1.75,0,1,1,3.5,0v37.7A1.75,1.75,0,0,1,115.23,58.98Z" fill="#0081d0"/>
    <path d="M108.467,116.983h-37.7a1.75,1.75,0,0,1,0-3.5h37.7a1.75,1.75,0,0,1,0,3.5Z" fill="#0081d0"/>
    <path d="M12.767,110.217a1.749,1.749,0,0,1-1.75-1.75v-37.7a1.75,1.75,0,0,1,3.5,0v37.7A1.75,1.75,0,0,1,12.767,110.217Z" fill="#0081d0"/>
    <path d="M57.233,14.517h-37.7a1.75,1.75,0,0,1,0-3.5h37.7a1.75,1.75,0,0,1,0,3.5Z" fill="#0081d0"/>
    <rect x="6" y="6" width="13.533" height="13.533" fill="#59b7e8"/>
    <rect x="57.233" y="6" width="13.533" height="13.533" fill="#59b7e8"/>
    <rect x="108.467" y="6" width="13.533" height="13.533" fill="#59b7e8"/>
    <rect x="6" y="108.467" width="13.533" height="13.533" fill="#59b7e8"/>
    <rect x="57.233" y="108.467" width="13.533" height="13.533" fill="#59b7e8"/>
    <rect x="108.467" y="108.467" width="13.533" height="13.533" fill="#59b7e8"/>
    <rect x="6" y="57.233" width="13.533" height="13.533" fill="#59b7e8"/>
    <rect x="108.467" y="57.233" width="13.533" height="13.533" fill="#59b7e8"/>
    <polygon points="64 32 34 32 34 51.58 43.047 42.813 58.513 42.813 58.513 86.21 52.531 96 64 96 75.469 96 69.486 86.21 69.486 42.813 84.953 42.813 94 51.58 94 32 64 32" fill="#f37249"/>
  </g>
</svg>
