<svg xmlns="http://www.w3.org/2000/svg" width="128" height="128" viewBox="0 0 128 128">
  <title>Theme</title>
  <g>
    <g>
      <path d="M14,17H114a8,8,0,0,1,8,8v77a9,9,0,0,1-9,9H15a9,9,0,0,1-9-9V25A8,8,0,0,1,14,17Z" fill="#e1f7ff"/>
      <path d="M114,17H14a8,8,0,0,0-8,8V38.433H122V25A8,8,0,0,0,114,17Z" fill="#0081d0"/>
      <circle cx="21.57" cy="27.717" r="4" fill="#f37249"/>
      <circle cx="37.626" cy="27.717" r="4" fill="#ffcc5b"/>
      <path d="M122,25a8,8,0,0,0-8-8H60.262L50.124,38.433H122Z" fill="#a4def7"/>
      <path d="M112.267,29.466H67.522a1.75,1.75,0,0,1,0-3.5h44.745a1.75,1.75,0,0,1,0,3.5Z" fill="#59b7e8"/>
    </g>
    <path d="M60.5,83.645a1.75,1.75,0,0,1-1.75-1.75V73.409a1.749,1.749,0,0,1,1.6-1.743l32.575-2.86V57.657H86.4a1.75,1.75,0,0,1,0-3.5h8.277a1.749,1.749,0,0,1,1.75,1.75v14.5a1.75,1.75,0,0,1-1.6,1.743L62.251,75.013V81.9A1.75,1.75,0,0,1,60.5,83.645Z" fill="#0081d0"/>
    <rect x="33.327" y="47.598" width="53.068" height="16.618" rx="3.748" fill="#f37249"/>
    <path d="M53.554,81.895H67.447a0,0,0,0,1,0,0V96.4a6,6,0,0,1-6,6H59.554a6,6,0,0,1-6-6V81.895A0,0,0,0,1,53.554,81.895Z" fill="#59b7e8"/>
  </g>
</svg>
