<svg xmlns="http://www.w3.org/2000/svg" width="128" height="128" viewBox="0 0 128 128">
  <title>Tools</title>
  <g>
    <g>
      <path d="M14,17H114a8,8,0,0,1,8,8v77a9,9,0,0,1-9,9H15a9,9,0,0,1-9-9V25A8,8,0,0,1,14,17Z" fill="#e1f7ff"/>
      <path d="M114,17H14a8,8,0,0,0-8,8V38.433H122V25A8,8,0,0,0,114,17Z" fill="#0081d0"/>
      <circle cx="21.57" cy="27.717" r="4" fill="#f37249"/>
      <circle cx="37.626" cy="27.717" r="4" fill="#ffcc5b"/>
      <path d="M122,25a8,8,0,0,0-8-8H60.262L50.124,38.433H122Z" fill="#a4def7"/>
      <path d="M112.267,29.466H67.523a1.75,1.75,0,0,1,0-3.5h44.744a1.75,1.75,0,0,1,0,3.5Z" fill="#59b7e8"/>
    </g>
    <path d="M103.19,111,71.07,78.88l-.01.01A20.5,20.5,0,0,0,43.42,54.16L58.39,69.13s.1,2.81-3.99,6.89-6.9,4-6.9,4L32.53,65.05A20.506,20.506,0,0,0,57.25,92.69l.02-.01-.02.01L75.55,111Z" fill="#a4def7"/>
    <path d="M67.808,86.953a1.75,1.75,0,0,0-2.476,2.475L86.9,111h4.949Z" fill="#59b7e8"/>
  </g>
</svg>
