<svg xmlns="http://www.w3.org/2000/svg" width="128" height="128" viewBox="0 0 128 128">
  <title>User Interface</title>
  <g>
    <g>
      <path d="M14,17H114a8,8,0,0,1,8,8v77a9,9,0,0,1-9,9H15a9,9,0,0,1-9-9V25A8,8,0,0,1,14,17Z" fill="#e1f7ff"/>
      <path d="M114,17H14a8,8,0,0,0-8,8V38.433H122V25A8,8,0,0,0,114,17Z" fill="#0081d0"/>
      <circle cx="21.57" cy="27.717" r="4" fill="#f37249"/>
      <circle cx="37.626" cy="27.717" r="4" fill="#ffcc5b"/>
      <path d="M122,25a8,8,0,0,0-8-8H60.262L50.124,38.433H122Z" fill="#a4def7"/>
      <path d="M112.267,29.466H67.523a1.75,1.75,0,0,1,0-3.5h44.744a1.75,1.75,0,0,1,0,3.5Z" fill="#59b7e8"/>
    </g>
    <g>
      <path d="M65.933,81.967h-48a1.75,1.75,0,0,1,0-3.5h48a1.75,1.75,0,0,1,0,3.5Z" fill="#59b7e8"/>
      <path d="M55.193,92.967H17.933a1.75,1.75,0,0,1,0-3.5h37.26a1.75,1.75,0,0,1,0,3.5Z" fill="#59b7e8"/>
      <path d="M55.193,70.967H17.933a1.75,1.75,0,0,1,0-3.5h37.26a1.75,1.75,0,0,1,0,3.5Z" fill="#59b7e8"/>
      <path d="M65.933,59.967h-48a1.75,1.75,0,0,1,0-3.5h48a1.75,1.75,0,0,1,0,3.5Z" fill="#59b7e8"/>
    </g>
    <rect x="83.519" y="86.848" width="26.548" height="9.868" fill="#a4def7"/>
    <circle cx="96.793" cy="65.991" r="13.274" transform="translate(-18.312 87.771) rotate(-45)" fill="#f37249"/>
  </g>
</svg>
