<svg xmlns="http://www.w3.org/2000/svg" width="128" height="128" viewBox="0 0 128 128">
  <title>Web Layout</title>
  <g>
    <path d="M14,17H114a8,8,0,0,1,8,8v77a9,9,0,0,1-9,9H15a9,9,0,0,1-9-9V25A8,8,0,0,1,14,17Z" fill="#e1f7ff"/>
    <path d="M114,17H14a8,8,0,0,0-8,8V38.433H122V25A8,8,0,0,0,114,17Z" fill="#0081d0"/>
    <circle cx="21.57" cy="27.717" r="4" fill="#f37249"/>
    <circle cx="37.626" cy="27.717" r="4" fill="#ffcc5b"/>
    <path d="M122,25a8,8,0,0,0-8-8H60.262L50.124,38.433H122Z" fill="#a4def7"/>
    <path d="M112.267,29.466H67.523a1.75,1.75,0,0,1,0-3.5h44.744a1.75,1.75,0,0,1,0,3.5Z" fill="#59b7e8"/>
    <rect x="17.933" y="52.717" width="32" height="44" fill="#ffcc5b"/>
    <rect x="62.067" y="52.717" width="48" height="11" fill="#f37249"/>
    <polygon points="49.933 93.741 36.097 74.716 49.933 55.692 49.933 52.717 47.768 52.717 33.933 71.741 20.097 52.717 17.933 52.717 17.933 55.692 31.769 74.716 17.933 93.74 17.933 96.717 20.097 96.717 33.933 77.692 47.769 96.717 49.933 96.717 49.933 93.741" fill="#f37249"/>
    <path d="M110.067,76.466h-48a1.75,1.75,0,1,1,0-3.5h48a1.75,1.75,0,0,1,0,3.5Z" fill="#59b7e8"/>
    <path d="M110.067,87.466h-48a1.75,1.75,0,1,1,0-3.5h48a1.75,1.75,0,0,1,0,3.5Z" fill="#59b7e8"/>
    <path d="M110.067,98.466h-48a1.75,1.75,0,1,1,0-3.5h48a1.75,1.75,0,0,1,0,3.5Z" fill="#59b7e8"/>
  </g>
</svg>
