<svg xmlns="http://www.w3.org/2000/svg" width="128" height="128" viewBox="0 0 128 128">
  <title>Web Video</title>
  <g>
    <g>
      <path d="M14,17H114a8,8,0,0,1,8,8v77a9,9,0,0,1-9,9H15a9,9,0,0,1-9-9V25a8,8,0,0,1,8-8Z" fill="#e1f7ff"/>
      <path d="M114,17H14a8,8,0,0,0-8,8V38.433H122V25A8,8,0,0,0,114,17Z" fill="#0081d0"/>
      <circle cx="21.57" cy="27.717" r="4" fill="#f37249"/>
      <circle cx="37.626" cy="27.717" r="4" fill="#ffcc5b"/>
      <path d="M122,25a8,8,0,0,0-8-8H60.262L50.124,38.433H122Z" fill="#a4def7"/>
      <path d="M112.267,29.466H67.522a1.75,1.75,0,0,1,0-3.5h44.745a1.75,1.75,0,0,1,0,3.5Z" fill="#59b7e8"/>
    </g>
    <rect x="17.5" y="50.717" width="93" height="37" fill="#59b7e8"/>
    <path d="M106.222,100.466H21.778a1.75,1.75,0,0,1,0-3.5h84.444a1.75,1.75,0,0,1,0,3.5Z" fill="#0081d0"/>
    <polygon points="54 58.217 74 69.217 54 80.217 54 58.217" fill="#f37249"/>
  </g>
</svg>
