<svg xmlns="http://www.w3.org/2000/svg" width="128" height="128" viewBox="0 0 128 128">
  <title>Web Secure</title>
  <g>
    <g>
      <path d="M14,17H114a8,8,0,0,1,8,8v77a9,9,0,0,1-9,9H15a9,9,0,0,1-9-9V25A8,8,0,0,1,14,17Z" fill="#e1f7ff"/>
      <path d="M114,17H14a8,8,0,0,0-8,8V38.433H122V25A8,8,0,0,0,114,17Z" fill="#0081d0"/>
      <circle cx="21.57" cy="27.717" r="4" fill="#f37249"/>
      <circle cx="37.626" cy="27.717" r="4" fill="#ffcc5b"/>
      <path d="M122,25a8,8,0,0,0-8-8H60.262L50.124,38.433H122Z" fill="#a4def7"/>
      <path d="M112.267,29.466H67.523a1.75,1.75,0,0,1,0-3.5h44.744a1.75,1.75,0,0,1,0,3.5Z" fill="#59b7e8"/>
    </g>
    <path d="M37.2,96.717C54,95.63,56.525,77.5,56.465,70.292c-.028-3.246,0-9.053,0-9.053A30.755,30.755,0,0,1,37.2,52.717a30.755,30.755,0,0,1-19.266,8.522s.027,5.807,0,9.053C17.872,77.5,20.4,95.63,37.2,96.717Z" fill="#f37249"/>
    <path d="M110.068,58.466h-37a1.75,1.75,0,0,1,0-3.5h37a1.75,1.75,0,0,1,0,3.5Z" fill="#59b7e8"/>
    <path d="M110.068,69.966h-37a1.75,1.75,0,0,1,0-3.5h37a1.75,1.75,0,0,1,0,3.5Z" fill="#59b7e8"/>
    <path d="M110.068,81.466h-37a1.75,1.75,0,0,1,0-3.5h37a1.75,1.75,0,0,1,0,3.5Z" fill="#59b7e8"/>
    <path d="M110.068,92.966h-37a1.75,1.75,0,0,1,0-3.5h37a1.75,1.75,0,0,1,0,3.5Z" fill="#59b7e8"/>
    <path d="M36.891,83.373a1.749,1.749,0,0,1-1.135-.418L27.65,76.048a1.75,1.75,0,0,1,2.269-2.664l6.57,5.6,7.644-12.1a1.75,1.75,0,0,1,2.959,1.868L38.371,82.557a1.75,1.75,0,0,1-1.217.8A1.664,1.664,0,0,1,36.891,83.373Z" fill="#ffcc5b"/>
  </g>
</svg>
