<svg width="24" height="24" viewBox="0 0 24 24" fill="none" xmlns="http://www.w3.org/2000/svg">
<rect x="0.5" y="0.5" width="23" height="23" rx="5.5" stroke="#EEEEEE"/>
<path d="M15.6403 15.1099C15.6752 15.1447 15.7028 15.1861 15.7217 15.2316C15.7405 15.2771 15.7502 15.3259 15.7502 15.3752C15.7502 15.4245 15.7405 15.4733 15.7217 15.5188C15.7028 15.5643 15.6752 15.6057 15.6403 15.6405C15.6055 15.6754 15.5641 15.703 15.5186 15.7219C15.4731 15.7407 15.4243 15.7504 15.375 15.7504C15.3258 15.7504 15.277 15.7407 15.2314 15.7219C15.1859 15.703 15.1446 15.6754 15.1097 15.6405L12 12.5304L8.89034 15.6405C8.81997 15.7109 8.72454 15.7504 8.62503 15.7504C8.52551 15.7504 8.43008 15.7109 8.35971 15.6405C8.28935 15.5702 8.24982 15.4747 8.24982 15.3752C8.24982 15.2757 8.28935 15.1803 8.35971 15.1099L11.4699 12.0002L8.35971 8.89052C8.28935 8.82016 8.24982 8.72472 8.24982 8.62521C8.24982 8.5257 8.28935 8.43026 8.35971 8.3599C8.43008 8.28953 8.52551 8.25 8.62503 8.25C8.72454 8.25 8.81997 8.28953 8.89034 8.3599L12 11.4701L15.1097 8.3599C15.1801 8.28953 15.2755 8.25 15.375 8.25C15.4745 8.25 15.57 8.28953 15.6403 8.3599C15.7107 8.43026 15.7502 8.5257 15.7502 8.62521C15.7502 8.72472 15.7107 8.82016 15.6403 8.89052L12.5302 12.0002L15.6403 15.1099Z" fill="#1B1B1B"/>
</svg>
