<svg width="10" height="9" viewBox="0 0 10 9" fill="none" xmlns="http://www.w3.org/2000/svg">
<path d="M9.5 0.5V7C9.5 7.13261 9.44733 7.25979 9.35356 7.35355C9.25979 7.44732 9.13261 7.5 9 7.5C8.8674 7.5 8.74022 7.44732 8.64645 7.35355C8.55268 7.25979 8.5 7.13261 8.5 7V1.70687L1.35375 8.85375C1.25993 8.94757 1.13269 9.00028 1 9.00028C0.867321 9.00028 0.740074 8.94757 0.646253 8.85375C0.552433 8.75993 0.499725 8.63268 0.499725 8.5C0.499725 8.36732 0.552433 8.24007 0.646253 8.14625L7.79313 1H2.5C2.3674 1 2.24022 0.947321 2.14645 0.853553C2.05268 0.759785 2 0.632608 2 0.5C2 0.367392 2.05268 0.240215 2.14645 0.146447C2.24022 0.0526785 2.3674 0 2.5 0H9C9.13261 0 9.25979 0.0526785 9.35356 0.146447C9.44733 0.240215 9.5 0.367392 9.5 0.5Z" fill="#FBFBFB"/>
</svg>
